/* XPM */
static char *_80107757265475af3aaa2d51e4cbb98Kgor7C1EngbrmgeE[] = {
/* columns rows colors chars-per-pixel */
"64 64 141 2 ",
"   c #2D2B2C",
".  c #343335",
"X  c #363638",
"o  c #3B393A",
"O  c #6A3534",
"+  c #613A3A",
"@  c #693B3A",
"#  c #723C3B",
"$  c #7B3C3C",
"%  c #3F3F40",
"&  c #444344",
"*  c #4A4748",
"=  c #4D4B4D",
"-  c #574647",
";  c #584749",
":  c #524B4C",
">  c #4F4F50",
",  c #524E50",
"<  c #545355",
"1  c #585657",
"2  c #565658",
"3  c #595758",
"4  c #58585A",
"5  c #644141",
"6  c #6B4242",
"7  c #7D4B4A",
"8  c #635555",
"9  c #6E5353",
"0  c #6F5A59",
"q  c #7A5555",
"w  c #775959",
"e  c #636262",
"r  c #6A6767",
"t  c #6C6B6B",
"y  c #766565",
"u  c #796363",
"i  c #726D6D",
"p  c #7A6868",
"a  c #757374",
"s  c #7B7676",
"d  c #787778",
"f  c #7D7B7B",
"g  c #8C2D29",
"h  c #97332F",
"j  c #833937",
"k  c #843A39",
"l  c #8A3C3A",
"z  c #903734",
"x  c #9D3632",
"c  c #9A3835",
"v  c #923F3D",
"b  c #A5302B",
"n  c #AC332D",
"m  c #B2342E",
"M  c #BA352E",
"N  c #A33531",
"B  c #AA3631",
"V  c #A33835",
"C  c #A83834",
"Z  c #B53832",
"A  c #B93832",
"S  c #C2362F",
"D  c #C63730",
"F  c #C53831",
"G  c #CC3931",
"H  c #D33A32",
"J  c #DC3C33",
"K  c #E53E35",
"L  c #EB3F35",
"P  c #94413E",
"I  c #EF4036",
"U  c #EF453B",
"Y  c #844645",
"T  c #824F4E",
"R  c #904240",
"E  c #817E7E",
"W  c #EF4A41",
"Q  c #F0534B",
"!  c #F05751",
"~  c #CB605D",
"^  c #F16863",
"/  c #F16E69",
"(  c #F17571",
")  c #F2827E",
"_  c #807F80",
"`  c #858484",
"'  c #8A8787",
"]  c #888788",
"[  c #8C8C8C",
"{  c #918E8E",
"}  c #949393",
"|  c #9A9797",
" . c #9C9B9B",
".. c #A19E9E",
"X. c #A2A2A2",
"o. c #A8A6A6",
"O. c #ADACAC",
"+. c #B4B3B3",
"@. c #BCBBBB",
"#. c #F38884",
"$. c #F38F8C",
"%. c #F49A97",
"&. c #C3A3A2",
"*. c #F5AAA8",
"=. c #F6B3B1",
"-. c #F7B8B7",
";. c #F7BDBB",
":. c #C4C3C3",
">. c #C9C7C7",
",. c #CCCBCB",
"<. c #D0CFCF",
"1. c #D3D3D3",
"2. c #DDDCDC",
"3. c #E1C2C1",
"4. c #F8C3C2",
"5. c #F8C8C7",
"6. c #F9CECD",
"7. c #FAD7D6",
"8. c #FADADA",
"9. c #E4E4E4",
"0. c #E9E6E6",
"q. c #E9E9E9",
"w. c #EBEBEB",
"e. c #ECECEC",
"r. c #FCE5E5",
"t. c #FCE7E6",
"y. c #F0EFEF",
"u. c #FAEBEB",
"i. c #FCE9E8",
"p. c #FDECEC",
"a. c gray95",
"s. c #F4F4F4",
"d. c gray97",
"f. c #FDF1F1",
"g. c #FEF6F6",
"h. c gray98",
"j. c #FBFBFB",
"k. c #FEFAF9",
"l. c #FEFAFA",
"z. c #FDFDFD",
"x. c #FFFEFE",
/* pixels */
"X.X.X.X.X.X.X.X.X.X.X.X.X.X.X.X.X.X.X.X.X.X.X.X.X.X.X.X.X.X.X.X.X.X.X.X.X.X.X.X.X.X.X.X.X.X.X.X.X.X.X.X.X.X.X.X.X.X.X.X.X.X.X.X.",
"X.X.X.X.X.X.X.X.X.X.X.X.X.X.X.X.X.X.X.X.X.X.X.X.X.X.X.X.X.X.X.X.X.X.X.X.X.X.X.X.X.X.X.X.X.X.X.X.X.X.X.X.X.X.X.X.X.X.X.X.X.X.X.X.",
"X.X.X.X.X.X.X.X.X.X.X.X.X.X.X.X.X.X.X.X.X.X.X.X.X.X.X.X.X.X.X.X.X.X.X.X.X.X.X.X.X.X.X.X.X.X.X.X.X.X.X.X.X.X.X.X.X.X.X.X.X.X.X.X.",
"X.X.X.X.X.X.X.X.X.X.X.X.X.X.X.X.X.X.X.X.X.X.X.X.X.X.X.X.X.X.X.X.X.X.X.X.X.X.X.X.X.X.X.X.X.X.X.X.X.X.X.X.X.X.X.X.X.X.X.X.X.X.X.X.",
"X.X.X.X.X.X.X.X.X.X.X.X.X.X.X.X.X.X.X.X.X.X.X. .X.X... .{ ` E s s E _ [ } ..X.X.X.X.X.X.X.X.X.X.X.X.X.X.X.X.X.X.X.X.X.X.X.X.X.X.",
"X.X.X.X.X.X.X.X.X.X.X.X.X.X.X.X.X.X.X.X.X.X.X.| ` p 7 h m A G H H G D M b l q s {  .X.X.X.X.X.X.X.X.X.X.X.X.X.X.X.X.X.X.X.X.X.X.",
"X.X.X.X.X.X.X.X.X.X.X.X.X.X.X.X.X.X.X.X.X.] u v M J I I I I I I I I I I I I I G n T d | ..X.X.X.X.X.X.X.X.X.X.X.X.X.X.X.X.X.X.X.",
"X.X.X.X.X.X.X.X.X.X.X.X.X.X.X.X.X.X...] q C J I I I I I I I I I I I I I I I I I I I G P i } X.X.X.X.X.X.X.X.X.X.X.X.X.X.X.X.X.X.",
"X.X.X.X.X.X.X.X.X.X.X.X.X.X.X.X.X.} 0 B K I I I I I I I I I I I I I I I I I I I I I I I H v a  .X.X.X.X.X.X.X.X.X.X.X.X.X.X.X.X.",
"X.X.X.X.X.X.X.X.X.X.X.X.X.X.X.X.d v ( =.-.*./ I I I I I I I I I I I I I I I I I I I I I I L G 9 } X.X.X.X.X.X.X.X.X.X.X.X.X.X.X.",
"X.X.X.X.X.X.X.X.X.X.X.X.X.X. .r &.u.x.x.z.x.j.;.W I I I I I I I I I I I I I I I I I I I I I I K k ` ..X.X.X.X.X.X.X.X.X.X.X.X.X.",
"X.X.X.X.X.X.X.X.X.X.X.X.X.| f 2.x.x.x.x.x.x.x.x.*.I I I I I I I I I I I I I I I I I I I I I I I I b f ..X.X.X.X.X.X.X.X.X.X.X.X.",
"X.X.X.X.X.X.X.X.X.X.X.X.} E w.x.x.x.x.x.x.x.x.x.r.W I I I I I I I I I I I I I I I I I I I I I I I I B d X.X.X.X.X.X.X.X.X.X.X.X.",
"X.X.X.X.X.X.X.X.X.X.X. .y 0.x.x.x.x.x.x.x.x.x.x.g.Q I I I I I I I I I I I I I I I I I I I I I I I I I m s ..X.X.X.X.X.X.X.X.X.X.",
"X.X.X.X.X.X.X.X.X.X. .0 3.x.x.x.x.x.x.x.x.x.x.x.f.Q I I I I I I I I I I I I I I I I I I I I I I I I I I x _ X.X.X.X.X.X.X.X.X.X.",
"X.X.X.X.X.X.X.X.X...i ~ l.x.x.x.x.x.x.x.x.x.x.x.7.U I I I I I I I I I I I I I I I I I I I I I I I I I I I l } X.X.X.X.X.X.X.X.X.",
"X.X.X.X.X.X.X.X...] V *.x.x.x.x.x.x.x.x.x.x.x.x.%.L L I I I I I I I I I I I I I I I I I I I I I I I I I I J 9  .X.X.X.X.X.X.X.X.",
"X.X.X.X.X.X.X.X. .7 K 4.x.x.x.x.x.x.x.x.x.x.x.8.Q I L I I I I I I I I I I I I I I I I I I I I I I I I I I I S d X.X.X.X.X.X.X.X.",
"X.X.X.X.X.X.X...a G I ;.x.x.x.x.x.x.x.x.x.x.p.( I I I I I I I I I I I I I I I I I I I I I I I I I I I I I I I P } X.X.X.X.X.X.X.",
"X.X.X.X.X.X.X.| R I I $.x.x.x.x.x.x.x.x.x.i.) I I I I I I I I I I I I J Z c z c Z H L I I I I I I I I I I I I G i X.X.X.X.X.X.X.",
"X.X.X.X.X.X.X.d G I I U 6.x.x.x.x.x.x.l.6./ I I I I I I I I I L I G j : < < 4 4 < : j G I I I I I I I I I I I I P } X.X.X.X.X.X.",
"X.X.X.X.X.X. .Y I I I I Q =.r.g.g.r.5.#.W I I I I I I I I I I L B ; < 4 4 4 < < 2 4 < ; B I I I I I I I I I I I G s X.X.X.X.X.X.",
"X.X.X.X.X.X.] M I I I I I I Q ^ ^ ! I I I I I I I I I I I I L B : 2 4 , e  .+.O.] > 2 4 : N I I I I I I I I I I I T ..X.X.X.X.X.",
"X.X.X.X.X...y J I I I I I I I I I I I I I I I I I I I I I I D ; 4 4 < @.s.x.s.s.j.9.f < 4 = S I I I I I I I I I I n { X.X.X.X.X.",
"X.X.X.X.X. .k I I I I I I I I I I I I I I I I I I I I I L L # 4 4 < >.z.,.>.1.<.:.q.s.] < 4 + K I I I I I I I I I G s X.X.X.X.X.",
"X.X.X.X.X.{ n I I I I I I I I I I I I I L K J G Z C c z j @ , 4 2 X.x.,.s.x.x.x.z.2.9.9.e 4 : F I I I I I I I I I I w ..X.X.X.X.",
"X.X.X.X.X.E G I I I I I I I I L I J F V k 5 * = < < 2 4 4 4 4 4 * q.2.e.x.x.x.x.x.z.<.s.X.< 2 $ H K I I I I I I I I k ..X.X.X.X.",
"X.X.X.X.X.t J I I I I I I K G V # - , < 4 4 4 4 2 4 4 4 4 2 4 4 e x.>.x.x.x.x.x.x.z.w.9.>.< 4 < : # c F K I I I I I b } X.X.X.X.",
"X.X.X.X.X.8 I I I I K G c 6 , < 4 4 4 4 4 4 4 4 2 4 4 4 4 4 4 4 f z.<.x.x.x.x.x.x.x.w.9.1.< 4 4 4 4 < > 5 x H I I I Z [ X.X.X.X.",
"X.X.X.X.X.6 I I G V 6 , 2 4 4 4 4 4 4 4 4 4 4 4 4 4 4 4 4 2 4 4 e x.<.x.x.x.x.x.x.x.q.q.,.< 4 4 4 4 4 4 4 < ; j S I D _ X.X.X.X.",
"X.X.X.X.X.O m O : 2 4 4 4 4 4 4 4 4 4 4 4 4 4 4 4 4 4 4 4 4 4 4 = q.2.e.x.x.x.x.x.x.<.s.X.< 4 4 4 4 4 4 4 4 4 4 : @ g f X.X.X.X.",
"X.X.X.X.X.  . % 4 4 4 4 2 4 4 4 4 4 4 2 2 4 4 2 2 2 2 < < < 2 2 2 X.d.,.s.x.x.x.x.2.9.w.e 4 4 4 4 4 4 4 4 4 4 4 4 4 > f X.X.X.X.",
"X.X.X.X...  . o > 4 4 4 4 4 4 4 4 2 < < < e r _ | O.@.>.,.,.r 4 4 < ,.s.1.1.9.2.,.9.s.[ < 4 2 4 2 4 4 2 4 4 4 4 4 4 < d X.X.X.X.",
"X.X.X.X.X.o X X % < 4 4 4 4 < 2 e _ ..:.2.e.d.x.x.x.x.x.x.x.@.< 4 4 < @.a.s.e.a.j.2.] < 2 < _ f e > 2 4 4 4 4 4 2 4 < d X.X.X.X.",
"X.X.X.X.X.> X X o % > < = 4 f ,.w.j.x.x.x.x.x.x.x.x.x.x.x.x.s.[ < 4 4 < a  .+.O.[ 2 < 4 < ` s.d.w.,.X.f > < 4 4 4 4 < _ X.X.X.X.",
"X.X.X.X...e X o . X 4 s {  .O.a.z.z.x.x.x.x.x.x.x.x.x.x.x.x.x.a.` < 4 4 2 4 < < 4 4 4 < ` e.x.x.x.z.x.s.9.+.f = < 4 > [ X.X.X.X.",
"X.X.X.X.X.a . = a }  .........9.x.x.x.x.x.x.x.x.x.x.x.x.x.x.x.x.s.O.> < 2 2 2 4 4 4 < o.s.x.x.x.x.x.x.x.x.x.s.9.O.e %  .X.X.X.X.",
"X.X.X.X.X.' i  ...............:.z.x.x.x.x.x.x.x.x.x.x.x.x.x.x.x.x.x.e.+.a & & & t O.9.x.x.x.x.x.x.x.x.x.x.x.x.x.j.a.t  .X.X.X.X.",
"X.X.X.X.X. .r ................o.e.x.x.x.x.x.x.x.x.x.x.x.x.x.x.x.x.x.x.x.x.s.s.j.x.x.x.x.x.x.x.x.x.x.x.x.x.x.x.x.z.9.d X.X.X.X.X.",
"X.X.X.X.X. .e  .................,.z.x.x.x.x.x.x.x.x.x.x.x.x.x.x.x.x.x.x.x.x.z.z.x.x.x.x.x.x.x.x.x.x.x.x.x.x.x.x.z.:.] X.X.X.X.X.",
"X.X.X.X.X.X.f ] ................o.y.x.x.x.x.x.x.x.x.x.x.x.x.x.x.x.x.x.x.x.x.x.x.x.x.x.x.x.x.x.x.x.x.x.x.x.x.x.x.z.[  .X.X.X.X.X.",
"X.X.X.X.X.X.} r ................ .:.x.x.x.x.x.x.x.x.x.x.x.x.x.x.x.x.x.x.x.x.x.x.x.x.x.x.x.x.x.x.x.x.x.x.x.x.x.x.9.a X.X.X.X.X.X.",
"X.X.X.X.X.X.X.t }  ............. .X.2.x.x.x.x.x.x.x.x.x.x.x.x.x.x.x.x.x.x.x.x.x.x.x.x.x.x.x.x.x.x.x.x.x.x.x.x.x.O.[  .X.X.X.X.X.",
"X.X.X.X.X.X.X.[ a ..................X.e.x.x.x.x.x.x.x.x.x.x.x.x.x.x.x.x.x.x.x.x.x.x.x.x.x.x.x.x.x.x.x.x.x.x.x.a.a X.X.X.X.X.X.X.",
"X.X.X.X.X.X.X. .r } ..................O.s.x.x.x.x.x.x.x.x.x.x.x.x.x.x.x.x.x.x.x.x.x.x.x.x.x.x.x.x.x.x.x.x.x.z.O.] X.X.X.X.X.X.X.",
"X.X.X.X.X.X.X.X.[ t  ...................+.s.x.x.x.x.x.x.x.x.x.x.x.x.x.x.x.x.x.x.x.x.x.x.x.x.x.x.x.x.x.x.x.x.1.e X.X.X.X.X.X.X.X.",
"X.X.X.X.X.X.X.X.X.i ] ....................+.y.x.x.x.x.x.x.x.x.x.x.x.x.x.x.x.x.x.x.x.x.x.x.x.x.x.x.x.x.x.z.1.e [ X.X.X.X.X.X.X.X.",
"X.X.X.X.X.X.X.X.X. .8 } .................. .O.0.x.x.x.x.x.x.x.x.x.x.x.x.x.x.x.x.x.x.x.x.x.x.x.x.x.x.x.s.>.a d X.X.X.X.X.X.X.X.X.",
"X.X.X.X.X.X.X.X.X.X.[ e  . ...................X.<.d.x.x.x.x.x.x.x.x.x.x.x.x.x.x.x.x.x.x.x.x.x.x.x.x.9.+.` e ..X.X.X.X.X.X.X.X.X.",
"X.X.X.X.X.X.X.X.X.X.X.` e  .......................+.2.l.x.x.x.x.x.x.x.x.x.x.x.x.x.x.x.x.x.x.x.x.a.,.o.] 4  .X.X.X.X.X.X.X.X.X.X.",
"X.X.X.X.X.X.X.X.X.X.X.X.E e  .......................X.+.2.s.x.x.x.x.x.x.x.x.x.x.x.x.x.x.x.x.e.>.o...] < | X.X.X.X.X.X.X.X.X.X.X.",
"X.X.X.X.X.X.X.X.X.X.X.X.X._ e | ..........................o.:.9.s.x.x.x.x.x.x.x.x.x.x.e.1.+.X.....' <  .X.X.X.X.X.X.X.X.X.X.X.X.",
"X.X.X.X.X.X.X.X.X.X.X.X.X...] 4 } .............................. .O.@.,.<.1.1.<.:.+.X......... .s e  .X.X.X.X.X.X.X.X.X.X.X.X.X.",
"X.X.X.X.X.X.X.X.X.X.X.X.X.X.X.[ 4 E ............................X...............X...........} e t  .X.X.X.X.X.X.X.X.X.X.X.X.X.X.",
"X.X.X.X.X.X.X.X.X.X.X.X.X.X.X.X. .t e [ ................................................ .d 2 ] X.X.X.X.X.X.X.X.X.X.X.X.X.X.X.X.",
"X.X.X.X.X.X.X.X.X.X.X.X.X.X.X.X.X...{ e r [  .......................................| E 2 d  .X.X.X.X.X.X.X.X.X.X.X.X.X.X.X.X.X.",
"X.X.X.X.X.X.X.X.X.X.X.X.X.X.X.X.X.X.X...{ e 4 E }  ... .........................[ t 2 d | X.X.X.X.X.X.X.X.X.X.X.X.X.X.X.X.X.X.X.",
"X.X.X.X.X.X.X.X.X.X.X.X.X.X.X.X.X.X.X.X.X.X.} f 4 < t ` {  . . ..... .} ' f w * r ]  .X.X.X.X.X.X.X.X.X.X.X.X.X.X.X.X.X.X.X.X.X.",
"X.X.X.X.X.X.X.X.X.X.X.X.X.X.X.X.X.X.X.X.X.X.X.X.X. .] a e = & o o o * 3 t d [ X.X.X.X.X.X.X.X.X.X.X.X.X.X.X.X.X.X.X.X.X.X.X.X.X.",
"X.X.X.X.X.X.X.X.X.X.X.X.X.X.X.X.X.X.X.X.X.X.X.X.X.X.X.X.X.X.X.X.X.X.X.X.X.X.X.X.X.X.X.X.X.X.X.X.X.X.X.X.X.X.X.X.X.X.X.X.X.X.X.X.",
"X.X.X.X.X.X.X.X.X.X.X.X.X.X.X.X.X.X.X.X.X.X.X.X.X.X.X.X.X.X.X.X.X.X.X.X.X.X.X.X.X.X.X.X.X.X.X.X.X.X.X.X.X.X.X.X.X.X.X.X.X.X.X.X.",
"X.X.X.X.X.X.X.X.X.X.X.X.X.X.X.X.X.X.X.X.X.X.X.X.X.X.X.X.X.X.X.X.X.X.X.X.X.X.X.X.X.X.X.X.X.X.X.X.X.X.X.X.X.X.X.X.X.X.X.X.X.X.X.X.",
"X.X.X.X.X.X.X.X.X.X.X.X.X.X.X.X.X.X.X.X.X.X.X.X.X.X.X.X.X.X.X.X.X.X.X.X.X.X.X.X.X.X.X.X.X.X.X.X.X.X.X.X.X.X.X.X.X.X.X.X.X.X.X.X.",
"X.X.X.X.X.X.X.X.X.X.X.X.X.X.X.X.X.X.X.X.X.X.X.X.X.X.X.X.X.X.X.X.X.X.X.X.X.X.X.X.X.X.X.X.X.X.X.X.X.X.X.X.X.X.X.X.X.X.X.X.X.X.X.X."
};
