/* XPM */
static char *result[] = {
/* columns rows colors chars-per-pixel */
"64 64 127 2 ",
"   c #404868",
".  c #4A4F6B",
"X  c #44576C",
"o  c #4E536D",
"O  c #465B6E",
"+  c #52566E",
"@  c #4D5772",
"#  c #545B72",
"$  c #585971",
"%  c #6B4A63",
"&  c #6D5E65",
"*  c #496571",
"=  c #5F6274",
"-  c #566079",
";  c #5B647E",
":  c #507A79",
">  c #766567",
",  c #786564",
"<  c #72656A",
"1  c #626575",
"2  c #656A7F",
"3  c #6B6C7B",
"4  c #6F727F",
"5  c #73747E",
"6  c #9B4C59",
"7  c #886E62",
"8  c #8F786C",
"9  c #957865",
"0  c #987860",
"q  c #8E6272",
"w  c #BF6667",
"e  c #B97176",
"r  c #B7747A",
"t  c #B5787F",
"y  c #C7524B",
"u  c #C85048",
"i  c #C35E5C",
"p  c #50837B",
"a  c #606B82",
"s  c #657187",
"d  c #6B768C",
"f  c #6F7B8F",
"g  c #767883",
"h  c #787880",
"j  c #70778B",
"k  c #7C7F89",
"l  c #6F7C90",
"z  c #717E92",
"x  c #797F92",
"c  c #B17D86",
"v  c #549082",
"b  c #5A9586",
"n  c #5F9C8A",
"m  c #619D8C",
"M  c #78938B",
"N  c #758194",
"B  c #7D8496",
"V  c #778598",
"C  c #798699",
"Z  c #7E8B9E",
"A  c #5FBA92",
"S  c #66A190",
"D  c #76AB94",
"F  c #64BC96",
"G  c #6ABD97",
"H  c #6AB699",
"J  c #67BD98",
"K  c #6BBE9A",
"L  c #70BD9C",
"P  c #67C099",
"I  c #6CC29C",
"U  c #71C59F",
"Y  c #6FC6A0",
"T  c #74C7A2",
"R  c #78C7A2",
"E  c #73C8A1",
"W  c #79CAA6",
"Q  c #7BCDA9",
"!  c #7FD1AC",
"~  c #8A8A95",
"^  c #848D99",
"/  c #87929F",
"(  c #AF818A",
")  c #AD9B86",
"_  c #A78A96",
"`  c #A98893",
"'  c #A1909D",
"]  c #B7A287",
"[  c #BBA487",
"{  c #BBA488",
"}  c #818FA1",
"|  c #8794A6",
" . c #8A96A4",
".. c #8C9CAC",
"X. c #9D94A2",
"o. c #919FAF",
"O. c #9899A8",
"+. c #90A0B0",
"@. c #9FA8B4",
"#. c #99A7B8",
"$. c #9DACBC",
"%. c #A1AAB6",
"&. c #B1AFB3",
"*. c #C0A888",
"=. c #81CEAA",
"-. c #84D2AE",
";. c #86D5B1",
":. c #89D6B2",
">. c #88D8B3",
",. c #C4C1BF",
"<. c #A5B4C4",
"1. c #A9B9C9",
"2. c #B0BFCF",
"3. c #B2C2D2",
"4. c #BFC9D6",
"5. c #BCCBDB",
"6. c #C0CEDD",
"7. c #C8D0DC",
"8. c #C6D6E6",
"9. c #CAD6E4",
"0. c #C8D8E8",
"q. c #D9D9E0",
"w. c #D1DDEC",
"e. c #DAE3EF",
"r. c #E4E4EC",
"t. c #E1E7F2",
"y. c #F0F0F8",
/* pixels */
"E E E E E E E E E E T T T T E T U I I P E U E E U W U E E E U U W U U U U U U U I P E U E E U E E E E E E E E U E E W W U I U P ",
"W T U E E E E E E E T T T ;.W T E E E U E E E E W U E E E E W U W W =.:.=.U U U E E E E E E E E E E E U E E E E U ;.U W E E E U ",
"-.T E E E E E Y E E E T -.-.-.Q U E E U E E E E E E E E E E E U U =.:.:.-.=.=.U E E E E E U E E U E E E E E E Q :.-.-.W E E E E ",
"E E E E E Y T T E E Y E T E T E E E R T E E U E E E E E E E E E U U U U U U U U T R E E E E E E W E E E E E E E U W W U E E E E ",
"E E Y E T T T T Y T T T E T T T E E R R E E E E E E E E E E E E E E U W U U U =.T W E T T Y E E U W E E E E E E U W =.U U U W U ",
"T T Y E E T T E E T T T T W T T R E E T Q E E E E U E E E E E E E E E R =.U U U T T W E T T E E E U E E E E E E W U U U R E =.U ",
"T K A Y Y E E E E E T Q T W W T E E T T ! Q E I P U U E E E E E E W U =.=.U =.U T T ! W E Y P U U E E E E E E E W W =.U U W W U ",
"T Y T J E E E T E E T T Q R Q T E E T Q T Q E U E P E E E E E E E E W W W =.U U T Q T Q E Y U I E E E E E E E E W W U =.U U U =.",
"E E E E E E ! T E T U R E E E E W U U U W E E E T T T W -.E R U E W U E R T T U E E E T W U E E U W ;.U E E E E U W E E E E E E ",
"E E E R T ! W W W T E E E E E E E E W U W U E E T T T Q W ! R R R U E E T R E E E E E U U W E E W Q W -.W E E E E U E E U E E E ",
"E E U R T U T E E E E R E U E E E U E E U E E E T T T T E E E E U U E D 5 h p 5 h h h 5 5 5 g 5 5 W U U E E E E E E E E E E E E ",
"E U T T R E T T E E E E E E E E E E E E E E E E T W W T T E R U W W U m 2 7.q.6.6.6.6.7.6.6.9.r.r.* U U E E E E E E E E E E E E ",
"E E E E T T I T E E W U E E E U E E E U E E E E T T T E I E E T U U U n ; 0.0.0.0.0.0.0.0.0.e.t.y.  b G E E U E E E E U E E E E ",
"E E E T T J F Y I E R W E E E E E E E E E E E E Y T E J P P I E U W U n ; 0.0.0.0.0.0.0.0.0.0.0.y.    v U U E E E E E E E E E U ",
"T T T T E T h h h h h h h h 5 h h h h 5 h g h h h g g g h h h 5 5 5 5 1 ; 0.0.0.0.0.0.0.0.0.0.0.y.   .N * U E E E E E E U E E E ",
"E T T T T   y.0.0.0.0.0.0.0.0.0.0.0.0.0.0.0.0.0.0.0.0.0.0.0.0.9.e.9.w.$.; 0.0.0.0.0.0.0.0.0.0.0.y.   .+./ X E E E U E E E E E E ",
"E E E E Y   e.@.%.%.%.%.%.%.@.%.%.%.@.@.%.%.%.%.%.%.%.%.%.%.%.%.%.%.%.C ; 0.0.0.0.0.0.0.0.0.0.0.y.  | +.o.N p U U U W U E E E E ",
"E E E E K   8.g 5 5 5 5 5 5 5 5 5 5 5 5 5 5 5 5 5 5 5 5 5 5 5 5 5 5 5 = ; 0.0.0.0.0.0.0.0.0.0.0.y.  | +.+.+.o P U U U W U U U U ",
"E E E E K   8.                                                          ; 0.0.0.0.0.0.0.0.0.0.0.y.  | +.+.+.h 5 D W U U U U E P ",
"E E E E K   0.                                                          ; 0.0.0.0.0.0.0.0.0.0.0.y.  4 / o.#.h 9.%.5 5 W U E E U ",
"E E E E L   0.7 7 7 7 7 7 7 7 7 7 7 7 7 7 7 7 7 7 7 7 7 7 7 7 7 7 7 7 & ; 0.0.0.0.0.0.0.0.0.0.0.y.  o 4 B o.h 0.5.4.q.M U E E E ",
"E E T T L   0.0 0 0 0 0 0 0 0 0 0 0 0 0 0 0 0 0 0 0 0 0 0 0 0 0 0 0 0 , ; 0.0.0.0.0.0.0.0.0.0.0.y.    # 4 / 5 0.0.0.y.5 W U W U ",
"E T E E K   0.9 0 0 0 0 0 0 0 0 0 0 0 0 0 0 0 0 0 0 0 0 0 0 0 0 0 0 0 , ; 0.0.0.0.0.0.0.0.0.0.0.y.      X 5 5 9.0.w.y.N U W U W ",
"T T E E K   0.h h h h h h h h h h h h 5 h h 5 5 h h h h h h h h N 5 5 1 ; 0.0.0.0.0.0.0.0.0.0.0.y.          5 9.0.w.t.c U U W U ",
"T J A Y H   0.] { [ [ [ [ [ [ [ [ [ [ [ [ [ [ [ [ [ [ [ [ [ [ [ *.0 9 > ; 0.0.0.0.0.0.0.0.0.0.0.y.          g 8.0.w.y.h R R W W ",
"T Y E I L   0.*.*.*.*.*.*.*.*.*.*.*.*.*.*.*.*.*.*.*.*.*.*.*.*.*.*.0 0 , ; 0.0.0.0.0.0.0.0.0.0.0.y.          1 8.0.w.y.k E E E W ",
"E E E E L   0.*.*.*.*.*.*.*.*.*.*.*.*.*.*.*.*.*.*.*.*.*.*.*.*.*.*.0 0 , ; 0.0.0.0.0.0.0.0.0.0.0.y.            6.0.w.y.8 E E E E ",
"E E T T L   0.h h h h h h h h h h h h h h h h h h h h h h h 5 h 5 5 8 ; ; 0.0.0.0.0.0.0.0.0.0.0.y.            8.0.w.y.p E E E E ",
"E E T T L   0.*.*.*.*.*.*.*.*.*.*.*.*.*.*.*.*.*.*.*.*.*.*.*.*.*.*.0 0 , ; 0.0.0.0.0.0.0.0.0.0.8.y.            8.8.e.y.5 E E E E ",
"E E T T K   0.*.*.*.*.*.*.*.*.*.*.*.*.*.*.*.*.*.*.*.*.*.*.*.*.*.*.0 0 , ; 0.0.0.0.0.0.0.0.0.0.8.6.            8.8.e.y.h E E E E ",
"E E T T K   0.] ] ] ] ] ] ] ] ] [ ] ] ] ] ] ] ] ] ] ] ] ] ] ] ] [ 9 9 > ; 8.8.8.8.5.6.8.8.8.8.8.$.            8.0.w.y.5 E E U E ",
"U E T T L   0.g h h h h h h h h h h h h h h h h h h h h h h h h 5 g 5 = # <.1.1.1.1.1.1.<.1.<.1.o.            8.0.w.y.g U E E E ",
"E E T T K   0.*.*.*.*.*.*.*.{ [ *.*.*.*.*.*.*.*.*.*.*.*.*.*.*.*.*.0 0 , @ +.+.X             s +.+.1.;         8.8.0.y.h E E E E ",
"E E T R T   0.*.*.*.*.*.*.*.{ [ *.*.*.*.*.*.*.*.*.*.*.*.*.*.*.*.*.0 0 , @ +.+.              o ; +.#.#.V       8.0.w.y.h E T T T ",
"E E R U L   0.] ) ) ] ) ) ) ) ) ) ) ] ) ) ) ] ) ) ) ) ) ) ) ] ) ] 8 8 < @ +.+.X       .   $ $ $ Z +.$...l     8.0.w.y.h T Y T T ",
"E E U T L   0.5 5 5 h 5 5 N c p 5 5 5 5 N 5 5 5 h h h h h h 5 5 g 5 h 1 @ +.+.        $ $ 3 g 5   +.+.$.$.    8.0.w.y.g E I K Y ",
"E E T U L   9.*.*.*.*.*.*.*.*.*.*.*.*.*.*.*.*.*.*.*.*.*.*.*.*.*.*.0 0 > @ +.+..         $ $ 1 h g   | +.+.1.  8.8.e.y.g E P Y J ",
"E E T T I   9.*.*.*.*.*.*.[ *.*.*.*.*.*.*.*.*.*.*.*.*.*.*.[ *.*.*.0 0 > @ +.+.              o $ 5 5 # l +.+.<.1.1.3.0.  E E T T ",
"E E E U I   0.,.,.,.,.,.,.,.,.,.,.,.,.,.,.,.,.,.,.7.,.,.,.,.,.7.7.&.&.~ @ +.+.                o 1 1 . f +.+.$.$.$.<.5.  E E Y T ",
"E E E E I   0.0.0.9.9.9.8.8.8.8.0.0.0.q.8.8.8.7.7.8.0.8.8.7.7.8.7.7.8.#.@ +.+.o       .   .     X .   l +.+.+.+.+.+.1.  E E E E ",
"E U E E K   +.+.+.+.+.+.+.+.+.+.+.+.+.+.O.u u +.+.+.+.+.+.+.+.+.o.o.+.N @ +.+.g / +.+.o.+.+.+.+.+.+.k ^ +.o.o.o.+.+.o.  T U E E ",
"E E I E K   +.+.+.+.+.+.+.+.+.+.+.+.+.( i +.+.u ` +.+.+.+.+.+.+.o.o.+.N @ +.+.k / o.+.+.+.+.+.+.+.+.k ^ +.o.o.o.+.+.o.  T T E E ",
"W J F Y J   r r r r r r r r r r r r r ( ` r r _ c r r r r r r r r r r q @ +.+.8 / +.+.+.+.+.+.+.+.+.d s d j j j f f d   R T W W ",
"E E E I K   u u u u u u u u u u u u u t ' w w X.e u u u u u u u u u u 6 O +.+.5 / +.+.+.+.+.+.+.+.+.c a $ $ $ $ $ = x   E E T W ",
"T T Y T L   y y u u u u u u u u u u u u i +.+.u y y u u y y y y u u u 6 @ +.+.N / +.+.+.o.+.+.+.+.+.k 3 $ $ + $ $ x 8.  E T T T ",
"Y T T T L   +.+.+...+.+.+.+.o.o.+.+.+.o.O.u u +.+.+...+...+.+.+.+.+.o.N @ +.+.5 / +.+.+.+.+.+.+.+.+.k 3 $ $ $ $ $ B 0.  R T W T ",
"E E T T T K # - - - - - - - - - - - - - - % % - - - - - # - - - - - - @   - - o # - - - - - - - 2 +.k B } . . .   + d   E E T T ",
"E E T E E T                                       o $ $           # # o                         + Z g ^ |   | | | | |   E E E E ",
"E T T E E E                                       o 5 h         X 5 5 1                           + 5 ^ ..  8.0.0.0.0.  T T E E ",
"E E T E Y K J Y Y Y E E     # g +.+.6.#.      g | o.+.+.+.+.+.+.o.+.+.+...5       + h +.+.5.1.$     5 ^ ..  +.+.+.+.+.  Y T E E ",
"E E T T E T T Y Y T E E   } +.+.0.0.$.+.|           X           .               V +.+.8.8.<.+.+.                      T E E E E ",
"E E T T Q Q Q Q T T Y E   s N ^ 1.3.3.+.d   n n m m S S S m m n n n n n m m m   a z ^ 2.1.2.%.N   S S m n n n n m n m T E E E E ",
"E E T T W E Q T E J J E X   $ g ....5.+.  X E E E T T T W T Y Y P I I E E E E O   # 5 ....3.<.$ X E W T T Y P Y I E E E E E E E ",
"E E W E W E E T T U U I E :             * E E E E T T T T T T K E I E E E E E I p               T T T T T K Y Y E E E E E I I I ",
"E T T E T T T T T T E E E U E E E P U J E E E E E E T E T W T T T T T E E E E I I J E E E U E E T T T T T T T E R E U U U I U P ",
"E E Y E T Y T T E T T T W ;.T W E E E E E E E E E E E E T T T T T R Q -.Q E E E E E E E E E E E E E E E T E E W R :.W R E E E E ",
"E E E E E E E E E E E T ;.=.=.R E E E E E E E E E E E E U E U T T R :.=.=.R R E U E E E E E E E E E E E W U U =.>.Q >.U E U W U ",
"E E E E E E E T E E E T T U R U E E E E E E E E E E E E R E R E U T R U R U E E E E E E E U E E E E E U U W U U U U W U U W E E ",
"E E E T E E T E E E E E T T T T E E T T E E E E E E E E E E T R R R E E E E E E E E E E E E E E E E U W W U W U R U W U W E E E ",
"E E Y E Y T T T E E E E T R T T T E E T W T T T Y E E E E E E E R U E W E E R E T E W E E E E E U W W U U W U U W R U W U E E U ",
"E P P Y T T T T T E T Q W W Q T T T T Q Q Q E J I P Y T T T T W T W W W Q T T T E W ! Q T K I P U W U W W U U =.W W Q E U W W Q ",
"Y Y Y J T T T T T E T T W W W T T T T Q Y Q Y Y T I T T T T T T T W W W W T R E E ! E W T Y T P W U U W U W =.U W U W R W U E Q ",
"E E E Y T T -.E W T T T T W T W T T W E E E E E E Y Y Q -.T W E T T T T T T T T T T T T T T E E E W -.W W U U W U U R U E E E W ",
"E E E E E W E W E E T Y T Y T T Y T T E E E E E E T T ! T Q T E E T E E E E E E Y T T T T T E E T ! E ! U U W U U W E E E E U E "
};
