/* XPM */
static char *result[] = {
/* columns rows colors chars-per-pixel */
"64 64 157 2 ",
"   c black",
".  c #07080A",
"X  c #051113",
"o  c #0A171A",
"O  c #0E1B1E",
"+  c #12161A",
"@  c #16191B",
"#  c #191C1D",
"$  c #3A3B1C",
"%  c #121F22",
"&  c #142325",
"*  c #192326",
"=  c #1B2926",
"-  c #162529",
";  c #1A2629",
":  c #16292A",
">  c #1C2A2C",
",  c #1C2E32",
"<  c #1F2F39",
"1  c #1E3134",
"2  c #222425",
"3  c #222729",
"4  c #2B262A",
"5  c #212C2D",
"6  c #2E2B2F",
"7  c #21312E",
"8  c #313324",
"9  c #35382A",
"0  c #222E31",
"q  c #2B2F32",
"w  c #202E39",
"e  c #243235",
"r  c #293336",
"t  c #253539",
"y  c #29373A",
"u  c #26393B",
"i  c #2B3B3D",
"p  c #323335",
"a  c #343B32",
"s  c #343C3D",
"d  c #25463B",
"f  c #29473C",
"g  c #2A483E",
"h  c #3A4236",
"j  c #33423F",
"k  c #3C433A",
"l  c #44472C",
"z  c #4A4F33",
"x  c #5A5E3D",
"c  c #2C3E41",
"v  c #303F41",
"b  c #2E4043",
"n  c #2D4B41",
"m  c #334143",
"M  c #3C4344",
"N  c #314D44",
"B  c #35474B",
"V  c #3A4749",
"C  c #36494B",
"Z  c #3B4A4C",
"A  c #2C5245",
"S  c #365348",
"D  c #3A4F51",
"F  c #3D5355",
"G  c #434D4C",
"H  c #4E4B4E",
"J  c #4D5543",
"K  c #565944",
"L  c #575D4E",
"P  c #454F51",
"I  c #425355",
"U  c #4A5453",
"Y  c #4E5850",
"T  c #4E5658",
"R  c #4D585A",
"E  c #505052",
"W  c #5D575B",
"Q  c #525C5E",
"!  c #63595F",
"~  c #636654",
"^  c #6D7259",
"/  c #595E62",
"(  c #645C61",
")  c #576264",
"_  c #5A6466",
"`  c #516B61",
"'  c #5B6768",
"]  c #5C696A",
"[  c #4C7665",
"{  c #477C66",
"}  c #517C6A",
"|  c #6A6267",
" . c #6D6469",
".. c #646A6D",
"X. c #74676E",
"o. c #65746E",
"O. c #727865",
"+. c #766970",
"@. c #6D7577",
"#. c #667478",
"$. c #6C777B",
"%. c #6C7A7D",
"&. c #727375",
"*. c #717A7C",
"=. c #7C7D7F",
"-. c #5E947D",
";. c #949776",
":. c #939678",
">. c #6F7F82",
",. c #717D81",
"<. c #6F8989",
"1. c #738285",
"2. c #748689",
"3. c #748A8B",
"4. c #7A8B8E",
"5. c #778F90",
"6. c #7D8E92",
"7. c #7A9393",
"8. c #5FBA92",
"9. c #6BAB8F",
"0. c #60B691",
"q. c #63BB96",
"w. c #6BBA96",
"e. c #67BD98",
"r. c #6ABE9A",
"t. c #72BE9B",
"y. c #79BD9E",
"u. c #67C09A",
"i. c #6CC39C",
"p. c #72C49F",
"a. c #6FC6A1",
"s. c #74C7A1",
"d. c #7BC4A3",
"f. c #73C8A1",
"g. c #79CAA5",
"h. c #7BCDA9",
"j. c #808183",
"k. c #839396",
"l. c #85979A",
"z. c #839A9A",
"x. c #8A9B9D",
"c. c #93989C",
"v. c #8D9EA0",
"b. c #929FA2",
"n. c #9E9FA1",
"m. c #8EA1A2",
"M. c #93A4A6",
"N. c #9EAFB1",
"B. c #9FB0B2",
"V. c #80C6A6",
"C. c #82C8A7",
"Z. c #84C7AA",
"A. c #84C9A9",
"S. c #90C3AC",
"D. c #85D2AE",
"F. c #8ACEB0",
"G. c #85D4B0",
/* pixels */
"f.f.f.f.f.f.f.f.a.f.s.f.s.f.f.f.p.u.i.u.p.f.f.f.f.f.f.p.f.f.s.f.g.p.d.p.f.p.p.i.i.u.f.f.f.f.f.f.f.f.f.f.f.f.f.s.d.f.p.f.f.i.p.u.",
"g.s.f.f.f.f.f.f.f.f.s.s.s.A.g.g.f.f.f.f.f.f.p.p.f.f.f.f.f.f.s.s.g.g.g.D.g.g.f.p.f.f.f.f.f.f.f.f.f.f.f.f.f.f.f.f.s.D.g.g.f.f.p.p.",
"D.s.f.p.f.f.f.s.f.s.a.s.C.d.d.t.w.w.w.w.e.e.w.e.w.w.i.w.w.w.w.w.w.t.d.p.p.p.w.w.e.w.w.w.w.e.w.w.w.w.e.w.w.r.f.g.D.D.D.g.p.f.f.f.",
"f.f.f.f.f.f.f.s.f.w.S 0 5 = * & * > > & * : * : : : : : - > = : * - : * ; : : 7 > > - - * > > > > > > = > e w.f.g.p.f.f.g.f.f.f.",
"f.f.a.f.f.f.s.s.V.7 r 2 = 5 = = > e e 5 , , 7 > : 7 7 1 1 1 , , > 1 > 7 > , > > > , 0 0 0 , e > 0 0 , 0 , 0 { f.p.g.p.p.p.p.g.f.",
"s.f.a.f.f.f.s.s.` 6 * = = = 7 7 e > & : e e 1 1 1 u u f b i c i i i i u u u t 1 > , & O > , y > e r e e r 0 r y.p.p.g.g.f.g.f.f.",
"g.r.0.a.a.s.s.S.+ 2 = 2 5 7 7 7 r e c ] k.x.k.l.x.x.m.M.M.N.B.B.B.B.N.M.m.x.l.l.l.k.b.M.6.y 0 y t e e t e t e [ g.h.g.p.s.s.g.g.",
"a.a.s.r.s.s.s.} 2 5 = 5 5 7 7 r e , r 0 5 5 1 t u u u u i b f v c f j i t e t t t 0 3 , q > 0 0 0 e 0 e 0 0 0 > C.g.g.f.s.g.f.h.",
"f.f.f.p.f.f.G.& * 5 0 5 0 r 7 e 0 5 & O - - & - & & & % & & & & & & % % & % & & & & & : % > - > , 0 , e < e y e [ p.f.f.f.f.f.f.",
"f.p.g.g.f.h.9.% 0 r 0 5 5 r r r > - ; r B Z Z B C B C C B C C Z B C C C C C C C C C Z m r y % & 0 y r r > y y < 7 -.f.f.f.f.f.f.",
"f.f.s.p.f.f.{ & 0 r 0 r 0 5 5 5 % - r > r B c c n c c c f c b b c f c b b b b b b m m i 5 i > % - 0 0 ; e r 1 t r e p.f.f.f.f.f.",
"f.f.s.s.s.s.F , 0 5 0 r r 5 5 ; & 0 i 0 e i i y u 1 u u u u u u y y t t e t e t t e i r , v i > O > 0 : u t 1 1 , > p.f.f.p.f.f.",
"f.f.f.f.f.f.A % , 0 r > 5 0 % * 0 r i r e 7 e 1 1 1 1 1 1 1 1 1 , , , 1 1 1 1 1 1 1 > e > m s e - % : r > e 1 1 1 : p.f.f.f.f.f.",
"p.f.f.f.f.e.n - > t r > 0 % r .._ _ ) _ ] ] ] ] ] ] ] ] ] ] ] ' ' ' ' ' _ _ ] _ _ _ _ ' ' _ ) ) ' T * > e , < 1 , & f.f.f.f.g.p.",
"f.f.f.f.f.s.g : , y < y > s                                                                           X < u < < 1 & f.f.f.f.p.f.",
"f.s.s.g.h.h.n = > < e i 0                                                                             O 1 < < < , : p.f.f.f.f.f.",
"f.f.f.f.g.g.n - 1 , B B o                                                                             & <.$.t t w % p.f.f.f.f.f.",
"f.f.f.f.f.f.n ; 1 < t B O                                                                             % %.#.> , ; - p.f.f.i.i.p.",
"f.f.f.f.f.f.f : 1 , b B O                                                                             * 2.$.r = % * p.f.p.i.f.u.",
"f.f.a.f.f.f.f & : t b B ;                                                                             = 1.1.G Y H 5 p.s.f.f.p.p.",
"f.f.p.f.p.f.f : : u B B >                                                                             ; 1.3.a h k a D.g.g.p.p.g.",
"f.f.f.f.f.f.g = 1 1 B B >                                                                             * 1.2.J O.L 8 p.p.p.g.g.p.",
"g.f.f.f.f.f.g ; t 1 B B >                                                                             = 2.>.^ ^ ~ a p.g.f.f.f.f.",
"f.f.p.f.f.p.g ; < , m C 5                                                                             : 4.>.:.z K 9 f.p.g.g.f.f.",
"g.e.8.i.p.p.f = > 1 B B >                                                                             e 4.,.;.z K 8 h.p.g.g.g.g.",
"f.a.f.i.g.p.f = : u B B >                                                                             e 2.2.x $ l 9 f.p.p.f.p.g.",
"f.f.f.s.f.g.g ; 1 < B B u                                                                             e 2.1.G P G j p.f.f.f.f.f.",
"f.f.f.f.f.C.g 5 1 , D B i                                                                             e 2.2.v v e = p.p.f.p.g.f.",
"f.f.f.f.s.s.f % 1 1 D C c                                                                             r 2.2.G H U Y f.f.f.f.f.f.",
"f.f.f.f.g.s.f ; 1 1 D B c                                                                             e 6.4.s 6 M S p.f.f.f.f.f.",
"f.f.s.g.s.a.n 0 1 1 F B b                                                                             y 6.6. . .! E p.f.f.f.f.f.",
"f.f.d.s.f.e.f - 1 1 S C m                                                                             u 6.6.(  .~ H p.f.f.f.f.f.",
"f.f.s.s.s.f.f = : 1 D B Z                                                                             m 4.6.! X.| H f.f.f.f.f.f.",
"f.f.g.f.h.h.N 5 1 : D B C                                                                             m k.l.( +.| H p.f.f.f.f.f.",
"f.f.g.p.f.g.N 3 : < F C Z                                                                             m l.l.! X.( H s.f.f.s.s.s.",
"f.f.s.s.s.s.g ; , 1 F C Z                                                                             m x.l.W ( W H f.f.a.r.r.a.",
"f.f.f.s.f.f.g = , 1 F C D                                                                             m x.k.6 4 4 2 f.f.a.i.a.e.",
"p.f.s.s.f.f.g : 1 1 F C P                                                                             V x.7.r 0 3 > f.f.f.f.s.s.",
"f.f.f.p.a.a.d : 1 < F C D                                                                             Z z.7.y 0 > % A.f.f.f.s.f.",
"f.f.f.f.a.a.n : 1 1 F C G                                                                             G z.7.e 0 3 * f.f.f.f.f.f.",
"f.f.f.f.f.f.g : , 1 F B D                                                                             Z v.7.r 0 > * s.f.s.s.f.s.",
"f.p.i.f.f.f.g & 1 1 F B D                                                                             G 7.7.r 0 > * a.s.s.f.f.f.",
"g.r.q.a.a.a.g : 1 1 F B G                                                                             Z v.7.t 0 > % Z.s.s.s.f.h.",
"f.a.a.i.f.a.g & 1 1 F B Z                                                                             I 7.<.t 0 > % g.g.s.s.s.h.",
"f.f.f.f.f.g.n - , 1 F B V                                                                             U 7.3.t 0 3 - p.s.s.s.s.g.",
"s.f.f.f.f.h.g - , 1 F B V                                                                             P 5.3.t 0 > * p.s.d.s.g.s.",
"f.f.f.f.a.a.d : 1 1 D B m                                                                             P 5.<.r 0 > % s.f.f.f.f.f.",
"f.f.f.f.f.a.n & 1 1 Z B m                                                                             P 5.2.t 0 5 * p.f.f.f.f.f.",
"f.f.f.f.f.f.f - : 1 C C v                                                                             P 6.<.q 0 > - s.s.f.f.f.f.",
"f.f.g.f.f.i.d ; 1 < C B e                                                                             R 2.,.w 0 3 - s.f.f.p.f.f.",
"f.f.f.f.f.f.g - 1 1 C B 0                                                                             R 2.,.t 0 > * s.s.f.f.f.f.",
"f.f.s.f.h.h.g > 1 1 C B e                                                                             R ,.,.r 0 > % s.g.f.p.s.f.",
"f.f.g.s.g.g.n - < < C B 5                                                                             R 1.,.q 0 > = p.f.f.f.f.f.",
"f.f.s.s.s.s.f - , 1 B B 5                                                                             R 1.,.r 0 > = f.p.p.i.u.p.",
"f.f.s.s.s.s.b - , 1 B B =                                                                             / 1.,.0 0 > % p.p.p.i.f.u.",
"f.f.f.f.s.a.n - , , c C &                                                                             ) 1.,.r 0 3 * g.g.f.f.f.p.",
"f.f.f.f.f.s.f & > 1 b B -                                                                             ) 1.,.0 0 > - G.g.f.f.f.f.",
"f.f.f.f.f.s.f - , : c B %                                                                             _ ,.%.0 5 3 % s.a.a.f.f.f.",
"f.f.f.f.f.f.f % : , c B &                                                                             ' 1.$.0 5 > % g.s.f.f.f.f.",
"a.f.a.f.s.s.f & , , c B %                                                                             ' ,.$.5 5 ; % d.g.f.s.f.s.",
"f.e.e.a.s.f.f @ 2 3 p B @                                                                             ..%.@.3 3 * # d.s.s.s.g.h.",
"s.a.a.e.f.f.f # # * p B .                                                                             / =.*.4 ; % # s.s.s.s.s.h.",
"f.f.f.a.f.f.o.+.&.j.=.n.n.                                                                            c.Q G 4 2 2 # s.s.s.s.g.s.",
"f.f.f.f.f.g.d.p.d.d.d.d.C.Z.A.Z.A.A.F.Z.Z.Z.V.A.Z.d.d.A.V.A.d.d.d.d.d.d.d.d.C.d.V.V.V.C.A.A.C.Z.Z.F.Z.s.w.w.w.w.w.t.f.f.s.f.f.f."
};
