/* XPM */
static char *result[] = {
/* columns rows colors chars-per-pixel */
"64 64 197 2 ",
"   c #195B5B",
".  c #266856",
"X  c #286856",
"o  c #266B59",
"O  c #296D5A",
"+  c #346E5A",
"@  c #2A725E",
"#  c #3C725D",
"$  c #075464",
"%  c #005769",
"&  c #00596C",
"*  c #0B5E6A",
"=  c #135865",
"-  c #1E6A67",
";  c #156369",
":  c #1A6768",
">  c #236C63",
",  c #22656C",
"<  c #267164",
"1  c #2B7662",
"2  c #317762",
"3  c #387B65",
"4  c #2C6F70",
"5  c #3E6C77",
"6  c #327774",
"7  c #377A76",
"8  c #3B7C74",
"9  c #42725C",
"0  c #4D705C",
"q  c #4C735C",
"w  c #405F68",
"e  c #506669",
"r  c #4C7962",
"t  c #557C64",
"y  c #4F7F70",
"u  c #776E61",
"i  c #7D7469",
"p  c #B5612F",
"a  c #BC6E3E",
"s  c #C26631",
"d  c #C46A35",
"f  c #CB6B33",
"g  c #C26C3A",
"h  c #C57847",
"j  c #C27C4C",
"k  c #3D836C",
"l  c #3F8176",
"z  c #42866E",
"x  c #44896F",
"c  c #5C8069",
"v  c #458877",
"b  c #498E74",
"n  c #458B7A",
"m  c #5C8579",
"M  c #4D9377",
"N  c #539B7E",
"B  c #678368",
"V  c #71886B",
"C  c #848674",
"Z  c #839573",
"A  c #8B9674",
"S  c #8A9876",
"D  c #929B77",
"F  c #959D78",
"G  c #A38D69",
"H  c #B5966F",
"J  c #9CA27C",
"K  c #B6A87C",
"L  c #C78959",
"P  c #CC9363",
"I  c #C89A6B",
"U  c #D49D6B",
"Y  c #CDA373",
"T  c #C0AA7D",
"R  c #D3A472",
"E  c #D5A977",
"W  c #D6A876",
"Q  c #DBA976",
"!  c #DDAD79",
"~  c #E0AF7B",
"^  c #E4B27D",
"/  c #498F80",
"(  c #4E9482",
")  c #509581",
"_  c #559C81",
"`  c #658986",
"'  c #75958B",
"]  c #6D9396",
"[  c #56A084",
"{  c #5DA486",
"}  c #5EAA8A",
"|  c #5FBA92",
" . c #67A581",
".. c #62AE8D",
"X. c #66B18F",
"o. c #68B18F",
"O. c #74A792",
"+. c #64B391",
"@. c #6AB594",
"#. c #63BC96",
"$. c #6ABB96",
"%. c #67BD98",
"&. c #6ABE99",
"*. c #7DB699",
"=. c #74BC9C",
"-. c #7BBE9C",
";. c #67C09A",
":. c #6CC29C",
">. c #71C49E",
",. c #6FC6A0",
"<. c #74C7A2",
"1. c #7AC5A2",
"2. c #73C8A1",
"3. c #79CAA6",
"4. c #7BCDA9",
"5. c #7FD1AC",
"6. c #9E9D81",
"7. c #89A78D",
"8. c #99A986",
"9. c #9BAF87",
"0. c #89B58E",
"q. c #80A194",
"w. c #87BE96",
"e. c #A9AC82",
"r. c #B2AC83",
"t. c #AEB68D",
"y. c #B3B387",
"u. c #B4B68A",
"i. c #BDB98B",
"p. c #ADBD93",
"a. c #88ABA1",
"s. c #96AFA8",
"d. c #83BFA9",
"f. c #9ABDAD",
"g. c #90B8B3",
"h. c #A0BDA4",
"j. c #A3BBB3",
"k. c #A9BDB7",
"l. c #CAB789",
"z. c #C3BC8D",
"x. c #EAB780",
"c. c #EBB881",
"v. c #EABF88",
"b. c #90C09A",
"n. c #A6C59B",
"m. c #B3C99B",
"M. c #8AC3A8",
"N. c #81CEAA",
"B. c #93C4AE",
"V. c #84D2AE",
"C. c #94C4B8",
"Z. c #87D5B1",
"A. c #89D6B2",
"S. c #A5C7BA",
"D. c #B5C2B0",
"F. c #CCC393",
"G. c #C9CB9A",
"H. c #D6C895",
"J. c #D5CC99",
"K. c #DED09B",
"L. c #EEC28A",
"P. c #E3CD97",
"I. c #F2CC94",
"U. c #E3D39D",
"Y. c #F4D197",
"T. c #F5D49B",
"R. c #F7D99F",
"E. c #C4CBAF",
"W. c #D9D4A8",
"Q. c #D8D6B7",
"!. c #E7D7A1",
"~. c #E8D7A0",
"^. c #E4D9A3",
"/. c #EADAA3",
"(. c #E4DAAA",
"). c #EDDFAB",
"_. c #F9DEA3",
"`. c #E1DCB1",
"'. c #F1E0A7",
"]. c #FAE2A7",
"[. c #F3E2AA",
"{. c #FAE6AB",
"}. c #FDE9AE",
"|. c #FFECB0",
" X c #B3D3CD",
".X c #BEE2DE",
"XX c #CAD6C7",
"oX c #D4D9C6",
"OX c #C6DAD5",
"+X c #CDDDD6",
"@X c #CAE0DC",
"#X c #D5E2DB",
"$X c #C8E7E3",
"%X c #D3ECE8",
"&X c #DBEEEA",
"*X c #DDF2EE",
"=X c #E2F4F0",
/* pixels */
"2.2.2.2.2.2.2.2.2.2.2.2.<.2.<.2.,.%.:.%.2.2.2.2.>.2.2.2.2.2.>.3.>.3.>.N.>.>.>.>.:.%.2.2.2.2.2.2.2.2.2.2.,.2.2.>.2.2.3.2.2.:.>.;.",
"3.<.>.2.2.2.2.2.2.2.2.<.<.V.3.1.2.2.2.2.2.2.2.2.2.2.2.2.2.2.3.>.>.3.>.Z.N.>.2.2.2.2.2.2.2.2.2.2.>.2.2.2.2.2.2.2.>.Z.>.3.2.2.2.2.",
"V.<.2.2.2.2.2.2.2.2.,.2.Z.4.V.3.2.2.2.2.2.>.2.2.2.2.2.>.2.2.2.2.3.3.Z.Z.V.3.>.2.2.2.2.2.2.2.2.2.2.2.2.2.2.2.2.5.A.Z.Z.4.2.2.>.2.",
"2.2.2.2.2.2.2.2.2.2.2.2.1.2.1.<.<.2.2.2.2.2.2.2.2.2.2.2.2.2.2.>.>.3.>.>.2.2.2.3.<.2.2.2.2.2.2.,.2.2.2.>.2.2.2.>.3.>.>.>.2.2.2.2.",
"2.2.,.2.2.<.<.<.2.2.2.2.2.2.2.1.2.<.1.1.2.<.2.2.2.2.2.2.2.2.2.2.2.2.2.3.>.3.>.3.2.2.3.2.2.2.2.2.2.2.2.2.2.2.2.2.>.3.>.3.2.3.>.3.",
"2.2.,.2.2.<.,.2.2.2.2.<.2.3.<.<.2.1.2.2.3.<.<.,.2.2.2.2.2.2.2.2.2.2.2.2.3.>.3.>.1.2.3.2.2.2.,.2.>.2.>.2.2.2.2.2.3.>.3.>.2.>.3.>.",
"3.&.+.,.2.<.<.2.2.2.2.4.<.3.3.<.<.<.3.<.5.4.2.:.;.>.>.2.2.2.2.2.2.2.2.4.3.3.>.>.1.2.5.3.2.,.;.>.2.2.2.2.2.2.2.3.2.4.5.>.3.>.3.3.",
",.,.2.&.2.,.<.2.2.2.<.<.4.3.3.<.2.2.2.5.<.3.3.:.2.;.2.2.>.2.2.2.2.3.3.3.4.3.>.3.2.5.2.3.<.,.2.;.2.2.2.2.2.>.2.2.2.3.>.3.>.3.>.4.",
"2.2.2.<.<.<.5.3.<.2.2.2.2.2.2.2.2.2.>.2.2.2.2.2.2.1.<.3.V.2.2.<.2.3.>.2.2.2.2.>.2.>.3.>.>.2.2.2.2.3.V.2.2.2.2.2.2.2.2.2.2.2.2.2.",
"2.2.<.<.<.3.3.3.<.<.1.2.2.2.2.2.2.2.2.2.n 1 1 2 M X.<.4.3.4.3.<.2.2.2.2.2.2.2.2.:.N x z #.2.>.2.2.5.2.V.2.2.2.2.2.2.2.2.2.>.2.2.",
"2.2.2.2.<.<.<.<.<.2.1.2.2.,.2.2.2.2.>.2.4 > 1 1 1 1 3 { $.<.2.2.2.>.>.2.>.>.} k @ 1 @ 1 N >.2.2.2.3.2.>.2.2.2.2.2.2.2.2.2.2.2.2.",
"2.2.1.<.<.<.<.<.<.<.2.2.2.2.2.2.2.2.2.2.= ; 1 1 1 1 1 1 1 3 x x x x k k O @ @ 1 1 1 1 1 x 2.2.2.2.2.2.2.2.2.2.2.2.2.2.2.2.2.2.2.",
"2.2.<.<.2.2.,.,.<.<.1.2.2.2.2.2.2.2.<.2.: * 1 1 1 1 V e.u.J r 1 1 1 1 c S S # 1 1 1 1 1 z >.2.2.2.2.:.3.2.2.2.2.2.2.2.2.2.2.2.2.",
"2.2.,.<.2.;.#.,.,.2.2.2.2.2.2.2.2.2.,.2.7 & 1 1 Z ^.|.|.|.|.{.F.t J /.|.|.|.|.K.J 1 1 1 x 2.2.2.2.%.#.;.>.2.2.2.2.2.>.2.2.2.2.2.",
"2.2.<.<.,.2.,.2.<.2.2.,.2.,.2.2.2.2.2.<.v & @ r.|.|.|.|.|.|.|.|.{.|.|.}.|.|.|.}.|.F.@ 1 b 2.2.2.2.2.2.,.2.2.2.>.2.2.2.2.2.2.2.2.",
"2.2.2.<.4.4.4.4.2.2.2.2.2.2.2.2.2.2.2.<./ & e.|.|.{.U.!.K.U.{.|.}.|.|.[.U.U.U.}.|.|.F.1 N >.2.2.4.5.3.&.>.M.;.b.;.2.2.2.2.2.2.2.",
"2.2.2.2.3.3.4.<.2.&.&.2.,.2.2.2.2.2.2.2.l i _.|.|.}.|.|.|.|.|.|.|.|.|.|.|.|.|.'.[.|.}.J [ 2.2.2.3.<.4.C.B.j.O.#X..-.2.2.2.2.2.>.",
"2.2.2.<.2.2.2.2.2.,.,.:.>.2.2.2.2.:.+.,.$ E T.|.|.|.|.|.|.^.|.}.|.|.|.{.).|.|.|.}.|.}./.x 2.2.2.2.2.2.O.m 1 2 O a.S.>.>.2.:.>.>.",
"2.2.,.<.<.,.2.2.2.2.2.2.2.<.<.2.,.,.,._ i c.I.|.|.|.|.|./.Q.!.U.U.U.!.(.W.{.|.|.|.|.|.|.B :.2.2.2.3.) $ 1 1 1 1 1 a.f.3.>.:.2.;.",
"2.2.2.,.2.2.2.2.2.2.2.,.<.N.<.2.2.2.2./ H c.c.}.|.|.|.|.|./.U.U.U.U.K.K.|.|.|.|.|.|.}.}.J  .2.2.2.n & : 1 1 1 1 1 ` >.1.2.2.2.>.",
"2.2.2.2.2.2.,.2.2.2.2.2.Z.4.4.3.<.1.1.8 Y c.c.c.~.~.!.~.~.|.|.|.|.|.|.|.[.U.U./.!.|.|.|.u.N 2.2.n & & 1 1 1 1 1 1 @ N.4.3.>.>.2.",
"2.2.2.2.2.2.2.2.2.2.2.2.1.2.3.1.<.<.<.4 R l.P._.|.|.|.|.|.|.|.|.|.|.|.|.|.|.|.|.|./.!.!.u.x 2.n & & - 1 1 1 1 1 1 @ o.2.>.3.3.2.",
"2.2.2.2.2.2.2.2.2.2.2.<.2.2.2.2.<.<.3.7.P.}.|.|.|.|.|.|.|.|.|.|.|.|.|.|.|.|.|.|.|.|.|.|.H.7.N & & ; 1 1 1 1 1 1 1 1 @.>.>.3.2.2.",
"<.<.,.2.2.2.2.2.2.2.2.<.2.3.2.3.>.@.z.|.|.|.|.|.|.|.|.|.|.|.|.|.|.|.|.|.|.|.|.|.|.|.|.|.|.{.r.$ * < 1 1 1 1 1 1 1 1 o.>.3.2.2.3.",
"<.;.| ,.,.2.2.2.2.2.2.4.3.5.3.2. .H ].|.|.|.|.|.|.|.|.|.|.|.|.|.|.|.|.|.|.|.|.|.|.|.|.|.|.|.|.H.9 @ 1 @ 1 1 1 1 1 1 $.3.>.3.3.3.",
"<.,.2.&.2.2.<.2.<.<.<.2.2.2.2.N G x.}.|.|.|.|.|.|.|.|.|.|.|.|.|.|.|.|.|.|.|.|.|.|.|.|.|.|.|.|.|./.q @ @ 1 1 1 1 1 1 o.2.2.2.>.3.",
"2.2.2.2.<.1.5.3.3.1.>.<.>...+ 9 ^ c.|.|.|.|.|.|.|.|.|.|.|.|.|.|.|.|.|.|.|.|.|.|.|.|.|.|.|.|.|.|.}.U.+ @ 1 1 1 1 1 @ :.2.>.2.2.2.",
"2.2.2.1.<.4.3.3.<.>.<.>.b O @ G c.c.|.|.|.|.|.|.|.|.|.|.|.|.|.|.|.|.|.|.|.|.|.|.|.|.|.|.|.|.|.|.|.|.F.@ @ 1 1 1 1 @ >.2.2.2.2.2.",
"2.2.2.2.1.2.<.<.<.<.@.3 1 o 1 Y c.c.}.|.|.|.|.|.|.|.|.|.|.|.|.|.|.|.|.|.|.|.|.|.|.|.|.|.|.|.|.|.|.|.|.S O @ 1 1 1 x 2.2.2.2.2.2.",
"2.2.<.<.<.<.,.<.3...2 1 o 1 1 Q x.c.].|.|.|.|.|.|.|.|.|.|.|.|.|.|.|.|.|.|.|.|.|.|.|.|.|.|.|.|.|.|.|.|.K.@ . 1 1 1 N 2.2.2.2.>.2.",
"2.2.2.<.<.,.%.,.} @ 1 1 o 1 @ ^ c.x.I.}.|.|.|.|.|.|.|.|.|.|.|.|.|.|.|.|.|.|.|.|.|.|.|.|.|.|.|.|.|.|.|.|.c @ @ 1 1 #.2.2.2.2.2.2.",
"2.,.1.2.<.,.| | @ 1 1 @ @ 1 1 W c.c.c.{.|.|.|.|.|.|.|.|.|.|.|.|.|.|.|.|.|.|.|.|.|.|.|.|.|.|.|.|.|.|.|.|.S @ . @ @ >.>.2.2.2.2.2.",
"2.2.2.1.2.,.$.2 1 1 1 o 1 1 2 H c.^ c.L.}.|.|.|.|.|.|.|.|.|.|.|.|.|.|.|.|.|.|.|.|.|.|.|.|.|.|.|.|.|.|.|.S 1 1 o b 2.>.2.2.2.2.2.",
"2.2.2.<.4.4.z 1 1 1 1 o 1 1 2 0 ^ c.c.c.L.}.|.|.|.|.|.|.|.|.|.|.|.|.|.|.|.|.|.|.|.|.|.|.|.|.|.|.|.|.|.{.9 1 1 o ..2.2.2.2.2.2.2.",
"2.2.<.>.1.{ 1 1 1 1 1 o 1 1 1 1 V ^ c.c.c.v.].}.|.|.|.|.|.|.|.|.|.|.|.|.|.}.|.|.|.|.|.|.|.|.|.|.|.|.|.i.1 1 1 1 +.<.<.2.2.2.2.2.",
"2.2.<.<.2.2 1 1 1 1 O 1 1 1 1 1 + q G Y R Q U l.K.i.u.J S Z B r o . . 9 V S F u.F.U.|.|.|.|.|.|.|.|.U.3 1 1 1 1 N <.2.2.2.:.&.,.",
"2.2.2.2...1 1 1 1 1 X 1 X 1 1 1 1 1 1 1 1 1 1 1 1 1 1 1 1 1 1 1 1 1 1 1 1 1 1 1 1 1 O Z e.F.P.U.J.e.@ 1 1 1 1 1 z <.2.2.,.;.2.%.",
"2.2.2.2.b 1 1 1 1 1 o 1 k. Xy 1 1 1 1 1 1 1 1 1 1 1 1 1 1 1 1 1 1 1 1 1 1 1 1 1 1 1 1 1 1 1 1 1 1 1 1 1 1 1 1 1 o V.3.<.2.2.2.2.",
"2.2.2.:.1 1 1 1 1 1 @ 1 k.=X&X' 1 1 1 1 1 1 1 1 1 1 1 1 1 1 1 1 1 1 1 1 1 1 1 1 1 1 1 1 1 1 1 1 1 1 1 1 1 s.' 1 1 =.V.<.2.2.2.2.",
"2.2.2.g.  1 1 1 1 1 o r 7.&X=X&X8.B 1 1 1 1 1 1 1 1 1 1 1 1 1 1 1 1 1 1 1 1 1 1 1 1 1 1 1 1 1 1 1 1 1 @ g.*Xj.1 1 ..<.2.2.2.2.2.",
"2.2.&.g.5 > ' OXs.c z.}.(..X=X&X[.|.F.B 1 1 1 1 1 1 1 1 1 1 1 1 1 1 1 1 1 1 1 1 1 1 1 1 1 1 1 V z.!.).E.$X=XS.O 1 +.2.2.2.2.2.2.",
"2.2.+.S.` * , @X=X&XQ.|.|.W.oX(.|.|.|.{.J 1 1 1 1 1 1 1 1 1 1 1 1 1 1 1 1 1 1 1 1 1 1 1 1 > z.}.}.|.|.).oX#X`./.D +.2.2.2.2.2.2.",
"3.%.#.&.g.& & ] %X=XoX|.|.|.|.|.|.|.|.|.|.S 1 1 1 1 1 1 1 1 1 1 1 1 1 1 1 1 1 1 1 1 1 1 * F.|.|.|.|.|.|.|.|.|.|.[.f. XOX=.<.3.3.",
"2.,.2.@.*.q.g.D.S.XX[.|.|.|.|.|.|.|.|.|.|.[.t 1 1 1 1 1 1 1 1 1 1 1 1 1 1 1 1 1 1 1 < & 6.|.|.|.|.|.|.|.|.|.|.|.(.$X&XOX<.2.2.3.",
"<.,.<.,.$.=.d.).|.|.|.|.|.|.|.}.|.}.|.}.|.|.y.1 1 1 1 1 1 1 1 1 1 1 1 1 1 1 1 1 1 1 * & ).|.|.|.|.|.|.|.|.|.|.|.}.+X=XC.<.<.<.1.",
"<.<.<.<.3.4.w.|.|.|.|.|.|.}.{._.R._.}.}.|.|.!.1 1 1 1 1 1 1 1 1 1 1 1 1 1 1 1 1 1 ; & e |.{.R.Y.I.T._.}.|.|.|.|.|.}.`.G.<.<.2.1.",
"<.2.<.<.<.$.h.).|.|.|.|._.L.^ ! Q R ^ I.{.|.|.o 1 1 1 1 1 1 1 1 1 1 1 1 1 1 1 1 1 & & C L.c.c.c.x.x.x.c.T.|.|.|.|.|.|.|.w.2.2.2.",
"2.2.<.$. X%X&XoX|.|.|.Y.^ ! j f f f s L v.].|.B 1 1 1 1 1 1 1 1 1 1 1 1 1 1 1 1 : & & i c.c.x.P j j P x.x.L.|.|.|.|.|.|.m.2.2.2.",
"2.2.<.2.:.C. XE.|.|.T.x.x.h f f f f f f P L.|.B < 1 1 1 1 1 < < < < 1 1 1 1 1 1 * & & w x.x.L f f f f g U ^ T.|.|.|.{.`.t.>.>.3.",
"2.2.2.<.2.&. .}.|.|.v.c.I f f f f f f f L ^ ].O < - ; * & & & & & & & & * ; : ; & & & & ! x.h f f f f f f Q ^ |.|.|.(..X*X X>.>.",
"2.<.<.<.2.<.,.(.|.{.x.c.P f f f f f f f L ^ H.$ & & & & & & & & & & & & & & & & & & & & G c.h f f f f f f L ^ R.|.|.}.+XXXN.>.3.",
"2.<.<.<.4.4.4.n.|.|.x.x.~ s f f f f f f U ^ A $ & & & & & & & & & & & & & & & & & & & & w ~ P f f f f f f p L.T.|.|.|.}.b.2.2.>.",
"2.,.<.<.<.3.4.,.J.|.I.x.x.Q j s f d L ~ c.K % & & & & & & & & & & & & & & & & & & & & & % u x.j f f f f f a ^ _.|.|.|.K.>.>.2.2.",
"2.<.3.<.<.<.<.<.2.G.{.L.c.c.x.x.Q ^ ^ ^ T <.&..._ ( 8 8 8 7 7 6 7 7 7 8 8 8 8 v n ) ) +.+.2.9.^ P s f f s U c.}.|.|.^.>.>.>.:.>.",
"2.2.2.<.<.<.<.2.2.2.n.K.T.c.x.x.^ ^ E 8.<.<.2.2.2.2.1.2.3.1.2.<.<.<.2.2.2.2.2.:.,.&.1.2.,.2.2.0.E ! R I ! c.].|.}.G.>.>.>.:.2.;.",
"2.2.,.2.<.<.2.2.2.2.<.<.*.n.p.p.9.*.,.2.<.<.2.2.2.2.2.2.2.2.2.2.<.3.3.A.4.2.2.2.2.2.2.2.2.2.2.<.<.7.r.l.H.W.G.m.>.V.2.2.2.2.2.2.",
"2.2.2.2.2.2.2.2.2.2.2.<.Z.N.N.1.2.2.2.2.2.2.2.2.2.2.>.2.3.>.>.3.<.1.A.N.N.3.3.>.2.2.2.>.2.2.2.2.2.2.2.2.2.2.2.3.A.4.A.3.2.2.2.2.",
"2.2.2.2.2.2.2.2.2.2.2.2.<.>.1.<.2.2.2.2.2.,.2.2.2.2.2.2.>.>.3.>.<.<.1.>.1.>.2.>.2.2.2.2.2.2.2.2.2.2.2.2.2.3.>.>.>.>.>.2.2.2.2.2.",
"2.2.,.2.2.2.2.2.,.2.2.2.2.2.<.2.2.2.2.2.2.2.2.2.2.2.2.2.2.2.<.<.>.3.>.2.2.2.2.2.2.2.2.2.2.2.2.2.>.2.3.2.2.2.2.2.>.>.3.3.2.2.2.2.",
",.2.,.<.,.<.2.2.<.<.<.<.<.3.<.<.2.2.2.1.3.2.2.2.,.2.2.2.2.3.<.<.3.>.3.2.2.2.>.3.2.2.4.2.2.2.,.2.2.3.>.3.2.>.2.>.3.3.>.>.>.3.2.>.",
"2.%.#.,.,.3.2.1.<.<.<.4.3.3.4.2.<.<.<.4.5.4.2.;.:.;.2.2.2.<.<.<.2.3.3.4.5.3.<.<.2.4.4.4.2.&.:.%.>.3.>.3.>.3.>.3.3.3.4.3.2.>.4.4.",
"<.2.2.;.<.2.<.2.<.<.<.<.3.1.4.2.<.<.<.4.,.<.2.,.2.:.2.2.<.<.<.<.2.3.3.1.3.2.<.<.2.3.3.3.2.,.2.:.3.>.3.2.3.>.3.3.3.3.>.>.2.3.>.4.",
"2.2.2.,.2.2.V.<.1.2.<.<.<.<.2.3.<.<.<.<.<.<.2.2.2.2.,.4.5.3.3.<.2.<.<.<.<.<.<.<.2.1.1.<.2.2.2.2.2.3.V.2.3.2.>.3.>.>.2.3.3.2.3.2.",
"2.2.2.2.2.3.2.3.2.2.2.2.2.2.2.2.2.2.<.2.2.<.2.2.2.<.2.4.3.4.>.2.2.2.2.2.2.2.2.<.2.2.2.2.2.2.2.2.2.5.2.5.>.2.2.2.2.3.2.>.>.2.2.2."
};
