/* XPM */
static char *result[] = {
/* columns rows colors chars-per-pixel */
"64 64 23 1 ",
"  c #5EB791",
". c #5FBB93",
"X c #61B692",
"o c #63BB96",
"O c #69BE97",
"+ c #67BE99",
"@ c #69BE99",
"# c #66C09A",
"$ c #6CC29C",
"% c #71C59E",
"& c #6EC6A0",
"* c #6EC8A2",
"= c #74C7A2",
"- c #79C7A3",
"; c #73C8A1",
": c #79CBA5",
"> c #7BCDA9",
", c #7ED1AC",
"< c #81CEAA",
"1 c #83D2AE",
"2 c #86D5B1",
"3 c #88D4B1",
"4 c #88D8B3",
/* pixels */
";;;;;;;;;;%;;%;;;#%#%;;;;%;;;;%%:%%%%%%%%#%;%;;%;;;;;;;%;;%;%%%#",
":=%;*=;;;;;;-3--%;%;%;;;;;;;;;:%%<<3<%%%;;;;;;;;;;;%;;%;%2<%;;%%",
"1=;;=;==;;;;131<;;;%;;;%;;;;;;%:%:331<%%%;;;;%;;%;;;;;;>332<;;;;",
";;;;===*;;*;%%;%-%--;;;;;;;;;%:%%<%%%%%<=-;;;;;;;;;;;;;;%:%%;;;;",
";=&&====*;;;:-;;===;==;;;;;;;;;;;;;;%%%<=-;;;;%;;;;;;;;;%%%%%%<%",
"=;&====*;;;:-;=:==%-::*;;;;;;;;;;;-;%<%%;;-;;;%%;;;;;;;;<%<%:%%%",
":@X=*===;;*:-::=;;==,>;$#%%;;%;;;;:>:<%<;;,:;*#%%;;;;;%;%<<%%:<:",
"&&=@====;;=::::=;:=,=>;%;#;;;;;;;::-<%%%;,:::$%#;;:;;;;:>%:%:%%<",
";;==;:>:=;;;;;-;;;;%;;;;==;:1;-;;-;;%;;;;;;%;;;;;:1;;;;%%%;;;;;;",
";%=-;>::==-%;;;;;%;;;;;%==->>,--;%;;;;;;;;;:;;;;;>:<;;;;::;;;;;;",
";;-%=%===-%;;;%;;;;;;;;;===-;=-%--;;;;;;;;%;;;;;%:;:;;;;%;;%;;;;",
";;=====-==-;;;;;;;;%;;;;======;;%%;;;;;;;;;;;;;;:%;;;;;;;;;;;;;;",
";;;==*&=;;;;%;;;;;;;;*;;====$;;;;-;;%;;;;;;;;;;;%;$;;;;;;;;;;;;;",
";;===#o&$:;;;;%;%;;;;;;=*:=o##$%%;;;;;;;;;;;;;;;;###$;%;;;;;;;%;",
";=;=*=*&==;;;;;;;;;;;;=====*;$;;;;;;;%;;;;;;%;;;=;;%;;;;;;;;;;;;",
";===>>>>==:;%;;;;;;;;;*==*>,>;;;;;;%;;;;;;;;;;;;>,:;;;%;;;;;;;;;",
"*;;*::>=;$#;%;;;;;====;;;;:=>;;$$%$;;;;=;;;;;;;=:-:=%%$%%%;;;%;;",
";;;;;;;;;%%#%;;;;$.&&=;;%;*;;;%#%$%;;=;$ ;**;;*;;;==;$%%;%;;%%%%",
";;;;;;;;;;;;;%-%*$=#*;;;;;;;;;;%;;;%;=;%*+;;;;;;;;==;%;%%%%%%%;#",
";;;;%;;;;;;*;1-;====;;;;;;;;;;;;;%=1-%;;;=;;;;==;;;*;;;%:1:%;%;%",
";;;;;;;;;;;;2<>:==-=;;;;;;;;;;=;;:111-;;--=;===:;;%;;*;>333:%:%;",
";;;;=;;%;=;===-;====;====;;;;;;;;;-%-%;;;======*;;;;;;;%%%%::%%:",
";=;;%;;;*===-=-:-======*;;;;;;;;;;%-=-==;=====;;;;;;%;;;%%;%%;:%",
"=:%;;;;;======-;==-==:*=;;%;;%;;;%%:======-=*==;;;;;;;;;::;--;-:",
"=+.$%;=;%;;>>>>;;==:1>;##%%%=;;;;:%>>%:%;:1,;#$$;;;;;;;:%<,%:%>:",
"=*;$;=;=-;-%;;;;;;%>%>;%;$-;==;;%::::%;;%>%;;$%$%:;;;;;;:%;;%;%:",
";%;=;;,::-;;;;;%%;;;;%;;;::>2=:;%%::;;;;%;;;;;;;::,;:;;;%;%;;;;;",
";;==;:::%-%;;;;;;;;;%;;;;;;>->=;:%%%;;;;;;;;%;;;%,;,;;;;:%;;;;;;",
";;;=;:-=-%=;;;;;;;%;;;;;;==:==-=;%;;;%;;;;;%;;;;:;:;;;;;%;;;;;;;",
";;=;====;:;;;;;;;;;;;;%;;;======;;;;;;;;;;;;;;;;%:;;;;;;;;;;;;;;",
";;;-;=#*;===;;;;;;;;;;;;;-==+===;;;;;;;;;%;;;;;;;*$;;;;;;;;;;;;;",
"%;-==+.*$;==;=;%;%;;%;;;;==..#$&;;;;;;;;;;;;%;;;*.o##;;;;;;;;;;;",
";;;==&**==;;;;%;;;;;%;;;;-;;*$==;;%%:;;%;;;;;;%;;;*&=;;;;;;;;;;;",
";;;=>>>>=;;;;;;;;;;;;;;;;;><>:*=%;<%%:;:;;;;;;;;>>==;**;;;;;;;;;",
";;==:::==@$;$%;;;*%;;;%;;;:=:;=$$%%%%:%;*;;;%;;;-=>:=&@$$;;;==&=",
";;==;;====;$%;;;*#.*%;;;;===;=-$%%%%%%%% ***;;;;==;;-$=*=;;;;@@&",
";;;%;==-*==*;;;;=#&#;;;;;======;%:%%:%:%;#;;;;%;=%--;;=-;;;;*$&+",
";;==;;======;1-;==*=;%;;;=-%====:%:3%:%%;;;;;;;;=-%;=;:--1:=;;=;",
";;==;;====*:1<1-;;:=;;;%;;=%;;==%:4<3%%>;;;;;;;;;;;;;;=-2<1-;;;;",
";;;%*;;=*===;%;;*;;;;;;;;;;;=;==:%%%%:%%%;;;;%;;%;;;;;;%===;;;;;",
";%;;;;;;;;;;%;%;;;;;;;%;=&======%%%:%:%;;;;;;;;;;;;;;;;;==;;;%-;",
";;$;;;%;;%;%:;;;;;%;;;;;*===*=;=%::%%%;;;;:;;;%%;%;;;%;%;;%;;;;;",
":+o&*=;=%-=>:>>=;;--,:;$$$*=====%<:<<%%<;:<>;$%%;;;;;;;>;:>-==>>",
";;*$;;==--%=;>;===;>=:;%=&=*==:-%%:%<%%%;:;;;%%%;:>;;;;;;:=%=;;-",
"*=*===,=;=;=--:;==;;==*==*:>2==;%<:%%<<%:;<%%%%%::1->%;%;;==%;;-",
"=*==-::>:;-==;;-=-=;=====**>:>=;%%%%%%%%%;%%%::%=>:>;;;;%-%=---;",
"====*===;;;;==;;%-;;==**====;;;;%:%:%:%;:;;;::%;====;;;;;-;;;;;:",
"=:;;===*;;;;;=;%;;;*===:=====*;;:%:%:;;;;;;;%;;;*==&;;;;%;%;;;;;",
"=;=;==$;;;;;;;;;==;;;;;;%;==&===;;;;;;;;;;;;;;;;=*&====*:=;;;;;;",
";;=;=#o$$;:;;;;;==*;;;;;;;=oo@$=;;%;;;;;;;;;;;;;*++#&=*=*=;;;;;;",
"*;==-=*&*;;;;;;%:===;;;;=&==*===;;%;;;;;;=;;;*%;===&=======;;;;;",
";;:=>,>>=;*;;;;;*===;;;;==,,>*==&;;;;;;;==;;;%;;>>>:==*====*;%;;",
";;-=:=:=;O#%$;;;==*=;;;;*:==:**&@$+=;;;:;-=*;;;;:=>=*&#$%;%%;%;;",
";;=;====;%%$$%;;;$o*;;%;==-====@;&;;;;;$X*=;;%;;==:==+*$%%::%%$%",
";;;;====;=;::%;%;$$$;;;;=;==========;;;$*+*;;;;;========;;%%%%%#",
";;;;====;;%%:1:>;%;;;;;;*;;;=::==:-2-=;;;;;;;;;;==*====>:4::%;;%",
"*;;;;;;;;;;=3-<-;%;;;;;;;;;;;;=-=-3<<-;;;;%;;;;;;;%:%:%<4>3:%;;;",
";;;;;;;;;;;=%---;;;;;%;;;;;;%-%%==--%-%;;;;;%;;;;;;%%%%%%%:%%;;;",
";;;;;;;;;;;;;;;;%;;;;;;;;;;;;;=--;;;;;;;;;;;;;;;;;%%:%:%-%:%;;%;",
"=;$=;;==;===;::;-;;->;;;*;;;;-==%--;;;;-;%>;;;;;::::%:%%--%:%;:;",
"=++$*=-=;=:>:=>:===>>>*+$#*=====-:::>=-=::,>=@$$%;;-%:%<::>-;::>",
"&&=@=-=;====:-=====-->=&;$===;==;::->===;>;:=&&$:;:;-%%:::%%:%;>",
"*=**;;1;:==*====;;=:==*=*=&>,::;===========-==*=:=1:::%:%%;-;;;-",
"====;>;:;;=:====;;;*=======>:>=;;;;;;;;;===&==;==::>%%:%%:;;;;;;"
};
