/* XPM */
static char *result[] = {
/* columns rows colors chars-per-pixel */
"64 64 212 2 ",
"   c #343536",
".  c #353738",
"X  c #3B3C3C",
"o  c #383D43",
"O  c #33424C",
"+  c #344A57",
"@  c #2E4E62",
"#  c #385467",
"$  c #245A79",
"%  c #444343",
"&  c #4D4B4C",
"*  c #524B51",
"=  c #49535E",
"-  c #555354",
";  c #5A5658",
":  c #684B5F",
">  c #595D62",
",  c #4E5670",
"<  c #615B6A",
"1  c #68676A",
"2  c #72607A",
"3  c #77797E",
"4  c #CD423F",
"5  c #894853",
"6  c #AB4246",
"7  c #B9474B",
"8  c #B8545B",
"9  c #81536B",
"0  c #9C7070",
"q  c #AD6E72",
"w  c #CB4341",
"e  c #D14443",
"r  c #D34949",
"t  c #D74A4C",
"y  c #D55050",
"u  c #D85457",
"i  c #E5575D",
"p  c #D55E65",
"a  c #E85D62",
"s  c #CA6670",
"d  c #D9747C",
"f  c #EC6166",
"g  c #EC646B",
"h  c #E36A72",
"j  c #EC6B74",
"k  c #ED737C",
"l  c #5A997C",
"z  c #6F8273",
"x  c #1A648A",
"c  c #0B6B94",
"v  c #036E9C",
"b  c #0A6E9C",
"n  c #156D96",
"m  c #02719E",
"M  c #2E6C8F",
"N  c #0374A3",
"B  c #0B74A3",
"V  c #0378A6",
"C  c #0477A8",
"Z  c #047BAC",
"A  c #0B7BAD",
"S  c #067EB2",
"D  c #2576A2",
"F  c #466888",
"G  c #4A6E94",
"H  c #787687",
"J  c #D27C8A",
"K  c #EE7F8B",
"L  c #0782B7",
"P  c #0A82B5",
"I  c #0C89BD",
"U  c #1687B8",
"Y  c #5E9C88",
"T  c #50819F",
"R  c #7D8B86",
"E  c #789886",
"W  c #5FAD92",
"Q  c #65A38A",
"!  c #64AC8B",
"~  c #67B08F",
"^  c #68AF90",
"/  c #7CA894",
"(  c #64B591",
")  c #69B392",
"_  c #64BC96",
"`  c #6BBC96",
"'  c #67BD98",
"]  c #6ABE99",
"[  c #5284A5",
"{  c #7EA5AC",
"}  c #66C09A",
"|  c #6CC29C",
" . c #71C49E",
".. c #6EC6A0",
"X. c #74C7A2",
"o. c #78C7A2",
"O. c #73C8A1",
"+. c #79CAA6",
"@. c #7BCDA9",
"#. c #7ED1AC",
"$. c #0D8BC3",
"%. c #088AC6",
"&. c #168DC2",
"*. c #1495CD",
"=. c #1896C9",
"-. c #1697D2",
";. c #159DD4",
":. c #1D9DD2",
">. c #269ACA",
",. c #2B9DD1",
"<. c #19A1D7",
"1. c #24A2D6",
"2. c #24A4D9",
"3. c #2AA5D9",
"4. c #39A7D9",
"5. c #34A8DB",
"6. c #3AABE1",
"7. c #48ACDD",
"8. c #51A9D4",
"9. c #49B1DF",
"0. c #6FACCD",
"q. c #4DB2E3",
"w. c #58B6E3",
"e. c #66BBE6",
"r. c #73BEE4",
"t. c #6BC0E8",
"y. c #74C2E9",
"u. c #7CC4E9",
"i. c #83898C",
"p. c #898897",
"a. c #998B94",
"s. c #95959A",
"d. c #AD8A92",
"f. c #B2969E",
"g. c #87A899",
"h. c #92A79C",
"j. c #9197A7",
"k. c #AE9DA5",
"l. c #9BA9A5",
"z. c #9EB2AB",
"x. c #9AB6B6",
"c. c #A9A6A9",
"v. c #A3ACAB",
"b. c #B8A9AE",
"n. c #A7B1AA",
"m. c #ABAEB2",
"M. c #A8AAB8",
"N. c #ABB6B5",
"B. c #B2B3BC",
"V. c #B8BABC",
"C. c #C58F9E",
"Z. c #E8838F",
"A. c #EA8895",
"S. c #EC919E",
"D. c #F1919D",
"F. c #C596A4",
"G. c #D79CAB",
"H. c #E698A7",
"J. c #C3AAB4",
"K. c #C0B1BD",
"L. c #EDA7B4",
"P. c #81CEAA",
"I. c #83D2AE",
"U. c #86D5B1",
"Y. c #89D5B1",
"T. c #88D8B3",
"R. c #8BB2C9",
"E. c #ADADC1",
"W. c #A9B6C5",
"Q. c #B2B4C4",
"!. c #B6B9C5",
"~. c #B9BCCC",
"^. c #CFB4C0",
"/. c #F3BFCD",
"(. c #B8C2C8",
"). c #BDC2CD",
"_. c #BFC2D1",
"`. c #89CAEC",
"'. c #96D0EF",
"]. c #B2D6EA",
"[. c #A4DBF6",
"{. c #ACDBF4",
"}. c #AFE0F8",
"|. c #BAE3F8",
" X c #C3C5C9",
".X c #C5CAD5",
"XX c #C6CAD6",
"oX c #CACED4",
"OX c #CFD4D6",
"+X c #CDD3DA",
"@X c #D4D4D7",
"#X c #D2D6DC",
"$X c #D4D9DD",
"%X c #DADCDE",
"&X c #F0D0D8",
"*X c #D6DBE1",
"=X c #DBDDE2",
"-X c #F3DAE3",
";X c #DEE1E6",
":X c #C9E8F8",
">X c #DAEBF5",
",X c #D4EDFA",
"<X c #DDF1FC",
"1X c #E3E5E9",
"2X c #E8E6E9",
"3X c #EFEDF2",
"4X c #E3F3FC",
"5X c #EBF6FC",
"6X c #EDF8FE",
"7X c #F2F3F6",
"8X c #F3F9FD",
"9X c #F8F8FA",
/* pixels */
"O.O.O.O.O.O.O.O.O.O.X.O.X.X.O.O. .}  .}  .O. .O.O.O.O.O.O.O.O.O.O. . . . . .O.|  .} O.O.O.O.O.O.O.O.O.O.O.O.O.O.O. .O.O.O.}  .} ",
"+.X.O. .O.O.O.O.O...X.X.X.U.+.X.O.O. .O.O.O.O.O.O.O.O.O.O.O. .O.+.+.P.U.P. .o. .O.O.O.O.O.O.O.O. .O.O.O.O.O.O.O.o.I.P.O.O.O.O.O.",
"I.X.O.O.O.O.O.O.O.O.O.X.I.I.P.@.O.O.O.o.O. .+.O.O.O.O.O.O.O. .O. .P.U.Y.P.P.O.O.+.O.O.O.O.O.O.O.O.O.O.O.O.O.O.+.U.I.U.o. .O.O.O.",
"O.O.O.O.O.O.O.X...X.O.O.o.X.O.X.o. .X. .O.O. .+.O.O.O.O.O.O.O.O.+. . . .O.O.O.O. .O.O. .O.O.O.O.O.O.O.O.O.O.O.O.o.O.o.O.O.O.O.O.",
"O.O.O.O.O.X.X.X...O.X.X.O.X.X.X.X.X.X.X.O.X.O.O.O.O.O.O.O.O.O.O.O.O. .+.O.+. .o. .+. .+.O.O.O.O.O.O.O.O. .O.O.O.O.O.O.o.O.O.o.o.",
"X.O...O.O.X...O.O.O.O.X.o.+.X.X.X.X.X.X.@.O.O.O.O.O.O.O.O.O.O.O.O.+. .O.O. .+.O.O.O.+.O.O.O. .O.O.O.O.O.O.O.O.O.O.o.O.O.O.O.O.O.",
"+.] ( ..O.X.X.O.O.O.X.@.+.+.+.X.X.X.X.@.#.@.+.| }  . .O.O.O.O.O.O.O.+.@.P. . .o.+.O.I.+.O.| }  . .O.O.O.O.O.O.O.O.P.o.O.O.O.o.+.",
"X.....' O...X.O.O.O.X.X.+.+.+.X.X.O.X.#.O.O.O.| O.} O.O.O.O.O.O.O.+.+.+.+.+. .O. .#.O.+.O.| O.} O.O.O.O.O.O.O.O.o.O.P. .O.O.O.P.",
"O.O.X.X.X.X.#.X.+.O.O.O.o.O.O.O.O.O.O.O.O.O.O.O.O.+.X.+.I.O.+.O.O.+.O.O.O.O.O.O.O.O.O. .O.O.O.O.O.O.I.O.O.O.O.O. .O.O.O.O.O.O.O.",
"O. .o.X.X.+.@.@.O.O.O.O.O.O.O.O.O.O. .O.O.O.O.O.O.X.X.@.@.I. .O.O. .O.O.O.O.O.O.O.O.O.O.O.O.O.O.+.P.O.P.O.O.O.O.O.O.O.O.O.O.O.O.",
"O.O.X.X.X.X.X.X.X.X.X.o.O.O. .O.O.O.O...O.O.O. .O.X.+.X.O.O.O.O.O.O.O.O.O.O.O.O.O.O.O.O.O.O.O.O.O.o.O.O.O.O.O.O.O.O.O.O.O.O.O.O.",
"O.O.X.X.X.X.X...X.X.X. .O.O.O.O.O.O.O.O.O.O.O.O.O.X.O.O.O.O.O.O.+. .O.O.O.O.O.O.O.O.O.O.O.O.O.O.O.O.O.O.O.O.O.O.O.O.O.O.O.O.O.O.",
"O. .O.O.O.O...O.O.O.O.O. .O.O.O.O.O.O.O.O.O.O.O.O.X.X.X.} O.O.O. . .O.O.O.O.O.O.O.O. .O.O.O.O.O.O.O. .O.O.O.O.O.O.O.O.O.O.O.O.O.",
"O.O.O.+.O.' _ ..| O.+.O.O.O.O.O.O.O.O.O.O.O.O...O.X.X._ } }  . .O.O.O.O.O.O.O.O.O.O.O.O.O.O.O.O.O.} } } | O.O.O.O.O.O. .O. .O.O.",
"..O.O.X.O.O.O...+.X.O.O.O.O. .O.O.O.O.O.O.O.O.O.X.X.X...O. . . .O. . .O.O. .O.O.O.O.O.O.O.O.O.O.O. .O. .O.O.O.O.O.O.O.O.O.O.O.O.",
"O.O.X.X.@.@.@.@.X...O.O.O.O.O.O.O...O.O.O.O.O.O.X.X.@.#.+.O. ._ ` |  .+.O.O.O.O.O. .O.O.O.O. .O.@.I.O.O.O.O. .O.O.O.O.O.O.O. .O.",
"O.O.O...@.+.@.X.O.| } O. . .O.O.O.O.O.O.O.O.O.O.O.O.| g.N.(.OX$X*X+X).x./ ! O.O.O.O.O.O.O.O. .+.+. .I.O.O. .}  . .O.O.O.O.O.O.O.",
"O.O.O.O...O.O.O.O.| O.}  .O.O.O...| ( ..O.O.O.O.) z.%X9X8X6X6X5X4X<X4X,X,X].x.Q _ O. .O.O.O.O. . .O.O.O.O.} O.} O.O.O.O. . . . .",
"O.O.O.O.O.O.O.O.O.O.O.O.O.X. .O.O.....' O.O...h.;X8X8X8X6X5X<X,X:X|.}.{.{.{.{.].{ !  . .O.O. .+.O.O.O.O.O.O.O.O.O.O.O.O. .| O.} ",
"O.O.O.O.O.O.O.O.O.O.O.O.o.I.o.O.O.O.X.O.` l N.6X8X6X5X5X<X:X|.[.`.u.r.e.e.e.r.`.'.R.Y ( O.O.O.O.O.O.O. .O.O.O.O. .I. .O.O.O.O. .",
"O.O.O.O.O. .O.O.O.O.O.O.U.P.@.@.X.+. .n.b.~.4X5X4X<X6X<X|.}.'.y.e.q.6.2.2.2.6.9.t.u.0.b.n.`  . .O.O.O.O.O.O.O.O.Y.P.U.+.O.O.O.O.",
"O.O.O.O.O.O.O.O.X.O.O.O.O.O.+.O.X. .b.^.K.4X5X4X,X:X,X:X[.`.y.w.5.2.<.<.;.;.<.2.5.w.0.K.L.d. . .O.O.O.O.O.O.O.O.O.O.O.o.O.O.O.o.",
"O.O.O.O.O.O.O.O.O.O.X.X.X.X.O.O.X.g.-XJ.b.<X6X6X4X|.}.'.`.t.w.3.;.;.;.;.-.;.-.-.:.,.v.k.S.L.E O.O.O.O.O.O.O.O.O.O. .o.O.O.o. .o.",
"X.O. .O.O.O. .O.O.O.X.X.X.X.+.O.`  X-XG.b.:X5X8X6X,X`.y.t.q.4.1.;.*.*.;.-.-.-.-.-.j.b.A.h h d.| O.O.O.O.O.O.O.O.O.o.o. .O.O.o.O.",
"@.' _ |  .O.O.O.O.O.O.@.+.#.+.O.Q -X&XH.F.W.<X5X5X:Xe.w.7.5.1.:.*.I I I I %.$.I p.F.J g y u d E O.O.O.O.O.O.O.O.+.+.P. .O.O.+.+.",
"....O.} O.O.O.O.o.O.o. .+.O.+. .h.-X/.D.J j.:X,X|.`.w.4.4.3.=.&.L L P Z Z L A a.C.J K i r r u 0 O.O.O.O.O.O.O.O.+.O.O.O.O.O.O.O.",
"O. .X.X. .o.#.+.@. .O.O. .O.O.O.b./.L.K h q x.`.r.9.4.,.1.:.&.P P V V N B n d.F.J j i t w e y 0 O.@.I.+.+.O.O.O.O.O.O.O.O.O.O.O.",
"O.O.X.O.X.@.O.@. .o.o. .O.O.O.O.f.L.D.k a p 0 8.7.5.2.2.1.=.I Z V V m V M f.F.Z.j a t e w 4 7 , O.P.O.P.O.O.O.O.O.O.O.O.O.O.O.O.",
"O.O.X.X.O.o.O.O.+. .X.X.O.O. .O.z S.A.j g f y 5 >.,.:.:.=.I P Z Z C N G b.C.K K a t e w 4 6 , D O.O.O.+.O.O.O. .O. .O.O.O.O.O.O.",
"O.O.O.O.O.O.O.O.+.O.O.O. .O.O.O.z.a.Z.j g f i 7 2 -.$.&.U P Z Z C C H J.C.A.g i u r e w 5 n >.8.~ O. .O.O.O.O.O.O.O.O.O.O.O.O.O.",
"O.O.O.X.X.O.' .. .O.O.X.O.O.O.O.B.>Xa.s g f f 7 G %.$.L P Z Z V C F F.G.A.K a i y r 6 , V I >.8.l  .|  .O.O.O.O.O.O.O.O.O.O.O.O.",
" .O.o.+.+.' _ ..| O.+.X.O.O.O. .).<X:XW.q f i 9 $.L S S Z V Z N C $ s K j j a i 7 < B Z L $.:.3.Q } } } } O.O.O.O.O.O.O.O.O.O.O.",
"..X...X.O...O...O.O.O.O.O.O. . .N.|.}.[.r.[ 2 U %.L Z V V m N N N v * u a u 8 , c B N S %.%.-.,.Q X.X...X.O...O.O.O.O.O.O.O.O.O.",
"O.X.X.X.@.@.@.@.O.O.O.O.O.O.O.O.i.].`.y.7.<.;.$.L Z Z A B m m N v v v , : x c b m m Z S %.%.>.,.Y P.+.X.X...O.O.O.O.O.O.O.O.O.O.",
"O.O.X.X.@.O.@.X.O.| |  . . .O.O.R N.0.8.1.;.*.I S A n # = = # $ b m v v v v v v m N C S %.%.&.M ! X.@.X.X...' ....X.O.O.O.X...O.",
"O.O.X.X.X.O.X.O.X...O. . .O.O.O.E l.s.T >.:.=.I Z x - ; * & & % @ b N v m v N N N N B L %.D + X ` X.X.X.X.| X.O...X.O.O...| ] ..",
"O.O.X.X.X.X.X.X.X.X.O.O.O.O.O. .Q 2Xa.1 > M U L b * 1 V.%XOXs.% X $ v v m v m m m m B M #   1 h.o.X. .X.X.X.X.X.O.X.O.O.O.| ..' ",
"O.O.X.X.X.X.X.X.X.X.X.O.O.I.+.O.] oX7Xm.; > ; = + ;  XV.V.v. Xs.X o b v v v v n x $ O   X c.3Xg.X.X.X.X.X.X.o.o.+.I.+.X.O.O.X.O.",
"O.O.O.O...O.O.O.O.O.O.X.Y.@.I.+.O.h.9X9X;Xa.; ; * & oX#X~.~.H  X1 X + @ @ @ o   . . ; c.%X2X;X~ X.O.O.O.X.O.X.+.U.P.I.X.O.O.O.O.",
"O.O.O.O.O.O.O.O.O.O.O.O.O. . . .O.) @X9X9X2X@Xc.- % !..XQ.E.a.N.3 X           1 s.!.+X#X;X3Xn.O.X.O.O.O.O.X.O. .o.X.O.O.O.O.O.O.",
"O.O.O.O.O.O.O.O.O.O.O.O. .O.O.O.O.O./ 3X9X2X@XQ.s.% m.m. XM.H B.> . s.m.B.E.!.~.Q.~.oX=X1X@X) O.O.O.O.O.O.O. .+. .X. .O.O.O.O.O.",
"O.O.....O.O.O.O.O. .O. .O.O.O.O. .O. .v.9X3X@X~.Q.1 & c.m.v.N.3 . 1 XXE.E.E.E.!.~..X*X;X1Xg. . .O.O.O.O.O.O.O. .O.O.O.O.O.O.O.O.",
"O.] _ ....X.O.O. .o.X.@.@.@.@.X.O.O.o.` V.7X=X.X~.B.3   % - . X < !.E.E.E.Q.!.)..X#X*X;Xl.' ' | O.O.O.O.O.O.O.@.O.+.@.o.o.X.@.+.",
"..X.....X.X.O.O.o.X.X.X.@.O.O.O.O.O.o.@.! !.1X*XoX~.~.M.s.p.p.v.~.Q.Q.Q.Q.~._.XX#X*X*Xv.....X.| O.@.O.O.O.O.O.O.O.+.O. . .O.X.+.",
"O.O.O.X.X.X.#.+.o.O.O.O.X.X.o.O.X.X.X.O.X.^ m.1X=X#X.X X~.~.~.~.~.~.~._._.XX+X$X$X#Xh. .O.O.O.+.O.+.I.X.O.O.O.O.O.O.o.X.o.o.O.o.",
"X.O.O.X.X.@.X.@.o.X.O.o.X.X.+.o.X.X.X.O.X.X.] g.@X1X*X+XXX.X.X.X.X.XXXoX+X*X$X*X(./  .+.o.O.+.O.O.@.+.@.@.O. .O.O.o. .O.O.O.X.O.",
"X.X.X.O.O.O.X...O. .O.O.+.O.O.O.X. .O.O.O.O.X.X.) z.oX$X*X#X#X*X#X#X$X*X*X*X(.h.`  .+. .O.O.O.O.X.X.X.X.O.O.O.O. .O.O.O.X.O.+.O.",
"O.O.O.O.O...O.X.O.O.X.O.O.O.O.O.O.O.O.O.X.O.O.X.O.O.) g.v.!.oX*X=X@XoXV.z./ ] O. . . .+.O.O.O.O.O.X.X.X.O. .O.O.O.O. .O.O.O.O.O.",
"O.O.O.O.O.O.......X.X.O.O.O.O.O.O.O.O.O.O.O.O.O.O.O.O.O.] ..( W ! ! ) | O.O.O.O.O.O.O.O.O.O.O.O.O.......X.O.O.O.O.O.O.O.O.O.O.O.",
"O.O.X.O.O.' _ ....X.O.O.O.O.O.O.O.O.O.O.O...O.O.O...O.' } ' ....O.O.O.O.O.O.O.O.O.O.O.O.O.O.O.O.O._ ' ....X.O.O.O.O.O.O.O.O.O...",
"O.O.X.O.X.O.X.....X.O.O.O.O.O.O.O.X.X.O.O.O.O.O.O.X.X.X.O...X.X.O.O.O.O...O.O.X.O.O.O.O. .O.O.O.X.X.O...X.X...O.O.O.O.O.O.O.O.X.",
"O.X.X.X.@.#.@.@.X.O...O.O.O.O.O.X.X.X.O.O.O.O.O.O.X.@.#.@.X.X.X.O.O.O.O.O.O.O.X.O.O.O.O.O.O.O.O.#.@.@.X.X.X...O.X.O.O.O.O.O.X...",
"O.O.X.X.X.+.@.X.O.' ' O.| O.O.O.O.O.O.O.O.O.O.O.O.X.X.X.@.X.O...} ..' O.O.O.O.X.O.O.X.O.O.O. .O.X.X.@.O.X...' ..| O.O.O.O.O.X.O.",
"O.O.X.X.X.X.X.X.X.O.| | ..O.O...O.| _ .. .O.O. .O.X.X.X.X.X.X.] O.| O.O.O.O...| _ ....O.O.O.O.O.+.X.X.@.X.' ....O.O. .O.X...} ..",
"O.O.O.O.X.X.X.X.O.X.O.O.O. .O.O.O.|  .} O.O.O.O.O.O.X.O.X.X.X.X.X.X.X.X.O.O.O.| ..' X.O.O.O.O.O.X.X.X...X.X.X.O.O.O.O.O. .| O.' ",
"O.O.O.O.X.X.X.X.O.O.O.X.+.U.o.+.O.O.O.O.O.O.O.O.O.O.O.O.X.X.X.X.X.+.o.U.+.+.O.O.O.O.O.O.O. .O.O.X.X.X.....X.X.@.+.Y.o.o.O.O.O.O.",
"O.O.O.O.O.O.O.O.O.O.O.X.Y.P.P.o.O.O.O.O.O.O.O.O.O.O.O.O. .O.o. .X.o.Y.P.I.+. .o.O.O.O. .O.O.O.O. .O.O.O.O.O. .+.T.@.T.O.O.O.O. .",
"O.O.O.O.O.O.O.O.O.O.O.X.X. .o. .X.O. .O.O.O.O.O.O.O.O.O.+.O.O.o.o.O.o.X. . .O.O.O.O.O.O.O.O.O.O.O.O.O.O.O.O.O. . . .O.O.O.O.O.O.",
"O.O.O...O.O.O.O.O.O.O.O.O.X.X.X.O.O.O.O.O.O. .O.O. .O.O. .O.O.O. .O.O.O.O.O.O.O.O. .O.X.O.O.O.O.O.O.O.O.O.O.+.+.o.O.O.O.O.O.O.O.",
"..O...O.X.O.X.X.O.O.O.X.X.+.X.X.X.X.X.O.@.O.+.....O.O.O.O.o.o. .o.O.o.o.O.O.O.o.O. .@.X.O.O.O.O.O.+.+. .+. . . .o.o.o.O.O.o.O.O.",
"O.' ' ....X.X.X.X.X.X.@.+.+.@.X.X.X.X.@.@.@.@.' | } O.O.+.O.X.X.X.+.+.+.@.X.X.X.X.@.#.@.X.] | |  .+. .+.+. .+.@.+.@.@.X.O.o.+.@.",
"O...O.' X.O.X.X.X.X.X.X.+.X.+.+.X.X.X.@...@.O...O.| O.O.O.O.X.X.X.+.+.+.@.X.o.O.X.+.X.+.X.| O.} +. .+.O. .+. .+.+.o. .o.O.O.X.@.",
"O.O.O...O.+.I.o.+.X.X.X.X.X.X.X.X.X.X.X.O.......O.O.O.@.#.+.+.o.X.X.X.X.X.X.X.X.O.X.+.X.X.X.O.O.O.@.I.O.+. . .+. . .O.O.X.X.O.+.",
"O.O.O.O.O.+.O.+.O.O.O.O.O.X.X.X.O.X.X.O.X.X.O.O.O.X.O.@.o.#. .O.O. .O.O.O.O.O.O.O.O.O.O.O.X.O.O.O.@.O.#.O. .+. . .+. .O.X.O.O.O."
};
