/* XPM */
static char *result[] = {
/* columns rows colors chars-per-pixel */
"64 64 195 2 ",
"   c #2D2F2F",
".  c #2D3030",
"X  c #333536",
"o  c #3A3837",
"O  c #353638",
"+  c #373839",
"@  c #3B3B3C",
"#  c #59513E",
"$  c #63573C",
"%  c #3E3E40",
"&  c #413F41",
"*  c #3E4141",
"=  c #434243",
"-  c #484647",
";  c #494847",
":  c #4B4749",
">  c #4D4A4C",
",  c #514D4E",
"<  c #4E4E53",
"1  c #534E51",
"2  c #565153",
"3  c #595456",
"4  c #5A5856",
"5  c #5C565A",
"6  c #5E5A5C",
"7  c #615C5E",
"8  c #6F634B",
"9  c #756B57",
"0  c #5C5C62",
"q  c #645E63",
"w  c #597B6C",
"e  c #656163",
"r  c #686668",
"t  c #6A656A",
"y  c #6D696C",
"u  c #746F73",
"i  c #6E7372",
"p  c #737274",
"a  c #7B7678",
"s  c #7C777B",
"d  c #967C3E",
"f  c #8C784B",
"g  c #807A7C",
"h  c #5E9B7F",
"j  c #618F7A",
"k  c #AE893B",
"l  c #B68C37",
"z  c #BD933A",
"x  c #CF9F3A",
"c  c #D09F3A",
"v  c #D4A33B",
"b  c #D8A63B",
"n  c #DCA939",
"m  c #E2AE3A",
"M  c #E6B239",
"N  c #EBB738",
"B  c #EEBB3B",
"V  c #F0BD3B",
"C  c #F2C13E",
"Z  c #AB8542",
"A  c #BD9541",
"S  c #AD985C",
"D  c #B7A05A",
"F  c #968B69",
"G  c #B29B64",
"H  c #B4A976",
"J  c #C29641",
"K  c #CAA345",
"L  c #EBBC44",
"P  c #E1BB5F",
"I  c #D1B966",
"U  c #EDC24D",
"Y  c #F2C343",
"T  c #F2C74E",
"R  c #F1C957",
"E  c #F3CA56",
"W  c #D6C57A",
"Q  c #F5CE6A",
"!  c #F5D467",
"~  c #F7D978",
"^  c #F5DD7A",
"/  c #F8E07D",
"(  c #7A7B81",
")  c #7E8186",
"_  c #679D85",
"`  c #749887",
"'  c #5FBA92",
"]  c #67A98B",
"[  c #66B18F",
"{  c #76AA92",
"}  c #71AE91",
"|  c #6BB493",
" . c #64BA95",
".. c #64BC96",
"X. c #6ABC97",
"o. c #6ABE99",
"O. c #66C09A",
"+. c #6CC29C",
"@. c #71C49E",
"#. c #6EC6A0",
"$. c #74C7A2",
"%. c #78C7A2",
"&. c #73C8A1",
"*. c #79CAA6",
"=. c #7BCDA9",
"-. c #7FD1AC",
";. c #898688",
":. c #8E958D",
">. c #8B8A95",
",. c #979699",
"<. c #A09D96",
"1. c #86A998",
"2. c #96AA9E",
"3. c #B6AE92",
"4. c #BBB395",
"5. c #A19FA2",
"6. c #99AAA4",
"7. c #9EB2A9",
"8. c #A5A3A4",
"9. c #A8A7AB",
"0. c #A8B6AE",
"q. c #B8B8AB",
"w. c #ABAEB2",
"e. c #A8A7B8",
"r. c #AAAABD",
"t. c #B2AFB2",
"y. c #AAB3B2",
"u. c #B8B8B8",
"i. c #C8BC90",
"p. c #C2BEB8",
"a. c #81CEAA",
"s. c #83D2AE",
"d. c #86D5B1",
"f. c #89D5B1",
"g. c #88D8B3",
"h. c #B9C4B5",
"j. c #D6C885",
"k. c #E8D584",
"l. c #F5DC84",
"z. c #F2DC99",
"x. c #F8E286",
"c. c #F6E18A",
"v. c #F7E597",
"b. c #D1C9AC",
"n. c #C7C5BC",
"m. c #F5E5A3",
"M. c #FAE9AB",
"N. c #F9E9B5",
"B. c #FCF0BC",
"V. c #AEAFC1",
"C. c #AEB1C3",
"Z. c #B2B3C3",
"A. c #B7B9C5",
"S. c #BABCC3",
"D. c #BABBCB",
"F. c #BEC1CB",
"G. c #C3C3C5",
"H. c #C4C3CA",
"J. c #C8C6C8",
"K. c #CBCBCF",
"L. c #D2CEC7",
"P. c #D9D2C9",
"I. c #C3C5D2",
"U. c #C6C9D4",
"Y. c #CACCD5",
"T. c #CACCD7",
"R. c #D1CFD4",
"E. c #CED2DA",
"W. c #D3D5DB",
"Q. c #D4D9DD",
"!. c #E6DFD8",
"~. c #EFE5C5",
"^. c #F5E9C3",
"/. c #F5EBC9",
"(. c #FCF0C6",
"). c #FBF2CE",
"_. c #EBE5D8",
"`. c #F2EAD5",
"'. c #F2EADB",
"]. c #FAF2D4",
"[. c #F6F1DB",
"{. c #F9F3DB",
"}. c #D8D9E0",
"|. c #DCDCE1",
" X c #E0DFE4",
".X c #E3E1E6",
"XX c #E9E8EA",
"oX c #F3ECE1",
"OX c #FAF4E4",
"+X c #FBF6E6",
"@X c #FAF5EB",
"#X c #EDECF0",
"$X c #F2EFF3",
"%X c #F5F4F7",
"&X c #F7F6F9",
/* pixels */
"&.&.&.&.$.&.&.&.&.&.&.&.&.$.&.&.&.O.+.O.@.@.&.&.&.@.&.&.&.&.&.*.&.@.%.%.&.&.&.O.@.+.&.&.&.&.&.&.&.@.&.&.&.&.&.&.&.&.@.&.&.+.@.O.",
"*.$.&.@.#.&.&.#.&.&.&.&.$.s.*.%.@.&.*.@.&.&.&.&.&.&.&.&.&.&.&.@.@.a.%.d.%.%.&.&.&.&.&.&.&.&.&.&.&.&.&.&.&.&.&.&.&.s.%.&.&.&.&.&.",
"s.$.&.&.&.&.&.&.&.&.&.*.s.s.s.*.&.&.&.&.&.&.&.&.&.&.&.&.&.&.&.&.%.*.d.a.a.*.&.&.&.&.&.&.&.&.&.&.&.&.&.&.&.&.&.*.d.f.f.a.&.&.&.&.",
"&.&.&.&.&.&.&.&.&.&.&.&.&.&.%.@.&.%.@.$.&.&.&.&.&.&.&.&.&.&.@.&.%.%.%.&.&.&.&.&.@.*.@.&.&.&.&.&.&.&.&.&.&.&.&.&.&.&.&.&.&.&.&.&.",
"&.&.#.#.$.$.$.$.&.&.#.$.%.$.$.$.$.$.&.%.$.$.$.&.&.&.&.&.&.&.&.&.&.&.@.&.%.&.&.%.&.&.&.*.&.&.&.&.&.&.&.&.&.&.&.&.&.@.@.&.&.&.&.a.",
"$.&.#.$.$.$.$.$.&.&.&.$.&.*.%.$.$.$.$.$.=.$.$.&.&.&.&.&.&.&.&.&.&.@.*.*.%.&.&.&.&.@.*.@.&.&.#.&.&.&.&.&.&.&.&.&.&.a.&.@.&.@.%.@.",
"*.o.' #.#.$.$.$.&.&.&.=.$.*.*.$.$.&.&.$.-.=.&.+.O.@.@.&.&.&.&.&.&.*.*.*.*.&.%.&.&.*.s.*.&.+.O.+.+.&.&.&.@.&.&.&.&.a.a.%.@.&.&.&.",
"$.#.$.o.$.$.$.#.&.&.$.$.=.*.*.%.$.*.&.=.&.=.&.+.&.O.&.&.&.&.&.&.&.&.=.*.*.&.%.@.&.-.&.*.&.+.&.O.&.&.&.&.&.&.&.&.&.&.&.@.a.&.@.a.",
"&.&.$.$.$.&.=.*.&.&.&.&.&.&.&.&.&.&.&.&.&.&.&.&.&.&.$.*.s.&.%.&.&.&.&.&.&.&.&.&.&.&.&.@.&.&.&.&.&.&.a.&.&.&.&.&.&.&.&.&.&.&.&.&.",
"&.@.$.$.%.=.*.*.*.$.%.&.&.&.&.&.&.&.&.&.&.&.&.&.&.$.%.*.*.-.%.$.*.&.&.&.&.&.&.&.&.&.&.&.&.&.&.&.&.a.&.a.&.&.&.&.&.&.&.&.&.&.&.&.",
"&.&.$.$.&.&.$.$.&.$.$.&.&.&.&.&.&.&.&.&.&.&.&.@.&.$.*.&.&.$.$.$.&.&.&.&.&.&.&.&.&.&.&.&.&.&.&.&.&.*.&.a.&.&.&.&.&.&.&.&.&.&.&.&.",
"&.&.$.$.$.&.$.$.$.$.$.@.&.&.&.@.#.&.&.&.&.&.&.&.&.$.%.$.$.$.$.$.@.@.&.&.&.&.&.&.&.&.&.&.@.&.&.&.&.&.&.&.&.&.&.&.&.&.&.&.&.&.&.&.",
"&.&.&.&.#.$.#.$.&.&.*.&.&.*.@.*.&.&.&.&.&.&.#.&.&.$.$.$.+.&.&.$.*.@.&.&.&.&.#.&.&.&.&.&.&.&.&.&.&.&.@.&.&.&.&.@.&.@.&.&.&.&.&.&.",
"&.&.$.$.#.#...#.+.&.&.&.&.@.@.@.&.&.&.&.&.&.$.$.&.$.$.....O.+.&.&.&.&.&.&.&.&.&.&.&.&.&.@.&.&.&.&.O.O.O.+.&.&.&.&.&.&.&.&.&.&.&.",
"&.&.$.$.#.&.$.#.&.&.&.&.&.&.&.&.&.&.&.&.&.&.$.$.$.$.*.#.&.#.&.&.&.@.@.&.&.&.&.&.&.&.&.&.&.&.&.&.&.@.@.@.&.&.&.&.&.&.&.&.&.&.&.@.",
"&.&.&.$.=.=.=.=.&.&.&.&.&.&.&.&.&.&.#.&.&.&.#.$.$.$.=.#.{ 2.h.h.b.h.7.1.[ #.&.&.&.&.&.@.&.&.&.&.a.s.&.&.&.&.@.&.&.&.@.&.&.&.&.&.",
"&.&.&.&.*.*.=.$.&.+.+.&.@.&.@.&.&.&.$.$.&.&.&.&.@.{ u._.@XOXOX@XOX[.oX[.!.n.1.O.&.&.&.&.&.&.&.&.*.@.-.@.&.@.+.@.+.&.&.&.&.&.&.&.",
"&.&.&.&.&.&.&.&.&.+.#.O.@.&.&.&.&.+.' #.#.&.&.} G.@X+X+XOX[.].].`./.^./.~.`.'.L.1.+.#.&.&.&.&.&.&.&.&.&.&.O.&.O.&.&.&.&.@.+.+.@.",
"&.&.#.&.&.&.&.&.&.&.&.&.&.@.%.&.&.#.#.o.&.@.6.XX@X@X{.].).).(.B.M.v.v.m.m.N./._.oXu.| *.@.&.&.&.&.&.&.&.&.&.&.&.&.%.&.&.@.+.&.O.",
"&.&.&.&.#.&.&.&.&.&.&.&.&.s.$.&.&.&.$.$.@.0.@X@XOX`.~.b.4.3.3.H j.W k.c.l.c.v.N.`.'.P.} &.&.&.&.&.&.&.&.&.&.@.&.&.a.&.&.&.&.&.&.",
"&.&.&.&.&.&.&.&.&.&.&.&.d.=.=.*.@.*.@.+.q.[.[.[.P.<.<.t.5.>.;.s p 7 1 ; F W l.v.N./._.P.{ @.&.&.&.&.&.&.&.&.&.&.f.a.f.&.&.&.&.&.",
"&.&.&.&.$.&.&.&.&.&.#.&.$.*.&.*.@.@.@.:.].].).~.8.5.J.P.8.a y e e 7 7 4 2 > W x.c.M.^.`.P.} &.%.&.&.&.&.&.&.&.&.&.&.@.a.&.&.&.&.",
"&.&.&.&.&.&.&.&.&.$.&.$.%.$.&.&.*.@._ b.(.).{.n.t.,.9.q.;.y 7 7 7 4 3 , , 9 ^ l.x.c.m.^._.q.#.$.&.&.&.&.&.&.&.&.&.@.&.@.&.%.@.a.",
"$.&.@.&.&.&.&.@.&.&.&.&.$.%.*.&.@.@.) B.).+X@Xn.u.;.g u t 7 7 7 3 , , : = S ~ ^ / x.c.v.~.q._ $.&.&.&.&.&.&.&.&.@.a.%.&.&.%.@.@.",
"$.o.' #.@.&.&.&.&.&.&.=.*.-.*.&.@.` 4.B.].OX_.J.t.g q 7 7 5 3 3 , > % % % I Q ! ! / / c.z.a p X.&.&.&.&.&.&.&.&.&.a.a.@.&.&.*.*.",
"&.#.&.+.$.$.&.$.%.@.&.&.*.&.&.&.@.,.i.B.).OXL.J.<.y 7 7 3 , , > - = # @ @ U U R ! ! / / H r s h &.&.&.&.&.&.&.&.&.&.&.&.&.&.@.*.",
"&.&.&.&.&.&.-.=.*.*.%.@.@.&.@.*.] 8.k.M.(.).p.5.g 7 , , , : - = % @ @ o 8 B C Y T ! Q ~ 7 e u y &.a.s.*.&.&.&.&.&.&.&.&.&.&.&.&.",
"&.&.$.$.&.=.&.=.@.@.%.&.&.&.&.@.` >.v.M.N.N.F g 7 3 , , : & % @ @ @ @ o k N B C Y T ! I 1 q y t O.a.&.a.&.&.&.&.&.&.&.&.&.&.&.&.",
"&.&.&.$.$.$.$.$.*.@.$.&.&.&.&.&.p F x.v.v.l.7 7 , , , - & @ @ @ @ @ + @ k M N B V Y E S 1 7 q t h %.%.%.&.&.&.&.&.&.&.&.&.&.&.&.",
"@.&.$.&.&.%.$.$.@.*.&.&.&.&.&.@.y F ~ ~ Q P 7 2 3 , : & @ o + + O O O O z M M N V V T f : 2 7 7 j &.&.&.&.&.&.&.&.&.&.&.&.&.&.&.",
"&.&.&.%.$.&.o.#.*.&.&.&.&.@.&.| 0 F ! Q P L 3 2 , , & & o o O O O X X O z n M M N V L 8 & , , 7 j +.O.&.&.&.&.&.&.&.&.&.&.&.&.&.",
"&.&.$.$.$.O.' #.O.&.%.&.&.&.&.[ 2 G E T L K 2 2 , & & o o o X X X X X O x v n m N L L @ & & ; , w O.O.O.O.&.&.&.@.&.&.&.&.&.&.&.",
"&.&.$.$.&.#.#.&.&.&.&.&.&.&.@. .> D E Y C A 3 2 > = @ X X X X X X X X @ A v b n M N U O + = > 2 w $.#.#.#.&.&.&.&.&.&.&.&.&.#.&.",
"&.#.$.&.=.=.=.=.&.&.&.&.&.&.@.@.5.G E T C x 2 2 > = X X X . X X X X X O J c v n M B U O % - < 1 w -.=.$.$.#.&.&.&.&.&.&.&.&.&.&.",
"&.&.$.$.$.=.*.$.&.#.+.@.@.&.&.&.i t.G L Y A 1 , > @ % 2 4 2 > % X O X @ J x v n M L T o % : > @ _ $.*.$.&.#.o.#.#.&.&.&.$.$.&.&.",
"&.&.$.$.$.&.&.$.&.#.@.@.@.&.&.&.7.w.:.9 K K , , = = 6 e :.:.* = + X X O A x v n M L R # & & O u ] $.$.$.$.+.$.#.#.%.&.&.#.+.o.#.",
"&.&.$.$.$.&.$.$.&.$.$.&.@.*.@.@.} $Xu.7 7 7 - : % 3 :. XK.W.H.6 # o X X l v b n L U I $ + X ,.F.o.&.@.$.$.$.%.$.$.$.&.&.#.+.#.o.",
"&.&.&.&.&.*.$.$.$.$.&.&.&.d.&.*.o.Y.&X X;.6 7 3 1 , W.G.S.e.9.A.: @ X X Z J z Z d # X . s K.$X0.$.$.$.&.$.$.%.%.*.s.*.&.&.&.$.&.",
"&.&.&.&.#.&.&.&.#.&.&.$.s.=.-.*.&.2.&X&X%XG.;., , : G.W.Z.V.>.S.( % X X   X X O X 6 8.K..X.X X[ &.&.&.&.&.$.$.*.d.a.d.&.#.&.&.&.",
"&.&.&.&.&.&.&.&.$.&.&.$.&.@.&.&.&.| R.&X&XXX|.R.t % G.H.Z.V.>.e.( X .     < ;.9.H.W.Y.E.|.XXy.&.&.@.&.&.&.&.&.@.%.@.$.$.&.&.&.&.",
"&.&.&.&.&.&.&.&.*.@.&.&.@.&.&.&.&.#.{ #X%XXXU.V.w.@ ,.u.y.,.( C.< X F.}.E.T.D.V.V.D.U.}..X}.[ $.&.&.&.&.&.&.&.&.$.&.@.&.&.&.@.*.",
"&.&.#.#.&.&.&.&.@.&.&.@.&.&.&.&.&.&.@.2.%XXXW.D.Z.,.@ ) 9.w.6.< % >.I.V.e.r.V.V.D.I.W.}.|.1.#.$.&.&.&.&.&.&.&.&.&.&.&.&.&.&.*.@.",
"$.o.' #.#.$.&.&.@.%.$.=.=.*.*.&.$.@.%.%.8.#X|.I.D.D.w.0 * % @ ; 9.F.V.V.V.V.C.D.U.E.W.|.6.O.O.+.*.&.&.&.&.&.&.=.&.*.-.%.&.&.*.*.",
"&.#.$.#.$.$.&.$.%.%.@.$.*.*.*.&.$.$.&.*.X.6..X|.E.F.D.I.D.A.u.I.D.V.V.V.C.D.F.T.E.W.W.6.$.#.$.+.&.*.&.@.&.&.&.&.&.%.&.@.&.&.&.*.",
"*.#.$.#.$.$.-.$.&.$.$.$.%.%.*.&.%.$.$.$.$.#.1.}.|.}.U.F.F.D.D.A.D.Z.F.F.F.F.E.E.Q.Y.1.@.$.$.$.$.&.*.-.$.=.@.&.&.&.%.$.$.&.&.%.$.",
"#.&.$.$.$.=.*.*.*.$.%.&.$.$.$.%.$.&.$.&.$.$.@.{ S. X}.E.E.U.U.U.U.U.U.T.E.Q.W.W.0.} $.$.$.$.%.$.&.-.*.=.&.&.&.&.&.@.$.&.%.&.%.&.",
"$.$.$.&.&.&.$.#.&.&.$.&.&.&.&.&.&.&.&.&.$.$.$.$.#.{ r.E.Q.Q.E.Q.Q.Q.Q.Q.}.E.y.{ &.&.&.&.&.&.$.&.$.$.$.$.&.&.@.@.&.@.@.&.&.&.&.*.",
"&.&.*.&.&.#.&.&.&.&.$.&.&.&.&.@.&.&.#.$.$.#.$.$.&.&.*.] { 7.w.A.A.A.w.7.{ o.#.$.&.&.&.&.&.&.&.&.$.#.$.$.&.&.&.*.@.*.&.&.&.&.&.&.",
"&.&.$.$.&.#.#.&.&.&.*.&.&.#.&.&.&.&.&.&.&.&.&.&.&.$.$.&.+.#.$.$.@.&.&.&.&.&.&.&.&.&.@.&.&.&.&.&.&.&.#.#.$.$.#.$.&.#.&.#.&.&.&.&.",
"&.&.$.$.#.#...+.+.&.&.&.&.&.&.&.&.$.&.&.#.&.&.&.&.&.#.O.o.O.#.$.&.&.&.&.&.&.&.&.&.&.&.&.&.&.&.&.&.....#.#.#.$.$.&.&.&.&.&.&.&.&.",
"&.$.$.$.$.$.$.#.&.&.&.&.&.&.&.&.$.$.$.$.&.&.&.&.&.&.$.$.#.#.$.$.&.&.&.&.&.#.&.&.&.&.&.&.&.&.&.&.#.&.&.#.*.$.$.$.$.&.&.&.&.*.&.&.",
"&.$.$.$.=.=.=.=.&.&.#.&.&.&.&.&.$.$.$.$.&.&.&.&.&.$.-.-.=.*.$.$.#.&.&.&.&.&.&.&.&.&.&.&.&.&.&.&.-.=.*.*.$.$.#.$.$.$.&.&.&.&.&.&.",
"&.&.$.$.=.$.=.#.&.o.O.&.O.&.&.&.&.&.#.$.&.&.&.&.&.$.*.$.=.#.#.#.+.#.o.&.&.&.&.&.&.&.&.#.&.&.&.&.*.*.=.#.*.O.O.#.@.&.&.&.&.&.&.&.",
"&.#.$.$.$.$.*.$.$.@.@.+.@.&.&.@.&.+...#.@.&.&.&.#.$.$.$.*.$.#.#.#.+.&.&.&.&.&.+.' #.&.&.&.&.&.@.*.#.$.*.*.O.#.#.&.&.&.&.#.+.+.+.",
"&.&.$.$.$.$.$.$.&.&.&.&.&.&.&.&.#.+.@.O.&.&.&.@.$.$.$.&.#.$.$.$.$.$.&.$.&.#.&.+.#.O.&.&.@.&.&.&.#.*.$.$.$.$.$.$.*.@.@.@.@.@.@.O.",
"&.&.&.&.$.&.&.&.&.&.&.&.%.d.%.*.&.&.&.&.&.&.&.&.$.$.&.&.$.$.$.$.$.%.*.d.=.*.&.&.&.&.&.&.&.&.&.&.$.#.#.$.#.$.$.*.*.g.@.*.*.@.@.*.",
"&.&.&.&.&.&.#.$.&.&.&.$.f.a.a.%.&.&.&.@.&.&.&.&.&.&.&.@.@.%.%.@.$.%.f.a.s.*.@.%.&.&.&.@.*.@.&.&.&.&.&.&.&.&.&.%.g.=.g.*.@.&.&.&.",
"&.&.&.&.&.&.&.&.&.&.&.&.$.@.%.@.&.&.&.&.&.&.&.&.&.&.&.&.*.&.&.$.$.$.%.%.@.@.@.*.&.&.&.&.@.*.&.&.&.&.&.&.&.&.&.&.@.@.&.&.&.&.&.&.",
"#.&.#.&.&.&.&.&.&.&.&.&.&.$.$.$.&.&.&.&.&.&.&.&.&.@.&.&.@.*.$.$.%.&.&.&.@.@.*.@.&.@.&.&.@.&.&.&.&.&.&.&.&.&.%.%.@.@.*.@.&.&.&.&.",
"&.&.#.$.$.&.%.$.&.&.&.$.%.*.$.$.&.$.$.&.*.&.*.&.&.&.#.&.*.@.$.$.@.%.%.&.&.*.*.@.&.&.*.&.*.&.@.&.&.&.&.&.%.@.&.@.*.*.@.*.&.&.&.@.",
"&.....#.$.$.$.$.&.$.$.=.*.*.=.$.%.$.$.*.=.=.#.#.+.O.&.&.%.$.&.$.&.*.*.*.-.&.&.&.$.=.=.=.&.O.+.+.@.*.@.*.*.@.*.a.*.*.=.*.&.@.-.*.",
"&.&.&.O.$.&.$.$.&.%.$.&.*.*.*.$.&.&.&.=.#.=.#.#.&.+.&.&.%.&.$.$.$.*.*.%.*.&.&.&.$.*.%.*.&.@.&.+.*.@.*.@.&.@.@.*.*.*.&.@.@.*.@.-.",
"#.&.&.&.&.&.s.$.*.$.%.$.$.$.$.%.*.&.$.$.$.$.&.#.&.&.#.=.-.&.*.$.$.$.$.&.*.&.&.%.&.&.*.$.&.&.&.&.@.=.d.@.*.&.&.*.@.@.@.*.@.*.*.*.",
"&.&.&.&.&.*.&.*.&.&.&.&.&.&.&.#.#.$.$.&.$.$.&.&.&.$.#.-.*.=.$.&.&.&.&.&.&.&.&.&.&.&.&.&.&.&.&.@.*.-.@.s.@.&.&.&.&.&.&.&.&.&.@.@."
};
