/* XPM */
static char *result[] = {
/* columns rows colors chars-per-pixel */
"64 64 155 2 ",
"   c #3E4665",
".  c #4D4967",
"X  c #424A69",
"o  c #494F6B",
"O  c #43536B",
"+  c #4B516D",
"@  c #445C6A",
"#  c #53566F",
"$  c #4F5570",
"%  c #525C76",
"&  c #595B71",
"*  c #744B63",
"=  c #655C74",
"-  c #46646C",
";  c #49676D",
":  c #4B6873",
">  c #576076",
",  c #5D6076",
"<  c #526B75",
"1  c #5C687F",
"2  c #4B7473",
"3  c #4E7975",
"4  c #517B77",
"5  c #527C7B",
"6  c #61647A",
"7  c #636A7E",
"8  c #6A6C79",
"9  c #74757E",
"0  c #7D7A7E",
"q  c #A94E55",
"w  c #A6535C",
"e  c #B05055",
"r  c #876E62",
"t  c #897168",
"y  c #987860",
"u  c #917869",
"i  c #837D7F",
"p  c #BF6566",
"a  c #BC6A6D",
"s  c #BB6E72",
"d  c #B6767C",
"f  c #B4787E",
"g  c #C7534C",
"h  c #C85048",
"j  c #C45A57",
"k  c #C25F5E",
"l  c #54817D",
"z  c #568A7E",
"x  c #646D83",
"c  c #696F83",
"v  c #697387",
"b  c #757780",
"n  c #7C7D85",
"m  c #717A8D",
"M  c #7E7F88",
"N  c #747E93",
"B  c #847F81",
"V  c #8A7E8E",
"C  c #967C8A",
"Z  c #B37B82",
"A  c #5C9585",
"S  c #5C9985",
"D  c #608380",
"F  c #7D838D",
"G  c #7C958E",
"H  c #798495",
"J  c #7C8A9C",
"K  c #5FBA92",
"L  c #64A98E",
"P  c #60B691",
"I  c #6AB396",
"U  c #63BC96",
"Y  c #69BE97",
"T  c #6CB499",
"R  c #67BD98",
"E  c #6ABE9A",
"W  c #75B69A",
"Q  c #75BA9D",
"!  c #79B99C",
"~  c #66C09A",
"^  c #6CC29C",
"/  c #71C59E",
"(  c #6EC5A0",
")  c #74C7A2",
"_  c #79C7A3",
"`  c #73C8A1",
"'  c #79CAA5",
"]  c #7BCDA9",
"[  c #7FD1AC",
"{  c #868082",
"}  c #8B8482",
"|  c #81828A",
" . c #8E8B8C",
".. c #908782",
"X. c #958B83",
"o. c #9A8E83",
"O. c #958F8D",
"+. c #9F9184",
"@. c #97908D",
"#. c #9B938D",
"$. c #808597",
"%. c #818893",
"&. c #818E9E",
"*. c #8A8898",
"=. c #819D9B",
"-. c #AC858F",
";. c #A39384",
":. c #AD9B85",
">. c #A59A8E",
",. c #AE9D88",
"<. c #B29E86",
"1. c #A78A95",
"2. c #A88994",
"3. c #A58D99",
"4. c #AFA08F",
"5. c #BBA587",
"6. c #BEA788",
"7. c #B4A390",
"8. c #BDAA91",
"9. c #828FA0",
"0. c #8492A3",
"q. c #8896A7",
"w. c #8997A8",
"e. c #8E9EAE",
"r. c #9B97A5",
"t. c #949CAC",
"y. c #91A1B1",
"u. c #9EAEBE",
"i. c #ACA6B4",
"p. c #C8858A",
"a. c #C6898F",
"s. c #C0A888",
"d. c #C1AC91",
"f. c #81CEAA",
"g. c #83D2AE",
"h. c #86D5B1",
"j. c #88D4B0",
"k. c #88D8B3",
"l. c #A0B0C0",
"z. c #AEBBC9",
"x. c #B0BCCA",
"c. c #B4C4D4",
"v. c #B9C5D4",
"b. c #BDC8D4",
"n. c #BCCCDC",
"m. c #C5CDD5",
"M. c #CACCD5",
"N. c #C1CEDC",
"B. c #C8CDD9",
"V. c #C7D2DD",
"C. c #C6D6E5",
"Z. c #C8D6E5",
"A. c #C8D8E8",
"S. c #D6DDE8",
"D. c #DBE2ED",
/* pixels */
"` ` ` ` ` ` ` ` ` ( ` ` ` ` ` ` ^ ^ ^ Y ` ` ` ` / ` ` ` / ` ` / ' / / / / / / / ^ Y ` ` ` ` ` ` ` / ` ` ` ` ` / / ` / / / / / ~ ",
"' ) ` / ` ` ` ` ` ` ` ) ' h._ ) ` ` ` ` ` / ` ` ` ` ` / ' / / ' / ' f.j.f./ / / ` ` ` ` ` ( ` / ` ` ` ` ` ` ` ` / h.f.' ' / / / ",
"g./ ` ` ` ` ( ( ` ` ` ) g.g.f.] ) ) ` ` ` ` ` ` ` / ` ` / ' / ' ' f.j.j.g.f.f./ ` ` ` ` ` ` ` ` / ` ` ` / ` ` [ k.j.k.f.` ` ' / ",
"` ` ` ` ` ` ` ) ` ` ` ` _ ) ` ) ) ) ) ) ` ` / ` ` ` ` ` / ' / / / / / / / ' / / ) ` ` ` / ` ` ` ` / ' / ` ` ` ` / / / / ` ` / ' ",
") ` ( ` ` ` ` ) ` ( ` ` ` ) _ ) _ _ ` ) _ ` ` ( ` ` / / / / / / ` ` _ ' / / / / _ ) ) _ ` ( ` ` ` ` / ' / / ` ` ' / f./ ` / / ' ",
") ) ( ` ) ` ) ) ` ` ` ` ) _ ) ! W W W W Q Q Q T Q Q W W W ! W W W W W W ! ! W f.W W ! W W W W W / ` ' / ` ' ` ` / / / / / ' / / ",
"' E P ( ( ) ) ) ` ` ` ] _ ] ' G M M M M M M H F F F F F F F { F M M M M M M i B M M M M M M n m / / ' / ` ` ` ` f.' ' / / / f.' ",
"` ( ` E ) ) ) ) ` ` ` ` ' ' ' 3 N A.A.A.A.A.A.A.Z.Z.Z.Z.Z.Z.Z.A.A.A.A.A.A.Z.Z.Z.A.A.A.A.A.A.C.x I / / ' / ` ` ` ' ' f./ ' ' / ] ",
"` ` ` ) ` ` [ _ ) ` ) ` ` ` ` 4 H C.C.A.A.A.A.A.A.A.A.A.A.A.A.A.A.A.A.A.A.A.A.A.A.A.A.A.A.A.C.x Y ' f.` ` ` ` ` / / ` ` ` ` ` ` ",
"` ` ) ) ` ] _ ] ) _ _ ` ` ` / 3 N A.A.A.A.A.A.A.A.A.A.A.A.A.A.A.A.A.A.A.A.A.A.A.A.A.A.A.A.A.C.x I [ ` [ ` ` ` ` / ' ` ` ` ` ` ` ",
"` ` _ ` _ ) ) ) ) ) ` ` / ` ) 3 m n.n.n.c.c.n.n.n.c.c.c.c.c.c.n.n.c.c.n.n.c.v.n.n.c.v.n.n.n.n.1 I / ' ` ` ` ` ` ` ` ` ` / ` ` / ",
"` ` ) ) ) ` ) ) ` ) ) ` ` ` / 3 x z.z.u.y.u.y.y.y.u.y.u.y.u.y.u.y.y.u.y.y.u.y.y.y.y.u.y.u.z.z.> W / ` ` ` ` ` ` ` ` ` ` ` ` ` ' ",
"` ` ) ) ) ` ( ) ` _ ) ) ` ` / 5 x w.y.e.y.y.t.b x O X o + O o + o o + O + X . x $.y.y.e.y.y.y.% I / / ) ` ` / ` ` ` ` ` ` ` ` ` ",
"` ) ( ) ` ~ K ( ( ` ) ` ` ` ` 5 x e.e.y.y.e.e.b $   X   X           X       X x $.y.y.y.y.y.y.% Y U Y ~ / ` ` ` ` / ` ` ` ` ` ` ",
"( ` ` ` ( ` ) ` ` ` ` ` ` ` ` 4 x w.y.e.e.y.y.b %     X   X   X   X   O X   X x %.e.y.e.e.y.e.% T ( ` ^ ` ` ` ` ` ` ` ` ` ` ` ` ",
"` ` ` ) ] ] ] ] ` ( ` ` ` ` ` 4 x y.y.y.y.y.y.b & X   X X   X X X   X     X   v %.y.y.y.y.y.e.% Q h.) ) ` ` / ` ` / / ` ` ` ` ` ",
"` ` ( ` _ ] ] ` ` ^ ^ / ^ ` ` 4 x e.y.y.e.y.e.9 &   X   X X X   X   X X X   X 6 J y.e.y.y.y.y.% T ` ] ` / / ^ / ^ ` ` ` ` ` ` ` ",
"` ` ` ` ` ` ` ` ` ^ / ^ / ` / 4 1 y.y.y.y.y.e.9 & X   X X         X       X   8 %.e.y.y.y.y.e.% T ` ` ` ` ^ / ^ ` ` ` / / / ^ / ",
"` ` ` ` ` ` ` ` ` ` ` ` ` / z O 1 y.y.e.e.y.e.9 9 8 8 8 8 8 8 9 c 9 8 8 9 8 9 9 %.e.e.y.y.e.e.% 2 A ` ` ` ` ` ` ` / ' ' / ^ ` ~ ",
"` ` ` ` ` ` ` ` ` ` / ` _ g.- X 1 e.y.y.y.y.e.F F %.| N H F | F F F F F F F F | &.e.y.y.y.y.e.%   3 ` ` ` ` / / / g./ / ` / ` ` ",
"` ` ` ` ` ` ` ) ` ` ` ` g.f.- X 1 y.e.y.y.e.y.y.y.y.y.y.y.y.y.y.y.y.e.y.y.y.y.y.e.e.y.y.y.e.e.%   2 ` ` ` ` ` ' j.j.j.f.` _ ` ` ",
"` ` ` ` ) ` ` ( ` ` ( ` ) ) -   1 y.y.y.y.y.y.y.y.e.e.y.e.y.e.y.y.y.y.y.y.e.e.y.y.y.e.y.y.y.y.%   3 ` / ` ` ` ` / / / / ` / / ' ",
"` ) ` ` ` ` ` ` ` ` ` ` ) ) - X 1 e.e.y.y.y.e.y.y.y.y.y.y.y.t.e.y.y.e.y.y.y.y.y.y.y.y.y.y.e.y.%   2 / / ` ` ` ` / / / / f./ / ' ",
") ` ^ ` ` ` ` ` ` ` ` _ _ _ - X 1 w.H q.y.y.y.y.y.y.e.y.m q.q.m m w.H H y.y.e.y.e.y.e.y.0.J e.%   2 / / ` ` ` ` / f.f./ / / ' / ",
"` R K ( ( ) ) ` ` ` ` ] ' ] A @ 1 0.7 &.0.9.9.y.y.e.w.9.& 9.9.& , q.c 7 0.e.y.y.e.&.&.w.J m w.% z z ` ` ` ` ` ` _ f.' ` ` ` _ ' ",
"` ( _ E ) ` ) ) ` ) _ / ' _ ` 4 1 0.7 &.v & 6 y.y.y.9.6 # 9.9.& , 0.c & 7 e.y.y.&.& , 9.J m w.% Y ` ` ` ` ` ` ` ` ' ` ` ` ` ` ' ",
"` ` ` ` ` _ [ ' ' _ / ` / / / =.M M M M M M M M M M M M M M M M n F M M M M M M F M M n M M M B W / g.' ' ` ` ` ` / ` ` ` ` ` ` ",
"` ` ` _ ` ] ` ' / / _ ` / / A x.M.x.x.x.x.x.z.z.z.x.x.z.x.x.z.x.z.z.z.x.z.x.x.x.z.z.z.z.x.x.x.M.=.L ` [ ` ` ` / ` ` ` ` ` ` ` ` ",
"` ` ) ) ) ) ` ' _ / ) ) ` ` : m.S.z.z.z.z.z.z.z.z.z.z.z.z.z.z.z.z.z.z.z.z.z.z.z.z.z.z.z.z.z.z.D.%.5 ) ' ` ` ` ` ` ` / ` ` ` ` ` ",
"` ` ) ) _ ) ` ` ` ' ` ` ` ` : c.c.8 8 8 8 8 8 8 8 8 8 8 8 8 8 8 8 8 8 8 8 8 8 8 8 8 8 8 8 7 c n.M 5 ` _ ` ` ` ` ` ` ` ` ` ` ` ` ",
"` ` ` ) ` ( E ( ` ) ) ` ` / : z.c.o o o o o o o o o o o o o o o . o o o o o o o + + + + o o : n.H x E ( ` ` ` / ` ` ` ` ` ` ` ` ",
"` ` ) ) ` E K ( ^ ` _ ) ` ` : c.x.X   X   X   X X   X   X   X       X X   X   X X       X     c.H 2 U ~ ^ ` ` ` ` ` ` ` / ` ` ` ",
") ) ) ) ` ( ` ( ` ` ` ` ` ` : z.v.r r r r r r r r r r r r r r r r r r r r r r r r r r r r r t N.H l ( ~ ` ` ` ` ` ` ` ` ` ` ` ` ",
") ) ) ) ] ] ] ] ` ` ` ` ` ( : c.v.y y y y y y y y y y y y y y y y y y y y y y y y y y y y y y N.N x ] ` ` ( ( ` ` ` ` ` ` ` ` ` ",
") ) ` ) ) ] ] ) ` ~ E ` ^ ` ; c.v.y u u u u u u u u u u u u u u u u u u u u u u u u u u u u u N.H l ] ` ` ^ E ( ( ` ` ` ) ) ( ` ",
"( ( ) ) ) ` ) ) ) ) ` ^ ( ` ; z.v.0 i i 0 0 i i 0 0 i i 0 i i 0 b i i i 0 i i 0 0 i i 0 i i { N.m l ` ` _ ^ ` ( ` ` ` ` ( ^ ^ ^ ",
"` ( ' ` ' ` ` ` ) ) ) ` ` ' : c.v.} :.:.} } :.:.} X.:.:.0 +.:.+.B ;.:.;.B :.:.} } :.:.} ..:.,.B.N 4 ` ` ` ) ` ` ` ` ` ` ` E ( R ",
"` ` ` ` ` ` ` ` ) ) ` ) ` g.: c.v.} 5.6...X.6.5.o.;.s.s.0 :.6.:.} <.s.<.} s.s.o.X.6.6.X.o.s.8.V.N 5 ` ` ) ) _ _ _ h._ ` ( ` ` _ ",
"` ` ` ` ( ` ) ` ` ` ` ) h.] : z.v...5.6.....s.5.o.;.s.s.0 :.s.:.} <.s.<.} s.s.X.X.6.6.X.o.s.s.Z.N 5 ( ` ` ` ` ' h.] h._ ` ` ` ` ",
"` ` ` ` ( ) ) ( ) ` ` ) ( ( : c.v...5.s.....s.5.X.;.s.s.0 :.s.:.B <.s.<.B s.s.X.X.6.6.X.o.s.s.V.N 5 ( ` ` ` ` ) _ ) ` ` ` ` ` ` ",
"` ` ` ` ` ( ` ` / ' / / / ' ; c.v.} 5.6.....6.6.o.;.s.s.0 :.s.:.} <.6.<.} s.s.o.X.s.5.X.o.s.s.V.H l ` / ` ` ` ` ) ) ` ` ) ` ` ` ",
"` ` ( ` ` ` ` ` ` ` ' / ' / - c.v...6.6...X.6.5.X.;.s.s.0 :.s.:.} <.s.<.i 5.s.X.X.s.s.X.o.s.d.V.m l ` ` ` ` ` / ` ` ` ` ) / ` ` ",
"` E U ( ( ( ` ` / _ ` ' ' ] : c.v...5.6...X.6.5.X.;.s.s.n :.s.:.{ <.s.<.} s.s.X.X.s.5.X.o.s.s.V.H 3 ` ` ` ` ` ] ` ' ] ) ) ) ' ] ",
"` ( ( ( ` ) _ ) / _ ` _ ' ` : c.v...5.6...X.s.5.X.;.s.s.0 :.s.:.{ <.6.<.} s.s.o.X.s.5.X.o.s.s.V.N 5 ' ` ` ` ` ` ) ) ` ) _ ) ) ' ",
"` ) ` ` ` _ [ _ ' / ` ` ` ( : c.v...5.s.....6.6.o.;.s.s.n :.s.:.{ <.s.<.{ s.s.X.X.6.6.X.o.s.s.V.N 5 [ ( ` ` ` ` ` _ _ / / ` _ ) ",
"` ) ` ` ` ] ' ' _ ` _ ` ) ` : c.v...5.6.....6.5.X.;.s.s.0 :.s.:.} <.s.<.{ s.s.X.X.6.5.X.o.s.s.V.N D ` ] ' ` ` / / / ` _ _ ` ) ) ",
"` ` ` ` ` ` ( ` ` ` ` ` I z   c.v...5.6.....6.6.X.;.s.6.0 :.s.:.{ <.s.<.} s.s.X.X.6.5.X.o.s.s.V.N O S ) ` ` / ' _ ` ` ` ` ` ` ` ",
"` ` ` ` ` ` ( ` ` / ) ` L -   c.v...6.6...X.6.5.X.;.s.6.0 :.s.:.} <.s.<.} s.s.X.X.s.6.X.o.s.s.V.N   3 ( / ' / / ' / ` ` ` ` ` ` ",
"` ` ) ` ` ` ^ ` ` ` ( ` L     c.v.} 6.s.....s.5.X.;.s.s.n :.s.:.} <.s.,.} s.s.X.X.6.6.X.o.s.s.V.N   3 ( ` ` ` ` ` ` ( ` ` ` ` ` ",
"` ` ` ` ` R U ( ^ ` ) ) L @   c.v.O.8.d.O.@.d.8.#.>.d.d.| ,.d.4. .7.d.7. .d.d.#.@.d.8.@.#.d.d.V.N   2 ~ ( ` ` ` ` ` ` ` ` ` ` ` ",
"` ) ) ) ) ) ` ( ) ` ` ) P @   c.C.v.N.B.b.b.m.m.v.m.m.m.v.m.m.m.v.m.m.m.v.m.B.v.m.m.m.b.N.M.B.Z.N   3 ~ ` ` ` _ ` ` ` ` ` ` ` ` ",
"` ) ) ) ] [ ] ] ) ` ) ) L -   y.l.l.u.u.l.l.l.l.l.l.l.l.l.l.i.p.a.i.l.l.l.l.l.l.l.u.l.l.l.u.l.l.x   x ) ` ` ( ` ` ` ` ` ` ` ) ) ",
"` ) ` ` ] ) ] ( ` R ^ ` L l O J y.y.y.y.y.y.y.y.y.e.y.y.y.r.2.a s 1.t.y.y.e.y.y.y.e.y.y.y.y.y.y.x   S ( ` ( ~ ( ^ ` ` ` ` ` ) ` ",
") ) ] ` ) ) ` ` ` / ^ ^ ( ( : *.r.r.r.r.r.r.r.r.r.r.r.r.r.f d r.r.s 3.r.r.r.r.r.r.r.r.r.r.r.r.r.: D ` ` ( ( ( ( ` ` / ` / ^ ^ ^ ",
") ` ' ` ) ` ) ) ` ` ` ` ` ` : e g g g g g g g g g g g g h 2.3.k p 3.a h g g g g g g g g g g g g * 5 ( ( ` ` ` ` ` _ ` / / ^ / E ",
"( ( ( ` ) ) ) ) ` ` ` ` _ g.: e h h h h h h h h h h h h h a Z 2.1.Z j h h h h h h h h h h h h g * x ( ( ` ( ` ] _ j._ _ ` ` ` ` ",
"` ` ` ` ` ` ` ` ` ` ` / j.f.< C 1.1.1.1.1.1.1.1.1.1.1.1.1.1.-.Z f -.3.2.2.2.2.2.1.1.1.1.1.2.1.1.= l ` / / / / / k.[ k.` / / ' / ",
"` ` ( ` ` ` ` ` ` ` ` ` _ / < m J J J J J J J J J J J J J $.V q w V J J J J J J J J J J J 9.J J , z ` ' ' / f./ / / ' / ' / ` / ",
"` ` ` ` ` ) ` ` ` ` ` ` ` ` 1 o X + + X X o X O X o X + o o X . o o . X o X o o O X o X X o X X # z / / / ' / f._ / ' ` ` / ` ` ",
"` ` ( ( ) ) ) ` ` ) ) ) ` ' ` ` _ ` ` _ ] _ _ ` ( ` ) ) ) ) ` _ ) ) ` _ _ ` ` ` _ ` ] ` ) ) ) ` _ _ ' ' / / / / _ _ / ` ' ` ` ' ",
"` E R ( ( ` _ ` ` ` _ ' ' ] ] _ ) ) ) ] ] ] ) ~ ( E ( ) ` ` ` ` ) ] ] ] ] ) ) ) _ ] ] ] ) R ( E _ _ ` _ ' / / ' ' ' ] ) / ` ' ' ",
"( ( ( E ` ` ` _ ) _ ` ` ' ) ' ) ) ) ` ] ) ] ) ( ` ( ( ) _ ` _ ` ) ` _ _ ] ` ) ) ) ] _ ' ) ( ( ^ _ ) ` ` ' / ' ' _ ' / ) / ' ` [ ",
"` ( ( ` ` ` g.' _ ) ` ` _ ` _ ) ) ) ) ) ) ) ) ( ` ` ) ] [ ` _ _ ) ) ) ) ) ` ) ) ) ` ` ) ) ) ` ` ` ] [ _ ' / / ' / _ ` _ ` ` ` ) ",
"` ` ` ` ` ] ` ) ` ` ` ` ` ` ` ` ` ` ` ( ` ) ` ` ` ) ) ] _ ] ` ` ` ` ` ` ` ` ` _ ` ` ` ) ) ) ` ` ` ] _ ] / ' / / ' / ` ` ` ` ` ` "
};
