/* XPM */
static char *result[] = {
/* columns rows colors chars-per-pixel */
"64 64 122 2 ",
"   c #404868",
".  c #4A4F6B",
"X  c #4E536D",
"o  c #465A6E",
"O  c #52566E",
"+  c #4D5772",
"@  c #545B72",
"#  c #585971",
"$  c #6B4A63",
"%  c #6D5E65",
"&  c #496571",
"*  c #5F6274",
"=  c #566079",
"-  c #5B647E",
";  c #527A7B",
":  c #766567",
">  c #786564",
",  c #72656A",
"<  c #626575",
"1  c #60657B",
"2  c #656A7F",
"3  c #6B6C7B",
"4  c #6F727F",
"5  c #73747E",
"6  c #9B4C59",
"7  c #886E62",
"8  c #8F786C",
"9  c #957865",
"0  c #987860",
"q  c #8E6272",
"w  c #BF6667",
"e  c #B97176",
"r  c #B7747A",
"t  c #B5787F",
"y  c #C7524B",
"u  c #C85048",
"i  c #C35E5C",
"p  c #606B82",
"a  c #657187",
"s  c #6B768C",
"d  c #6F7B8F",
"f  c #767883",
"g  c #787880",
"h  c #70778B",
"j  c #7C7F89",
"k  c #B17D86",
"l  c #548C80",
"z  c #579684",
"x  c #5C9686",
"c  c #5F9C8A",
"v  c #629D8C",
"b  c #77938A",
"n  c #758194",
"m  c #7D8496",
"M  c #778598",
"N  c #7E8B9E",
"B  c #5FBA92",
"V  c #66A190",
"C  c #75AD95",
"Z  c #61B792",
"A  c #6AB697",
"S  c #64BC96",
"D  c #67BD98",
"F  c #6CBE9A",
"G  c #70BD9B",
"H  c #66C09A",
"J  c #6CC29C",
"K  c #71C59F",
"L  c #6FC6A0",
"P  c #74C7A2",
"I  c #78C7A2",
"U  c #73C8A1",
"Y  c #79CAA6",
"T  c #7BCDA9",
"R  c #7FD1AC",
"E  c #818793",
"W  c #8A8A95",
"Q  c #848D99",
"!  c #87929F",
"~  c #AF818A",
"^  c #AD9B86",
"/  c #A78A96",
"(  c #A98893",
")  c #A1909D",
"_  c #B7A287",
"`  c #BBA487",
"'  c #BBA488",
"]  c #818FA1",
"[  c #8794A6",
"{  c #8A96A4",
"}  c #8C9CAC",
"|  c #9D94A2",
" . c #919FAF",
".. c #9899A8",
"X. c #90A0B0",
"o. c #9FA8B4",
"O. c #99A7B8",
"+. c #9DACBC",
"@. c #A1AAB6",
"#. c #B1AFB3",
"$. c #C0A888",
"%. c #81CEAA",
"&. c #84D2AE",
"*. c #86D5B1",
"=. c #89D6B2",
"-. c #88D8B3",
";. c #C4C1BF",
":. c #A5B4C4",
">. c #A9B9C9",
",. c #B2C2D2",
"<. c #BCCBDB",
"1. c #C0CEDD",
"2. c #C8D0DC",
"3. c #C6D6E6",
"4. c #CAD6E4",
"5. c #C8D8E8",
"6. c #D9D9E0",
"7. c #D1DDEC",
"8. c #DAE3EF",
"9. c #E4E4EC",
"0. c #E1E7F2",
"q. c #F0F0F8",
/* pixels */
"U U U U U U U U U U P P P P U U U J J H K K U U U U U U U U K U I U K K I U U J K H U U U U U U U U K U U U U U U U U U U J K H ",
"Y P K U U U U U U U P P P *.Y P K U K U K Y U U U K U U U U I I I I %.&.I I U K K K K U U U U U U U U U U U U U K &.I Y U U K U ",
"&.P U U U U U L U L U P &.&.&.T U U U U Y U U U U U U U U U K U U Y *.&.&.Y U U K Y U U U U U U U U U U U U U Y *.&.=.I U U U U ",
"U U U U U L P P U U U U P U P P I K I K K U U U U U U U U U U U U U I K U U U U K Y U K U U U U U U U U U U U U I U I U U K U U ",
"U U L U P P P P U U P P P P P P P K I U Y U U U U U U U U U U U U K K U U I I U Y K Y I U U U U U U U U U U U U U U U U U I U I ",
"P U L P U P P U U P P P P Y P P P P U I T U U U U U U U U U U U U T K Y K I U U U U Y K U U L K U U U U U U U U U I U I U U I U ",
"P F B L L U U U U U P T P Y Y P U P Y U R T U J H K K U U U U K U Y U T Y U K I U U R T U K H U K U U U U U U U I Y Y U I U Y I ",
"P L P D U U U P U U P P T I T P U U U T P Y K K U H U U U U U U U U Y Y T I I I K R U T U J K H U U U U U U U U U Y I U U U I T ",
"U U U P P P T Y P U P U U U U P U U U K Y U U U U K K T &.Y K Y U I U U U U U U U U U U U K U U U Y R Y U K U U U U U K U U U U ",
"U U P U P T Y Y P U I U U U U U K Y U U U U U U U Y U %.Y %.Y K Y K U U U U U U U U U U U U U U U T Y R U U U U U U U U U U U U ",
"U U P I P P P P U U U U U U K U g g g 5 g g g g 5 n 5 5 5 C K Y I K U U U U U U U U U U U U U U U U U U U U U U U U U U U U U U ",
"U U P P P U P P U U I U U K K & 9.9.4.<.1.1.1.1.2.2.1.1.2 v U U I U U U U U K U U U U U U U U U Y U U U U U U U U U U U U U U U ",
"U K U P P U L L P P U U U A v   q.0.8.5.5.5.5.5.2.5.5.5.- c K U U U U U U U U U U U U U U U U U K U K U U U U U U U U U U U U U ",
"U U P U L L S L L P P U U x     q.5.3.3.5.5.5.5.5.5.5.5.- z K K U U U U U U U U U U U U U U U U K H H H J U U U U U U K U K U U ",
"P P P P L L U L P P U U o n [   q.5.5.5.5.5.5.5.5.5.5.5.- < g 5 g g g g g g g g g g g g g g g g 5 5 5 5 g g g g g g g K U U U U ",
"U P P P T T T T P L U   } } [   q.5.5.5.5.5.5.5.5.5.5.5.- @.5.4.4.4.4.5.5.5.5.5.3.3.5.5.3.5.5.5.7.5.5.7.5.5.5.5.3.6.q.  J U U U ",
"U U U U P T T U K K l m }  .[   q.5.5.5.5.5.5.5.5.5.5.5.- N o.@.@.@.@.o.@.@.@.@.@.@.@.@.@.@.@.@.@.@.@.@.o.o.@.@.@.@.8.  H K K K ",
"U U U U U U U U K J .  . . .[   q.5.5.5.5.5.5.5.5.5.5.5.- * 5 5 5 5 5 5 5 5 5 5 5 5 5 5 5 5 5 5 5 5 5 5 5 5 5 5 5 5 5.  J J K K ",
"U U U U K U U U C 5 5 X. . .[   q.5.5.5.5.5.5.5.5.5.5.5.-                                                           5.  J J K J ",
"U U U U U U f f @.4.j X.X.! 4   q.5.5.5.5.5.5.5.5.5.5.5.-                                                     .     5.  J T K K ",
"Y K U U U b 6.1.<.5.5 X.E 3     q.5.5.5.5.5.5.5.5.5.5.5.* % 7 7 7 7 7 7 7 7 7 7 7 7 7 7 7 7 7 7 7 7 7 7 7 7 7 7 7 7 5.  G K K K ",
"U Y K K U 5 q.7.5.5.g { 4 O     q.5.5.5.5.5.5.5.5.5.5.5.- > 0 0 0 0 0 0 0 0 0 0 0 0 0 0 0 0 0 0 0 0 0 0 0 0 0 0 0 0 5.  G K K Y ",
"U U K Y Y 5 q.7.5.4.5 5 .       q.5.5.5.5.5.5.5.5.5.5.5.- > 0 0 0 0 0 0 9 9 0 0 0 0 0 0 0 0 0 0 0 0 0 0 0 0 0 0 0 0 4.  K U Y I ",
"U U K U K 5 q.7.5.4.5           q.5.5.5.5.5.5.5.5.5.5.5.- < 5 n j 5 5 f f 8 5 5 j 5 5 5 g g g g 5 5 g g g g g g g f 4.  G I I I ",
"Y H B J K g q.7.5.3.g           q.5.5.5.5.5.5.5.5.5.5.5.- > 0 0 ` ` ' ' ' ' ' ' ` ` ` ` ` ` ` ` ` ` ` ` ` ` ` ' ` ' 5.  F P Y Y ",
"U K U J U g q.7.5.3.<           q.5.5.5.5.5.5.5.5.5.5.5.- > 0 0 $.$.$.$.$.$.$.$.$.$.$.$.$.$.$.$.$.$.$.$.$.$.$.$.$.$.4.  F U P Y ",
"U U U U P g q.7.3.3.            q.5.5.5.5.5.5.5.5.5.5.5.- > 0 0 $.$.$.' $.$.$.$.$.$.$.$.$.$.$.$.$.$.$.$.$.$.$.$.$.$.5.  F U U U ",
"K U U U U g q.7.5.3.            q.5.5.5.5.5.5.5.5.5.5.5.- < g 5 5 5 8 f g 5 5 n g g g g g g g g g g g g g g g g g g 5.  F U P U ",
"U U U U Y g q.7.5.3.            q.5.5.5.5.5.5.5.5.5.5.5.- > 0 0 $.$.$.$.$.$.$.$.$.$.$.$.$.$.$.$.$.$.$.$.$.$.$.$.$.$.4.  G U U U ",
"U U P P U g q.7.3.3.            2.5.5.5.5.5.5.3.5.5.5.5.- > 0 0 $.$.$.` $.$.$.$.$.' $.$.$.$.$.$.$.$.$.$.$.$.$.$.$.$.5.  J P U U ",
"U U U P P g q.7.5.3.            :.3.1.3.3.3.<.3.1.<.3.<.- : 9 0 ` ` ` ` ` ` ` ` _ _ _ _ _ _ _ _ _ _ _ _ _ _ _ _ _ _ 5.  F U U U ",
"U K I P P g q.7.5.3.            X.>.>.>.:.>.,.:.,.:.,.:.= * n 5 g 5 g g 5 g g 5 g g g g g g g g g g g g g g g g g g 5.  F U U U ",
"U U U U U 5 q.7.5.3.        - >.X.X.a               X.X.+ > 0 0 $.$.$.$.$.$.$.$.$.$.$.$.$.$.$.$.$.$.$.$.$.$.$.$.$.$.5.  H K U U ",
"U U U Y R 5 q.7.5.1.      M O.O.X.= +             . X.X.+ > 0 0 $.$.$.$.$.$.$.$.$.` $.$.$.$.$.$.$.$.$.$.$.$.$.$.$.$.5.  J K U U ",
"U U U K U g q.7.5.3.    s } +.X.N @ # @   X       . X.X.+ , 8 8 ^ ^ ^ ^ ^ ^ ^ ^ _ ^ ^ _ ^ _ ^ _ ^ _ ^ ^ ^ ^ ^ _ ^ ^ 5.  F U U P ",
"U K U U U g q.7.3.3.    :.+.X.X.  g g 3 # @         X.X.+ < g 5 g g g g g g g g g 5 5 5 5 n 5 5 5 5 5 5 g g 5 5 g g 5.. F J F U ",
"U U U U U f q.8.5.3.  >.X.X.[ . 5 g < # @         o X.X.+ > 0 0 $.$.$.$.$.$.$.$.$.$.$.$.$.$.$.` $.$.$.$.$.$.$.$.$.$.5.  F J L D ",
"U U I K U   5.,.>.>.:.X.} n + 5 g # X               X.X.+ > 0 0 $.$.$.` $.$.$.$.$.` $.$.$.$.$.` $.$.$.$.$.$.$.` $.$.5.  F U P P ",
"U U U U U   <.:.+.+.+.X. .d . < < X .               X.X.+ W #.#.;.;.;.;.;.;.;.;.;.;.;.;.;.;.;.;.;.;.;.;.;.;.;.;.;.;.5.  F U U U ",
"U U K U L   :.O.X.X.X.X. .n       .         . .     X.X.+ O.5.5.5.5.3.5.5.5.5.5.5.5.5.4.5.5.5.5.4.4.5.5.5.4.5.5.3.3.5.  F U U U ",
"U U U U U   X.X.} X.X.X.X.] n } X.X.X.X.X.X.X.X.! 5 X.X.@ n X.X.X.X.X.X.X.X.X.X.X. .u u .. . .X.X.X.X.X.X.X.X.X.X.X.X.  G U U P ",
"Y K J U U   X.X.} ..X.X. .W n X.X.X.X.X.X.X.X.X.{ g X.X.+ n  .X.X.X.X.X.X.X. .X.( y X.X.i ~ X.X.X.X.X.X.X.X.X.X.X.X.X.  G P U U ",
"U F Z L J   s h h h h h h h k } X.X.X.X.X.X.X.X.! g X.X.+ q r r r r r r r r r r ~ / r r ( ~ r r r r r r r r t r r r r   G P P Y ",
"U U U J U   m 1 # # # # # 3 s } X.X.X.X.X.X.X.X.! g X.X.+ 6 u u u u u u u u u u e | w w ) t u u u u u u u u u u u u u   G P P Y ",
"P P P P U   3.m # # # # # 3 j X.X.X.X.X.X.X.X.X.! 5 X.X.+ 6 u u u u u u u u u u u u  . .i u u u u u u u u u u u u u u   G P P Y ",
"P L P P U   3.m # # # O # 3 j X.X.X.X.X.X.X.X.X.[ f X.X.+ n X.X.X.X.X.X.X.X. . . . .u u ..X. . .X.X.X.X.X.X.X.X.X.X.X.  G P P P ",
"L U P U P   s +   . .   ] E j X.p = @ @ p @ @ = @ X = =   + = = = = = = = = = & = = $ $ = = = = = = @ = = = = = @ = = F P P P P ",
"U U P P U   [ [ [ [ [   } Q f ] +                         X * #           # * .                                       U P P P P ",
"U U P U P   5.5.5.5.5.  } N f O                           * f g           f f @                                       U U U U U ",
"U U P U P   X.X.X.X.X.  } N 5     # >.<.X.} f O       5 X.X.X.X.X.X.X.X. .X. .X.[ g       O.3.X.X.g @     P U U U U U U U U U U ",
"U U P P P P                        . .:.4.5.}  .M                                       [ } +.5.5.} X.N   P P P U U U U U U L U ",
"U U P P T T V V v v v c c c c c   n +.,.>.,.Q n p   V V v v v c c v c c v c c c c c c   d X.,.>.>.Q M a   P L L U U U U K U U U ",
"U P U U T P T L U F J U J U U U o O :.,.} } 5 + . o P P Y P P L J L J U U U U U U P P o   X.<.} } f #   o J F L K U U U U K U U ",
"P P U P P P P P U J J J K K U U U               z U P P P P P J L J U U U U U J Z J P P &             ; U J U J U K U U U J J J ",
"P U P U P P P P U P U U U U U K U J J H U U U U U U U U P P P P P P U U U U U J L D U U U U K U U P P P U U P P U U K K K J U H ",
"U U U U P P U U U U U I I &.I T U U U U U U U U U U U U P P P P P I T &.T P U U U U U U U U U U U U U U U U U Y Y =.I Y I U U K ",
"U U U U U U U U U U U P *.%.%.I U U U U U U U U K U U U U U U P K I =.%.%.I I K U U U U U U U U U U U U U I K %.-.T -.U K U K Y ",
"U U U U U U U P U U U U P K I K U U U U U U U U U U U U U K I P U I I P K I U U U U U K U U U U U U U U U I K K K K Y K U U Y K ",
"L U U U U U P P U U U U U U P P U U P P U U U P U U U U U U I P P I U U U U U U U K U U U U U U U U U U U U %.K I K I K Y K K U ",
"U U L U U U P P U U U P P Y P I P U P P P P P P L U U P U I P U K I U I U I U U P U Y P U U U U U I K Y K U K K I Y Y K K K T K ",
"U H S L U P P P P U P T Y Y T P P P P T T T P H J H U P P P P I P Y Y Y R P P P U T R T U F J J K T K K K K %.%.Y Y T Y K K T T ",
"L L U H P P P P P U P P P Y Y P P P P T L T P L P J U U P U P U P Y Y Y P P Y P U T U Y P J U J Y K Y Y Y K K K K Y K K T K U T ",
"U L U U P P &.U Y P P P P P P Y P P U P U U L U U U L T &.P I U P P P P P P U P P P P P P P U P U Y &.Y Y K K K K %.Y K K Y Y Y ",
"U U U U U Y U Y U U P P P P P P P P P P U U U U U P U T U R U U U P U U U U U U U U P U P P U U U T U T K Y Y Y K K U U K U K K "
};
