/* XPM */
static char *result[] = {
/* columns rows colors chars-per-pixel */
"64 64 110 2 ",
"   c #3A415E",
".  c #3F4662",
"X  c #414762",
"o  c #434A63",
"O  c #494D65",
"+  c #404868",
"@  c #4E5266",
"#  c #4D526B",
"$  c #515567",
"%  c #555867",
"&  c #52566C",
"*  c #575A6D",
"=  c #595C69",
"-  c #5A5C70",
";  c #4A6A70",
":  c #5E6173",
">  c #4B7472",
",  c #4E7A75",
"<  c #517978",
"1  c #67686D",
"2  c #68686D",
"3  c #646675",
"4  c #676976",
"5  c #6A6A75",
"6  c #676978",
"7  c #6C6D7A",
"8  c #73737C",
"9  c #8C786E",
"0  c #987860",
"q  c #4F817B",
"w  c #53847C",
"e  c #5B847B",
"r  c #AD8132",
"t  c #A0934F",
"y  c #BEAB40",
"u  c #616A82",
"i  c #677085",
"p  c #6E7287",
"a  c #797981",
"s  c #747E92",
"d  c #837F81",
"f  c #578780",
"g  c #558881",
"h  c #5A8B83",
"j  c #5B9383",
"k  c #628D84",
"l  c #609C89",
"z  c #79879A",
"x  c #7B899B",
"c  c #709991",
"v  c #5FBA92",
"b  c #64A78F",
"n  c #68AF93",
"m  c #63B492",
"M  c #6BB697",
"N  c #63BB95",
"B  c #6CB698",
"V  c #67BD98",
"C  c #6BBE9A",
"Z  c #71BD9D",
"A  c #66C09A",
"S  c #6CC29C",
"D  c #71C49E",
"F  c #6EC6A0",
"G  c #74C7A2",
"H  c #79C5A3",
"J  c #73C8A1",
"K  c #79CAA5",
"L  c #7BCDA9",
"P  c #7FD1AC",
"I  c #80838D",
"U  c #9C8F84",
"Y  c #9E9084",
"T  c #818D9E",
"R  c #8D929C",
"E  c #A49484",
"W  c #A89785",
"Q  c #AA9885",
"!  c #B09C86",
"~  c #B5A087",
"^  c #BBA487",
"/  c #BEA688",
"(  c #8693A5",
")  c #8892A1",
"_  c #8F9FAE",
"`  c #919EAE",
"'  c #9BA3AF",
"]  c #95A5B4",
"[  c #9FAFBF",
"{  c #ABA3A3",
"}  c #A5A3A8",
"|  c #C0A888",
" . c #81CDA9",
".. c #84D2AE",
"X. c #86D5B1",
"o. c #88D4B0",
"O. c #88D8B3",
"+. c #A6B4C5",
"@. c #A8B5C6",
"#. c #ACB8C5",
"$. c #ABBBCB",
"%. c #B7BECA",
"&. c #B7C7D6",
"*. c #BBCADA",
"=. c #C9C9D1",
"-. c #C4D4E3",
";. c #C8D8E7",
":. c #C8D8E8",
">. c #D4DEEB",
",. c #EEEFF7",
/* pixels */
"J J J J J J J G G F G J J J J J D S D A D J J J J J J D D K D K D K K D K D D D D S D J J J J J J J J J J J J D D J D J J S D A ",
"K G D J J J J J J G G G G X.H G K D D J J J J J J J J J J D K D D K D o. .D J J K D J J J D J J J J J J J J J J K o. .J J J J D ",
"..G J J J J J J G J J G ......K D K K D J J J J J J J J D K G G D  .o.o...K D K K D D K J J J J F J J J J J J  .o.o.o.K J J J J ",
"J J J J J J F J J J J J G G J G D K D G J J J J J J J J D K G D K D D D J J K D D K D G J J J J J J J J J J J D D J K D J J J J ",
"J J F J J J G J J J J J G G G H G G G G G G G J J J J J J J J J G G G G D K D K G G G G G J F J J J D  .D D J J D K D K D D  .D ",
"G J F J J J G J J J J J G K J K G J G G L G G J J J J J J J J J G G G G K D D D G G K G G G F K J J D D J J J J J D K D J J K D ",
"K C m F F G G J J J J K K L a a 8 a a a a a a a e 9 a a 8 a a a a a a a a 9 e d 8 a a a a a a 8 e  .D D J J J J K K  .D D K K K ",
"F F J C J G G J J J J J G h =.%.#.#.#.#.@.@.#.#.[ %.$.#.#.#.#.#.#.@.%.@.@.#.#.%.#.#.@.#.@.$.#.@.=.c b D J J J K K K K K D D D  .",
"J J G G J K P G J G G G B + ,.>.-.-.-.-.-.-.-.-.-.-.-.-.-.;.-.-.-.-.-.-.:.-.-.-.-.-.-.-.-.-.-.-.,.a e K J J J D J J J J J D J J ",
"J G G H G L G L G G G D B o :.' a a a a 8 a a a 8 a a a 8 8 a a a a a a a a a a a a a a a a a a :.e w P J J J J J J J J J J J J ",
"J J G G G G G G G G G J B + :.( + + + + + + + + O + + + + + + + + + . . + + + + + + . + + + + + :.i e J J J J J J J J J J J J J ",
"J J G G G G G G G G D H B + :.( + + + + + + + + + + + + + + + + + . . . + + + + + + + + + + + + :.u e J J J J J J J J J D J J J ",
"J J J J J J F J G G K J B + ;.( + + + + + + + + + + + + + + + + + + + + + + + + + + + + + + + + :.u w J J J J J J J J J J J J J ",
"J J G J K A v F S G G J B + :.{ 0 0 0 0 0 0 0 0 0 0 0 0 0 0 0 0 0 9 0 0 0 0 0 0 0 0 0 0 0 0 0 0 :.u q A S J J D J D J J J J D J ",
"J J G G F G J F G G J J M + :.{ 0 0 0 0 0 0 0 0 0 0 0 0 0 0 0 0 0 0 0 0 0 0 0 0 0 0 0 0 0 0 0 0 :.u g F J J J J J J J J J J J J ",
"J G F G L L L L J F J J M + :.} 9 9 9 9 9 9 9 9 9 9 9 9 9 9 9 9 9 9 9 9 9 9 9 9 9 9 9 9 9 9 9 9 :.u g J J J J J J J J J J J J J ",
"G J J F K L L G J S V J m + :.' a a a a a 8 a a a a a a 8 a 8 a a a a a a a 8 a a a a 8 a 8 a a :.u h K J F A S S J J J J J D J ",
"J J J J J J J J J S J > . + :.' d / | Y a | | W 8 | | Q a | | ! 8 | / ~ a | | ^ a | | | a / / | :.u . . J C F S J J J J D D S D ",
"J J J J J J J J J J J , . . :.' d | | U a | | E a | | Q a | | ! a | | ~ a | | ^ 8 | | | a / | | -.u . . J J J J J J J J D S J S ",
"J F J J J J J J J J J , . . :.] d / | U 8 | | E a | | Q a | | ! a | | ^ 8 | | ^ a | | | a / | | :.u .   J J J J G ..D G J J D D ",
"J J J J J J J J J J J , . + :.' d | / E d | | W a | | Q 8 | | ! a | | ~ a | | ^ a | | | a / | | :.u . . F F J J o...o. .K D D K ",
"J J J J J J D J J J J , . + :.' d | | U a | | E a | | Q a | | ! a | | ~ 8 | | / a | | | a / | | :.u . . J F J J D D D D D K J J ",
"J G J J D J J J J J G , . . :.' d | | E a | | E 8 | | Q a | | ! 8 | | ~ a | | / a | | | 8 | | | :.u . . J J J J D K G K G G K J ",
"G J D J J J J J J F G j ; . :.' d | | E 8 | | E a | | W a | | ! a | | ~ a | | | 8 | | | a / | | :.u . , J J J J K D G G G G G J ",
"J C v F S J G J J J J L B + :.' d | | U a | | E 8 | | Q a | | ! a | | ~ a | | / a | | | 8 | | | :.< w J J J J J K K P D J D K K ",
"J F J C G G J G G G G D B + :.' d | | U a | | E a | | Q a | | ! a | | ~ a / / ^ a | | | a | | | :.i w J J J J J K D J J J J D P ",
"J J J J J G P K  .D G G M + ;.' d | | E d | | E a | | Q a | | ! a | | ~ a | | ^ a | | | a / | | :.i e P K J J J J D J J J J J J ",
"J J J K J L K L D K D G B + :.' d | | U 8 | | E a | | Q a | | ! 8 | | ^ 8 | | ^ a | | | a / | | :.u e P J J J J K J J J J J J J ",
"J J G G G G J J D K G J B + ;.' d | | Y a | | E a | | Q a | | ! a | / ~ a | | / 8 | | | a / | | :.u h K J J J J J J J J J D J J ",
"J D G G K G J J K D J J B + ;.' d | | U a | | E 8 | | Q a | | ! a | / ~ a | | ^ a | | | a / | | :.u f J J J J J J J J J J J J J ",
"J J J G J J V F J J J J B + ;.' d | | U a | | E a | | Q 8 | | ! a / | ^ a / | ^ a / | / a / / | :.u w F J J J J J J J J J J J J ",
"J J G G G C v F S J H G B + -.' d / / U d / / E a | | W a | | Q 8 / / ~ 8 / / ^ a / / / a ^ / / -.u q A A J D J J J J J J J J J ",
"J J G G G F F F J G J J B + s a a 8 a a a a a a a a a a a a a a a a a a 8 z 8 8 a 8 a a a 8 a a I # w S F J J J J J J J J J J J ",
"J J G J L L L L G J J J B +   +.:.;.;.;.;.:.:.:.-.:.:.-.:.:.-.:.;.;.;.;.:.:.;.;.;.;.:.;.;.:.;.;.+ + h K J F J J J J J J J J G J ",
"J G G G K K K J G C B J M +   +.:.:.:.:.:.:.:.:.:.:.:.:.:.:.:.:.:.:.:.:.;.;.;.;.:.:.:.;.:.:.:.:.. . h J G Z C F F G J J F F F J ",
"J F G J J J G L J F G C M +   +.:.:.:.:.:.:.:.:.:.:.:.:.:.:.:.:.:.:.:.:.;.;.;.;.:.:.:.;.:.:.:.:.. . e G G F F F F G G G J F Z F ",
"J G G G G G G J J G G J B . . +.:.;.;.;.:.:.:.:.:.:.:.:.:.:.:.:.:.;.;.;.;.;.;.;.:.:.:.;.:.:.:.;.  . g G L F G L G J J J F S F C ",
"G G G G G J G J J G G F B +   ` &.#.] ] ] ] ] ] ] ] [ ] ] ] ] [ ] ] ] ] ' [ ] ] ] ] ] [ ] $.$.$.. . g F H G G G K ..K G J J G G ",
"F J G J J J J J J J G G H + . ( [ [ ) T z z z z z z z z z z z z x x x z x x x x z z z z ) [ [ [ . . g J F J J H X. .X.J J J G J ",
"J J J J J F J J J J J G B + . x ] _ a : + + + + + + + + + + + + + + + + + + + + + + + + 8 ] _ ] . . g J J J J G G G J J J J J F ",
"J J J J J J J J G G J J B * + 7 z ` 8 3 . + + + + + + + + + + + + + + + + + + + + + + + 8 ] R I + % k J J J J J G J D J K D J J ",
"J J F F J J J J D G J D D Z + 7 z ' a : + + + + + + + + + + + + + + + + + + + + + + + + 8 _ ) a + M S J J J J J J J J D D K D J ",
"J C N F F G F G G G G L K L . 7 a _ 8 : + + + + + + + + + + + + + + + + + + + + + + + + a ] ) a + Z D K J J J K J L L G G G L L ",
"G F J F G J G G G G G G K H + p I ' 8 3 + + + + + + + + + + + + + + + + + + + + + + + + 8 ] ) a + Z K D J J J J J G H D G J J K ",
"G G J F G K P K K J J G J J . x _ _ a : + . + + + + + . + + + + + + + + + + + + + + + + 8 ] ] _ + D ..G J J J J K D D K D K G G ",
"J J J G G L G K K G J G Z g . x ] *.a 8 7 7 7 p 7 7 7 7 7 7 7 7 7 7 7 7 7 7 7 7 7 7 7 7 8 &.@.] + < l L K J J J D K D D K D G G ",
"J J J J J J G J G J G G B   . ( +.:.R R R R R R R R R R R R R R R R R R R R R R R R R R R ;.*.[ . . w G J J J J K D D K D K K J ",
"J J F J J J J J G F G G B   . @.:.:.:.:.:.:.:.:.:.:.:.:.:.:.:.:.:.:.:.:.;.:.:.:.;.:.:.:.:.:.;.;.. . w G J J J J J J J J J D J J ",
"J J G F J F F G G G G J M   . +.*.X . X . . X X . . . X . . . . . . X . . . . .   X X X X X ` ;.. . < F J G F G J G J J J J F J ",
"J J J K J C N F F G G J M . . s T X t t t t o * 3 5 6 3 4 4 4 4 4 4 4 4 4 4 4 3 X t t t t O u ) . . , F F J G G J J J J J J J J ",
"J J J J G F G F F G J J m . . + O X y y y y o = 8 o 8 3 O 8 % * 8 O 5 7 O 8 - O X y y y y O o O . . g F J J J J J J J J J J J J ",
"J J G G P P L L G G F J M . . 7 a X r r r r X & 3 a 5 7 a 3 a p 3 a 7 6 a 3 8 8 X r r r r o 3 I . . g J J J G F J J J J J J J J ",
"J J G G L G L G J C S J C J . = 2 z   X . . X X + X . . . . . . . . . . . . . +   X . . . a 8 1 . C K G J F C F S K J J J J J J ",
"J J G G G G G G J S S D J J . @ = 8 2 5 6 6 6 6 6 4 O & 6 6 6 6 6 6 # O 6 6 6 6 5 6 6 6 5 8 5 % . B G G G C G F D D J J J S S S ",
"J J G G G G G G J J J G J J o . O 1 a d a I a I a d O - a a d d a 9 * & d d s d a d a I a 5 = . . C K G J J G G G G G J D S D S ",
"J J J J G J F G J J J G G X.G K Z + 5 1 1 1 1 1 5 1 O : z d a I z z * O 2 2 2 1 5 1 1 1 1 . j J J J J J F J G K G O.G G J J J D ",
"J J J J J J J J J J J G o. . .H J J X X X X . . X X X $ 1 1 1 1 2 2 @ . o o X X o o X X X D J J J J J J J J D K O. .O.K D D K J ",
"J J J J J J J J J J J J G D H D J J j j j j j j j j j e = = = % = = e k j j j j j j j j j D J J J J J J J J D K G D K D D J J J ",
"J J J F J J J J J J J J J J J J G J J G D J J J J J J b o   . o X X n J J J D J D J J J J J J J J J K J J J J D G D K D J K D J ",
"F J S G J J K G J G G G K K H J G G G H K J K J F J J J J G H G D D H J J J J J G G K G J J F J K J D D K J J D K G D K D D K J ",
"J C V F F G G G G G G L K L L J G G G L P L L A S S F G G G G G G K K K L G G G J L ..L J C S S D D K K K D K  .K K L K D K L L ",
"J F J C G J G G G G G G K J L G G G G L G G G F J S F G J G G G G G L K K K G G G K G K G S J S D K K D D D D K K K D D K D D L ",
"F F F J J K ..G H G J G G G G G G G G J G G J F J F G L P K G H G G G G G G G G J G K G G G J J J K ..K K K D K D D J J K J J K ",
"J J J J J K J K J J J J G J J J J J J J J F J J J J J L K P J J J J J J J J J J J J F J G G J J J L K L D J J K D K J J D D J J "
};
