/* XPM */
static char *_fa32778e76b43e7ed5700e09240a10aTAPy2t66TX8QxlRy[] = {
/* columns rows colors chars-per-pixel */
"64 64 167 2 ",
"   c #151D1E",
".  c #181D1E",
"X  c #161E20",
"o  c #181F21",
"O  c #162123",
"+  c #1A2325",
"@  c #192528",
"#  c #1D2A2D",
"$  c #1F2E32",
"%  c #212728",
"&  c #212B2D",
"*  c #292E2F",
"=  c #212E31",
"-  c #233135",
";  c #2B3435",
":  c #26363A",
">  c #29363A",
",  c #27383D",
"<  c #293A3E",
"1  c #353B35",
"2  c #393D36",
"3  c #333A3A",
"4  c #393E38",
"5  c #423F30",
"6  c #3C482F",
"7  c #3E423A",
"8  c #454333",
"9  c #43463B",
"0  c #46483E",
"q  c #4C4C3D",
"w  c #524E3A",
"e  c #43503F",
"r  c #55513C",
"t  c #5A553E",
"y  c #565E3B",
"u  c #2B3D42",
"i  c #2D4145",
"p  c #2F4449",
"a  c #324144",
"s  c #31464B",
"d  c #3F4748",
"f  c #32484E",
"g  c #3B4A4C",
"h  c #354D52",
"j  c #3B4E51",
"k  c #3C5255",
"l  c #3B5557",
"z  c #3E5A5B",
"x  c #434545",
"c  c #4B4D40",
"v  c #404748",
"b  c #444C4E",
"n  c #4A4D4D",
"m  c #594344",
"M  c #534A4B",
"N  c #4F5042",
"B  c #565944",
"V  c #5D5A44",
"C  c #575748",
"Z  c #5B5B48",
"A  c #454F50",
"S  c #494F50",
"D  c #415557",
"F  c #4B5354",
"G  c #465B5D",
"H  c #535556",
"J  c #5A5556",
"K  c #525758",
"L  c #545A5B",
"P  c #615D46",
"I  c #7C5C5D",
"U  c #56605E",
"Y  c #646641",
"T  c #65624B",
"R  c #6B664C",
"E  c #6E6A4C",
"W  c #726D4E",
"Q  c #78794C",
"!  c #756F51",
"~  c #777253",
"^  c #7A7454",
"/  c #7D7A54",
"(  c #7C785A",
")  c #405F60",
"_  c #485F61",
"`  c #595F60",
"'  c #436263",
"]  c #4C6263",
"[  c #44696B",
"{  c #4B6C6D",
"}  c #506767",
"|  c #5D6263",
" . c #506768",
".. c #536B6C",
"X. c #576F71",
"o. c #596F70",
"O. c #557272",
"+. c #5B7474",
"@. c #5D7778",
"#. c #547A7B",
"$. c #5E797A",
"%. c #636566",
"&. c #6C6263",
"*. c #636768",
"=. c #66696A",
"-. c #6E6D6D",
";. c #746263",
":. c #627171",
">. c #6F7374",
",. c #627C7D",
"<. c #627D7F",
"1. c #6B7E79",
"2. c #737474",
"3. c #797A7A",
"4. c #7C7D7E",
"5. c #7C7E7E",
"6. c #7D7E7F",
"7. c #855B5B",
"8. c #817957",
"9. c #837C5B",
"0. c #79867B",
"q. c #8B845F",
"w. c #8B8561",
"e. c #928A62",
"r. c #587F80",
"t. c #647F80",
"y. c #568181",
"u. c #5C8585",
"i. c #5D8889",
"p. c #668283",
"a. c #698586",
"s. c #668788",
"d. c #6A8688",
"f. c #638A8B",
"g. c #6E8A8B",
"h. c #728485",
"j. c #7C8485",
"k. c #7C8A8B",
"l. c #6D8F90",
"z. c #728F90",
"x. c #629495",
"c. c #629898",
"v. c #759393",
"b. c #759394",
"n. c #759494",
"m. c #789797",
"M. c #779798",
"N. c #789798",
"B. c #7B9B9C",
"V. c #7F9FA0",
"C. c #6BA1A2",
"Z. c #838484",
"A. c #868788",
"S. c #878989",
"D. c #8D8D8E",
"F. c #8D8E8E",
"G. c #8F9090",
"H. c #929293",
"J. c #959596",
"K. c #9E9E9E",
"L. c #9F9FA0",
"P. c #82A3A4",
"I. c #85A7A8",
"U. c #86A9AA",
"Y. c #9FA0A0",
"T. c #A1A1A1",
"R. c #A2A2A2",
/* pixels */
"R.R.R.R.R.R.R.R.R.R.R.R.R.R.R.R.Y.R.R.R.R.R.R.R.R.R.R.R.R.R.R.R.R.R.R.R.R.R.R.R.R.R.R.R.R.R.L.R.R.R.R.R.L.R.R.R.R.R.R.R.R.R.R.R.",
"R.R.R.R.R.R.R.R.R.R.L.6.6.6.4.4.4.4.4.0.9.t.6.t.4.4.t.6.Z.t.9.Z.9.t.Z.t.t.A.4.4.Z.t.9.A.Z.t.A.t.9.A.A.t.Z.D.R.R.R.R.R.R.R.R.R.R.",
"R.R.R.R.R.R.R.R.R.K.D.H n n n n n n n D K b S b S S m J K n S S ` J S S n x m M F b S n M S S S S S H M M t.L.R.R.R.R.R.R.R.R.R.",
"R.R.R.R.R.R.R.R.R.K.2.1 % % % & # $ - $ u = u = ; ; u u u u u u u u u u u u u u - - = = = = = = $ $ # u * J J.R.R.R.R.R.R.R.R.R.",
"R.R.R.R.R.R.R.R.R.H.H * % % = = - $ - - k .. .....o...+.+.r.t.t.t.r.t.X.o.o.....{ .. .D u - - - u # $ = u v t.R.R.R.R.R.R.R.R.R.",
"R.R.R.R.R.R.R.R.K.S.* % % % = - $ - - : +.v.v.v.b.b.M.V.P.P.U.U.I.P.N.P.N.b.N.z.b.b.b.r.u $ - - $ $ $ $ u u &.L.R.R.R.R.R.R.R.R.",
"R.R.R.R.R.R.R.R.J.2.% % % = = = - - - # O       o o o o o X o o o o o o X X o o X X X X $ u - - $ $ $ $ $ # b L.L.R.R.R.R.R.R.R.",
"R.R.R.R.R.R.R.R.D.H @ & = - - = - - # @ # = $ $ - = = = = = = = = - = = = = = = $ $ $ # X X $ - u $ $ u $ u u t.J.L.R.R.R.R.R.R.",
"R.R.R.R.R.R.R.R.Z.; $ = $ $ - - - # @ # - & & # # # # # # # & % & & # # % & % & % & = = # o # $ = $ = $ @ u u b H.L.R.R.R.R.R.R.",
"R.R.R.R.R.R.R.R.Z.+ $ = - - - $ $ @ # - - & & & & & # # & & & & & & & % & & & & & % % * = # o $ $ $ u $ u # @ # D.L.R.R.R.R.R.R.",
"R.R.R.R.R.R.R.R.Z.@ & = - - - $ @ @ - - & & = - : ; ; - - ; - - = * * - - - = - = * # & * = # X $ $ u # # # @ o D.L.R.R.R.R.R.R.",
"R.R.R.R.R.R.R.R.Z.@ $ = - $ $ # + - : - & - > > : : : : : : : : u u - u - - u u u u - o = = u @ o $ $ @ u # # o D.L.R.R.R.R.R.R.",
"R.R.R.R.R.R.R.R.j.@ $ - - $ # @ = : ; # $ : : : : : : : , : : , u - - - u - u - - - - = & = u $ @ @ $ $ u # @ X H.L.R.R.R.R.R.R.",
"R.R.R.R.R.R.R.R.Z.@ # $ - - $ # : : # = : : u : : : , : : , < u u u u u - u - u - u - u # = = - $ @ u $ $ $ @ X D.L.R.R.R.R.R.R.",
"R.R.R.R.R.R.R.L.Z.@ $ $ ] ] h $ : & $ - : : : : : : : : : u O.$.X.X.G - - u u u u - u - - # & u u $ r.b & # % . D.L.R.R.R.R.R.R.",
"R.R.R.R.R.R.R.R.Z.@ $ = O.$._ $ : # - : : : : : u : : u , i y..._ _ h u u  .G u - u - u u = = - u = t. .u = & . D.L.R.R.R.R.R.R.",
"R.R.R.R.R.R.R.R.A.% & - +.t._ - : = : u : : u : : : p h l l f.D , : , < p 0.#.z , : : : , - - - u # z.X.- = @ O D.R.R.R.R.R.R.R.",
"R.R.R.R.R.R.R.R.t.@ & - +.t._ = : = - : : : : : : : l { #.#.f.z , , , u f u.y.) , , , , , : : : # @ z.r.a a > + D.Y.R.R.R.R.R.R.",
"R.R.R.R.R.R.R.R.Z.@ $ - +.t._ - : = u u u : u : : u [ f.g.s.p.j , , < i l c.x.[ u u , , , : - : u & z.t.L U F @ D.Y.R.R.R.R.R.R.",
"R.R.R.R.R.R.R.R.Z.@ # $ +.t._ = : - : : - u - u < : [ #.) u u u : , p G #.C.C.i.] u , , : : - : u % z.t.B V c ; D.R.R.R.R.R.R.R.",
"R.R.R.R.R.R.R.R.Z.@ # - @.t._ - u - : , u - u u ' { #.y.G < , , < < u k #.c.c.i.[ u : , < : - : = % b.t.! ;.y : D.Y.R.R.R.R.R.R.",
"R.R.R.R.R.R.R.R.Z.@ # = @.t._ = : = : : : u u h @.O.O.{ g , < < < , < u z y.y.{ h : , , < : - : u $ N.A.8.8.y 1 D.Y.R.R.R.R.R.R.",
"R.R.R.R.R.R.R.R.Z.@ = = +.t.} - : = : u , , u k <.] l j i , < < , , , , u z z h u : < , , : - : u & b.9.8.Q 6 1 D.R.R.R.R.R.R.R.",
"R.R.R.R.R.R.R.R.Z.@ $ = +.t._ - u - : : u u u h +.k < , , , < < , u , < < u u u : u , < < : : > = & b.t.W Y 6 ; D.Y.R.R.R.R.R.R.",
"R.R.R.R.R.R.R.R.Z.@ $ = @.t._ - : = - : > : u f  .j < < u < , < < , < < u < < < , > < < < , - : < & v.1.C B c ; D.R.R.R.R.R.R.R.",
"R.R.R.R.R.R.R.R.Z.@ # - @.t. .; u & * ; 1 ; > < 3 u < < < u < u u < < > < < < < > ; 1 < ; - - : < = v.<.D K A o D.Y.R.R.R.R.R.R.",
"R.R.R.R.R.R.R.R.<.@ $ $ <.<.} : u c ^ 9.W P R q.w.9.! Z T ( w.e.( R T ^ q.q.^ T T ~ q.q.~ B 9 : < = m.<.g g b ; D.R.R.R.R.R.R.R.",
"R.R.R.R.R.R.R.R.A.@ $ - $.a. .- 3 c ^ R w P 8.e.e.E r t ! w.e.^ B w W q.e.^ V r W q.e.! t 8 1 : u * N.1.u * x u D.R.R.R.R.R.R.R.",
"R.R.R.R.R.R.R.R.A.% $ - <.<...- u 0 V w 8 P ^ 9.! q 8 t W ( ~ t 5 q R 8.! r 8 w E ~ E q 8 8 7 : : - N.h.` H J x D.Y.R.R.R.R.R.R.",
"R.R.R.R.R.R.R.R.A.X # - t.g.X.- < 1 1 1 9 N Z T 0 4 7 N Z Z N 7 2 q V Z q 4 4 q Z q 0 7 7 0 7 : < - N.j.;.-.;.u G.Y.R.R.R.R.R.R.",
"R.R.R.R.R.R.R.R.Z.@ # - t.d.o.- < = > > > < u < < < u , < < u , < < : < < < < < : , ; , , ; - : < = H.k.;.;.! d G.Y.R.R.R.R.R.R.",
"R.R.R.R.R.R.R.R.Z.@ # - t.g.X.- , = u u < < < u u < , u u , , u u < u u < < u < i < < , u , : : u ; P.k.;.;.7.d G.Y.R.R.R.R.R.R.",
"R.R.R.R.R.R.R.R.Z.@ $ - t.z.o.- u u h h u u : : u - u u u u - u u , u , u u , u < > = u p p u u : - P.k.%.=.&.d D.Y.R.R.R.R.R.R.",
"R.R.R.R.R.R.R.R.Z.@ # - t.z.@.- u u u u u $ u u u u u u u u u u < u < u u , u , < > = s h p p u u = P.k.&.;.I d G.Y.R.R.R.R.R.R.",
"R.R.R.R.R.R.R.R.Z.@ # - t.N.+.= u u u u , : u u u u u - u : : u u < u , u u u u < > # u p p u u < ; I.h.M M m > D.Y.R.R.R.R.R.R.",
"R.R.R.R.R.R.R.R.t.@ $ ; t.N.t.- u u u u , : - u u u u u u u u u u u u u , u , u u , # < u u u u < - U.d.3 - & O D.R.R.R.R.R.R.R.",
"R.R.R.R.R.R.R.R.A.o & - t.V.r.; u u u u $ : u u u u u u u u u u u u u u u , u u u : # < i u u u < - U.d.< - # O D.Y.R.R.R.R.R.R.",
"R.R.R.R.R.R.R.R.A.% $ - t.N.t.= u u u u u u u u u - u u u u u u u u , u u u u u u , # u u a u u > ; U.d.< $ @ O D.Y.R.R.R.R.R.R.",
"R.R.R.R.R.R.R.L.Z.@ # - t.V.t.- u u u u u $ u - u u u u u u u u : u u , u u : u u , $ u u i i u < ; U.a.< $ @ O D.Y.R.R.R.R.R.R.",
"R.R.R.R.R.R.R.L.Z.@ # - t.b.+.= u u u u u $ - u u u u u u u u u u u u u u u u u u , $ u u u < u u - I.p.< - # O D.Y.R.R.R.R.R.R.",
"R.R.R.R.R.R.R.R.Z.@ # u r.z.o.u u u = - - = u u u u u u u u u u u u u u u u u u u u @ - - - - > u - P.p., $ # O D.R.R.R.R.R.R.R.",
"R.R.R.R.R.R.R.R.Z.@ # $ t.z.X.u u $ & # = = ; u u u u u u u u u u u u u u u u u u u - - - $ - , u ; P.p.< - @ O D.Y.R.R.R.R.R.R.",
"R.R.R.R.R.R.R.R.Z.@ $ $ t.z.+.- u = u u ; - u u u u u u u u u u u u u u u i u u u u u u : : : : u - B.<.< - @ O D.Y.R.R.R.R.R.R.",
"R.R.R.R.R.R.R.R.Z.@ # - t.t.X.u u - u u u u u u u p u u u u u u u u u u u u u i u u u u u u : u u - B.<., $ # O D.Y.R.R.R.R.R.R.",
"R.R.R.R.R.R.R.R.Z.@ # - t.g.X.- u u u u u u u u u u u u s u u u u u i u u u u u u u , u u , : u < = B.,., $ @ O D.Y.R.R.R.R.R.R.",
"R.R.R.R.R.R.R.R.Z.@ $ - t.t...- u u h k u u ; u u u u u u u u u u u u u u u u u u : - f h h p u u - m.,., - @ O D.Y.R.R.R.R.R.R.",
"R.R.R.R.R.R.R.R.Z.@ # - @.t. .u u u u u u - u u s u u u u u u u u i u u i u i u u , $ i p p i u 7 = m.@., # @ O D.Y.R.R.R.R.R.R.",
"R.R.R.R.R.R.R.R.Z.@ # = t.t. .- u u u u u = u u u u u s u u u s u u i u u i u i u , $ u i i u i u = m.+.: - # O D.Y.R.R.R.R.R.R.",
"R.R.R.R.R.R.R.R.A.@ # u O.t._ u u u u s , : u u u u u u s u u u s u u u u s u u u , $ u u u u u u # v.@.: $ @ O G.Y.R.R.R.R.R.R.",
"R.R.R.R.R.R.R.R.Z.@ $ $ r.t._ - s u u u , : u u u u u p u u u u u u u s u u u s u : # u p u p i u - v.@.: $ @ O G.Y.R.R.R.R.R.R.",
"R.R.R.R.R.R.R.R.Z.@ # = t.t.` u u u u u u : u u p u u u u u u u u u u u u u u u u : # u u u i u u & v.+.: $ @ X D.Y.Y.R.R.R.R.R.",
"R.R.R.R.R.R.R.R.Z.@ # - o.t._ - u u s u : - u u u u u p s u u u s u u u s u u u u < $ u p u u i u - v.+.: - @ X D.Y.Y.R.R.R.R.R.",
"R.R.R.R.R.R.R.R.Z.o # - +.t._ u u ; < u u : u u u u u u u s u u u u u s i u i < < u # ; < u i u u - v.+.- $ # X D.Y.R.R.R.R.R.R.",
"R.R.R.R.R.R.R.R.Z.o $ = +.t._ = u = = = $ - u u u p u u u u u u u u u u u u u > ; < # & = - : u u # z.+.- $ @ X D.Y.R.R.R.R.R.R.",
"R.R.R.R.R.R.R.R.Z.o # = o.t._ u u = = = = : u u u u u u u u > 3 u u u u u u , ; : u = = = - - < u # v.+.- $ # o D.R.R.R.R.R.R.R.",
"R.R.R.R.R.R.R.R.Z.o # = :.t._ - u = u u u u u u u u s u u u u u 3 u u u u u u u u u u u u u , u < & v.+.- = @ o D.K.R.R.R.R.R.R.",
"R.R.R.R.R.R.R.R.Z.X o - :.t._ - u = u u u u s s f f f p f f f p f f s f f f f f f s i , u u < < u # b.o.= = O . D.L.R.R.R.R.R.R.",
"R.R.R.R.R.R.R.R.Z.X % - +.t._ ; u > u u : u u u u u u u u u u u u u u u u u u u u u < : u : : < u & b.o.& & @ . D.L.R.R.R.R.R.R.",
"R.R.R.R.R.R.R.R.Z.o o % +.t._ ; u = ; : : : u u u , u : u u u : : : : > : : - : - : : : u : : < < # b.o.& % % . D.K.R.R.R.R.R.R.",
"R.R.R.R.R.R.R.R.Z.X o % +.t._ = u = = > - : : - , - , , - $ - u : : : - : - : : : : : , u : = ; ; % b.+.% @ . . D.K.R.R.R.R.R.R.",
"R.R.R.R.R.R.R.R.A.x x M :.2.>.*.:.=.=.=.*.| | | _ ` ` ` ` K K K H H H L L | L | | | | *.*.=.=.=.=.K a.] % % + ; D.L.R.R.R.R.R.R.",
"R.R.R.R.R.R.R.R.H.3.3.t.t.A.S.H.H.H.H.H.H.G.D.D.D.A.Z.Z.A.Z.Z.Z.Z.Z.Z.Z.Z.Z.S.Z.S.D.D.D.D.H.H.H.H.Z.j.2.=.%.=.-.K.R.R.R.R.R.R.R.",
"R.R.R.R.R.R.R.R.R.R.R.R.R.R.R.R.R.R.R.R.R.R.R.R.R.R.Y.R.R.R.R.R.Y.Y.R.R.R.R.R.R.R.R.R.R.R.R.R.R.R.R.R.R.R.R.R.R.K.R.R.R.R.R.R.R.",
"R.R.R.R.R.R.R.R.R.R.R.R.R.R.R.R.R.R.R.R.R.R.R.R.R.R.R.R.R.R.R.R.Y.R.R.R.R.R.R.R.R.R.R.R.R.R.R.R.R.R.R.R.R.R.R.R.R.R.R.R.R.R.R.R."
};
