/* XPM */
static char *result[] = {
/* columns rows colors chars-per-pixel */
"64 64 218 2 ",
"   c #0D1313",
".  c #061D1D",
"X  c #12161A",
"o  c #131A1B",
"O  c #25260A",
"+  c #2C2C12",
"@  c #34351A",
"#  c #0C1E21",
"$  c #151C22",
"%  c #191D23",
"&  c #0D2424",
"*  c #142325",
"=  c #1B2425",
"-  c #172825",
";  c #192A27",
":  c #152429",
">  c #1A252A",
",  c #16292C",
"<  c #1C2A2D",
"1  c #1D322E",
"2  c #162B32",
"3  c #1D2D31",
"4  c #173333",
"5  c #1D3234",
"6  c #1D3738",
"7  c #1E3B3B",
"8  c #21262A",
"9  c #262828",
"0  c #222C2D",
"q  c #25322D",
"w  c #2B312C",
"e  c #323324",
"r  c #373828",
"t  c #222E32",
"y  c #292E34",
"u  c #292F38",
"i  c #233235",
"p  c #2A3336",
"a  c #243D37",
"s  c #2F3A33",
"d  c #243539",
"f  c #2B353A",
"g  c #253A3C",
"h  c #2A3A3D",
"j  c #323433",
"k  c #383C36",
"l  c #32353C",
"z  c #323A3D",
"x  c #403E35",
"c  c #1F403F",
"v  c #39422D",
"b  c #27403A",
"n  c #28413B",
"m  c #3C423C",
"M  c #46452E",
"N  c #464834",
"B  c #43433B",
"V  c #49463D",
"C  c #4A503E",
"Z  c #51523A",
"A  c #253542",
"S  c #2A3740",
"D  c #253D41",
"F  c #2B3D42",
"G  c #2C3B4A",
"H  c #323D43",
"J  c #353E48",
"K  c #254142",
"L  c #2E4144",
"P  c #2C4449",
"I  c #2D4A49",
"U  c #314246",
"Y  c #3A4545",
"T  c #344549",
"R  c #344A4B",
"E  c #3A4A4E",
"W  c #2E574A",
"Q  c #365348",
"!  c #355E4D",
"~  c #385F4E",
"^  c #3C4D51",
"/  c #365354",
"(  c #3D5255",
")  c #365D51",
"_  c #3A5E57",
"`  c #38604E",
"'  c #366051",
"]  c #3B6252",
"[  c #414444",
"{  c #444B4C",
"}  c #4B4A48",
"|  c #514E46",
" . c #4D5446",
".. c #53534A",
"X. c #58554C",
"o. c #595C49",
"O. c #414E55",
"+. c #404E59",
"@. c #415357",
"#. c #4C5554",
"$. c #435459",
"%. c #46595C",
"&. c #4B5C5D",
"*. c #555557",
"=. c #535A53",
"-. c #5B5C51",
";. c #56555A",
":. c #535D59",
">. c #625F56",
",. c #5F634A",
"<. c #4E6D5F",
"1. c #5D6456",
"2. c #5F645C",
"3. c #6C6C53",
"4. c #676859",
"5. c #646B5C",
"6. c #6C7356",
"7. c #75745A",
"8. c #4C5E61",
"9. c #545E64",
"0. c #5E5D61",
"q. c #625E62",
"w. c #4D6868",
"e. c #556665",
"r. c #5A6C6C",
"t. c #497C66",
"y. c #5E7373",
"u. c #567876",
"i. c #636364",
"p. c #696866",
"a. c #646C6C",
"s. c #6C7364",
"d. c #6E746C",
"f. c #757167",
"g. c #646E72",
"h. c #627575",
"j. c #647C75",
"k. c #657C7B",
"l. c #6A7C7C",
"z. c #757874",
"x. c #737B7D",
"c. c #51856F",
"v. c #68807F",
"b. c #7C8378",
"n. c #7B857E",
"m. c #818365",
"M. c #87856C",
"N. c #87896C",
"B. c #898C6E",
"V. c #858978",
"C. c #908E75",
"Z. c #929277",
"A. c #97957B",
"S. c #757D81",
"D. c #787F81",
"F. c #5C8480",
"G. c #638282",
"H. c #6D8383",
"J. c #6E8989",
"K. c #758385",
"L. c #7B8485",
"P. c #768689",
"I. c #7B878A",
"U. c #758B89",
"Y. c #7B898C",
"T. c #6B928F",
"R. c #738F90",
"E. c #7D8E91",
"W. c #719694",
"Q. c #7B9595",
"!. c #7C9999",
"~. c #5FBA92",
"^. c #6BAB8F",
"/. c #64B994",
"(. c #6BBA96",
"). c #6ABE9A",
"_. c #72BE9B",
"`. c #79BD9E",
"'. c #7EA8A4",
"]. c #67C09A",
"[. c #6CC39C",
"{. c #72C49E",
"}. c #6FC6A1",
"|. c #74C7A2",
" X c #7CC4A3",
".X c #73C8A1",
"XX c #79CAA5",
"oX c #7BCDA9",
"OX c #828B83",
"+X c #838B8B",
"@X c #84898A",
"#X c #88928D",
"$X c #858F91",
"%X c #839295",
"&X c #8C9394",
"*X c #86969A",
"=X c #86999A",
"-X c #8C9A9C",
";X c #919696",
":X c #8A9EA0",
">X c #94A6A7",
",X c #97A6A7",
"<X c #95AAAA",
"1X c #9AACAC",
"2X c #97A7B3",
"3X c #9AADB4",
"4X c #9EB2B6",
"5X c #9FB2B8",
"6X c #A5B3B4",
"7X c #A5BABB",
"8X c #80C6A6",
"9X c #82C8A7",
"0X c #84C7AA",
"qX c #84C9A9",
"wX c #8DC9AE",
"eX c #85D2AF",
"rX c #86D6B2",
"tX c #A9BEC1",
/* pixels */
".X.X.X.X.X.X.X.X}..X.X.X{.{.{.XX{.].[.].{..X.X.X.X.X.X{.{..X.XXX{.XXXX{.{.{.{.[.[.)..X.X.X.X.X.X.X.X.X.X{.XX{.{.XX{..X.X.X[.{.].",
"XX|..X.X.X.X.X.X.X.X{.|.XXrXXXXX.X{..X.X.X.X{.{..X.X.X.X|.|.XX{.XX{. XeXXXXX.X{..X|..X.X.X{.{..X.X.X{..X{.{..XXX{.rX9X{..X.X.X.X",
"eX|..X{..X.X.X.X.X{..X{.9XXX{.`.(.(.(.(.].(.(.(.(.(.[.(.(.(.(.(.(._.{. X{._.).).(.(.(.(.(.(.(.(.(.(.(.(.(.[..XoXrXeXrXXX.X.X.X.X",
".X.X.X.X.X.X.X.X.X/.Q 8 8 = = - , - - < i 0 < 0 = 0 > < > 0 0 < 0 < 8 8 8 > 0 0 < < < < < < i > < < < 5 i i ).{.XX{.{.XX.X.X.X.X",
".X.X}.}.|.|.|.}.8Xw p 8 0 < < 0 1 1 i h 5 , 5 , i < 3 3 1 2 1 5 1 5 < i i i 3 t < < , t i i < > s h i p p < t.{.{..X{.XX{.{.XX{.",
"|..X}.|.|.|.|.|.<.p % = 0 q 1 q 1 q i 8.h.r.y.r.y.h.j.k.v.K.H.U.K.H.l.k.j.h.h.y.y.r.r.y.Y t i i 3 i i i i < p `..XXX.X{..XXX{.XX",
"XX)./.}.}.|.|.wXX 8 = > 0 i i i i i a w.J.h.k.v.v.H.J.U.E.Q.!.=XQ.Q.R.J.H.H.v.v.k.k.h.l.E i h h i i < d d h i t.XXXXoX.X{.XXoXXX",
"}.}.}.).|.|.|.u.8 9 9 t i 3 q q i i < & . . # # & & & & & & & & & & & & & . . . . . . o * i p i t i t i d p t < 9XXXXX{.XX{.{.oX",
".X.XXX.X.X.XeX* % t t t t t i i i < : > = > > < < < < > > > > = = > > < < > > < < < < > * * < 3 t i t t t t p y c.XX.X.XXX.X.X.X",
".X.X{.{.|.oX^.$ t t u i u 3 i i > $ t p p p u l l y y t y t u y p p p p p y p p y y y t < = $ * i i i i i i t t a {..X{.{..X.X.X",
".X.X|.XX|.|.t.: i t 3 i 3 u i 3 $ 2 p u 8 $ $ % % % % % % % % $ o % $ $ % % % % % % % t i < * * t i i i i i t > 9 c.{..X.X.X.X.X",
".X.X{.|.|.|.' 3 > i 3 i 3 d t $ 2 p t 8 8 y y y y y p y u y u p y y y u p y y 0 y t t > t d t * > < i i i t 3 t < ` {.{..X.X.X.X",
".X.X.X.X.X.X) 2 2 S t d d > $ 3 i t t t p z z p p h p h f f h p p p p p f S h h p l h > < d h i * * < i p i t 3 * ! .X.X.X.X.X.X",
".X{.|..X.X].W & 5 d i d 2 $ : A S u 2 3 i d g g d d d d d a d d g d d g d d d d i d i i < < p d < $ * t d d t 3 * ` .X.X.X.X.X.X",
".X.X|.|..X.X! $ i i d 5 , , d h t < t d g g g p d d d g d d A d p S f i d g c c g d i l p = < s i 1 & 3 S t t t $ ` .X.X.X.X.X.X",
".X.X.X|.oXoX' < < 3 * w., , f d 3 3 i f d f g d d d d U d G w.e.g.9.J t d 6 6 7 g h f p p p - < d i < E E 3 S 0 * ' .X.X.X.X.X.X",
".X.X.X|.XXoX] 3 : d i 1XL 4 a 3 3 i d h d d d g 6 d 7 D a 8.Q.r.r.9.J d c / W c g d p 0 z h < , a a , x.x.t t t = ) .X{..X.X.X.X",
".X.X.X.X.X}.] 3 < < q <Xa 5 i < t h S g d g g d g L g 7 4 w.!.7 i h J F c F.S./ K h d p p d q < i d , P.K.< S 0 % ! .X.X.X[.[.[.",
".X.X.X.X.X.X) * t i h <XF 5 a < i z h d d d g 7 7 A w.w.w.F.R.4 7 d 7 d 4 W.F._ c g i z p p f 5 d d - I.P.0 q - X ` |..X{.[..X[.",
".X.X.X.X.X.X! : < d a >XH 5 g t p F d a 7 7 g 7 7 P !.R.u.S.u.5 g S A A 7 '.T._ c D d h d h g 3 d i 2 n.K.1.#.:.z ] {..X.X.X{.{.",
".X.X.X.X.X.X! < < 5 g ,XU 5 h i d h g g D 6 7 K 7 D !./ 4 6 6 D A 2 i U P '.'.w.I g g d d g F 2 a D , L.#Xs m m  .%.rXXX.X.X.X.X",
".X.X.X.X|..X! < < 1 h ,XU 1 h i i f h g D S g R ^ _ !./ c c 6 g g g h w.T.T.W.W.G.R D p d g F 2 d P * b.n.v 2.,.{ ` {.{.XX{.XX.X",
".X.X.X.X.X.X! < < i h <XU 1 h d p h h f S D $.Q.Q.=X:X/ 6 6 4 7 d S f g ^ S.W.c./ d H d g S G 2 A d & L.OX,.b.1.Y ` {.XX|.|..X.X",
"|.XX[..X.X{.! < < 5 h <XR 1 g d i h F D i d $.k.6 4 g g g K P S d d f f A _ u./ 2 d p d g A D 2 S d * n.n.6.6.C m ` XX|.|..X.XXX",
".X).~.}.{..X` < < i h <XT 5 h d p h p h d h $.S.5 d A L L g g i H H S H F K I 7 g F f d d g D 2 A D * b.V.,.6.X.m ' oX.XXX.XoXXX",
".X}..X)..X{.` < 1 i h <XT 3 h i p h S f t h $.Y.S g d g S g 6 d S S d f S D K 7 D f H d d S S 2 A L * n.OXv M B m ` .X.X{.{.{.oX",
".X.X.X.X.XXX] - 3 3 F 2X+.S z 9 e e w p h p p H p h g p i t p p p f p f p g p p i i t j s w q - b a , Y.%X:.} } l ! {..X.X.X{..X",
".X.X|.|.{.oX` - 3 i F 2X( 3 m 9  .o.4.s. .4.d.4.s.s.1.=.s.s.s.3.s.s.5.5.s.2.s.s.o.1.f.p.4.2.:.1 d K , n.K.z l l p ! {.{..X.XXX.X",
".X.X|.|.|.XX` * 3 d F 3X+.> Y 0 x.V.7.@ O o.M.M.m.M O @ 3.Z.m.M.Z O M 7.B.N.o.+ + o.N.V.z.m - - i g < I.&X[ [ [ =.` .X.X.X.X.X.X",
".X.X|.|.|.|.' - 3 6 G 3X+.3 z 0 d...e r 6.C.A.7.N + N 7.C.M.7.x + N M.A.M.Z @ r 7.C.Z.4.j w #.0 n g ; I.$XH l H =.` .X.X{..X.X.X",
".X.X.X|.|.}.W * 3 d G 5X$.2 f 0 [ [ k | X.>.4.| B V -.X.| 4.V x x X.>.X.V x N | X.| B ..j } a.* g F < @X&Xq.z.p.i.! .X.X.X.X.X.X",
".X.X|.|.|.).W , 3 d U 5X8.i h p s w j l l l l u H l l l l l l l j l u j H l u j u l u j j p p 0 g S < @X&X0.p.0.i.! .X.X.X.X.X.X",
".X.X|.|..X.X' > 3 t T 5X8.5 d < p s H S F S G H H S G F F S G F G S F G S F h S F G h z z z h < d F 2 @X;Xq.p.q.q.! .X.X.X.X.X.X",
".X.X|..XoXoX] > 3 6 T 6X$.3 d i h H U a h h h D n h h h h h h g h h g h h L g d h a i p p h h 2 d D , +X;X;.p.p.0.! .X.X.X.X.X.X",
".X.X|.|.|.XX) > 3 i T 7X&.5 D d T E T a 1 n n a a b b b b b b b h b b b b b a b n b 1 H E E R P I L 2 $X;X=.i.i.;.Q |..X}.|.|..X",
".X.X|.|..X.X) > t d R 7X&.2 D g F G U d 1 K D a g h D g n h g S h h g n h D n h L d 2 3 F L D 7 A D 4 -X,X*.i.q.;.~ |..X.X[.).}.",
".X.X|.|.|.|.) * 3 i ^ 7X&.5 L S J F J A 2 G J A G G G G G G G G G G G G G G G G G A 2 2 L P P K K c , *X&Xq 9 9 8 ! |..X}.[.}.).",
".X.X{.|..X.X] > 3 d R tXw.i L U H U G A 3 G G S F F F F F F F F F F S F F F F G A F d 2 D L F g D D , *X:Xd t < = ] XX|..X.X|.|.",
".X.X.X.X.X}._ : t d R tX8.d D U h H S d i D D h F F F F h L F h D F F F F F D F g F i i g P U U U S < *X-Xd i < > ] eX|..X.X}..X",
".X.X.X.X.X.X_ % 3 i T tX8.d F H S S F h d F F h F D A F F F F F D F F D F L D F g F i d D F F D L D , *X-Xd 5 3 = ) |..X.X.X.X.X",
"{..X.X.X.X.X' : 3 i U tX8.6 F U U U U h d F F h F F h F F F F D F D F F F F F D h F i F L L h d h S 2 %X:Xu d > > ) .X.X.X{..X.X",
".X.X[.}..X.X' : < i T tX8.3 F F S l S 5 3 g D S F F F F L h F F F F F F D F F h h D i D L S d d D S 2 $X%Xd d t > ) {.|..X.X.X.X",
"XX).~.[.}..X) : 2 i T tX8.6 d d t > 2 > : d F F L h h F h D F h F h D F F L F F h D i : : , : 2 p L 2 $X:X2 6 3 > ) XX|.|.|.XXXX",
".X.X.X}.|..X) : 3 d T 4X8., G 3 i f i d g F h g U F L F L F F L L F F F D L h D F U D T g h L : g S 2 E.%Xd u 3 > ) XX|..X.XXXXX",
"|.|.}.|.|.|.] : t i T 5X&.2 U d S T F h h L F F U F F F F F F F D F F L F L h h L L F F g S P 3 P D < E.%Xd 3 > = ` {.XX|.|.|.XX",
"}.|..X|.|.oX_ : 3 i U 4X$.2 F i H H H h d F L F U L L F F F L F L F F F D L F D L F d L L D F < h h 2 Y.%X6 6 3 > ` {..X|.|.|.|.",
".XXX|..X.X|.) : 3 i U 3X%.d L i S H H h 5 d F S L h L F L h h L F F L F F L F F U K d i h h F i F F < Y.E.3 i t > ) .X.X.X{.|.XX",
".X}..X.X.X.X) > 3 i F <X@.4 L h E O.@.D < d F L F U h F F L L D F F h K F L F U U S 5 T ^ ^ ^ D U D < Y.E.3 i 3 = ) .X.X.X.X|.|.",
".X.X.X.X.X.X! > 3 i n 1X$.a F d S h T F 3 h U U U F F F F L F F L F F F F L F L U h 2 d L U T h U F < Y.Y.3 d 3 > _ .X.X.X.X.X.X",
".X.X|..X|.[.W ; 1 5 b <XR 5 K L L F L d 2 F U F D U L F F L L F F F L F L F F L D L 3 d D U U F F F 2 K.P.6 3 3 : ) .X}..X.X.X.X",
".X.X|.|..X.X! ; < i h <XR 4 K L L F F d 2 h U K h L F L L F L F L h F L F F L U F F 5 d F U L D L F , K.P.d t 3 > ) .X.X.X.X{..X",
".X.X|.|.oXoX` < 0 1 a <XR 5 D L F F L d 2 L U L D F L F F L F L L U L F U F F F F F 3 i h U H F L F < K.P.i 3 3 > ) .X.X.X|.|..X",
".X.X|.XXXXXX! = < 1 s <XI 1 D K F F F d 3 F U U D U F L F L L F F L F U L F F U h F 3 i D L F D F F , S.P.5 3 3 < ` .X.X{..X.X.X",
".X.X|.|.|.|.! > 0 < a <XR 1 g L F D F d 2 D L F h F F U L F F F L F L h F F F F h D 3 i h L F h F F , K.P.3 t < = ` .X.X.X[.[.{.",
".X.X|.|.|.|.) > < q d <XT 4 h D d g S d 3 D U K D F F D D F F L F U U F L D F F g h 3 6 d S D g L F < K.P.3 6 3 = ! {.{.{.[.{.].",
".X.X.X.X}.|.) * < i q 1XU i D i : < 2 * , h L S F U L L L F L L F L F L L S L d i A i * : : < < F F , K.K.2 i t > ] XXXX.X.X.X{.",
".X.X.X.X.X{.! $ < q 0 1Xn 5 L d d S H S g L L D D F F D F D D h h F D F h F U F g D h g F S F i L F < K.S.2 i 0 = ] rXXX.X.X.X.X",
".X.X.X.X.X{.! = 8 i 0 <XY i L d f U F d g g d 5 i d d i d i d d i d i d d d d d d i i i F L D 5 L S , K.K.3 6 < % ~ .X{..X{..X.X",
".X.X.X.X.X.X! $ = t 0 >XU 5 L d d H h h R E ( $.@.( @.@.( ^ @.@.@.$.@.$.@.@.E ( $.( @.i L K d : d g 2 L.K.3 3 0 % ! {..X.X{..X.X",
".X.X[.XX.X.X! o = q 0 <Xn < F g d H S d L S S I U F F F F D h D F D F h F D d F L h L * S T H 3 L S 2 K.K.3 3 8 % ` XX{..XXX.X.X",
".X].).].|.|.) X 8 = 9 1Xz 0 h p 0 p p d p i t t 3 i i i i i 3 < 1 0 3 3 0 0 < 5 t t t < s n p 0 z h p L.D.= 8 = o ~ XX{..X.XXXXX",
".X}..X].|.|.! 0 = 8 9 6Xs = s p 0 w d 0 i i d p p g s p p p p d i i p p p g p g h p g w z s 9 - 0 0 = @X@X% t 8 o ` XXXX.XXX.XoX",
".X.X}.}.|.|.j.5.p.a.i.-XOX;X;X;X;X;X;X&X&X&X$X$X$XD.S.S.S.x.x.z.x.x.x.x.x.D.I.OXI.OX@X#X#X#X+X@X&X&XOXa.0.t w 9   <.|.|.|..XXX|.",
".X.X.X.X.XXX{.8X{.{.`. X9XqXqXqXqXqXqXqX9X9X0X9X9X X XqX8X0X X{. X X X X8X X8X8X9X9XXX9XqXqX9X9X9XwX0X X(.(.(.(.(._..X.X.X.X.X.X"
};
