/* XPM */
static char *_ae2f83172154a26e95dc2643a1d7fc20OYpT1vaZAQGbxpn[] = {
/* columns rows colors chars-per-pixel */
"64 64 3 1 ",
"  c #A2A2A2",
". c #ACACAC",
"X c #B6B6B6",
/* pixels */
"                                                               .",
"                                                               .",
"                                                               .",
"                                                               .",
"                                                               .",
"                                                               .",
"                                                               .",
"                                                               .",
"                                                               .",
"                                                               .",
"                                                               .",
"                                                               .",
"                                                               .",
"                                                               .",
"                                                               .",
"                                                               .",
"                                                               .",
"                                                               .",
"                                                               .",
"                                                               .",
"                                                               .",
"                                                               .",
"                                                               .",
"                                                               .",
"                                                               .",
"                                                               .",
"                                                               .",
"                                                               .",
"                                                               .",
"                                                               .",
"                                                               .",
"                                                               .",
"                                                               .",
"                                                               .",
"                                                               .",
"                                                               .",
"                                                               .",
"                                                               .",
"                                                               .",
"                                                               .",
"                                                               .",
"                                                               .",
"                                                               .",
"                                                               .",
"                                                               .",
"                                                               .",
"                                                               .",
"                                                               .",
"                                                               .",
"                                                               .",
"                                                               .",
"                                                               .",
"                                                               .",
"                                                               .",
"                                                               .",
"                                                               .",
"                                                               .",
"                                                               .",
"                                                               .",
"                                                               .",
"                                                               .",
"                                                               .",
"                                                               .",
"...............................................................X"
};
