/* XPM */
static char *result[] = {
/* columns rows colors chars-per-pixel */
"64 64 207 2 ",
"   c #363536",
".  c #3A3A3A",
"X  c #3F3B41",
"o  c #413C44",
"O  c #463C57",
"+  c #563D73",
"@  c #723D66",
"#  c #444342",
"$  c #484649",
"%  c #544E4D",
"&  c #53504F",
"*  c #4F4B54",
"=  c #574E5D",
"-  c #575355",
";  c #5C5A5A",
":  c #605957",
">  c #615A5A",
",  c #57486A",
"<  c #57437C",
"1  c #6C4B6C",
"2  c #664276",
"3  c #547160",
"4  c #686668",
"5  c #72706B",
"6  c #7A797A",
"7  c #A61E63",
"8  c #BB1F6C",
"9  c #913466",
"0  c #A72567",
"q  c #B4226B",
"w  c #B9216D",
"e  c #BC2672",
"r  c #BB2974",
"t  c #BA347B",
"y  c #C12D78",
"u  c #C6327D",
"i  c #9E4D7B",
"p  c #895776",
"a  c #AE447C",
"s  c #916C7C",
"d  c #59826F",
"f  c #5E977C",
"g  c #77897A",
"h  c #69927E",
"j  c #749175",
"k  c #8F857C",
"l  c #5B4282",
"z  c #5C438E",
"x  c #5D4390",
"c  c #63478B",
"v  c #6F578D",
"b  c #624694",
"n  c #684B96",
"m  c #6C4C9B",
"M  c #73579B",
"N  c #7B748E",
"B  c #7B6997",
"V  c #7556A2",
"C  c #7C5DA3",
"Z  c #7F61A6",
"A  c #C83B85",
"S  c #9D5C89",
"D  c #BA4985",
"F  c #B45789",
"G  c #8F6B92",
"H  c #86779A",
"J  c #B36A93",
"K  c #8162A6",
"L  c #8364A9",
"P  c #8768AA",
"I  c #8A6AAD",
"U  c #8F75AF",
"Y  c #9676A8",
"T  c #9375B2",
"R  c #987BB5",
"E  c #C34185",
"W  c #C4478A",
"Q  c #CD438C",
"!  c #D14C92",
"~  c #CC5293",
"^  c #C85B97",
"/  c #D25498",
"(  c #D25B9C",
")  c #C4659C",
"_  c #D2639F",
"`  c #CC6BA2",
"'  c #D364A1",
"]  c #D46BA5",
"[  c #CB79A8",
"{  c #D674AA",
"}  c #D67CAE",
"|  c #D878AD",
" . c #D87FB1",
".. c #6A9B84",
"X. c #779A84",
"o. c #5FBA92",
"O. c #69A689",
"+. c #72A88C",
"@. c #6BAE90",
"#. c #77AD93",
"$. c #62B692",
"%. c #6CB593",
"&. c #64BC96",
"*. c #6CBB96",
"=. c #67BD98",
"-. c #6ABE99",
";. c #75B493",
":. c #78B897",
">. c #66C09A",
",. c #6CC29C",
"<. c #72C49E",
"1. c #6EC6A0",
"2. c #74C7A2",
"3. c #78C7A2",
"4. c #73C8A1",
"5. c #79CAA6",
"6. c #7BCDA9",
"7. c #7FD1AC",
"8. c #848488",
"9. c #8B898B",
"0. c #91858B",
"q. c #82958C",
"w. c #86819C",
"e. c #918C9A",
"r. c #8C9892",
"t. c #999B9B",
"y. c #A49B9F",
"u. c #86A496",
"i. c #97A899",
"p. c #948AAB",
"a. c #9B91A5",
"s. c #9C87B1",
"d. c #9D81B9",
"f. c #B785A4",
"g. c #A89EA5",
"h. c #A288BC",
"j. c #AE9AB2",
"k. c #B498B7",
"l. c #9DA7A3",
"z. c #94B2A4",
"x. c #A8A5A8",
"c. c #A9A8B7",
"v. c #AFB3B2",
"b. c #B3B0B2",
"n. c #B6B6B8",
"m. c #BABBBC",
"M. c #CF8CB3",
"N. c #D785B3",
"B. c #DC8DB9",
"V. c #DC93BD",
"C. c #D99BBF",
"Z. c #C5A9B9",
"A. c #81CEAA",
"S. c #83D2AE",
"D. c #86D5B1",
"F. c #89D5B1",
"G. c #88D8B3",
"H. c #A98FC0",
"J. c #AC94C4",
"K. c #B19BC8",
"L. c #B8A7CB",
"P. c #B6B5C5",
"I. c #BBBBC4",
"U. c #BCBCCC",
"Y. c #BDABD2",
"T. c #DD9CC3",
"R. c #D6A7C4",
"E. c #C6B9C8",
"W. c #C7B7D9",
"Q. c #E0A5C8",
"!. c #E1ABCB",
"~. c #E4BDD7",
"^. c #E9BED8",
"/. c #C3C4C6",
"(. c #C4C4CB",
"). c #C8C8CC",
"_. c #CCCDCE",
"`. c #C5C4D2",
"'. c #CAC5D5",
"]. c #CBCBD4",
"[. c #CCCDD9",
"{. c #D2CFD6",
"}. c #CED1D9",
"|. c #D4D2D5",
" X c #D3D4DC",
".X c #D8D7DD",
"XX c #DBDADD",
"oX c #E8C6DC",
"OX c #D5C9E2",
"+X c #DAD7E5",
"@X c #DBDEE3",
"#X c #EACEE1",
"$X c #E8DBE9",
"%X c #F0DCEA",
"&X c #DFE1E5",
"*X c #E2E2E5",
"=X c #E5E4EB",
"-X c #EBE5EB",
";X c #EBEBED",
":X c #F2E9EF",
">X c #E8E3F1",
",X c #EEEDF2",
"<X c #F4ECF3",
"1X c #F3F2F4",
"2X c #F6F4F9",
"3X c #F8F3F9",
"4X c #FCFBFC",
/* pixels */
"4.4.4.4.4.4.4.4.4.4.4.4.4.2.4.4.4.>.,.>.<.4.4.4.4.4.4.4.4.4.4.5.4.<.5.<.5.<.<.,.<.,.4.4.4.4.4.4.4.4.4.4.4.4.4.4.<.4.4.4.4.,.<.>.",
"5.2.<.4.2.4.4.4.4.4.4.2.2.D.3.2.<.4.4.4.<.4.4.<.4.4.4.4.4.4.4.<.5.5.<.F.<.A.4.4.4.4.4.4.4.4.4.4.<.4.4.4.4.4.4.4.4.S.A.4.4.4.<.4.",
"S.2.4.4.4.4.4.4.4.4.4.2.S.S.S.5.4.4.4.2.4.4.4.4.4.4.4.<.4.4.4.4.<.A.F.F.S.5.4.4.4.4.4.4.4.4.4.4.4.4.1.4.4.4.4.5.D.F.F.4.4.<.4.4.",
"4.4.4.4.4.4.4.4.4.1.4.4.4.2.3.2.4.3.<.2.4.4.4.4.4.4.4.4.4.4.<.4.4.<.<.<.4.4.4.4.4.<.4.<.4.4.4.4.4.4.4.4.4.4.4.4.4.4.4.4.4.4.4.4.",
"4.4.1.4.2.2.5.1.4.4.4.2.4.2.2.2.2.2.5.2.4.2.4.4.4.4.4.4.4.4.4.4.4.4.<.5.<.5.<.4.4.5.<.5.4.4.4.4.4.4.4.4.4.4.4.4.4.4.<.4.4.4.A.<.",
"2.4.1.4.2.2.2.4.4.4.4.2.3.5.2.2.2.2.2.2.6.4.4.4.4.4.4.4.4.4.4.4.4.<.5.<.5.<.5.<.<.4.5.4.4.4.1.4.4.4.4.4.4.<.4.4.4.3.3.4.4.4.3.<.",
"5.-.$.1.1.2.2.4.4.1.2.6.5.5.5.2.2.2.2.2.7.6.4.,.>.<.<.4.4.4.4.4.4.5.<.7.6.5.<.5.4.5.S.5.4.<.>.,.1.4.4.4.4.4.4.4.4.A.A.4.4.4.3.3.",
"1.1.2.=.2.2.2.1.4.4.2.2.5.3.6.2.2.2.2.6.2.6.4.,.4.>.4.4.4.4.4.4.4.4.5.5.6.<.5.<.<.7.4.5.4.,.4.>.4.4.4.4.4.4.4.4.4.4.3.<.4.4.4.A.",
"4.4.4.2.4.5.6.5.5.4.4.4.3.4.4.4.4.4.4.4.4.4.4.4.2.5.2.5.S.4.3.3.4.4.4.5.4.4.4.4.4.4.4.<.<.4.4.4.4.5.S.4.4.4.4.4.4.4.4.4.4.4.4.4.",
"4.4.2.2.2.6.5.5.4.4.4.4.4.4.4.4.4.4.4.4.4.4.4.4.4.2.2.6.5.7.3.<.5.<.4.<.4.<.4.4.4.4.4.4.4.4.4.4.4.A.4.A.4.4.4.4.4.4.4.4.4.4.4.4.",
"4.4.<.3.2.2.2.2.2.2.2.3.4.4.<.4.4.4.4.4.4.4.4.<.4.2.2.2.4.4.4.2.<.4.4.4.4.4.4.4.4.4.4.4.4.4.4.4.4.4.4.4.4.4.4.4.4.4.4.4.4.4.4.4.",
"<.4.2.2.2.2.2.2.2.2.2.<.4.4.4.4.4.4.4.1.4.4.4.4.4.2.2.2.5.4.2.2.5.4.4.4.4.4.4.4.4.4.4.4.4.4.4.4.3.4.4.4.4.4.4.4.4.4.4.4.4.4.4.4.",
"4.4.4.4.2.2.1.1.4.4.4.4.<.4.4.4.4.4.1.4.4.4.4.4.2.2.2.4.,.4.4.4.<.5.<.4.4.4.4.4.4.4.4.4.4.4.4.4.4.4.<.<.4.4.4.4.4.4.4.4.4.4.4.4.",
"4.4.2.4.1.1.&.1.,.4.5.4.4.4.4.4.4.4.4.4.4.4.4.4.4.2.2.=.=.>.,.4.4.4.<.<.4.4.4.4.4.4.4.4.4.<.4.4.4.>.>.,.,.4.4.4.4.4.4.4.4.4.4.4.",
"4.4.2.2.1.1.4.1.4.2.4.4.4.4.4.<.4.4.4.4.4.1.4.4.4.2.2.1.4.,.2.2.<.4.4.<.4.4.4.4.4.4.4.4.4.4.4.4.4.<.<.<.4.4.4.4.4.4.4.4.4.4.<.4.",
"4.4.4.2.6.6.6.6.2.4.4.4.4.4.4.4.4.4.4.4.4.4.4.4.4.2.6.6.3.<.:.#.;.;.<.<.<.4.4.4.4.4.4.<.4.4.4.4.7.7.4.4.<.4.4.4.4.4.4.<.4.4.4.4.",
"4.4.4.4.5.5.6.2.4.,.>.4.<.4.4.4.4.4.4.4.4.4.4.4.<.<.+.i.n.|.+XXX.X{.E.g.k j :.:.<.4.4.4.4.<.4.4.4.5.6.4.4.<.>.<.,.4.4.4.4.4.4.4.",
"4.4.1.4.4.4.4.2.4.,.4.>.<.2.<.4.4.,.$.1.2.4.,.O.t.H ;X4X3X1X<X>X>X$X$X.X).$X.Xb.j >.4.4.4.4.4.4.<.4.4.<.4.,.4.,.4.4.4.4.<.,.,.<.",
"4.4.4.4.4.4.4.4.4.4.4.4.4.<.2.4.1.1.4.=.2.#./.<X#XR.$X,X-X$XOX'.OXW.W.m.1X1X<X>X$Xn.h <.4.4.4.4.4.4.4.4.4.4.4.4.4.4.4.4.4.,.4.>.",
"4.4.4.4.4.4.4.4.4.4.4.4.4.S.3.4.4.4.2.1.l.,X2X3X~.M. X$X{.W.W.W.K.J.s.$X3X3X<X#X#X~.R.8.<.4.1.4.4.4.4.4.4.4.4.<.<.S.<.4.4.4.4.4.",
"4.4.4.4.1.4.4.4.4.4.4.4.D.A.6.5.3.4.3.z.1X:X%XoXV.F &X+XW.Y.L.J.R T s.<X%X:X%X#X~.R.B.N.k ,.1.4.4.4.4.4.4.4.4.4.F.A.D.A.<.4.4.4.",
"4.4.4.4.4.4.4.4.4.4.1.4.2.5.2.2.2.4.u.%X%XoXQ.B.{ J 4X=XW.K.d.R T I Z.%X^.oX#X~.!.T. .` ) h 4.5.4.4.4.4.4.4.4.4.4.4.<.<.4.4.<.4.",
"4.2.4.4.<.4.4.4.4.4.2.2.2.2.2.2.2.;.E.oX^.Q.B.| ( Z.4X>XY.h.T I P K E.~.Q.!.!.Q.T.N.` ~ ~ J %.4.4.4.4.4.4.4.4.4.4.<.<.5.<.5.4.4.",
"2.4.<.4.4.4.4.4.2.2.2.2.5.2.4.5.2.y.!.!.T.N.| _ D >X2X+XK.T P P P Z Z.!.B.B.T.B. .] ^ W W ) s 4.4.4.4.4.4.4.4.4.4.5.5.<.5.<.5.<.",
"4.=.o.1.,.2.2.4.4.4.<.6.5.6.5.4.;.C.R.V.N.{ _ ~ f.-X+XW.d.I L L K B Z.V.| | | { ] ( ! A t W J +.4.4.4.4.4.4.4.4.4.A.A.4.4.<.5.5.",
"4.1.4.,.2.4.4.2.3.4.4.4.3.4.5.4.t.T.B.} ] _ ~ a L.W.K.T I L L Z C C f.N.' ' ' ( / ! A u e t ) 6 4.4.4.4.4.4.4.4.4.4.4.4.4.4.4.5.",
"4.4.4.2.4.5.7.5.5.3.4.4.4.4.<.2.j.B. .] _ ~ E Y K.d.e.P L Z N H M m G | ' / / / Q Q u y q r ~ p <.5.S.4.5.4.4.4.4.4.4.4.4.4.4.4.",
"4.4.2.2.4.6.4.5.<.3.<.4.4.4.4.<.[ N.] ( ~ E p H.d.j.:XH K M  X(.n m c { ' / ! ! Q A u y w q D J :.A.4.7.4.4.4.4.4.4.4.4.4.4.4.4.",
"4.4.2.2.2.3.4.2.3.4.2.2.4.4.4.*.[ [ ( ~ E 9 h.h.R |.4X.XM c.,X@XB b b S ' / ! Q Q Q u w w q a ) j 5.<.5.4.4.4.4.4.4.4.4.4.4.4.4.",
"4.4.4.2.2.2.4.4.3.4.4.4.4.4.4.*.[ _ ~ W i s.h.R H 4Xx.3Xx.:Xa.).c.c b l _ ( ! Q Q u y 8 q q u ) j 4.<.5.4.4.4.4.4.<.4.4.4.4.4.4.",
"4.4.4.2.2.4.=.4.4.5.4.2.4.4.4.*.F E t S h.d.R U n.,Xv (.3X|.z w.`.B x x 2 / / Q u u q q q q t a 5 <.>.<.4.4.4.<.4.4.4.4.4.4.4.4.",
"4.4.2.2.2.>.&.1.>.4.2.2.4.4.4.%.g.j.k.J.d.R P M =X).V N ;XH b z v.c.l z b 1 W Q u w q q q q 0 a 3 >.>.>.>.4.4.4.4.4.4.4.4.4.4.4.",
"4.1.2.2.1.1.4.1.2.4.4.4.4.4.<.*.E.OXL.d.T L K H ,Xp.M v w.b x x N p.l z z x + 9 0 0 7 7 7 7 9 p 3 1.4.1.4.4.4.4.4.4.4.4.4.4.4.1.",
"4.2.2.2.6.6.6.6.2.5.4.4.4.4.4.*.g.W.H.T L L K C B V m m c b x x z z z z z x x x c + @ @ 1 N k.E.d 6.4.4.1.4.4.4.4.4.4.4.4.4.4.4.",
"4.2.2.4.6.5.6.2.2.=.>.4.,.4.4.4.g.x.U L L L L L C m < = - = * l z z z z x x x x m V C L T K.E.4 ..2.6.2.2.-.-.1.1.2.4.4.2.1.2.4.",
"4.4.2.2.2.2.4.4.1.2.4.<.<.<.4.4.r.x.0.v K L L K K , > : & & % # , z z z x x x b m V K I T H O > ;.2.2.2.2.1.2.2.1.2.4.4.1.1.-.1.",
"4.4.4.4.2.2.2.1.2.2.1.4.4.4.4.4.z.*X9.5 4 v M L v ; s _.&X|.8.# X l x x x x x m M C Z v *   9.v.<.2.2.2.2.2.2.2.2.2.4.4.4.,.1.=.",
"4.4.4.4.2.2.2.2.2.2.2.4.4.S.3.4.%.;X1Xx.: 4 > > = ; @Xm.m.n. X9.X O x x x x x b c , o   & /.1Xq.2.2.<.2.2.2.2.3.5.S.5.4.4.4.2.2.",
"4.4.4.4.4.4.4.4.2.4.4.5.S.6.S.5.<.m.4X4XXX9.> : & 6 _.&X(.E.9.'.* . O O O X X X     6 m.,X1X_.:.2.4.4.4.4.4.2.3.D.A.D.4.4.4.2.4.",
"4.4.4.4.4.4.4.4.4.4.2.1.4.<.4.<.<.;.1X4X4X1XXXx.$ 6 /.|.U.I.N `.4 . X       # N n..X@X*X;X,Xl.:.4.4.4.4.4.4.2.<.<.2.2.4.4.4.4.1.",
"4.4.4.4.4.4.4.4.4.4.4.4.4.4.4.4.4.<.v.4X4X1X|._.9.# )./.).c.X.U.$ o m./.(.(. X[.`.[.+X&X,X).:.2.4.<.4.4.<.4.4.4.2.2.<.4.4.3.4.4.",
"<.4.,.4.4.4.4.4.<.4.4.<.4.4.4.4.4.4.*._.4X1X+XU./.- 4 m.m.v.m.4 . i.+XU.U.P.P.U.]. X&X;X$XX.-.4.4.4.4.4.4.4.4.<.4.4.4.4.4.4.<.4.",
"5.-.&.1.1.2.4.4.3.4.<.6.5.5.6.4.4.5.5.@.XX1X&X[.U./.g # & ; . . t.+XP.P.U.U.U.].}.&X&X=Xr.%.1.-.4.4.4.5.4.4.<.6.4.5.6.<.4.4.6.5.",
"1.1.1.1.4.2.4.2.<.4.3.2.5.5.5.4.4.4.<.5.O..X=X@X[.`.[.m.l.a.l._.].P.U.U.U.U.[. X@X&X&Xr.-.1.2.1.4.5.5.4.4.4.4.4.4.5.4.3.3.4.4.5.",
"1.2.4.1.2.2.7.5.5.4.4.2.2.2.4.3.4.3.2.2.4.O.(.;X&X+X[.`.`.[.`.U.U.`.`.`.[. X+X&X&X Xq.*.2.4.2.2.4.5.7.4.5.4.4.4.4.<.3.4.4.4.3.4.",
"5.2.4.2.2.6.5.5.3.4.4.3.2.2.5.4.4.<.2.2.4.4.*.l.=X=X@X X X}.}.[.[.}.}. X X&X@X*Xm.h 3.4.2.2.2.2.4.7.5.6.4.4.4.4.4.2.4.4.3.4.2.2.",
"1.4.2.4.4.4.1.2.<.4.2.4.5.4.4.4.4.<.4.2.4.4.2.2.O.n.@X&X&X&X@X&X&X&X&X&X&X+Xm.q.$.<.4.4.2.2.4.4.2.4.2.2.4.4.4.4.4.3.4.<.2.4.5.2.",
"4.4.2.4.4.2.4.1.4.2.2.4.4.4.4.4.4.3.4.4.4.4.2.2.4.4.O.u.v.`.}.+X@X.X].m.z...*.4.4.4.4.4.4.4.4.4.2.2.1.2.4.4.4.4.4.<.4.4.4.4.4.4.",
"4.4.2.4.2.4.1.4.1.4.2.4.4.4.4.4.4.4.4.4.4.4.4.4.4.2.4.4.-.%.....f f O.*.4.4.4.4.4.4.4.4.4.4.4.1.4.1.1.1.1.2.4.4.2.4.4.4.4.4.4.4.",
"4.4.2.4.1.,.=.,.,.4.2.4.4.4.4.1.4.4.4.4.4.4.4.4.4.2.1.=.=.>.1.1.1.4.4.4.4.1.4.4.4.4.4.4.4.4.4.4.4.>.&.1.1.2.4.4.4.4.4.4.4.4.1.4.",
"4.1.2.2.2.2.2.1.4.4.4.4.4.1.4.4.2.2.2.2.4.4.4.4.2.1.4.2.1.1.1.2.4.4.1.4.4.4.4.2.4.4.4.4.4.4.4.4.1.2.1.1.2.2.2.2.4.4.4.4.4.4.4.2.",
"4.2.2.5.6.6.6.6.2.4.4.4.4.4.4.4.2.2.4.4.4.1.4.4.4.6.6.6.6.6.2.1.4.4.4.4.4.4.4.2.4.4.4.4.4.<.4.4.6.6.6.6.2.2.1.2.5.1.4.4.4.4.2.2.",
"4.4.2.2.5.5.6.2.4.-.>.4.,.4.4.4.4.4.4.4.4.4.4.4.2.2.5.2.6.1.5.1.=.1.-.4.4.4.4.4.2.4.2.2.<.4.4.4.6.2.6.2.1.1.>.1.,.4.4.4.4.4.5.4.",
"4.4.2.2.2.2.2.2.2.,.<.,.<.4.4.4.4.,.&.1.1.4.<.4.4.2.2.2.2.2.1.,.4.,.4.4.4.4.4.,.$.1.4.4.4.4.4.4.2.2.2.2.2.,.1.1.4.4.4.4.1.,.>.,.",
"4.4.2.2.2.2.2.2.2.4.4.4.4.4.4.4.1.,.<.>.4.4.4.4.4.2.2.2.2.2.2.2.2.2.4.4.4.1.4.>.1.=.4.4.4.4.4.4.2.2.2.2.2.2.2.2.4.4.4.<.<.,.4.>.",
"4.4.4.4.1.2.4.4.4.4.4.2.3.D.4.5.4.4.4.4.4.4.4.4.4.4.4.4.2.2.2.2.2.5.3.D.6.5.4.4.4.4.4.4.4.4.4.4.2.2.1.2.1.2.2.6.5.F.3.5.4.<.4.4.",
"4.4.4.4.4.4.4.4.4.4.4.2.F.A.A.3.4.4.4.<.4.4.4.4.4.4.4.4.4.4.4.4.2.3.F.A.A.3.3.4.4.4.4.4.4.4.4.4.4.4.4.4.4.4.<.5.G.6.G.5.<.4.4.4.",
"4.4.4.4.4.4.4.4.4.4.4.4.2.<.3.2.4.4.4.4.4.4.4.4.4.4.4.4.4.3.<.3.2.2.3.<.3.<.4.4.4.4.4.4.<.4.4.4.4.4.4.4.4.<.5.5.<.<.4.4.<.4.4.4.",
"4.4.1.4.<.4.5.4.4.4.4.4.4.4.<.2.4.4.4.4.4.4.4.4.4.4.4.4.4.<.3.<.2.4.4.4.4.4.4.4.4.4.4.4.4.4.4.4.4.4.4.<.4.4.<.<.3.<.4.4.4.4.<.4.",
"1.4.1.4.2.4.2.2.4.4.4.2.2.5.2.2.2.2.2.2.5.4.5.1.1.4.4.4.4.3.2.2.<.3.3.5.4.4.4.4.2.4.5.2.4.5.,.4.5.4.5.4.<.4.5.<.3.5.5.<.4.4.4.4.",
"4.=.=.1.1.2.2.2.2.2.2.6.5.5.6.2.2.2.2.6.7.6.2.>.,.>.4.4.2.2.2.2.2.5.5.5.6.2.2.2.2.6.6.6.2.=.,.-.<.4.4.5.5.<.4.6.5.5.6.<.4.4.5.6.",
"4.1.4.=.2.4.2.2.2.2.2.2.5.5.5.2.2.2.2.6.1.6.1.1.4.,.4.2.2.4.2.2.2.5.5.3.5.5.2.2.4.6.4.5.2.1.2.,.5.4.4.4.<.5.5.<.4.5.3.3.5.4.4.6.",
"4.4.4.1.4.5.S.4.5.2.2.2.2.2.5.2.2.2.2.2.2.2.1.4.4.4.1.6.7.5.5.3.4.2.2.2.2.2.2.2.2.4.5.4.2.2.4.4.2.5.S.5.5.<.<.5.<.5.4.4.2.4.3.5.",
"4.4.4.4.4.5.4.5.4.4.4.2.2.1.2.2.4.4.2.2.2.2.4.4.4.2.4.6.5.6.4.4.4.4.4.4.4.4.4.4.4.2.2.1.4.2.4.4.2.6.4.7.4.4.4.4.<.<.4.4.<.4.4.4."
};
