/* XPM */
static char *_7b2ce4e014c4318bb149de2dab971e5RjXEMfe0rTpxQb1j[] = {
/* columns rows colors chars-per-pixel */
"64 64 240 2 ",
"   c #080808",
".  c #120E0A",
"X  c #12110D",
"o  c #030C16",
"O  c #0A131A",
"+  c #151717",
"@  c #1C1A14",
"#  c #1B1C1C",
"$  c #221E18",
"%  c #24211B",
"&  c #2A241E",
"*  c #0A1927",
"=  c #151E27",
"-  c #081E35",
";  c #18232A",
":  c #0C2C34",
">  c #0A2439",
",  c #142639",
"<  c #252423",
"1  c #2B2927",
"2  c #332C25",
"3  c #332E29",
"4  c #353127",
"5  c #35322D",
"6  c #3B342C",
"7  c #262E36",
"8  c #373635",
"9  c #3B3632",
"0  c #3C3A34",
"q  c #413A2E",
"w  c #423C35",
"e  c #453E38",
"r  c #4A4437",
"t  c #45413C",
"y  c #4B433C",
"u  c #534A3C",
"i  c #5B503F",
"p  c #0C2543",
"a  c #0D2A49",
"s  c #132A48",
"d  c #0D314D",
"f  c #13374B",
"g  c #0E2E51",
"h  c #0E3759",
"j  c #133355",
"k  c #1A3557",
"l  c #13355B",
"z  c #133A5D",
"x  c #1B3B5C",
"c  c #353C4C",
"v  c #263B55",
"b  c #163C63",
"n  c #1A3B65",
"m  c #193C69",
"M  c #1B3F71",
"N  c #223F63",
"B  c #114457",
"V  c #20455D",
"C  c #38435B",
"Z  c #0D4567",
"A  c #144269",
"S  c #1B446B",
"D  c #1C4A6D",
"F  c #19586A",
"G  c #0E4E70",
"H  c #1B4473",
"J  c #1B4B74",
"K  c #184976",
"L  c #1C4D7C",
"P  c #19557B",
"I  c #254867",
"U  c #354B66",
"Y  c #234B78",
"T  c #25567A",
"R  c #156676",
"E  c #27617B",
"W  c #4E4741",
"Q  c #4F4A43",
"!  c #444548",
"~  c #524C44",
"^  c #544E46",
"/  c #5C5345",
"(  c #595447",
")  c #5C554A",
"_  c #4D4E58",
"`  c #535457",
"'  c #5C5D5E",
"]  c #625A4A",
"[  c #695E4C",
"{  c #635F5A",
"}  c #6B604D",
"|  c #6B6454",
" . c #746956",
".. c #766C59",
"X. c #485366",
"o. c #5D5E63",
"O. c #585B66",
"+. c #5E626A",
"@. c #636466",
"#. c #696767",
"$. c #64636A",
"%. c #6A6A6C",
"&. c #72706E",
"*. c #6D7275",
"=. c #7B7473",
"-. c #777879",
";. c #847D79",
":. c #8B877B",
">. c #1C4A82",
",. c #1E4B89",
"<. c #1C5787",
"1. c #1F4F92",
"2. c #1E5698",
"3. c #224B83",
"4. c #225484",
"5. c #225B84",
"6. c #2B5688",
"7. c #245C8D",
"8. c #245796",
"9. c #235D93",
"0. c #1B648B",
"q. c #1A778C",
"w. c #1A6797",
"e. c #1D739B",
"r. c #1C7498",
"t. c #256689",
"y. c #29768C",
"u. c #246494",
"i. c #276897",
"p. c #236B9B",
"a. c #336F91",
"s. c #257499",
"d. c #377A99",
"f. c #2159A7",
"g. c #235EB1",
"h. c #1B6BA7",
"j. c #1B77AB",
"k. c #1E6CB3",
"l. c #1B78B5",
"z. c #1A7CBB",
"x. c #266CA5",
"c. c #2868A7",
"v. c #2A6CA5",
"b. c #316BA7",
"n. c #2777A8",
"m. c #2972AD",
"M. c #3479A8",
"N. c #2167B3",
"B. c #2A75B3",
"V. c #2979B6",
"C. c #2A7CBB",
"Z. c #337AB5",
"A. c #576781",
"S. c #707B88",
"D. c #2B7DC3",
"F. c #178397",
"G. c #34899A",
"H. c #1C87A8",
"J. c #1C91AE",
"K. c #1D8EB0",
"L. c #1682BD",
"P. c #1981BC",
"I. c #1D97B7",
"U. c #2687A9",
"Y. c #2F91AA",
"T. c #2688B9",
"R. c #3987B8",
"E. c #2696B9",
"W. c #3595BC",
"Q. c #2BA2AE",
"!. c #3BAEAF",
"~. c #7C848B",
"^. c #4EA3A1",
"/. c #44C5B8",
"(. c #178CC0",
"). c #1998C3",
"_. c #2A83C3",
"`. c #278CC5",
"'. c #298CC5",
"]. c #368EC5",
"[. c #2897C7",
"{. c #249BC4",
"}. c #3696C5",
"|. c #1CA7C9",
" X c #1EB2CE",
".X c #15BED5",
"XX c #1ABAD3",
"oX c #27A5C9",
"OX c #21ACCD",
"+X c #36A6C8",
"@X c #2AB6C8",
"#X c #32B4CB",
"$X c #2EA8D1",
"%X c #36A9D1",
"&X c #2CB4D7",
"*X c #37BADA",
"=X c #33BDE0",
"-X c #4299C8",
";X c #469ED1",
":X c #44A9D7",
">X c #45B8D0",
",X c #18C0D4",
"<X c #36CECA",
"1X c #35C1DE",
"2X c #31C3E1",
"3X c #38C4E0",
"4X c #47C1CD",
"5X c #44DAC6",
"6X c #49E8C4",
"7X c #858686",
"8X c #8C8E8B",
"9X c #908F8D",
"0X c #99978C",
"qX c #979797",
"wX c #9D9994",
"eX c #A0998F",
"rX c #A29D95",
"tX c #99A19F",
"yX c #AAA797",
"uX c #ADAA95",
"iX c #B5B499",
"pX c #9C9FA1",
"aX c #9EA1A3",
"sX c #A1A2A2",
"dX c #A2A2A2",
"fX c gray64",
"gX c #AAAAA5",
"hX c #A7A9AA",
"jX c #B7B6A4",
"kX c #CAC59F",
"lX c #C9C4A2",
"zX c #D6D1AB",
"xX c #DBD5B2",
"cX c #DED9B3",
"vX c #E4DFB2",
"bX c #EAE4B4",
"nX c #EFE9B6",
"mX c #F2EBB6",
"MX c #F1EBB9",
"NX c #F9F0B5",
/* pixels */
"dXdXdXdXdXdXdXdXdXdXdXdXdXdXdXdXdXdXdXdXdXdXdXdXdXdXdXdXdXdXdXdXdXdXdXdXdXdXdXdXdXdXdXdXdXdXdXdXdXaXdXfXdXdXdXdXdXdXdXdXdXdXdXdX",
"dXdXdXdXdXdXdXdXdXdXdXdXdXdXdXdXdXdXdXdXdXdXdXdXdXdXdXdXdXdXdXdXdXdXdXdXdXdXdXdXdXdXdXdXdXfXdXdXdXdXdXdXdXdXdXdXdXdXdXdXdXdXdXdX",
"dXdXdXdXdXdXdXdXdXdXdXdXdXdXdXdXdXdXdXdXdXdXdXdXdXdXdXdXdXdXdXdXdXdXdXdXdXdXdXdXdXdXdXdXdXdXdXdXdXdXdXdXdXdXdXdXdXdXdXdXdXdXdXdX",
"dXdXdXdXdXdXdXdXdXdXdXdXdXdXdXdXdXdXdXdXdXdXdXdXdXdXdXdXdXdXdXdXdXdXdXdXdXdXdXdXdXdXdXdXdXdXdXdXdXdXdXdXdXdXdXdXdXdXdXdXdXdXdXdX",
"dXdXdXdXdXdXdXdXdXdXdXdXdXdXdXdXdXdXdXdXdXdXdXdXdXdXdXdXdXdXdXdXdXdXdXdXdXdXdXdXdXdXdXdXdXdXdXdXdXdXdXdXdXdXdXdXdXdXdXdXdXdXdXdX",
"dXdXdXdXdXdXdXdXdXdXdXdXdXdXdXdXdXdXdXdXdXdXdXdXdXdXdXdXdXdXdXdXdXdXdXdXdXdXdXdXdXdXdXdXdXdXdXdXdXdXdXdXdXdXdXdXdXdXdXdXdXdXdXdX",
"dXdXdXdXdXdXdXdXdXdXdXdXdXdXdXdXdXdXdXdXdXdXdXdXdXdXdXdXdXdXdXdXdXdXdXdXdXdXdXdXdXdXdXdXdXdXdXdXdXdXdXdXdXdXdXdXdXdXdXdXdXdXdXdX",
"dXdXdXdXdXdXdXdXdXdXdXdXdXdXdXdXdXdXdXdXdXdXdXdXdXdXdXdXdXdXdXdXdXdXdXdXdXdXdXdXdXdXdXdXdXdXdXdXdXdXdXdXdXdXdXdXdXdXdXdXdXdXdXdX",
"dXdXdXdXdXdXfXfXdXdXfXdXdXfXdXdXyXaXdXaXfXfXfXfXdXdXdXdXfXaXaXyXdXfXdXdXdXdXdXdXdXrXdXdXdXfXdXdXaXdXdXdXdXdXfXpXdXdXdXdXdXdXdXdX",
"dXdXdXdXdXfXfXfXdXdXfXdXdXfXfXhXhXhXfXpXpXpXpXpXfXhXhXhXhXhXhXaXqXdXpXpXdXdXhXhXhXhXhXhXdXqXpXpXpXpXfXhXdXfXfXfXdXdXdXdXdXdXdXdX",
"dXdXfXdXdX7X    1 1 % % . # $ @ @ .   @ + @ @     @ # % $ @ . $ % % $ @ X $ $ $ $ @ X $ $ $ @ $   . $ @   7 fXfXdXdXdXdXdXdXdXdX",
"dXdXfXfXfX. u 6 } ....| & 1 0 |  .] 2 } .... .r 2 ^ | ....[ 2 } ......] q  ..... ./ e  ....... .6 / .. .| 5 < fXdXdXdXdXdXdXdXdX",
"dXdXdXdX7X5 ] 6 y t t 0 * y.B 3 0 5 # 9 8 0 0 1 I T < t y e 2 } / ^ / e q [ ^ ^ ^ w e [ ^ ^ ^ ~ 3 i ] ^ ^ W O fXdXdXdXdXdXdXdXdX",
"dXdXdXdX9X6 y * D T 4.4.D 3XY.S t.p.p.s.s.s.i.I R.-Xz R T N ; 9 W ~ w & u ] ~ ~ e 2 ~ ] ~ W W q & ] ^ W W 6 X dXdXdXdXdXdXdXdXdX",
"fXfXdX! O O * U.&X&X*X&Xi.3XW.n.2X2X1X2X1X2X3XV.R.W.u.*X*XD.Y * e y 2 u / ^ ~ W q u / ~ ~ ~ e 2 / ) ^ y e 2 + dXdXdXdXdXdXdXdXdX",
"fXfXX A w.<.l W.*X&X&X$Xp.:XR.i.}.%X$X$X%X$X}.6.E d.I i.a.6.T , 8 e 2 / y y W W 6 / ^ ~ ~ ~ e e ] W y 6 1 + O dXdXdXdXdXdXdXdXdX",
"dXdXo k.(.z.b 8.B.Z.Z.m.4.-XR.6.b.b.c.b.9.6.3.N n S n m b b b p = 1 # 5 9 0 t y 4 ] ^ Q Q ~ w w ^ y w - q.q.F t tXtXfXdXdXdXdXdX",
"dXdX* l.z.z.K <.m.m.m.m.S M.d.Y m.B.n.u.I n L 9.c.m.U.U.n.n.n.U.B.s.u.<.K j * < $ w Q y y y w & y W 3 R |.|.|.R tXdXaXaXdXdXdXdX",
"dXdX* k.z.l.2.b l h h l p B I p l z l d P x.m.c.9.9.i.a.i.0.i.j.E.E.oX{.'.T.m.L , # e y y r y 4 & 0 # F.).L.XXF.8XfXfXyXdXdXdXdX",
"dXdX* 2.k.f.f.1.>.H M M n l j M 9.K p 2.m.7.i.R.%X>X*X1X3X1X*X+X}.n.p.r.E.OXOX`.m.z * 5 3 3 7 1 # O Z I.L.L. XR fXfXfXaXdXdXdXdX",
"dXaX* <.2.1.1.,.>.H K Y H H 7.v.L a i.v.i.}.1X#XY.r.r.e.r.r.H.U.+X*X1X:XM.j.oX X{.C.L * - Z P P 0.e.(.(.L.L. XF dXdXdXdXdXdXdXdX",
"dXfX` B h.k.j.h.h.x.c.b c c - g b v.c.v.:X}.e.U.E.{.[.[.[.}.oXE.J.r.s.+X*X;Xt.K. XOX_.>.- w.z.L.L.z.(.L.L.L. X: dXdXdXdXdXdXdXdX",
"dXdXfXfX` , d Z L A a v %.*.z U.V.9.M.:Xs.j.{.'.B.<.K c.D.D.D._.[.oX|.H.0.!.>Xs.0.5X@X`.K p K 1.f.z.z.L.L.(.I.7 dXdXdXdXdXdXdXdX",
"dXdXfXfXfXaX  K u.w.v yX9X%.A n.i.R.-Xt.J.{._.m.5.m O.N m.C.D.D.D._.'.OX/.G.Y.4XM.G./.@XT.M l H f.k.z.L.L.).H.o.dXdXdXdXdXdXdXdX",
"dXdXdXdXfXfX* 6.T U &.NXvX-.S i.R.b.0.E.'.V.u.S b V ;.X.J L <.7.p.B.D._.@X5XG.G.>XM.y.@X XB.g n ,.g.g.N.k.L.z dXdXdXdXdXdXdXdXdX",
"dXdXdXdXfXfXk Z.6.N uXNXmX&.L <.3.9.T._.C.t.b K r.U 8X$.P.T.U.j.w.L 7.m.T.@XQ.0.!.>XM.p.OX[.i.> n >.1.f.k.0.! aXdXdXdXyXdXdXdXdX",
"dXdXdXdXdXpXF {.M.k =.lXjXI T.m.Y O.A.8.n.P m H.t.U uX7Xm.D.T._.OX<XE S D D P D M d.a.M T t.5.j - n H >.j.d 7X' 8 5 8 c t %.dXdX",
"dXdXdXdXdX7XE ).T.k O.7X*.P T.T O.S.qXtXT K <.C.i.U lXwXC.[.{.[.'.<X/.S p a a a s x U s k x z k s p s d h o <   8 =.:.8XyX;.-.dX",
"dXdXdXdXdX*.t.{.T.k ! $.c V.s.U O.O.~.zX~.P n._.m.U kX0XT..X.X.X,X<X6XF C o.#.#.&.;.;.;.&.;.&.;.;.;.&.&.&.#.| { y 0XgXgXgXvXr aX",
"dXdXdXdXdX%.p.{.'.N - k Z T.t.U O.-.aXzXdXK U.D.m.U lXuXE.,X.X.X<X6X6X+.9XrXyXyXyXyXrXyXyXyXyXyXrXuXyXuXyXyXyXrX..iXMXnXbXmX^ yX",
"dXdXdXdXdX#.r.|.[.Y s n n.`.i.I $._ S.cX~.D U.D.m.I lXuXoX.X.X.X2X6X6X^.xXbXMXmXmXnXnXmXbXmXnXnXnXmXbXmXnXnXnXbX:.kXNXNXNXNX| aX",
"dXdXdXdXdX#.q.oX[.T s b 0.`.B.T U *.aX~.P Z j.D.k.U kXuXoX.X.X.X.X6X6X^.gXzXxXxXxXxXcXcXcXxXcXcXcXcXcXcXcXcXcXzX;.uXbXMXnXmX| dX",
"dXaXfXaXfX%.t.).].m , C z T.D.B.i.9.7.c.t.S p.D.m.U lXiX'..X.X.X.X&X6Xy.7X0XwXrXrXwXyXrXrXrXwXwXwXwXwXwX0XrXwX9X) 0XrXhXgXbXr uX",
"dXaXyXfXfX-.P {.T.x _ &.X.j.'.D.D.D.D.D.u.S 0._.x.I lXiXV. XXXOX{.}.6XE C o.$.$.%.%.O.$.$.O.O.O._ _ ! ! C 0 t 3 6 ;.0XeXjXzX5 dX",
"aXdXfXfXfX9XB {.R.x ' wX8XD [._._.D.D.D.i.D G U.t.S lXjXx.'.[.T.V.}.!.S a p p p s I T x b S S x - p b m P O dX-.X ^ o.o.&.u 7XdX",
"fXfXaXfXfXhX: T.v.x 8XbXbXX.r.U.[.`._._.B.<.l e.s.S 0X7Xu.T.T.T.T.H.F 9.n.U.s.4.T Y.d.B n.n.i.s g M M >.j.Z -.aXdXqX8X9XwXdXdXdX",
"fXdXdXdXdXdXo 6.6.I :.NXMX-.7.b.7.p.E.[._.x.A z 0.S ;.*.<.j.e.<.L ,.c.D.[.<X#XP !.-X6.Q.OX_.,.a M >.1.f.g.h.> aXdXdXdXdXfXfXaXyX",
"fXdXdXdXaXaX+ j p.w.` bXlX*.l 4.R.R.t.j.oX`.m.<.D z %.O.H 9.c.m.B.D.D.`.@X/.t./.>Xu.^.<X{.c.a H >.f.g.N.k.L.P -.dXdXdXdXfXfXaXaX",
"dXdXdX7X;   o > h h , *.-.%.m T.c.i.-XM.r.oX'.C.x.4.k n V.D.D.D.D._.[. XY.t././.7.U.5X@Xm.a b H f.N.z.z.L.(.K.8 dXdXdXdXdXdXfXdX",
"dXdX' o h 0.h.j.l.w.K , +.%.j t.i.c.7.:XW.0.E.{.'.T.m.B.D.D.'.[.oXOXJ.r.Y.>X+X<.K. XoXB.h l w.0.g.k.z.z.L.L.).; dXdXdXdXdXdXdXdX",
"dXdX  G h.2.2.<.<.2.2.P k a z S a 4.m.7.}.%XY.e.H.U.I.E.T.I.J.H.r.U.+X*X:XM.r.|.|.[.B.l > p.l.P.z.L.L.L.L.L.).B dXdXdXdXdXdXdXdX",
"dXdXo >.1.8.2.1.>.H S H Y S H 4.9.j <.m.9.M.%X*X#XW.Y.E.Y.E.oX#X*X>X%XM.u.E. XoX_.x.a * * , > a h G J.I.L.L.|.R hXdXdXdXdXdXdXdX",
"dXdXo 2.l.N.f.,.H b n n x p p k H A > S x.x.u.i.M.W.+X%X%X+XY.U.M.p.j.E.'.'._.V.4.> 1 0 w w 9 6 % ; : J.L.L.|.q.8XaXdXdXdXdXdXdX",
"dXdXo l.z.z.>.h L P K P g t.T d <.<.P Z b u.v.B.m.c.s.s.p.p.U.T.{.[.E.V.B.c.4.s O < y y e y w 2 2 t ; q.I.L.I.F.qXaXdXdXdXdXdXdX",
"dXdXo l.z.z.h 8.m.v.b.v.H R.d.K c.m.B.n.7.S m H 5.i.i.u.u.u.9.6.4.P n f , = 1 8 2 t Q y W W w 3 y y 5 Z |.|.J.B dXdXdXdXdXdXdXdX",
"dXyXO h.L.j.g b.].}.}.].4.:XR.4.Z.R.Z.Z.R.M.s.Y I T l Y Y n x - < 8 $ w e y y y 6 t y ~ Q ^ w w ~ u t O f f : qXdXdXdXdXdXdXdXdX",
"dXdX#.- Z l p oX2X2X3X=Xs.:XR.n.*X2X1X2X1X2X1XW.a.d.7.}.}.b.T , e e 2 ] ^ W ^ y 6 u ^ ^ ^ ~ w q ) Q u t 9 < X dXdXdXdXdXdXdXdXdX",
"dXdXfXfXS.# = F R.[.].E.7.3XW.p.$X$X$X$X$X$XoXv.R.}.5.}.+Xb.n # W W 3 w ] ^ Q ^ 9 q ] ^ Q ~ ! & r ) Q Q W 1 . dXdXdXdXdXdXdXdXdX",
"dXdXdXdX7X5 y # , , s s d *Xd., x B b x B x z f b.Z., , > = @ Q Q Q y 4 9 [ ^ ~ ~ 4 r ] Q ^ W y & i ( W ^ e   dXdXdXdXdXdXdXdXdX",
"dXdXdXdXqX% ) 6 ^ ^ ( Q # f : t Q t 2 u Q Q ^ 6 ; 7 0 ( ( W 2 [ ) ) ) ~ 6 [ ) ) ) r r [ ) ) ) / 6 / ] ) ) Q   dXdXdXdXdXdXdXdXdX",
"dXdXdXdXfX` 3 & ] [ ] / $ 4 6 ) ] r % / ] ) ] 3 & ~ ) ] ] u % / ] ] ) r % ] ) ] ] w 4 ) ] ) ] ) & r ] ) u @ aXdXdXdXdXdXdXdXdXdX",
"dXdXdXdXfXfX9X%.#.@.@.@.%.%.#.@.@.#.o.' o.' ' ' o.@.@.#.@.@.#.o.' o.' ' ' { @.@.@.@.@.@.o.' ' ' ' ' ' #.-.dXdXdXdXdXdXdXdXdXdXdX",
"dXdXdXdXdXdXdXdXdXdXdXdXaXaXaXdXdXdXdXdXdXdXdXdXdXdXdXdXdXdXdXdXfXdXdXdXdXdXdXdXyXfXfXfXdXdXdXdXdXdXdXdXdXdXdXdXdXdXdXdXdXdXdXdX",
"dXdXdXdXdXdXpXdXdXdXdXdXaXyXdXaXdXdXdXdXdXdXdXdXaXyXdXdXdXdXdXdXdXdXdXdXdXdXdXdXpXaXfXpXdXdXdXdXdXaXdXdXdXdXdXdXdXdXdXdXdXdXdXdX",
"dXdXdXdXdXdXdXdXdXdXdXdXdXfXaXdXdXdXdXdXdXdXdXdXdXdXaXdXdXdXdXdXdXdXdXdXdXdXdXdXdXdXdXdXdXdXdXdXyXfXdXdXdXdXdXdXdXdXdXdXdXdXdXdX",
"dXdXdXdXfXdXdXdXdXdXdXdXdXdXdXdXdXdXdXdXdXdXdXdXaXdXdXdXdXdXdXdXdXdXdXdXdXdXdXdXdXdXdXdXdXdXdXdXaXaXdXdXdXdXdXdXdXdXdXdXdXdXdXdX",
"dXdXdXdXdXdXdXdXdXdXdXdXdXdXdXdXdXdXdXdXdXdXdXdXdXdXdXdXdXdXdXdXdXdXdXdXdXdXdXdXdXdXdXdXdXdXdXdXdXdXdXdXdXdXdXdXdXdXdXdXdXdXdXdX",
"dXdXdXdXdXdXdXdXdXdXdXdXdXdXdXdXdXdXdXdXdXdXdXdXdXdXdXdXdXdXdXdXdXdXdXdXdXdXdXdXdXdXdXdXdXdXdXdXdXdXdXdXdXdXdXdXdXdXdXdXdXdXdXdX",
"dXdXdXdXdXdXdXdXdXdXdXdXdXdXdXdXdXdXdXdXdXdXdXdXdXdXdXdXdXdXdXdXdXdXdXdXdXdXdXdXdXdXdXdXdXdXdXdXdXdXdXdXdXdXdXdXdXdXdXdXdXdXdXdX",
"dXdXdXdXdXdXdXdXdXdXdXdXdXdXdXdXdXdXdXdXdXdXdXdXdXdXdXdXdXdXdXdXdXdXdXdXdXdXdXdXdXdXdXdXdXdXdXdXdXdXdXdXdXdXdXdXdXdXdXdXdXdXdXdX",
"dXdXdXdXdXdXdXdXdXdXdXdXdXdXdXdXdXdXdXdXdXdXdXdXdXdXdXdXdXdXdXdXdXdXdXdXdXdXdXdXdXdXdXdXdXdXdXdXdXdXdXdXdXdXdXdXdXdXdXdXdXdXdXdX",
"dXdXdXdXdXdXdXdXdXdXdXdXdXdXdXdXdXdXdXdXdXdXdXdXdXdXdXdXdXdXdXdXdXdXdXdXdXdXdXdXdXdXdXdXdXdXdXdXdXdXdXdXdXdXdXdXdXdXdXdXdXdXdXdX",
"dXdXdXdXdXdXdXdXdXdXdXdXdXdXdXdXdXdXdXdXdXdXdXdXdXdXdXdXdXdXdXdXdXdXdXdXdXdXdXdXdXdXdXdXdXdXdXdXdXdXdXdXdXdXdXdXdXdXdXdXdXdXdXdX",
"dXdXdXdXdXdXdXdXdXdXdXdXdXdXdXdXdXdXdXdXdXdXdXdXdXdXdXdXdXdXdXdXdXdXdXdXdXdXdXdXdXdXdXdXdXdXdXdXdXdXdXdXdXdXdXdXdXdXdXdXdXdXdXdX"
};
