/* XPM */
static char *result[] = {
/* columns rows colors chars-per-pixel */
"64 64 171 2 ",
"   c #38393A",
".  c #753634",
"X  c #4B4B4D",
"o  c #584D4F",
"O  c #4B5A53",
"+  c #535253",
"@  c #5A5355",
"#  c #575759",
"$  c #5C5759",
"%  c #58585A",
"&  c #6B4849",
"*  c #7A4A4A",
"=  c #625254",
"-  c #6B5657",
";  c #715353",
":  c #6F5F60",
">  c #636364",
",  c #676768",
"<  c #696869",
"1  c #6F6F71",
"2  c #737273",
"3  c #7A797A",
"4  c #9F3E3C",
"5  c #AA3F3C",
"6  c #CE3E37",
"7  c #D53D35",
"8  c #DB3E36",
"9  c #E53E35",
"0  c #EB3F35",
"q  c #A7413E",
"w  c #B7423E",
"e  c #C3423E",
"r  c #CB433B",
"t  c #CD4B3E",
"y  c #D4433A",
"u  c #D9443A",
"i  c #EF4036",
"p  c #E2463B",
"a  c #EF4239",
"s  c #E8443A",
"d  c #884B4B",
"f  c #964847",
"g  c #A94442",
"h  c #A85E4D",
"j  c #BB5344",
"k  c #A16452",
"l  c #BB6453",
"z  c #AB755F",
"x  c #B6725C",
"c  c #977B64",
"v  c #AC7A65",
"b  c #CC4E41",
"n  c #C75344",
"m  c #C15C4D",
"M  c #D45244",
"N  c #EF4B43",
"B  c #F05048",
"V  c #F05E58",
"C  c #F0615B",
"Z  c #F16C67",
"A  c #F27976",
"S  c #50856C",
"D  c #568A73",
"F  c #65856D",
"G  c #688F7C",
"H  c #768E73",
"J  c #73847A",
"K  c #60917A",
"L  c #69937D",
"P  c #6E9E7E",
"I  c #709D7E",
"U  c #7C9B7E",
"Y  c #95876F",
"T  c #8B8C73",
"R  c #998D72",
"E  c #899074",
"W  c #97977A",
"Q  c #A78069",
"!  c #F2807D",
"~  c #5D9F82",
"^  c #7D8B83",
"/  c #6D9D87",
"(  c #769284",
")  c #7C9487",
"_  c #749E89",
"`  c #5FBA92",
"'  c #63A284",
"]  c #68A589",
"[  c #77AA8C",
"{  c #68B08E",
"}  c #72B18E",
"|  c #7CA891",
" . c #63B692",
".. c #69B492",
"X. c #64BC96",
"o. c #6ABB96",
"O. c #67BD98",
"+. c #6ABE99",
"@. c #74B593",
"#. c #74B996",
"$. c #7BB894",
"%. c #73BE9B",
"&. c #7EBA9C",
"*. c #66C09A",
"=. c #6CC29C",
"-. c #72C39E",
";. c #6EC6A0",
":. c #74C7A2",
">. c #78C7A2",
",. c #73C8A1",
"<. c #79CAA6",
"1. c #7BCDA9",
"2. c #7FD1AC",
"3. c #858585",
"4. c #888786",
"5. c #858D89",
"6. c #8B8C8B",
"7. c #928F8F",
"8. c #8C918C",
"9. c #84998D",
"0. c #8B9B91",
"q. c #949493",
"w. c #999696",
"e. c #999997",
"r. c #9D9B9B",
"t. c #A19E9E",
"y. c #85A485",
"u. c #83AB8B",
"i. c #8BAF95",
"p. c #BAA095",
"a. c #9AB6A7",
"s. c #A3A1A2",
"d. c #AAA7A7",
"f. c #ACABAA",
"g. c #B0AFB0",
"h. c #B4B3B4",
"j. c #B8B8B7",
"k. c #BBBBBB",
"l. c #F28C89",
"z. c #E29D9A",
"x. c #F49B99",
"c. c #C1BFBF",
"v. c #E1A5A3",
"b. c #F5A7A6",
"n. c #F7BAB8",
"m. c #81CEAA",
"M. c #83D2AE",
"N. c #86D5B1",
"B. c #89D5B1",
"V. c #88D8B3",
"C. c #A8C0B3",
"Z. c #BFC8C3",
"A. c #C4C3C3",
"S. c #C2CBC6",
"D. c #CCCCCC",
"F. c #D3D3D3",
"G. c #D8D6D5",
"H. c #DDDDDD",
"J. c #F8C6C5",
"K. c #F9CECD",
"L. c #E0DFDF",
"P. c #FAD5D5",
"I. c #E3E2E3",
"U. c #E9E6E6",
"Y. c #EBEBEB",
"T. c #F5E5E5",
"R. c #FCE4E4",
"E. c #FDEFEE",
"W. c #F4F3F3",
"Q. c #FEF6F6",
"!. c #FEFEFE",
/* pixels */
",.,.,.,.,.,.,.,.,.,.,.,.:.:.,.,.-.=.=.*.-.,.,.,.,.,.-.,.,.,.-.,.>.,.-.-.-.,.,.=.=.=.,.,.,.,.,.,.,.,.,.,.,.,.,.-.,.,.,.,.,.*.-.*.",
"<.:.-.,.,.,.;.,.,.,.:.:.:.N.<.:.,.,.,.,.-.,.,.,.,.,.,.,.,.,.,.,.,.>.m.B.>.>.,.,.,.,.,.,.,.,.,.,.,.,.,.,.,.,.,.,.>.M.m.,.,.,.,.,.",
"M.:.,.,.,.,.,.,.,.,.,.:.M.M.m.1.-.,.,.,.,.,.,.,.,.,.,.,.,.,.,.,.,.>.B.M.M.>.,.,.,.,.,.,.,.,.,.,.,.,.,.,.,.,.,.,.N.M.B.>.-.,.,.,.",
",.,.,.,.,.,.,.,.,.,.,.,.>.:.:.:.:.>.:.:.,.,.,.,.,.,.,.,.,.,.,.,.>.,.>.,.,.,.,.,.,.>.-.,.,.,.,.,.,.,.,.,.,.,.,.,.>.,.>.,.,.,.,.,.",
",.,.;.,.:.,.:.,.,.,.:.:.,.:.:.:.:.:.:.:.,.:.,.,.,.,.,.,.,.,.,.,.,.,.-.<.,.,.,.-.,.,.,.<.,.,.;.,.,.,.,.,.,.,.,.,.,.,.,.,.,.,.>.>.",
":.:.;.,.:.:.:.,.,.,.,.<.:.<.<.:.:.:.:.:.1.:.:.,.,.,.,.,.,.;.,.,.,.-.<.-.>.,.>.>.,.-.<.-.,.,.;.,.,.,.,.,.,.,.,.,.,.>.>.,.,.,.,.,.",
"<.+. .;.;.:.:.,.;.,.:.<.:.<.<.:.:.:.<.,.2.1.,.=.*.-.,.,.,.,.,.,.,.<.-.2.m.-.,.,.,.<.M.<.,.=.*.,.=.,.,.,.,.,.,.,.,.>.>.,.,.,.>.<.",
";.;.,.O.:.:.:.;.,.,.:.:.<.<.<.:.:.:.:.1.:.<.,.=.,.*.,.,.;.,.,.,.,.<.<.<.2.,.,.>.-.2.,.<.,.-.=.*.,.,.,.,.,.,.,.,.<.>.m.-.,.,.,.m.",
",.,.,.,.,.<.1.<.<.,.,.,.,.,.,.,.,.,.,.,.,.,.,.,.<.:.:.<.M.,.>.,.,.,.,.,.,.-.,.,.,.,.,.,.,.,.,.,.,.,.M.,.,.,.,.,.,.,.,.,.,.,.,.,.",
",.,.>.-.,.1.<.<.:.,.,.>.,.,.,.,.,.,.,.,.,.,.,.,.,.:.:.1.<.2.>.,.,.,.,.,.,.,.,.,.,.,.,.,.,.,.,.,.,.m.,.m.,.,.,.,.,.,.,.,.,.,.,.,.",
",.,.:.>.,.:.:.:.:.:.:.,.,.,.,.,.,.,.,.,.,.,.-.,.,.:.:.:.,.,.,.>.-.<.,.,.,.,.,.,.,.,.,.,.,.,.,.,.,.<.,.,.,.,.,.,.,.,.,.,.,.-.,.,.",
",.,.:.-.:.:.:.:.:.:.:.-.,.,.,.-.,.,.,.,.,.,.,.,.:.:.:.<.:.,.-.,.,.-.,.,.,.,.,.,.,.,.,.,.,.,.,.,.,.,.,.,.,.,.,.,.,.,.,.,.,.,.,.,.",
",.,.:.:.:.;.;.:.,.<.,.,.,.-.,.,.,.,.,.,.,.,.,.,.:.:.:.,.=.,.,.,.,.<.,.,.-.,.,.,.,.,.-.,.,.,.,.,.,.,.-.,.,.,.,.,.,.-.,.,.,.,.,.-.",
",.,.,.,.;.;.X.;.=.,.,.,.,.,.,.,.,.,.,.;.,.,.,.,.,.:.:.X.X.*.=.,.,.-.-.-.,.,.,.,.,.,.,.,.,.,.,.,.,.*.*.*.=.,.,.,.,.,.,.,.,.,.,.,.",
",.;.,.:.;.;.,.;.,.:.,.,.,.,.,.,.,.,.,.,.,.,.,.:.;.:.:.;.,.,.,.,.,.,.,.-.,.,.,.,.,.,.,.,.,.,.,.,.,.-.,.=.,.,.,.,.,.,.,.,.,.,.,.,.",
",.:.:.:.1.1.1.1.:.,.<.,.,.-.,.,.,.,.,.;.,.,.,.,.,.:.1.2.>.-.#.} @.@.-.-.-.,.,.,.-.,.,.,.,.,.,.,.2.M.,.,.,.,.,.,.,.,.,.,.,.,.,.,.",
",.,.;.,.<.<.1.:.,.=.=.-.-.,.,.,.,.,.,.,.,.,.,.,.-.-.&.u.T k j t t t w h T W $.-.,.-.,.-.,.,.,.,.-.-.2.-.,.-.*.-.=.,.,.,.,.,.,.,.",
",.,.,.,.,.,.,.,.,.=.;.=.-.,.,.,.,.=. .;.,.,.,.;.} W x r 9 i i i i i i i p y l R P -.,.-.,.,.,.,.<.,.,.,.,.*.,.=.,.,.,.,.,.=.=.-.",
",.,.,.,.,.,.,.,.,.,.,.,.,.-.,.,.;.;.;.O.,.,.-.i.p.z.l.C i i i i i i i i i i i p l E =.-.,.,.,.-.,.,.,.,.,.,.,.,.,.,.,.,.-.=.,.*.",
",.,.,.,.,.,.,.,.,.,.,.;.,.M.,.,.,.,.:.:.,.%.a.G.T.Q.R.J.C i i i i i i i i i i i i t Q #.-.,.,.,.,.,.,.,.,.,.,.,.-.M.-.,.,.,.,.,.",
",.,.,.,.,.,.,.,.,.,.,.,.N.m.1.<.<.,.:.,.%.C.Y.!.!.!.!.Q.x.i i i i i i i i i i i i i p z } -.-.-.,.,.,.,.,.,.,.,.B.m.V.>.,.,.,.,.",
",.,.,.,.,.,.,.,.,.,.,.:.:.:.:.:.:.:.:.-.0.U.!.!.!.!.!.Q.b.i i i i i i i i i i i i i i p v #.<.,.,.,.,.,.,.,.,.,.,.,.,.>.,.,.>.-.",
",.:.,.,.,.,.,.,.,.,.:.:.:.<.<.:.:.:.-.U v.!.!.!.!.!.!.Q.l.0 i i i i i i i i i i i i i i u Y -.-.,.,.,.,.,.,.,.,.,.-.,.,.,.>.,.,.",
":.,.=.,.,.,.,.-.;.:.:.:.<.:.,.,.-.:.@.m K.!.!.!.!.!.!.K.B 0 i i i i i i i i i i i i i i a M y.-.,.,.,.,.,.,.,.,.,.>.>.,.>.-.,.>.",
",.+.` ;.=.,.,.,.,.,.,.1.<.2.<.,.>.-.c s n.!.!.!.!.Q.P.V i i i i i s y t e r u i i i i i i i z #.,.,.,.,.,.,.,.,.<.<.<.,.,.,.<.<.",
",.;.,.=.:.:.>.,.,.>.:.,.<.,.,.,.,.[ b i A P.E.E.R.n.Z i i i i 0 u q * - : - d e s i i i i i t U ,.,.,.,.,.,.,.,.<.,.,.,.,.,.,.<.",
",.,.,.,.,.:.2.<.<.,.-.,.-.,.,.,.,.R s i N A x.x.! N i 0 i i 0 u f @ 4.j.k.g.T ; w i i i i i s c >.<.M.,.,.,.,.,.,.,.,.,.,.,.,.,.",
",.,.:.:.,.1.<.<.-.,.>.,.,.,.,.,.-.x s i i a a i i i 0 0 9 9 9 g = 8.G.H.L.H.D.3.& 8 i i i i 0 n -.m.,.M.,.,.,.,.,.,.,.,.,.,.,.,.",
",.,.:.:.:.<.:.:.>.>.:.,.,.,.,.,.} m i i i i 0 0 7 6 q f f d d = + D.Y.W.W.W.U.h.> 4 s i i i i u W ,.,.,.,.,.,.,.,.,.,.,.,.,.,.-.",
",.,.:.:.:.:.,.,.,.,.:.,.,.,.-.,.I M i i 9 y 5 * o # $ # $ $ % % , I.W.!.!.!.W.F.2 @ & 4 6 s i 9 E 1.,.1.,.,.,.,.,.,.,.,.,.,.,.,.",
",.-.,.:.,.,.*.,.,.,.:.:.,.,.,.,.H u 7 q * = # % % % % % % % % % , I.Q.!.!.!.W.F.2 % % # o d w y U ;.*.;.,.,.-.,.,.,.,.,.,.,.,.,.",
",.,.:.:.:.O.` ;.=.:.:.:.,.,.,.,.F . o % # % # % % % % > < 2 2 > + D.Y.W.!.W.Y.h.> % # % # @ O & F ` *.*.*.,.,.,.,.,.,.,.,.,.,.,.",
":.:.:.:.;.;.,.;.,.,.,.,.,.,.,.,.S   X # % % > 1 3.e.d.j.A.D.D.s.> q.F.I.Y.I.D.3., 2 , % % % % % D ,.;.;.;.,.,.,.,.,.,.,.,.,.,.,.",
",.;.:.:.2.1.1.1.,.,.,.,.-.,.,.,.D     + , 2 s.D.H.W.W.!.!.!.!.L.5.% 6.j.k.h.4.> f.F.A.g.e.2 % % K 2.<.,.:.;.,.,.,.,.,.,.,.,.,.,.",
",.:.:.,.:.1.1.:.,.O.=.;.-.,.,.,.~ O , 3.7.e.D.W.!.!.!.!.!.!.!.Q.H.q.> > , > 2 k.Y.!.!.W.Y.F.j.3 ' <.<.:.:.;.+.=.;.:.,.,.:.:.;.,.",
",.,.:.:.:.:.:.,.:.:.,.=.-.,.-.,. .^ w.t.t.t.A.W.!.!.!.!.!.!.!.!.!.Y.F.k.k.S.L.W.!.!.!.!.!.!.W.D.@.:.:.:.<.+.:.,.;.:.,.,.;.=.+.;.",
",.,.,.:.:.<.:.:.,.<.;.,.,.,.,.,.=.) t.t.t.t.f.I.!.!.!.!.!.!.!.!.!.!.Q.!.Q.!.!.!.!.!.!.!.!.!.!.Z.%.:.-.:.:.:.:.:.,.:.,.,.,.=.;.+.",
";.,.,.:.:.:.:.;.:.;.:.:.,.M.<.,.,./ r.t.t.t.s.k.W.!.!.!.!.!.!.!.!.!.!.!.!.!.!.!.!.!.!.!.!.!.W.a.:.:.:.:.:.:.:.<.<.M.<.:.;.,.:.,.",
",.,.,.,.,.,.,.,.,.,.,.:.M.1.M.>.,.{ 8.s.t.t.t.t.G.Q.!.!.!.!.!.!.!.!.!.!.!.!.!.!.!.!.!.!.!.!.F.%.:.,.,.,.,.:.:.>.N.m.M.:.,.,.,.,.",
",.,.,.,.,.,.,.;.,.,.,.:.,.-.,.,.,.=.L w.t.t.t.s.f.H.!.!.!.!.!.!.!.!.!.!.!.!.!.!.!.!.!.!.!.W.h.%.:.,.,.,.,.,.,.:.:.:.,.,.,.,.,.,.",
",.,.,.,.,.,.,.,.,.-.,.,.-.,.,.,.,.,.o.5.r.t.t.t.t.f.L.!.!.!.!.!.!.!.!.!.!.!.!.!.!.!.!.!.W.Z.&.:.,.,.,.,.,.-.,.,.-.:.,.,.,.>.,.,.",
",.,.=.,.,.,.,.,.,.,.,.,.,.,.,.,.,.,.-.{ 3.r.t.t.t.t.f.D.W.!.!.!.!.!.!.!.!.!.!.!.!.!.Q.Y.k.| O.:.,.-.,.,.,.,.,.-.,.,.,.,.-.,.,.,.",
"<.+.X.;.;.,.,.,.-.,.,.1.<.<.2.:.:.>.>.>.[ 8.t.t.t.t.t.s.k.L.W.!.!.!.!.!.!.!.!.!.!.W.G.g._ ..=.+.,.,.,.<.,.,.,.1.<.<.1.-.>.,.<.<.",
";.;.;.=.:.,.:.:.>.,.,.>.<.<.,.,.:.-.,.<.-./ 4.t.t.t.t.t.t.d.h.D.Y.Q.!.!.!.!.Q.I.c.f.e.L %.;.;.;.,.<.<.,.,.,.,.,.,.,.,.>.,.,.,.<.",
"<.;.,.,.:.<.2.:.>.,.,.,.:.:.,.<.:.:.:.:.-.%.] 5.w.t.t.t.t.t.t.t.s.f.j.k.k.h.d.s.r.4.L %.,.,.:.:.<.<.2.,.,.,.,.,.,.,.-.:.,.,.>.<.",
";.:.:.;.:.1.<.<.<.,.-.>.:.,.<.,.:.,.:.:.,.,.;.] ^ w.r.r.t.t.t.t.t.s.t.t.t.t.t.e.J ' -.:.:.:.:.:.,.1.<.1.<.,.,.,.-.,.>.:.>.,.:.:.",
",.<.:.,.,.,.:.;.,.,.:.:.<.,.,.,.-.>.,.,.,.,.:.:.O.] ) 6.q.w.r.r.t.t.t.e.q.5.( ] o.:.:.:.<.,.:.,.:.:.:.:.,.,.,.,.,.,.,.,.,.,.:.:.",
",.;.:.,.,.,.,.,.-.:.:.,.,.,.-.,.,.,.,.,.,.,.,.;.:.:.;.] D ( 9.0.0.0.9.( G / o.-.:.:.,.,.,.,.,.,.:.,.;.:.,.-.,.,.,.,.,.,.,.,.,.,.",
",.,.:.,.;.:.;.,.:.,.,.,.,.,.,.,.,.,.,.,.,.,.,.,.;.:.,.,.*.=...........o.;.,.,.,.-.,.,.,.-.,.,.,.,.;.;.;.:.:.;.,.,.,.,.,.,.,.,.,.",
",.,.:.:.:.=.X.=.=.;.:.,.,.,.,.,.:.;.,.,.,.,.,.,.,.,.;.O.O.=.;.:.,.,.,.,.,.,.,.,.,.,.,.,.,.,.,.,.,.*.` ;.;.;.,.,.,.,.,.,.,.;.,.,.",
",.,.:.:.:.;.:.;.,.,.,.,.,.,.,.:.:.:.:.:.:.,.,.,.:.;.,.:.;.;.:.:.,.,.,.,.,.,.,.:.,.,.,.,.,.,.,.,.;.:.:.;.<.:.:.:.,.,.,.,.,.,.:.,.",
",.,.:.:.1.2.1.1.,.,.,.,.,.,.,.;.:.:.:.<.,.,.,.,.:.:.2.2.1.1.:.;.:.,.,.,.,.,.,.:.,.,.,.,.,.,.,.,.2.2.:.1.:.:.;.;.<.;.,.,.,.,.:.:.",
",.,.:.:.<.<.1.:.,.O.=.,.=.,.,.,.,.,.,.,.,.,.,.,.:.:.<.:.1.;.;.;.O.;.+.,.,.,.,.,.,.:.:.;.,.,.,.,.1.:.1.:.;.;.=.=.=.-.,.,.,.;.,.,.",
",.,.:.:.:.:.:.:.,.=.=.=.;.,.,.,.,.=.` ;.;.,.,.,.,.:.:.:.:.:.:.=.;.=.,.,.,.,.;.=.X.;.:.,.,.,.,.;.:.:.:.:.:.=.;.;.,.,.,.,.:.;.=.=.",
",.,.:.:.:.:.:.:.:.,.,.,.,.,.-.,.,.=.=.*.,.,.,.,.,.:.:.:.:.:.:.:.:.:.,.:.,.,.,.=.;.O.,.,.-.,.,.,.:.:.:.:.:.:.:.:.,.,.,.,.-.=.,.=.",
",.,.,.,.;.:.,.,.,.,.,.,.>.N.>.<.,.,.,.,.,.,.,.,.:.,.,.,.:.,.:.:.:.<.>.N.1.,.,.,.,.,.,.,.,.,.,.,.:.;.:.:.;.:.:.1.<.B.>.,.,.,.,.-.",
",.,.,.,.;.,.,.,.,.,.,.:.B.<.m.>.,.,.,.,.-.,.,.,.,.-.,.,.,.,.>.-.:.>.B.m.m.<.-.>.,.,.,.,.,.-.,.,.,.,.,.,.,.,.-.<.V.1.V.,.,.,.,.,.",
",.,.,.;.,.,.,.,.,.,.,.,.:.:.>.>.,.,.,.,.,.,.,.,.,.,.,.,.-.,.,.>.:.:.>.:.:.-.,.,.,.,.,.,.,.,.,.,.,.,.,.,.,.,.,.<.>.-.,.-.,.,.,.,.",
",.,.,.,.,.,.<.,.,.,.,.,.,.,.:.:.,.,.,.,.,.,.,.,.,.,.,.,.,.,.-.>.>.:.,.,.,.,.,.,.,.,.,.,.,.,.,.,.,.,.,.,.,.,.<.-.,.,.,.,.,.,.-.,.",
";.,.;.,.:.,.:.:.,.:.:.:.:.<.:.:.:.:.:.:.<.,.,.,.;.,.,.,.,.<.:.:.-.>.:.>.,.>.,.,.:.:.<.:.,.,.,.,.<.,.-.<.,.-.-.-.>.>.>.,.,.,.,.,.",
",.O.O.;.:.:.:.:.:.:.:.1.<.<.1.:.:.:.:.<.1.1.:.*.=.*.,.,.:.:.:.:.:.<.<.<.1.,.:.:.:.1.1.1.:.O.=.+.-.,.,.<.,.-.<.1.<.<.1.-.,.,.<.1.",
",.;.,.O.,.,.:.,.:.:.:.:.<.:.<.<.<.:.:.1.;.1.:.;.,.=.,.,.:.:.:.:.:.<.<.<.<.<.:.:.,.1.,.<.:.;.:.=.<.,.,.,.<.,.-.<.<.>.>.>.>.,.,.1.",
",.,.,.;.,.,.M.>.<.:.:.:.:.:.:.:.:.:.,.:.:.:.;.,.,.,.,.1.M.<.<.,.:.:.:.:.:.:.:.,.:.,.<.:.:.:.,.,.:.<.M.<.<.-.-.<.-.,.:.:.:.:.<.:.",
",.,.,.,.,.<.,.<.,.:.,.,.,.,.:.:.:.,.,.;.<.:.,.,.,.;.,.1.,.2.,.-.:.:.,.,.,.,.,.,.,.,.:.,.;.:.,.,.:.1.,.2.,.,.,.,.,.-.,.,.,.,.,.,."
};
