/* XPM */
static char *a39317531f9a4a93d95b071ec41fcbc9HEpcEPwbGi49K1O4[] = {
/* columns rows colors chars-per-pixel */
"64 64 241 2 ",
"   c #112435",
".  c #1A2936",
"X  c #282829",
"o  c #332D28",
"O  c #36322D",
"+  c #3B332C",
"@  c #252C34",
"#  c #293339",
"$  c #353534",
"%  c #3D3A35",
"&  c #373738",
"*  c #3D3C39",
"=  c #423A2F",
"-  c #433B33",
";  c #423E3A",
":  c #483F39",
">  c #4A4337",
",  c #44413C",
"<  c #4B443D",
"1  c #534A3C",
"2  c #574D3E",
"3  c #172B44",
"4  c #102F4F",
"5  c #19334A",
"6  c #123253",
"7  c #143B5B",
"8  c #193A5B",
"9  c #273648",
"0  c #2A3749",
"q  c #343C47",
"w  c #243A55",
"e  c #153C63",
"r  c #193C68",
"t  c #1A3F70",
"y  c #18475A",
"u  c #3A454E",
"i  c #27415A",
"p  c #384757",
"a  c #15436B",
"s  c #184769",
"d  c #1B456C",
"f  c #17576B",
"g  c #1C4473",
"h  c #1C4B74",
"j  c #194A78",
"k  c #1A5578",
"l  c #1C527C",
"z  c #244363",
"x  c #264867",
"c  c #244C6B",
"v  c #374B66",
"b  c #29526D",
"n  c #37546A",
"m  c #264C75",
"M  c #275678",
"N  c #23537D",
"B  c #365876",
"V  c #1C6676",
"C  c #30697B",
"Z  c #434444",
"A  c #4C4641",
"S  c #4E4944",
"D  c #4A4A4A",
"F  c #524C44",
"G  c #564F45",
"H  c #575147",
"J  c #5B5345",
"K  c #5B5449",
"L  c #5F584B",
"P  c #4A4D59",
"I  c #575657",
"U  c #615747",
"Y  c #625A4B",
"T  c #6E6453",
"R  c #6F6754",
"E  c #6A665B",
"W  c #495468",
"Q  c #585C67",
"!  c #4B5D72",
"~  c #605D66",
"^  c #5D626B",
"/  c #4C6173",
"(  c #646465",
")  c #6B6967",
"_  c #64656C",
"`  c #6B6B6B",
"'  c #777268",
"]  c #676D73",
"[  c #6D7176",
"{  c #7A7574",
"}  c #777879",
"|  c #827E78",
" . c #7E837E",
".. c #8E8A73",
"X. c #868478",
"o. c #1C4B83",
"O. c #1E4C8B",
"+. c #1B5786",
"@. c #1F4E91",
"#. c #1D5796",
"$. c #235B84",
"%. c #265885",
"&. c #235C8C",
"*. c #325F85",
"=. c #235996",
"-. c #186786",
";. c #1D638D",
":. c #1B6799",
">. c #1B7892",
",. c #296687",
"<. c #24638D",
"1. c #356C84",
"2. c #2A7589",
"3. c #246394",
"4. c #296A97",
"5. c #24659B",
"6. c #26699D",
"7. c #356A99",
"8. c #287796",
"9. c #24749D",
"0. c #2A759B",
"q. c #357797",
"w. c #2159A6",
"e. c #1A6BA8",
"r. c #1975AA",
"t. c #1F6AB3",
"y. c #1A79B5",
"u. c #1A7CBA",
"i. c #266CA3",
"p. c #2A6CA2",
"a. c #2363A9",
"s. c #2A6FAA",
"d. c #326CA3",
"f. c #2574A4",
"g. c #237BA4",
"h. c #2A72AC",
"j. c #2978A8",
"k. c #3478AA",
"l. c #2167B3",
"z. c #2975B2",
"x. c #297BB4",
"c. c #2A7BBD",
"v. c #347DB5",
"b. c #4F6987",
"n. c #5D7795",
"m. c #2B7DC2",
"M. c #2B879A",
"N. c #318597",
"B. c #31959D",
"V. c #1D87A8",
"C. c #1683BD",
"Z. c #1889BD",
"A. c #1C97BA",
"S. c #2382A6",
"D. c #2383AB",
"F. c #2887AA",
"G. c #3483AB",
"H. c #2995AC",
"J. c #389BA8",
"K. c #238BB3",
"L. c #2C8AB4",
"P. c #2786B8",
"I. c #2983BD",
"U. c #258BBB",
"Y. c #3888B7",
"T. c #2A94B7",
"R. c #2493BC",
"E. c #3695BC",
"W. c #1CA3BE",
"Q. c #35AFB5",
"!. c #39A8BA",
"~. c #549696",
"^. c #7D8589",
"/. c #7F8C97",
"(. c #4493BB",
"). c #41B1B9",
"_. c #3DC6BD",
"`. c #44CEB9",
"'. c #49E1BF",
"]. c #178DC0",
"[. c #1B99C4",
"{. c #2A82C3",
"}. c #278CC2",
"|. c #298BC3",
" X c #318FC0",
".X c #2593C4",
"XX c #239BC4",
"oX c #2998C6",
"OX c #3798C5",
"+X c #1BA5C6",
"@X c #1BB7D2",
"#X c #16BDD5",
"$X c #22A2C4",
"%X c #28A6C9",
"&X c #33A3C4",
"*X c #37A7CB",
"=X c #2CB0CC",
"-X c #36B5CA",
";X c #33ACD2",
":X c #2CB4D4",
">X c #34B4D3",
",X c #38B5D4",
"<X c #31BBDB",
"1X c #4297C8",
"2X c #42ABC6",
"3X c #1FC3D3",
"4X c #37D0CB",
"5X c #48E4C4",
"6X c #888887",
"7X c #8C8F8F",
"8X c #989589",
"9X c #949595",
"0X c #9D9A92",
"qX c #96999B",
"wX c #9D9D9D",
"eX c #A39E8F",
"rX c #A29D94",
"tX c #9CA197",
"yX c #A7A697",
"uX c #AFAA97",
"iX c #ABAE99",
"pX c #B1AC99",
"aX c #BBB79A",
"sX c #9D9FA0",
"dX c #9EA0A1",
"fX c #A2A2A2",
"gX c #ABAAA3",
"hX c #B5B5A3",
"jX c #C1BD9C",
"kX c #C3BFA3",
"lX c #CAC39B",
"zX c #CAC8A8",
"xX c #D4CEA9",
"cX c #DBD6AB",
"vX c #D7D2B1",
"bX c #DBD6B1",
"nX c #E3DDB1",
"mX c #EAE3AF",
"MX c #E7E1B4",
"NX c #EAE4B4",
"BX c #F6EEB5",
/* pixels */
"fXfXfXfXfXfXfXfXfXfXfXfXfXfXfXfXfXfXfXfXfXfXfXfXfXfXfXfXwXwXwXyX0XwXsXfXfXfXfXfXfXfXfXfXfXfXfXfXfXfXfXfXfXfXfXfXfXfXfXfXfXfXfXfX",
"fXfXfXfXfXfXfXfXfXfXfXfXfXfXfXfXfXfXfXfXfXfXfXfXfXfXsXX.T ' X.' R E X.dXfXfXfXfXfXfXfXfXfXfXfXfXfXfXfXfXfXfXfXfXfXfXfXfXfXfXfXfX",
"fXfXfXfXfXfXfXfXfXfXfXfXfXfXfXfXfXfXfXfXfXfXfXfXfXdX} X.xXmXBXNXcXlX) wXfXfXfXfXfXfXfXfXfXfXfXfXfXfXfXfXfXfXfXfXfXfXfXfXfXfXfXfX",
"fXfXfXfXfXfXfXfXfXfXfXfXfXfXfXfXfXfXfXfXfXfXfXfXfXtXI eXhXMXBXNXhXaX .8XfXfXfXfXfXfXfXfXfXfXfXfXfXfXfXfXfXfXfXfXfXfXfXfXfXfXfXfX",
"fXfXfXfXfXfXfXfXfXfXfXfXfXfXfXfXfXfXfXfXfXfXfXfXfXdXI 6XhXNXBXNXgXeX) 7XsXfXfXfXfXfXfXfXfXfXfXfXfXfXfXfXfXfXfXfXfXfXfXfXfXfXfXfX",
"fXfXfXfXfXfXfXfXfXfXfXfXfXfXfXfXfXfXfXfXfXfXfXfXfXwXI X.uXNXBXMXgX8X) 7XfXfXfXfXfXfXfXfXfXfXfXfXfXfXfXfXfXfXfXfXfXfXfXfXfXfXfXfX",
"fXfXfXfXfXfXfXfXfXfXfXfXfXfXfXfXdXdXdXdXfXfXfXfXfXwXD ' 8XaXlXaX8X| L 9XfXfXfXfXdXfXdXdXfXfXfXfXfXfXfXfXfXfXfXfXfXfXfXfXfXfXfXfX",
"fXfXfXfXfXfXfXfXfXfXfXfXfXfXfXfXsXqX9XsXsXtXtXtXfXwXD , K { ....E : Z qXfXdXwXwXdXdX7X9XtXfXfXfXfXfXfXfXfXfXfXfXfXfXfXfXfXfXfXfX",
"fXfXfXfXfXfXfXfXfXfXfXwXwXwXwX9XQ C B.N.C n p [ qX9X( X E rXbXzX6XA { wXqX} W p n 1.N.N./ 7XtXtXwXsXdXyXfXfXfXfXfXfXfXfXfXfXfXfX",
"fXfXfXfXfXfXfXfXfXfXqXD & & & & f W.+X+XW.W.A.M.B Q { % ) uXNXbXeXI 9X} p $.V.A.W.W.W.A.H.y $ $ $ Z 9XdXfXfXfXfXfXfXfXfXfXfXfXfX",
"fXfXfXfXfXfXfXfXfXwXI % , + o . V.W.Z.Z.Z.Z.Z.Z.V.;.z @ ) pXNXbXrXF q m e.y.].].Z.C.C.Z.A.y X o - A S wXfXfXfXfXfXfXfXfXfXfXfXfX",
"fXfXfXfXfXfXfXfXfXwX% Y H < > # V +X].Z.C.C.Z.C.t.t.e.w ' uXNXbXrXP g e.t.t.u.u.C.C.Z.Z.A.y % , F H F  .fXfXfXfXfXfXfXfXfXfXfXfX",
"fXfXfXfXfXfXfXfXfXfX, R H F < $ 5 V M.A.].u.u.u.l.w.o.w ' uXMXbX0XP t O.=.l.u.u.C.Z.V.>.f . , S F K L ` dXfXfXfXfXfXfXfXfXfXfXfX",
"fXfXfXfXfXfXfXfXfXwX, R L H S < % & . f ].].u.u.l.@.g w { uXMXbX0XI 8 t @.w.u.u.Z.V.y # $ % < F H Y L ) dXfXfXfXfXfXfXfXfXfXfXfX",
"fXfXfXfXfXfXfXfXfXqX& 2 2 2 J F < < $ 3 e.y.u.l.w.O.r 9 { uXNXbX0XI 3 t O.w.a.m.C.f . * > < F J 2 2 < ( dXfXfXfXfXfXfXfXfXfXfXfX",
"fXfXfXfXfXfXfXfXfXqX$ - = + 2 J F > X   -.y.w.w.O.r 3 9 { pXNXbXrXQ 3 4 t O.w.w.y.a X o < F J > + + + ^ dXfXfXfXfXfXfXfXfXfXfXfX",
"fXfXfXfXfXfXfXfXfXqX; T F % + > - o o # +.y.+.o.e 4 7 w { uXNXbXrXQ w 6 6 r j :.r.7 $ o O - - o , H J ( sXfXfXfXfXfXfXfXfXfXfXfX",
"fXfXfXfXfXfXfXfXfXqX; T H A , ; - - ; $ k r.j e a 3.$.i { uXNXbXrX^ m <.+.e r #.r.5 - - - : ; A F J Y ( yXfXfXfXfXfXfXfXfXfXfXfX",
"fXfXfXfXfXfXfXfXfXqX; R H F F S F < : $ a -.6 o.x.U.3.z { pXNXbXrX_ m f.{.6.e a ;.3 - : A S S F F K Y ( wXfXfXfXfXfXfXfXfXfXfXfX",
"fXfXfXfXfXfXfXfXfXwX; T H F S F S < : O   4 +.P.%XW.<.p { pXNXbXrX_ x f.%XXXj.a 4   - : A S F F F K Y ( wXfXfXfXfXfXfXfXfXfXfXfX",
"fXfXfXfXfXfXfXfXfXfXZ T U H F F A < < O 4 +.U.=X=X9.k i | pXNXbXyX_ z N H.4X-Xg.a   % > < F F H L Y L ` wXfXfXfXfXfXfXfXfXfXfXfX",
"fXfXfXfXfXfXfXfXfXdX* > 1 2 U G G A * . j U.=X_.M.q.q.v { pXNXbXrX] B q.q.J._.%Xj.7 # : A A F J 1 < % ) wXfXfXfXfXfXfXfXfXfXfXfX",
"fXfXfXfXfXfXfXfXfXfX; F : o < J G = @ a D.%X_.M.Y.2Xq.v { pXMXbXrX` b N.E.q.H.%X.Xi.5 X ; < 1 = + > , ` wXfXfXfXfXfXfXfXfXfXfXfX",
"fXfXfXfXfXfXfXfXfXfX, T G < = = = X 5 j.$X+XM.G.).J.k w { uXMXbXyX` w ,.!.!.0.V.+X{.%.. o + = % < K L ` dXfXfXfXfXfXfXfXfXfXfXfX",
"fXfXfXfXfXfXfXfXfXfX, R H F S A : @ %..X+XH.G.2XJ.<.s w ` uXMXvXrX_ 9 l 8.Q.).8.[.XXx.8 + < A F F K Y ` sXfXfXfXfXfXfXfXfXfXfXfX",
"fXfXfXfXfXfXfXfXfXfXA R J F S A : 3 s.$X$Xj.-XJ.B.Q.f w ` uXMXvXrX_ y 8.Q.M.).!.D.$XI.%.# < < F G K Y ) sXfXfXfXfXfXfXfXfXfXfXfX",
"fXfXfXfXfXfXfXfXfXwX; T Y U F < ; y P.$XS.OX!.B.4XQ.k 5 ( eXMXvX9XQ 8 S._._.N.2XY.K.|.p.3 : A J Y Y J _ sXfXfXfXfXfXfXfXfXfXfXfX",
"fXfXfXfXfXfXfXfXfXqX$ - = 1 J 1 & k U.R.Y.>XS.Q.=XU.k 5 W 9XzXkX6XW 8 s.XX=XH.H.*Xj.U.h.w : F J > = + ( sXfXfXfXfXfXfXfXfXfXfXfX",
"fXfXfXfXfXfXfXfXfX9X* U < o 1 2 & &..XS.*X&XK.%XI.h.h f C ~.~.~.~.C f #.c..X+XS.,XY.P.x.8 ; F - + < < ( dXfXfXfXfXfXfXfXfXfXfXfX",
"fXfXfXfXfXfXfXfXfXqX, T H - + o @ 3.T.g.,XF.$X}.c.3.2.`.`.'.5X5X'.`.Q.,.i.m.oXK.&X&XS.P.h o + + , J L ( rXfXfXfXfXfXfXfXfXfXfXfX",
"fXfXfXfXfXfXfXfXfXwX, R H F : : 9 0.R.G.,Xg.XXm.z.-.Q.4X4X5X5X5X-X&XE.g.=.m.|.$XK.,Xg.R.N & : < S K Y ( wXfXfXfXfXfXfXfXfXfXfXfX",
"fXfXfXfXfXfXfXfXfXqX, T K A - $ 3 j.K.OX&XA..Xm.a.9.%XoX3X4X3X3X@XXXP.P.+.z.{.XXg.,XG.R.$.# * < F L Y ( sXfXfXfXfXfXfXfXfXfXfXfX",
"fXfXfXfXfXfXfXfXfXwX; Y Y + @ . 6 g.D.&XT.R.{.c.3.r.|.oX#X#X#X#X#X+XI.U.;.s.m..XV.%XL.K.&.3 . @ A Y J ( dXfXfXfXfXfXfXfXfXfXfXfX",
"fXfXfXfXfXfXfXfXfXfX& = + 9 m m d f.9.-XF.oXm.c.+.x.{.%X#X#X#X#X#X@XoXP.6.i.m.|.A.!.T.g.&.z N z X + O ) dXfXfXfXfXfXfXfXfXfXfXfX",
"fXfXfXfXfXfXfXfXfXfX; J ; c v.&.h f.0.:XV..Xm.c.+.U.{.oX@X@X@X@X#X%X|.P.r.#.m.{.R.T.&X9.<.m d.p.3 A F ) sXsXfXfXfXfXfXfXfXfXfXfX",
"fXfXfXfXfXfXfXfXfXdX, T D ,.;X0.h f.0.>Xg. Xm.s.+.G.k.v.(.!.*X!.(.(.k.7.,.%.z.m.R.H.*X9.3.N  X Xw G L ` sXfXfXfXfXfXfXfXfXfXfXfX",
"fXfXfXfXfXfXfXfXfXfXZ R D -.&X4.s g.j.>Xg..Xi.m W ] 6X9XtXyXiXhXiXhXiX6X[ Q m z.R.H.*X0.;.%.E.E.i F L ` sXdXfXfXfXfXfXfXfXfXfXfX",
"fXfXfXfXfXfXfXfXfXfX; T & x 4.N h g.0.>Xg.T.N Q } 6XyXaXaXjXaXaXjXjXaX8X| _ x h.R.T.OXj.3.d <.<.8 ; K ` dXfXfXfXfXfXfXfXfXfXfXfX",
"fXfXfXfXfXfXfXfXfXdX* D B E.(.q.m p.9.*XS.T.;.x v ! ! ! / ! / ! / / ! B b x $.c.K.T.E.i.3.M q.Y.q.0 F ` dXfXfXfXfXfXfXfXfXfXfXfX",
"fXfXfXfXfXfXfXfXfXqX$ $ b G.k.,.d 6.p.OXK.R.j.<.a 3.<.4.s.s.s.s.h.f.,.3.+.h f.}.V.&XG.h.$.M q.G.7.9 O ( wXyXfXfXfXfXfXfXfXfXfXfX",
"fXfXfXfXfXfXfXfXfXqX& > # N x.4.h &.p.E.&XK.U.h.j k r.x.m.m.m.m.m.I.f.:.s +.I..XS.-Xs.s.l N L.k.z $ % ( sXfXfXfXfXfXfXfXfXfXfXfX",
"fXfXfXfXfXfXfXfXfXqX, T Z 4.>XT.%.%.p.f.;XS.XX{.5.s f +.g.D.D.f.:.;.k s h s.|.R.T.&X6.6.g q.<XoXx F J ( wXfXfXfXfXfXfXfXfXfXfXfX",
"fXfXfXfXfXfXfXfXfXqX, T Z 8.<X*X&.g 5.6.OXE.V..Xx.3.N h B B M h h h k $.f.|.XX9.*Xj.p.&.N G.<X*Xs G U _ wXfXfXfXfXfXfXfXfXfXfXfX",
"fXfXfXfXfXfXfXfXfXqX% T u 8.<X*X7.m o.i.f.*XF.D.}.x.p.b.7XtX^.*.<.3.i.z.I.XXS.E.OX6.6.h =.{.<XoXc S Y ( sXfXfXfXfXfXfXfXfXfXfXfX",
"fXfXfXfXfXfXfXfXfXqX* U u 0.:X;Xp.=.7 #.p.k.OXj.U.I.7.qXzXzXzX/.7.c.m.m..XD.G.OX4.p.j j f.I.<X%Xf A J ( wXfXfXfXfXfXfXfXfXfXfXfX",
"fXfXfXfXfXfXfXfXfXsX& + @ 9.<X*Xs.f.7 7 3.p.k.Y.6.v.b.9X^.fX/.qX7.m.m.{.U.9. X7.p.o.4 k z.Y.<X%Xc O O ( wXfXfXfXfXfXfXfXfXfXfXfX",
"fXfXfXfXfXfXfXfXfXfX% J & 0.<X;Xk.h.a g a 5.6.k.p.5.^ n.^ [ Q [ 7.m.m.|.f.v.7.6.+.e s +.h.L.<X*Xc , < ` sXfXfXfXfXfXfXfXfXfXfXfX",
"fXfXfXfXfXfXfXfXfXdX, T Z 4.>XoXs.i.a &.l h h.d.k.&.B ^ Q Q ^ W 5.c.m.U.4.v.h.5.e %.g +.6.v.>XoXc S L ` yXfXfXfXfXfXfXfXfXfXfXfX",
"fXfXfXfXfXfXfXfXfXdX, Y & M S.6.%.%.6 g =.a z.6.4.&.p.%.v n n %.z.m.{.D.7.&.j.;.h o.7 e N 3.G.f.y , K ` wXfXfXfXfXfXfXfXfXfXfXfX",
"fXfXfXfXfXfXfXfXfXsX* * f H.E.(.Y.q.z e %.6 x x m M j.D.8.4.6.z.{.|.|.f.,.x m i 8 g 4 B q.Y.Y.E.8.9 * ` wXfXfXfXfXfXfXfXfXfXfXfX",
"fXfXfXfXfXfXfXfXfXsX* # 2.>X,X1X1Xq.z 7 d q ] ] ^.} / ,.g.D.U.I.P.9.B ] X.n._ ^ w s 4 M Y.1X2X<XQ.y $ ` dXfXfXfXfXfXfXfXfXfXfXfX",
"fXfXfXfXfXfXfXfXfXwX$ o 5 +.g.j.&.m 4 e z p ] 9XcXmXhX} v k 9.<.c ! 8XcXmXjXX.^ w h e 8 N 3.j.9.f X O [ dXfXfXfXfXfXfXfXfXfXfXfX",
"fXfXfXfXfXfXfXfXfXwX, Y , $.&X%Xx.i.e t m d P 0XmXmXkX6X~ w r 8 p ` rXnXmXcX' i N g r l d. X;XI.8 S H ` fXdXfXfXfXfXfXfXfXfXfXfX",
"fXfXfXfXfXfXfXfXfXwX< R D ,.;X:Xv.f.e t j 3.7 W ..eX| Q u 3 6 6 9 P ( 8X8X) 0 j +.t r l z.OX<X Xi H Y ` fXfXfXfXfXfXfXfXfXfXfXfX",
"fXfXfXfXfXfXfXfXfXwXZ R A $.:X;Xv.s.r g j a.j ;.n n v z z m %.%.m x z v B =.e :.#.j r o.s.OX3XE.w G Y ` sXfXfXfXfXfXfXfXfXfXfXfX",
"gXfXfXfXfXfXfXfXfXwX, Y A N ;X:Xx.i.r o.o.:.+.;.N *.s.D.I.I.R..XI.L.x.d.&.;.e r.+.o.g l d.OX<XL.9 S L ` tXdXfXfXfXfXfXfXfXfXfXfX",
"fXfXfXfXfXfXfXfXfXwX& = + 9 S.L.=.%.t O.@.e.a j %.k.R.R.XX[.XXXXXXXXR.D.&.8 6 e.@.@.O.a &.s.T.k @ + + ` yXfXfXfXfXfXfXfXfXfXfXfX",
"fXfXfXfXfXfXfXfXfXwX, < J ; 5 d j o.#.w.@.e.y & q n C 1.1.q.8.8.2.M B p q &   :.#.#.#.O.t s y . : F Z 7XfXfXfXfXfXfXfXfXfXfXfXfX",
"fXfXfXfXfXfXfXfXfXyXn.A , , . +.r.u.u.w.#.e.p 9XwXfXqX^.} [ [ ] [ n.8XfXwX9X0 -.#.#.l.y.y.e.e # ; , ( wXfXfXfXfXfXfXfXfXfXfXfXfX",
"fXfXfXfXfXfXfXfXfXfXuXrX6X6X0 ;.C.u.u.l.#.5._ dXfXfXfXsXsXsXwXsXrXdXrXfXfX0Xu a e.#.r.C.u.y.c } 6X9XsXfXfXfXfXfXfXfXfXfXfXfXfXfX",
"fXfXfXfXfXfXfXfXfXfXfXfXdXwXQ d t.y.e.#.O.n wXfXfXfXfXfXfXfXfXfXfXfXfXfXfXfX6X# j j #.t.r.:.p qXwXfXfXfXfXfXfXfXfXfXfXfXfXfXfXfX",
"fXfXfXfXfXfXfXfXfXfXfXfXyXdX9XD q q w q q ~ wXfXfXfXfXfXfXfXfXfXfXfXfXfXfXfXwX( & q 0 q q u [ wXfXfXfXfXfXfXfXfXfXfXfXfXfXfXfXfX",
"fXfXfXfXfXfXfXfXfXfXfXfXfXfXdXwXwXwXwXsXrXdXfXfXfXfXfXfXfXfXfXfXfXfXfXfXfXfXfXwXwXwXwXwXwXwXwXfXfXfXfXfXfXfXfXfXfXfXfXfXfXfXfXfX",
"fXfXfXfXfXfXfXfXfXfXfXfXfXfXfXfXfXfXfXfXfXfXfXfXfXfXfXfXfXfXfXfXfXfXfXfXfXfXfXfXfXfXfXfXfXfXfXfXfXfXfXfXfXfXfXfXfXfXfXfXfXfXfXfX"
};
