/* XPM */
static char *_11f98bdc50e47f5befe9b70db6c4d35m6XBVK1prysPQEwi[] = {
/* columns rows colors chars-per-pixel */
"64 64 241 2 ",
"   c #28221D",
".  c #172732",
"X  c #192838",
"o  c #292929",
"O  c #342D26",
"+  c #342F29",
"@  c #2E312F",
"#  c #37322C",
"$  c #3B342C",
"%  c #262C36",
"&  c #2A343B",
"*  c #353332",
"=  c #3A3632",
"-  c #3E3A34",
";  c #36383A",
":  c #3C3C3B",
">  c #41382E",
",  c #423C34",
"<  c #483F36",
"1  c #433E39",
"2  c #44413C",
"3  c #4C4538",
"4  c #4B443D",
"5  c #544B3D",
"6  c #0E2F4F",
"7  c #172B46",
"8  c #193549",
"9  c #133252",
"0  c #14355B",
"q  c #193A5A",
"w  c #263749",
"e  c #363C48",
"r  c #283A54",
"t  c #333E52",
"y  c #173B63",
"u  c #1A3E6C",
"i  c #1A3F72",
"p  c #194652",
"a  c #1B4255",
"s  c #3C434C",
"d  c #27435A",
"f  c #34445A",
"g  c #31525E",
"h  c #15446B",
"j  c #194668",
"k  c #1B446C",
"l  c #1B4573",
"z  c #1B4B73",
"x  c #194978",
"c  c #145574",
"v  c #1D5273",
"b  c #17537B",
"n  c #1B527C",
"m  c #264668",
"M  c #234A6D",
"N  c #364A64",
"B  c #23526B",
"V  c #38546B",
"C  c #224C73",
"Z  c #244B76",
"A  c #275576",
"S  c #23537D",
"D  c #375676",
"F  c #19667D",
"G  c #29667B",
"H  c #336179",
"J  c #454543",
"K  c #4C4641",
"L  c #4D4944",
"P  c #44474A",
"I  c #4C4C4B",
"U  c #524C45",
"Y  c #584F43",
"T  c #5B5245",
"R  c #59544A",
"E  c #5C554A",
"W  c #454A56",
"Q  c #49545C",
"!  c #555555",
"~  c #645A49",
"^  c #635A4C",
"/  c #625C56",
"(  c #69604E",
")  c #6D6452",
"_  c #68665C",
"`  c #706654",
"'  c #475469",
"]  c #585D69",
"[  c #4A5D72",
"{  c #5D6167",
"}  c #4A6475",
"|  c #576675",
" . c #646465",
".. c #63646B",
"X. c #68676A",
"o. c #6B6B6B",
"O. c #757268",
"+. c #686C72",
"@. c #6C7176",
"#. c #777777",
"$. c #837C6F",
"%. c #817B77",
"&. c #848378",
"*. c #918D75",
"=. c #1D4B86",
"-. c #1C5887",
";. c #1F4F93",
":. c #1D5694",
">. c #204D8C",
",. c #275785",
"<. c #225B85",
"1. c #235C8C",
"2. c #235995",
"3. c #1C638B",
"4. c #1A7488",
"5. c #1B6698",
"6. c #1C799A",
"7. c #26648B",
"8. c #346585",
"9. c #2C7488",
"0. c #246394",
"q. c #25659B",
"w. c #276998",
"e. c #2C6C9D",
"r. c #346B93",
"t. c #277699",
"y. c #2B739B",
"u. c #347598",
"i. c #2159A5",
"p. c #1B6AA7",
"a. c #1974A9",
"s. c #1F6CB3",
"d. c #1A78B4",
"f. c #1A7DBB",
"g. c #266CA3",
"h. c #2A6CA4",
"j. c #266AAA",
"k. c #2475A4",
"l. c #2B74A4",
"z. c #247CA4",
"x. c #2672AA",
"c. c #2972AC",
"v. c #297CA8",
"b. c #3773AB",
"n. c #3378AA",
"m. c #2168B3",
"M. c #297AB3",
"N. c #2A7BBD",
"B. c #47728C",
"V. c #5E7895",
"C. c #2B7EC2",
"Z. c #2B8499",
"A. c #348E9A",
"S. c #1D88A7",
"D. c #1991AD",
"F. c #1683BD",
"G. c #188CBD",
"H. c #1B97BB",
"J. c #2383AA",
"K. c #2685A8",
"L. c #3483AA",
"P. c #2797AD",
"I. c #389BA8",
"U. c #238CB3",
"Y. c #2984BC",
"T. c #258CBA",
"R. c #2888B8",
"E. c #3687B7",
"W. c #2D93B4",
"Q. c #2593BC",
"!. c #2996BA",
"~. c #3795BD",
"^. c #1BA4BF",
"/. c #35A7B7",
"(. c #39B6B6",
"). c #559696",
"_. c #7E888B",
"`. c #4593BB",
"'. c #40B5B6",
"]. c #3DC5BD",
"[. c #45D6BD",
"{. c #49E1BE",
"}. c #168CC0",
"|. c #1A99C4",
" X c #2A82C3",
".X c #278BC1",
"XX c #298BC3",
"oX c #2593C3",
"OX c #239CC4",
"+X c #2A98C5",
"@X c #369AC4",
"#X c #1BA5C5",
"$X c #16BDD5",
"%X c #1AB9D3",
"&X c #27A6C9",
"*X c #33A3C4",
"=X c #38A8CA",
"-X c #2EB1CB",
";X c #35ABD1",
":X c #2DB7D6",
">X c #34B4D4",
",X c #34B9D8",
"<X c #4193C4",
"1X c #42A9C7",
"2X c #1FC3D3",
"3X c #37D0CB",
"4X c #43D5C2",
"5X c #48E4C4",
"6X c #868684",
"7X c #8B8B8A",
"8X c #898B8D",
"9X c #96938B",
"0X c #99958B",
"qX c #8A9396",
"wX c #949595",
"eX c #999997",
"rX c #9C9C9D",
"tX c #A09C94",
"yX c #9BA197",
"uX c #A6A697",
"iX c #ABAE97",
"pX c #B1AD99",
"aX c #B6B19B",
"sX c #BBB79B",
"dX c #9E9FA0",
"fX c #9EA0A2",
"gX c #A2A2A2",
"hX c #AFAFA3",
"jX c #C1BD9C",
"kX c #C3BFA8",
"lX c #CBC49D",
"zX c #CAC8A8",
"xX c #D2CEAC",
"cX c #D6D1AE",
"vX c #DAD5AC",
"bX c #D8D3B0",
"nX c #E4DDAF",
"mX c #EAE3AE",
"MX c #E8E2B5",
"NX c #EBE5B4",
"BX c #F5EDB5",
/* pixels */
"gXgXgXgXgXgXgXgXgXgXgXgXgXgXgXgXgXgXgXgXgXgXgXgXgXgXgXgXgXgXgXgXgXgXgXgXgXgXgXgXgXgXgXgXgXgXfXgXgXgXgXgXgXgXgXgXgXgXgXgXgXgXgXgX",
"gXgXgXgXgXgXgXgXgXgXgXgXgXgXgXgXgXfXdXrXdXdXrXrXfXgXgXgXgXgXgXgXgXgXgXgXgXgXgXgXgXgXrXwXwXrXeXrXrXdXgXgXgXgXgXgXgXgXgXgXgXgXgXgX",
"gXgXgXgXgXgXgXgXgXgXgXgXgXgXgXgXeXX.s s s s e J @.gXgXgXgXgXgXgXgXgXgXgXgXgXgXgXgXwXQ w r r r 8 Q eXgXgXgXgXgXgXgXgXgXgXgXgXgXgX",
"gXgXgXgXgXgXgXgXgXgXgXgXgXgXgXgXqXd p.a.p.;.z h P 7XgXgXgXgXgXgXgXgXgXgXgXgXgXgXdXwXM -.i.p.d.p.m  .dXdXgXgXgXgXgXgXgXgXgXgXgXgX",
"gXgXgXgXgXgXgXgXgXgXgXgXgXrXwX7X#.b f.f.f.p.:.5.a ! fXfXgXfXdXdXdXdXdXdXgXdXgXgXeX} 5.2.s.f.f.f.-.J 6X6XeXdXgXgXgXgXgXgXgXgXgXgX",
"gXgXgXgXgXgXgXgXgXgXgXgXeX .L J e h a.f.d.m.:.5.-.I rXrXfX7X#.+.+.+.+.#.6XdXdXrX7Xj p.2.s.d.d.p.x . , - J 6XgXgXgXgXgXgXgXgXgXgX",
"gXgXgXgXgXgXgXgXgXgXgXgX7X: 4 , . 9 h x ;.:.:.:.3.. ; s N V G 9.t.u.9.9.8.D N w & h p.;.;.;.l x h w 3 Y 2 I gXgXgXgXgXgXgXgXgXgX",
"gXgXgXgXgXgXgXgXgXgXgXeXo.+ $ & 3.W.e.>.h ;.:.:.p.6 q 7.U.Q.|.OXOX#XOXOXOXT.b.S z x p.;.=.i 1.h.!.K.& = $ U gXgXgXgXgXgXgXgXgXgX",
"gXgXgXgXgXgXgXgXgXgXgXeXX.T 4 a !.,X Xe.l l =.:.p.h 0.1.h.R.E.XXoX.XT.R.K.h.,.S 0.-.5.=.x h j.Y.:X*XB U ~ ! gXgXgXgXgXgXgXgXgXgX",
"gXgXgXgXgXgXgXgXgXgXgXrX .^ Y j *X,X@Xh.x i x :.-.h 1.V N m M Z ,.,.l d m N ' D 1.x g.l l l c.E.:X=XA U ) I gXgXgXgXgXgXgXgXgXgX",
"gXgXgXgXgXgXgXgXgXgXgXeX .^ I M @X,X@Xh.x u Z -.x t O.0X7X .W 7 9 9 7 W _ &.uX&.W y 2.l u h c.Y.:X;XS U ( I fXgXgXgXgXgXgXgXgXgX",
"gXgXgXgXgXgXgXgXgXgXgXeX .T 4 j XX:XE.e.x u l C d &.vXmXvX9XX.f y h t  .7XlXBXnX0Xf m x y h g.n.&X+XA 2 ~ I gXfXgXgXgXgXgXgXgXgX",
"gXgXgXgXgXgXgXgXgXgXgXeX .+ % j w.v.0.n 0 y z f { 6XzXmXvX6X' B 0.t.v ' V.jXMXxX7XX.t l y 9 A r.l.v.7.8 o J gXfXgXgXgXgXgXgXgXgX",
"gXgXgXgXgXgXgXgXgXgXgXrXo.@ B /.,X1X<Xn.A 9 k r ..o._.&.| 8.k.U.Y.M.J.k.G | #.#.+...t k q M b.<X1X,X>XG o I gXuXgXgXgXgXgXgXgXgX",
"gXgXgXgXgXgXgXgXgXgXgXrX .= p P.~.@XE.u.A 9 l q d C m 8.v..XC.C.M.w.7.t.v.v.S C C j 0 ,.q M u.E.E.W.Z.d 2 I gXgXgXgXgXgXgXgXgXgX",
"gXgXgXgXgXgXgXgXgXgXgXyX .T : j l.n.7.n q 0 =.z 7.k.,.e.M.C.C.c.S V V V ,.l.<.e.x.k.h 0.l 0 -.1.v.K.M : ( I gXgXgXgXgXgXgXgXgXgX",
"gXgXgXgXgXgXgXgXgXgXgXeXX.E P v *X;Xb.q.n l ,.y q.b.b.w.Y. XC.2.' ] ] ] ] ,.1.b.h.h.z n -.x c.b.=X;X0.J ( I gXgXgXgXgXgXgXgXgXgX",
"gXgXgXgXgXgXgXgXgXgXgXrX .4 2 A ;X:XY.h.-.h h -.h.e.E.k.XXC.C.8.@.] O.| V.} e.l.n.q.q.h h h x.c.;X:Xw.; 5 P gXgXgXgXgXgXgXgXgXgX",
"gXgXgXgXgXgXgXgXgXgXgXrX .+ @ v &X,XY.c.b 9 n h.e.~.y.Q. XC.C.B.dX8XgX8X9XV.M.t.E.n.g.2.0 h h.b.;X:X9.% $ J fXgXgXgXgXgXgXgXgXgX",
"gXgXgXgXgXgXgXgXgXgXgXrX .5 J A ;X,XY.h.x x g.e.@Xn.S.oX XC.N.b.qXzXkXkXwX8.Y.Q.l.1XK.e.:.y 1.b.;X:Xy.2 ~ J rXgXgXgXgXgXgXgXgXgX",
"gXgXgXgXgXgXgXgXgXgXgXeX_ E I B ;X2XE.1.z q.g.~.W.K.OX XM.w.0.7.8.8XrXqX8.h.N..XU.K.=Xb.g.,.l e.;X:Xw.4 ( J rXfXgXgXgXgXgXgXgXgX",
"gXgXgXgXgXgXgXgXgXgXgXrX{ E I v ;X,Xn.S -.x.n.*X6.OXY.g.<.v z z l S D A v S 7.M.oXJ.W.@Xq.q.k w.;X:Xt.J ) J rXgXgXgXgXgXgXgXgXgX",
"gXgXgXgXgXgXgXgXgXgXuXrX_ R L B +X:Xy.z e.e.*XW.Q..Xx.z h b 3.5.x.K.J.a.3.z h w.XXQ.J.;Xy.g.=.,.!.-X7.2 ( 2 dXgXgXgXgXgXgXgXgXgX",
"gXgXgXgXgXgXgXgXgXgXgXrX{ - ; m v.W.S x c.l.>XJ.Q.N.<.z 5.k.N.N.C.N.N.N.M.a.b z c..XU.*X~.g.1.M w.n.S e , : rXfXgXgXgXgXgXgXgXgX",
"gXgXgXgXgXgXgXgXgXgXgXdX{ + 8 r.E.r.C <.c.L.*XJ..Xg.v -.4.7.h.c.c.c.c.h.w.7.7.j 7.c.!.K.=Xq.w.z 8.L.E.B * : fXgXgXgXgXgXgXgXgXgX",
"gXgXgXgXgXgXgXgXgXgXgXrXX.4 d u.`.u.S 0.l.~.!.U.R.<.m B V H [ } [ [ } | | [ [ N M 7.Q.K.=Xe.g.z u.E.`.B I P gXgXgXgXgXgXgXgXgXgX",
"gXgXgXgXgXgXgXgXgXgXgXdXo.R : d 7.7.z 0.k.@XP.Q.c.N ..%.0XsXjXjXjXsXsXsXsXuX6X#.' ,.!.z.>Xy.v.j A t.j ; ( J gXgXgXgXgXgXgXgXgXgX",
"gXgXgXgXgXgXgXgXgXgXgXrXo.E U q ~.W.S w.t.=XW.Q.c.Z ] @.7XhXsXhXpXiXuXyXeX6X| ' A g..XJ.>Xn.z.z y.>XG I ` J gXgXgXgXgXgXgXgXgXgX",
"gXgXgXgXgXgXgXgXgXgXgXrXo.E U d +X@XS 0.k.=XW.Q.C.c.S 8.r.b.`.<X`.=X<X~.n.n.R.,.j.C.oXz.,Xt.k.z y.;XG J ) J fXgXgXgXgXgXgXgXgXgX",
"gXgXgXgXgXgXgXgXgXgXgXdXo.U K 8 b.h.Z 7.t.@XP.Q. XC.0.a.Y. X&X$X2X$X%X%X+X XR.-.N.C.+Xz.>Xw.k.k ,.b.m 1 T 2 gXgXgXgXgXgXgXgXgXgX",
"gXgXgXgXgXgXgXgXgXgXgXrXX.# $ o m S u 1.v.W./.Q.XXC.j.6.R.oX:X$X$X$X$X$X&X Xz.:.N. X+XK.-Xt.k.j M M % $ - - gXgXgXgXgXgXgXgXgXgX",
"gXgXgXgXgXgXgXgXgXgXgXuX .Y E 3 % 7 7 1.U.R.&XJ.oXC.j.:.R.XX#X$X$X$X$X$X+XT.a.q.C.XX!.W.*XJ.l.0 X % , ^ ^ 2 dXgXgXgXgXgXgXgXgXgX",
"gXgXgXgXgXgXgXgXgXgXgXrX .E E U 2 : % <.!.L.;Xz.OX XM.-.U.R.OX:X2X3X3X2X&X&Xa.g.C.oXU.*X~.U.k.8 $ 1 K ~ ` J eXgXgXgXgXgXgXgXgXgX",
"gXgXgXgXgXgXgXgXgXgXgXuXX.^ E L 4 2 ; S Q.v.>XW.&X XN.2.z.~.@X-X3X5X5X5X3X(.3.c. XOXS.>XL.!.e.w , < K Y ` 1 eXdXgXgXgXgXgXgXgXgX",
"gXgXgXgXgXgXgXgXgXgXgXdX .^ T 4 $ $ @ z R.J.*X@XU.OXY.h.7.(.[.5X5X5X5X{.[.9.0.N..X#XK.>Xv.Q.0.& $ $ , U ) 1 eXgXgXgXgXgXgXgXgXgX",
"gXgXgXgXgXgXgXgXgXgXgXdX .L 5 - , 5 : r M.U.E.>XJ.&XoXN.:.B H A.).).).G j z c.XX&XP.*X=XS.oX<.; 5 5 $ 1 Y : eXgXgXgXgXgXgXgXgXgX",
"gXgXgXgXgXgXgXgXgXgXgXrX .$ - > T U < w c.XXk.=XP.P.-X+Xv.0 g 6XpXxX9X' 7 z U.-X-XZ.>XE.!.Y.n ; 5 Y 5 < < * eXgXgXgXgXgXgXgXgXgX",
"gXgXgXgXgXgXgXgXgXgXgXfXo.T ~ E T K 3 7 q.XXU.E.=XZ.(.3XK.a { 0XxXnXuX..r c /.].A./.<XK.&XR.y - K U ~ ^ ( 1 rXgXgXgXgXgXgXgXgXgX",
"gXgXgXgXgXgXgXgXgXgXgXfXo.^ E U U K 4 @ ,.R.&XS.~.'.Z.(.t.q X.eXcXnXpXo.w c ^.A.I.1Xz.&X&Xk.8 1 K L U R ` 2 gXgXgXgXgXgXgXgXgXgX",
"gXgXgXgXgXgXgXgXgXgXgXrX+.^ E U U K 4 * q M.OX!.t.'.(.9.-.r ..tXbXMXpXo.r c 9.I.'.L.U.#XoX-.% < < L U Y ` 1 rXgXgXgXgXgXgXgXgXgX",
"gXgXgXgXgXgXgXgXgXgXgXuX+.E E U , , = + . 1. X&XD.t.'.I.7.q ..tXbXMXaX#.r B I.'.L.Z.&X&Xc.9 o > , , , U ) 2 fXgXgXgXgXgXgXgXgXgX",
"gXgXgXgXgXgXgXgXgXgXgXrXo.K 3 $ > 4 < 1 o 7 q.oX&XK.n.`.L.V X.tXbXMXpX%.g u.1XE.A.].&XM.j % - 5 T 5 $ < 5 = fXgXgXgXgXgXgXgXgXgX",
"gXgXgXgXgXgXgXgXgXgXgXfX+.3 3 3 T U U K 1 @ y x.&X3XI.y.u.H ..tXbXNXaX%.V r.y.Z.].-XT.n X 1 4 U Y T T 5 3 * dXgXgXgXgXgXgXgXgXgX",
"gXgXgXgXgXgXgXgXgXgXgXgXo.E E E Y U K K 4 = . h v.-X4XP.F d { eXbXMXaX%.f b t.-X-XT.-.7 + 4 4 U L U T E ) 1 dXgXgXgXgXgXgXgXgXgX",
"gXgXgXgXgXgXgXgXgXgXgXfXo.^ E U U U K K 4 , . 7 h k.OX&Xc.m ] tXbXNXaX%.t 1.H.&XS.-.6 6 o 2 4 U U U U R ` 1 wXgXgXgXgXgXgXgXgXgX",
"gXgXgXgXgXgXgXgXgXgXgXgXX.^ E U L L U K 4 , X -.h y w.R.c.Z ] tXcXNXaX%.N 1.T.M.b 0 3.c @ 2 3 4 L L U U ` - wXfXgXgXgXgXgXgXgXgX",
"gXgXgXgXgXgXgXgXgXgXgXfXo.E R U L 2 3 , 2 - 7 a.:.h 0 -.0.C ] 0XcXNXaX%.N S 0.u 0 x d.-.& , - , < 2 J R ) - wXgXgXgXgXgXgXgXgXgX",
"gXgXgXgXgXgXgXgXgXgXgXgXo.E R 3 + , > # O # 9 a.5.=.u 0 9 r ] eXcXNXaX%.t 0 6 y x ;.d.-.& + O 2 3 $ $ K / * dXgXgXgXgXgXgXgXgXgX",
"gXgXgXgXgXgXgXgXgXgXgXgXo.- - O 2 5 5 4 # o 9 a.p.i.=.i 9 7 W 0XcXNXaX%.t 7 y >.i.p.f.3.X o 2 Y E Y > $ 2 O qXfXgXgXgXgXgXgXgXgX",
"gXgXgXgXgXgXgXgXgXgXgXgXo.4 5 5 T U L 4 2 o c d.f.m.i.=.i 7 W wXcXMXaX%.e 0 =.i.m.d.f.a.9 # 2 4 5 T T T 5 + wXuXgXgXgXgXgXgXgXgX",
"gXgXgXgXgXgXgXgXgXgXgXgX+.E ~ T Y 4 2 ; @ 8 6.G.f.f.m.;.i y W 9XcXNXaX%.t u ;.m.f.f.F.G.F p & @ 1 U Y T ) 2 rXgXgXgXgXgXgXgXgXgX",
"gXgXgXgXgXgXgXgXgXgXgXgX#.^ E U L 2 o p 4.S.H.F.f.f.m.i.=.u W 9XcXNXaX#.t =.:.m.f.f.F.G.D.S.4.p * J L Y ) ; rXgXgXgXgXgXgXgXgXgX",
"gXgXgXgXgXgXgXgXgXgXgXfX&.R R U 3 , p D.G.G.F.F.}.f.s.s.p.b W 9XcXMXaX%.f 5.a.s.f.F.F.F.F.G.#X4.& , K U ^ # wXgXgXgXgXgXgXgXgXgX",
"gXgXgXgXgXgXgXgXgXgXgXgXrXI K 1 # o p D.G.F.F.G.f.}.f.a.A w J 9XbXNXaX%.* d -.d.}.}.G.}.G.G.#XS.8   + - * ! eXgXgXgXgXgXgXgXgXgX",
"gXgXgXgXgXgXgXgXgXgXgXgXgXwXI O o o & S.|.|.|.H.|.S.7.f @.8X/ 9XcXNXaXO.= @.{ V Z.P.H.#X|.#X#XF s J P I I eXgXgXgXgXgXgXgXgXgXgX",
"gXgXgXgXgXgXgXgXgXgXgXgXgXgXeXeXwXwXwX} Z.Z.9.A g g @.eXrX6XP &.kXvXpXX.@ ! eXgX#.! g H ).A.H { eXgXgXyXgXgXgXgXgXgXgXgXgXgXgXgX",
"gXgXgXgXgXgXgXgXgXgXgXgXgXgXgXgXgXgXgXrXwXqXdXrXeXeXrXgXdX! , / $.*.$.E 2 : wXgXgXfXdXdXuXwXrXdXgXgXgXgXgXgXgXgXgXgXgXgXgXgXgXgX",
"gXgXgXgXgXgXgXgXgXgXgXgXgXgXgXgXgXgXgXgXgXdXgXgXgXgXgXgXeX/ $.0XjXxXjX0X%.K wXgXgXgXgXgXgXfXgXgXgXgXgXgXgXgXgXgXgXgXgXgXgXgXgXgX",
"gXgXgXgXgXgXgXgXgXgXgXgXgXgXgXgXgXgXgXgXgXgXgXgXgXgXgXgXwXo.7XtXcXBXNXkX7XI wXgXgXgXgXgXgXgXgXgXgXgXgXgXgXgXgXgXgXgXgXgXgXgXgXgX",
"gXgXgXgXgXgXgXgXgXgXgXgXgXgXgXgXgXgXgXgXgXgXgXdXgXgXgXgXwXo.0XuXnXBXNXkX0X/ wXgXgXgXgXgXgXgXgXgXgXgXgXgXgXgXgXgXgXgXgXgXgXgXgXgX",
"gXgXgXgXgXgXgXgXgXgXgXgXgXgXgXgXgXgXgXgXgXgXgXgXgXgXgXgXeX#.pXaXMXBXNXkXtX .wXgXgXgXgXgXgXgXgXgXgXgXgXgXgXgXgXgXgXgXgXgXgXgXgXgX",
"gXgXgXgXgXgXgXgXgXgXgXgXgXgXgXgXgXgXgXgXgXgXgXgXgXgXgXgXgXO.sXvXmXmXmXvX*.%.eXgXgXgXgXgXgXgXgXgXgXgXgXgXgXgXgXgXgXgXgXgXgXgXgXgX",
"gXgXgXgXgXgXgXgXgXgXgXgXgXgXgXgXgXgXgXgXgXgXgXgXgXgXgXgXgX7X_ ` $.$.O.` %.eXgXgXgXgXgXgXgXgXgXgXgXgXgXgXgXgXgXgXgXgXgXgXgXgXgXgX",
"gXgXgXgXgXgXgXgXgXgXgXgXgXgXgXgXgXgXgXgXgXgXgXgXgXgXgXgXgXgXyXeXrXrXrXrXgXgXgXgXgXgXgXgXgXgXgXgXgXgXgXgXgXgXgXgXgXgXgXgXgXgXgXgX"
};
