/* XPM */
static char *_20243d5f71944069635652e89b7b4549rgPh0VQTBZiJUzo[] = {
/* columns rows colors chars-per-pixel */
"64 64 241 2 ",
"   c #080808",
".  c #120E0A",
"X  c #12110D",
"o  c #030C16",
"O  c #0A131A",
"+  c #151717",
"@  c #1C1A14",
"#  c #1B1C1C",
"$  c #221E18",
"%  c #24211B",
"&  c #2A241E",
"*  c #0A1927",
"=  c #151E27",
"-  c #081E35",
";  c #18232A",
":  c #0C2C34",
">  c #0A2439",
",  c #142639",
"<  c #252423",
"1  c #2B2927",
"2  c #332C25",
"3  c #332E29",
"4  c #353127",
"5  c #35322D",
"6  c #3B342C",
"7  c #262E36",
"8  c #373635",
"9  c #3B3632",
"0  c #3C3A34",
"q  c #413A2E",
"w  c #423C35",
"e  c #453E38",
"r  c #4A4437",
"t  c #45413C",
"y  c #4B433C",
"u  c #534A3C",
"i  c #5B503F",
"p  c #0C2543",
"a  c #0D2A49",
"s  c #132A48",
"d  c #0D314D",
"f  c #13374B",
"g  c #0E2E51",
"h  c #0E3759",
"j  c #133355",
"k  c #1A3557",
"l  c #13355B",
"z  c #133A5D",
"x  c #1B3B5C",
"c  c #353C4C",
"v  c #263B55",
"b  c #163C63",
"n  c #1A3B65",
"m  c #193C69",
"M  c #1B3F71",
"N  c #223F63",
"B  c #114457",
"V  c #20455D",
"C  c #38435B",
"Z  c #0D4567",
"A  c #144269",
"S  c #1B446B",
"D  c #1C4A6D",
"F  c #19586A",
"G  c #0E4E70",
"H  c #1B4473",
"J  c #1B4B74",
"K  c #184976",
"L  c #1C4D7C",
"P  c #19557B",
"I  c #254867",
"U  c #354B66",
"Y  c #234B78",
"T  c #25567A",
"R  c #156676",
"E  c #27617B",
"W  c #4E4741",
"Q  c #4F4A43",
"!  c #444548",
"~  c #524C44",
"^  c #544E46",
"/  c #5C5345",
"(  c #595447",
")  c #5C554A",
"_  c #4D4E58",
"`  c #535457",
"'  c #5C5D5E",
"]  c #625A4A",
"[  c #695E4C",
"{  c #635F5A",
"}  c #6B604D",
"|  c #6B6454",
" . c #746956",
".. c #766C59",
"X. c #485366",
"o. c #5D5E63",
"O. c #585B66",
"+. c #5E626A",
"@. c #636466",
"#. c #696767",
"$. c #64636A",
"%. c #6A6A6C",
"&. c #72706E",
"*. c #6D7275",
"=. c #7B7473",
"-. c #777879",
";. c #847D79",
":. c #8B877B",
">. c #1C4A82",
",. c #1E4B89",
"<. c #1C5787",
"1. c #1F4F92",
"2. c #1E5698",
"3. c #224B83",
"4. c #225484",
"5. c #225B84",
"6. c #2B5688",
"7. c #245C8D",
"8. c #245796",
"9. c #235D93",
"0. c #1B648B",
"q. c #1A778C",
"w. c #1A6797",
"e. c #1D739B",
"r. c #1C7498",
"t. c #256987",
"y. c #24628D",
"u. c #29768C",
"i. c #246494",
"p. c #276897",
"a. c #236B9B",
"s. c #336F91",
"d. c #257499",
"f. c #377A99",
"g. c #2159A7",
"h. c #235EB1",
"j. c #1B6BA7",
"k. c #1B77AB",
"l. c #1E6CB3",
"z. c #1B78B5",
"x. c #1A7CBB",
"c. c #266CA5",
"v. c #2868A7",
"b. c #2A6CA5",
"n. c #316BA7",
"m. c #2778A7",
"M. c #2673AC",
"N. c #2972AD",
"B. c #3479A8",
"V. c #2167B3",
"C. c #2A75B3",
"Z. c #2979B6",
"A. c #2A7CBB",
"S. c #337AB5",
"D. c #576781",
"F. c #707B88",
"G. c #2B7DC3",
"H. c #178397",
"J. c #34899A",
"K. c #1C87A8",
"L. c #1C91AE",
"P. c #1D8EB0",
"I. c #1682BD",
"U. c #1981BC",
"Y. c #1D97B7",
"T. c #2687A9",
"R. c #388EA7",
"E. c #2993AD",
"W. c #238CB4",
"Q. c #2788BA",
"!. c #3987B8",
"~. c #2696B9",
"^. c #3595BC",
"/. c #2BA2AE",
"(. c #3BAEAF",
"). c #7C848B",
"_. c #4EA3A1",
"`. c #44C5B8",
"'. c #178CC0",
"]. c #1998C3",
"[. c #2A83C3",
"{. c #278CC5",
"}. c #298CC5",
"|. c #368EC5",
" X c #2897C7",
".X c #249BC4",
"XX c #3696C5",
"oX c #1CA7C9",
"OX c #1EB2CE",
"+X c #15BED5",
"@X c #1ABAD3",
"#X c #27A5C9",
"$X c #21ACCD",
"%X c #36A6C8",
"&X c #2AB6C8",
"*X c #32B4CB",
"=X c #2EA8D1",
"-X c #36A9D1",
";X c #2CB4D7",
":X c #37BADA",
">X c #33BDE0",
",X c #4299C8",
"<X c #469ED1",
"1X c #44A9D7",
"2X c #45B8D0",
"3X c #18C0D4",
"4X c #36CECA",
"5X c #35C1DE",
"6X c #31C3E1",
"7X c #38C4E0",
"8X c #44DAC6",
"9X c #49E8C4",
"0X c #858686",
"qX c #8C8E8B",
"wX c #908F8D",
"eX c #99978C",
"rX c #979797",
"tX c #9D9994",
"yX c #A0998F",
"uX c #A29D95",
"iX c #99A19F",
"pX c #AAA797",
"aX c #ADAA95",
"sX c #B5B499",
"dX c #9C9FA1",
"fX c #9EA1A3",
"gX c #A2A2A2",
"hX c #AAAAA5",
"jX c #A7A9AA",
"kX c #B7B6A4",
"lX c #CAC59F",
"zX c #C9C4A2",
"xX c #D6D1AB",
"cX c #DBD5B2",
"vX c #DED9B3",
"bX c #E4DFB2",
"nX c #EAE4B4",
"mX c #EFE9B6",
"MX c #F2EBB6",
"NX c #F1EBB9",
"BX c #F9F0B5",
/* pixels */
"gXgXgXgXgXgXgXgXgXgXgXgXgXgXgXgXgXgXgXgXgXgXgXgXgXgXgXgXgXgXgXgXgXgXgXgXgXgXgXgXgXgXgXgXgXgXgXgXgXgXgXgXgXgXgXgXgXgXgXgXgXgXgXgX",
"gXgXgXgXgXgXgXgXgXgXgXgXgXgXgXgXgXgXgXgXgXgXgXgXgXgXgXgXgXgXgXgXgXgXgXgXgXgXgXgXgXgXgXgXgXgXgXgXgXgXgXgXgXgXgXgXgXgXgXgXgXgXgXgX",
"gXgXgXgXgXgXgXgXgXgXgXgXgXgXgXgXgXgXgXgXgXgXgXgXgXgXgXgXgXgXgXfXgXgXgXgXgXgXgXgXgXgXgXgXgXgXgXgXgXgXgXgXgXgXgXgXgXdXgXgXgXgXgXgX",
"gXgXgXgXgXgXgXgXgXgXgXgXgXgXgXgXgXgXgXgXgXgXgXgXgXgXgXgXgXgXgXfXgXgXgXgXgXgXgXgXgXgXgXgXgXgXgXgXgXgXgXgXgXgXgXgXgXgXgXgXgXgXgXgX",
"gXgXgXgXgXgXgXgXgXgXgXgXgXgXgXgXgXgXgXgXgXgXgXgXgXgXgXgXgXgXgXpXgXgXgXgXgXgXgXgXgXgXgXgXgXgXgXgXgXgXgXgXgXgXgXgXgXgXgXgXgXgXgXgX",
"gXgXgXgXgXgXgXgXgXgXgXgXgXgXgXgXgXgXgXgXgXgXgXgXgXgXgXgXgXgXgXgXgXgXgXgXgXgXgXgXgXgXgXgXgXgXgXgXgXgXgXgXgXgXgXgXgXgXgXgXgXgXgXgX",
"gXgXgXgXgXgXgXgXgXgXgXgXgXgXgXgXgXgXgXgXgXgXgXgXgXgXgXgXgXgXgXgXgXgXgXgXgXgXgXgXgXgXgXgXgXgXgXgXgXgXgXgXgXgXgXgXgXgXgXgXgXgXgXgX",
"gXgXgXgXgXgXgXgXgXgXgXgXgXgXgXgXgXgXgXgXgXgXgXgXgXgXgXgXgXgXgXgXgXgXgXgXgXgXgXgXgXgXgXgXgXgXgXgXgXgXgXgXgXgXgXgXgXgXgXgXgXgXgXgX",
"gXgXgXgXgXgXgXgXgXgXgXgXgXgXgXgXgXgXgXgXgXgXgXgXgXgXgXgXgXgXgXgXgXgXgXgXgXgXgXgXgXgXgXgXgXgXgXgXgXgXgXdXgXgXgXgXgXgXgXgXgXgXgXgX",
"gXgXgXgXgXgXgXgXgXgXgXgXgXgXhXjXjXjXgXfXdXdXdXdXfXjXjXjXjXjXjXgXdXdXdXdXdXgXjXjXjXjXjXjXdXdXdXdXdXfXgXjXgXgXgXgXgXgXgXgXgXgXgXgX",
"gXgXgXgXgX0X    < & & % . # # @ @ .   @ @ @ +     # $ % $ @ . $ $ $ $ $ X % $ $ $ @ . $ $ $ $ @     $ @   3 gXgXgXgXgXgXgXgXgXgX",
"gXgXgXgXhXX u 6 | ....| & 1 0 |  .] 2 [ .... .r 2 ^ | .. .[ 2 [ .... .] 6  .......i e  ..... . .q / ....{ 5 < gXgXgXgXgXgXgXgXgX",
"gXgXgXgX0X5 ] 6 y ! e 0 = u.B 1 0 4 # 6 9 0 e < I T 1 t e e 2 [ ) ^ ^ e q [ ^ ^ / w e ] / ^ ^ ^ 4 i / ^ ^ W O gXgXgXgXgXgXgXgXgX",
"gXgXgXgXwX6 y * D T 4.4.D 5XE.S i.a.d.d.d.d.y.Y !.,Xh R T N = 0 y ~ w & u ] ~ ~ e & / ) ^ y Q q 1 ] ~ ~ Q 6 + gXgXgXgXgXgXgXgXgX",
"gXgXgX! O O * T.=X;X;X:Xp.:X^.T.6X6X6X6X:X6X5XT.B.,Xi.:X6X|.Y * e y 2 u ] ^ ^ W q e ] ~ ^ Q w 2 / ) y W e 2 + gXgXgXgXgXgXgXgXgX",
"gXgXX A w.<.z ^.;X:X;X=Xp.<X,Xi.XX-X=X=X-X=XXX6.t.f.I p.s.6.Y , 9 e 2 / e u W W q / / ~ ^ ~ e e ] W y 9 < # o gXgXgXgXgXgXgXgXgX",
"gXgXo z.x.z.m 8.C.S.S.S.4.,X!.6.n.n.n.p.8.6.Y N x I b m b b n a ; 1 $ 4 9 9 w y 6 / ^ ^ Q ~ 0 r / u 9 > R q.G ! iXiXgXgXgXgXgXgX",
"gXgX* z.'.x.M <.c.M.M.c.S B.f.Y M.M.M.i.Y n Y 9.b.C.Z.K.m.m.m.T.m.b.i.<.K j = ; $ w u y y y w & e W 3 R OXoX@XR rXpXgXgXgXgXgXgX",
"gXgX* l.x.x.2.m l l l j p V I p b z g g L b.N.v.8.9.p.d.p.0.a.d.Y..X#X X}.Q.N.T > # t y y y t 4 & 0 = H.Y.I.oXH.rXgXgXgXgXgXgXgX",
"gXgX* 2.l.g.g.1.,.H S M n l g M 9.K p w.N.8.i.^.-X2X:X:X5X5X:X%XXXB.a.r.Y.$XoX XM.b * 5 3 3 1 1 # O B ~.I.I.OXq.fXfXgXgXgXgXgXgX",
"gXgX* <.2.1.1.,.>.H L >.H H 7.b.L g v.b.p.%X:X*XE.r.r.r.w.r.K.T.#X:X5X1XB.b.#XOX#XA.K * - Z G <.0.w.'.'.I.I.OXF gXgXgXgXgXgXgXgX",
"gXgX` h j.k.k.j.j.j.v.x c c > g b v.p.d.1X^.a.K.~..XXX X XXX#X.XP.r.d.%X5X-Xi.P.OX#XQ.<.- w.I.U.x.U.'.I.I.I.OX: gXgXgXgXgXgXgXgX",
"gXgXgXjX` , d Z L A g c %.*.z T.C.9.B.1Xd.k.#X{.C.<.K p.A.G.G.[. X#XoXT.0./.2Xf.0.8X&X[.K p >.1.h.x.x.I.I.'.Y.7 gXgXgXgXgXgXgXgX",
"gXgXgXgXgXfX  K i.w.k pXwX$.b m.p.!.,Xy.L. X[.N.5.m O.I C.A.G.G.G.[.Q.$X`.J.R.2XB.u.8X&XQ.M j M g.l.x.I.I.].K.' gXgXgXgXgXgXgXgX",
"gXgXgXgXgXgX* 6.T U &.BXbX-.S p.!.n.y.~.}.A.i.A z I ;.X.K L 4.7.v.N.G.[.&X4XJ.J.2X!.u.&X$XZ.j b ,.g.h.V.V.I.B gXgXgXgXgXgXgXgXgX",
"gXgXgXgXgXgXx S.6.N aXBXMX*.L <.>.i.Q.[.A.y.b J d.U qX$.U.Q.T.k.r.L 7.N.Q.&X(.0.(.2Xs.a.$X Xp.> m ,.1.g.l.w.! gXgXgXgXgXgXgXgXgX",
"gXgXgXgXgXfXF  XB.k =.zXkXI W.M.L O.D.8.N.P Z m.y.U aX0XC.A.[.}.oX4XE S A D P D m f.f.M 5.y.5.k - n H >.k.d 0X` 8 8 8 0 ! &.gXgX",
"gXgXgXgXgX0XT ].Q.j ' 0X*.P Q.T O.F.rXiXT K <.Q.a.U zXeXZ. X#X X}.4X`.S p a a a j v N s k k x j s , s d h o < o 8 =.:.qXaX=.-.gX",
"gXgXgXgXgX*.t..XQ.k c #.c W.d.U o.O.F.cXqXG m.G.N.U lXeX~.+X+X+X3X4X9XF C o.#.%.&.;.=.;.;.;.&.;.=.=.=.&.&.#.| | y eXhXhXpXbXr fX",
"gXgXgXgXgX%.d. X}.I - k A Q.y.U O.&.jXzXgXK T.G.M.U lXuX.X+X+X+X4X9X9X+.wXpXpXpXpXaXpXpXuXpXuXpXpXpXpXpXaXaXpXuX..sXNXmXnXMX( gX",
"gXgXgXgXgX#.r.oX X3.s n m.{.i.U $.X.F.nX).S W.G.M.U zXpX#X+X+X+X6X9X9X_.cXnXnXmXMXmXnXmXnXMXmXMXmXmXmXmXmXmXmXbX:.zXBXBXBXBX| gX",
"gXgXgXgXgX#.q.oX XY s x 0.{.C.T U *.fX).P A k.A.c.U zXaX~.+X+X+X+X9X9X_.hXcXcXcXcXvXvXvXvXvXvXvXvXvXvXvXvXvXvXxX=.sXnXNXmXMX| gX",
"gXgXgXgXgX%.0..X|.n s C x W.Q.C.p.9.9.c.y.S w.G.M.U zXsX X+X+X+X+X&X9Xu.0XeXuXuXpXtXuXpXtXtXtXtXtXtXtXtXtXtXtXqX) eXgXgXhXnXr pX",
"gXgXgXgXgX-.F .XQ.l _ %.X.k.}.G.G.G.G.G.i.A 0.[.c.I zXsXZ.$X@XOX X X9XE c +.$.$.@.%.+.+.+.+.O.O._ _ ! C C 0 t 3 5 :.eXyXkXxX5 pX",
"gXgXgXgXgXrXB .X!.k | tXqXJ  X[.G.G.G.G.a.D K T.t.S zXkXb.[.}.[.A.XX(.S d p p p s I T k b D D x - p k b P O gX-.. ~ @.' =.W 0XgX",
"gXgXgXgXfXjX> Q.n.k qXnXnXX.k.m.}.}.[.[.Z.T z e.a.D eX0Xi.Q.Y.Q.W.T.P y.M.T.d.3.T R.f.A m.c.i.s s M H >.j.Z -.fXgXrXwXwXrXgXgXgX",
"gXgXgXgXgXgXo 7.6.I eXBXMX-.5.n.i.a.~. XG.c.D z 0.A ;.*.<.k.e.<.L 4.v.A. X4X(.0.(.,X6./.$X[.,.s M ,.1.2.V.j.- fXgXgXgXgXpXgXgXgX",
"gXgXgXgXgXrX+ k a.w.` nXzXF.l T !.!.y.k.#X}.c.<.D x #.+.H 9.v.b.C.G.G.{.&X`.u.(.2Xi._.4X#Xv.p H >.g.h.V.V.I.P -.gXgXgXgXfXfXgXgX",
"gXgXgX0X;   o p h h > %.-.$.A Q.n.y.,XB.r.#X}.G.c.5.x x Z.G.G.A.G.[.#X$XE.E `.*X9.T.8X&XM.a n H g.V.x.x.'.'.K.0 gXgXgXgXgXgXgXgX",
"gXgX' o Z 0.w.k.z.w.K , $.%.g y.a.b.y.1X~.0.~..X}.A.M.C.G.[.}. X#X$XL.d.E.2X%X7.K.OX#XC.l h w.0.h.V.'.x.x.I.].: gXgXgXgXgXgXgXgX",
"gXgX  G j.2.2.<.<.2.<.L k a x H a 4.C.7.XX-XE.m.k.L.~.~.Q.Y.Y.K.e.T.%X:X1XB.r.oXOX XN.l - a.z.U.x.I.I.I.I.I.].B gXgXgXgXgXgXgXgX",
"gXgXo >.1.2.2.1.3.H H K Y S H 4.9.j P c.9.B.%X:X*X^.E.E.E.~.^.*X:X:X%XB.a.W.$X#X[.c.a * * , > d h G L.Y.I.I.oXR jXgXgXgXgXgXgXgX",
"gXgXo 2.z.h.8.1.H b n n l p p g H A > K c.b.9.p.B.^.%X-X-X%X^.T.m.d.m.~.{.}.{.Z.4.> 1 0 w w w 9 % ; : L.I.I.oXq.qXfXgXgXgXgXgXgX",
"gXgXo z.I.x.>.z K P L P j t.T f <.<.P Z A 5.N.C.N.v.d.d.a.a.T.W.~. X}.A.C.v.4.s O < y y e e w & 2 t ; q.Y.I.Y.H.rXfXgXgXgXgXgXgX",
"gXgXo z.x.x.h 8.n.N.n.b.S !.B.L v.N.M.M.9.I m H 5.p.i.i.p.y.7.6.4.Y A s , ; 1 8 2 e W W W W w 3 y y 9 Z oXoXL.B gXgXgXgXgXgXgXgX",
"gXdXO j.I.k.g b.XXXXXX|.4.1X!.4.S.S.!.S.!.B.p.J I T x Y Y b x - 1 0 & e t r y y 6 y Q ~ Q ~ t w ~ y 0 + f f : rXgXgXgXgXgXgXgXgX",
"gXgX%.- Z h p %X5X6X6X:Xd.1X!.m.:X5X6X6X7X6X5X^.s.f.6.XXXXn.6., 0 y 2 / u W W W 6 u ^ ~ ~ ~ e 6 ( ~ Q t 0 < X gXgXgXgXgXgXgXgXgX",
"gXgXgXpXF.# ; G Q.XX}.^.y.5X^.a.=X=X=X=X=X#X=Xb.!.^.7.#X%Xn.x = ! W 3 w ] / Q Q 9 q ] ^ Q Q W < r ) ~ Q W 2   gXgXgXgXgXgXgXgXgX",
"gXgXgXgX0X6 y # ; p s s f :XJ.> x x B z V l x f n.!., ; , = @ u Q Q W 4 6 [ ~ ~ ~ 4 r ] ~ ~ ~ t & i ( ~ ~ w   gXgXgXgXgXgXgXgXgX",
"gXgXgXgXrX% ^ 6 ^ ) ^ Q @ k ; t ^ t 3 u Q ~ ^ 6 ; , 0 / ) ~ 2 ] ) ) / ^ 6 [ ) ) ( y r [ ) ) ) ) 6 i ] ( ) ~   gXgXgXgXgXgXgXgXgX",
"gXgXgXgXgX` 2 & ] ] [ / $ 1 5 ) ) r % ) ] ) ] 4 1 ^ ) ] ] y # ) ) ) ) y & / ] ) ] q 4 ) ) ] ) ) & r ] ) y # gXgXgXgXgXgXgXgXgXgX",
"gXgXgXgXgXgXrX#.#.@.@.@.%.%.#.#.@.@.o.o.' ' ' ' ' @.@.$.@.@.@.o.' @.| ' ' ' @.@.@.@.@.@.' ' ' ' ' ' ' #.-.fXpXgXgXgXgXgXgXgXgXgX",
"gXgXgXgXgXgXgXgXgXgXgXgXgXgXgXgXgXgXgXgXgXgXgXgXpXfXgXgXgXgXgXgXgXgXgXgXgXgXgXgXgXgXgXgXgXgXgXgXfXgXgXgXgXgXgXgXgXgXgXgXgXgXgXgX",
"gXgXgXgXgXgXgXgXgXgXgXgXgXgXgXgXgXgXgXgXgXgXgXgXgXgXgXgXgXgXgXgXgXgXgXgXgXgXgXgXgXgXgXgXgXgXgXgXgXgXgXgXgXgXgXgXgXgXgXgXgXgXgXgX",
"gXgXgXgXgXgXgXgXgXgXgXgXgXgXgXgXgXgXgXgXgXgXgXgXgXgXgXgXgXgXgXgXgXgXgXgXgXgXgXgXgXgXgXgXgXgXgXgXgXgXgXgXgXgXgXgXgXgXgXgXgXgXgXgX",
"gXgXgXgXgXgXgXgXgXgXgXgXgXgXgXgXgXgXgXgXgXgXgXgXgXgXgXgXgXgXgXgXgXgXgXgXgXgXgXgXgXgXgXgXgXgXgXgXgXgXgXgXgXgXgXgXgXgXgXgXgXgXgXgX",
"gXgXgXgXgXgXgXgXgXgXgXgXgXgXgXgXgXgXgXgXgXgXgXgXgXgXgXgXgXgXgXgXgXgXgXgXgXgXgXgXgXgXgXgXgXgXgXgXgXgXgXgXgXgXgXgXgXgXpXgXgXgXgXgX",
"gXgXgXgXgXgXgXgXgXgXgXgXgXgXgXgXgXgXgXgXgXgXgXgXgXgXgXgXgXgXgXgXgXgXgXgXgXgXgXgXgXgXgXgXgXgXgXgXgXgXgXgXgXgXgXgXgXgXgXgXgXgXgXgX",
"gXgXgXgXgXgXgXgXfXgXgXgXgXgXgXgXgXgXgXgXgXfXgXgXgXgXgXgXgXgXgXgXgXgXgXgXgXgXgXgXgXgXgXgXgXgXgXgXgXgXgXgXgXgXgXgXgXgXgXgXgXgXgXgX",
"gXgXgXgXgXgXgXgXgXgXgXgXgXgXgXgXgXgXgXgXpXfXgXgXgXgXgXgXgXgXgXgXgXgXgXgXgXgXgXgXgXgXgXgXgXgXgXgXgXgXgXgXgXgXgXgXgXgXgXgXgXgXgXgX",
"gXgXgXgXgXgXgXgXgXgXgXgXgXgXgXgXgXgXgXgXgXgXgXgXgXgXgXgXgXgXfXgXgXgXgXgXgXgXgXgXgXgXgXgXgXgXgXgXgXgXgXgXgXgXgXgXgXgXgXgXgXgXgXgX",
"gXgXgXgXgXgXgXgXgXgXgXgXgXgXgXgXgXgXgXgXgXgXgXgXgXgXgXgXgXgXgXgXgXgXgXgXgXgXgXgXgXgXgXgXgXgXgXgXgXgXgXgXgXgXgXgXgXgXgXgXgXgXgXgX",
"fXpXgXgXgXgXgXgXgXgXgXgXgXgXgXgXgXgXgXgXgXgXgXgXgXgXgXgXgXgXgXgXgXgXgXgXgXgXgXgXgXgXgXgXgXgXgXgXgXgXgXgXgXgXgXgXgXgXgXgXgXfXgXgX",
"fXgXgXgXgXgXgXgXgXgXgXgXgXgXgXgXgXgXgXgXgXgXgXgXgXgXgXgXgXgXgXgXgXgXgXgXgXgXgXgXgXgXgXgXgXgXgXgXgXgXgXgXgXgXgXgXgXgXgXgXgXgXgXgX"
};
