/* XPM */
static char *_699c95a4a20487adbe5a71ad798dc09CqV8ImEq6WxRWcET[] = {
/* columns rows colors chars-per-pixel */
"64 64 220 2 ",
"   c #2D5B3D",
".  c #30583F",
"X  c #296338",
"o  c #2B623E",
"O  c #316C3E",
"+  c #31723D",
"@  c #39723E",
"#  c #347A3D",
"$  c #3B783F",
"%  c #2E5744",
"&  c #2E5C43",
"*  c #2E5D49",
"=  c #315745",
"-  c #315D45",
";  c #325D4A",
":  c #385B4B",
">  c #325F52",
",  c #2E6243",
"<  c #2F6D45",
"1  c #2E634B",
"2  c #2E6B4C",
"3  c #326345",
"4  c #386746",
"5  c #346C45",
"6  c #3A6D43",
"7  c #35644B",
"8  c #39644C",
"9  c #366B4C",
"0  c #396B4D",
"q  c #2F7145",
"w  c #357345",
"e  c #3B7545",
"r  c #357A43",
"t  c #3B7D44",
"y  c #36734A",
"u  c #39754C",
"i  c #367A4B",
"p  c #3A7A4D",
"a  c #356451",
"s  c #396552",
"d  c #376D52",
"f  c #3A6C52",
"g  c #3B6959",
"h  c #377452",
"j  c #3B7452",
"k  c #3C7C53",
"l  c #3C7859",
"z  c #4B7F45",
"x  c #417D4C",
"c  c #497D4D",
"v  c #406F54",
"b  c #407054",
"n  c #407D54",
"m  c #40775B",
"M  c #557C5E",
"N  c #567364",
"B  c #567C61",
"V  c #68776E",
"C  c #67786D",
"Z  c #68796F",
"A  c #697770",
"S  c #697970",
"D  c #38843D",
"F  c #3A8E3D",
"G  c #3A933D",
"H  c #3E9C3F",
"J  c #448A3B",
"K  c #4B8B3C",
"L  c #41933E",
"P  c #419F3B",
"I  c #559F3D",
"U  c #4CA537",
"Y  c #44A33E",
"T  c #4BA53B",
"R  c #47AA3D",
"E  c #53AC39",
"W  c #4FB13B",
"Q  c #56B63F",
"!  c #59B63B",
"~  c #5EBA3F",
"^  c #64BD2F",
"/  c #63AD3D",
"(  c #65BD34",
")  c #69BD36",
"_  c #62B63B",
"`  c #6AB73E",
"'  c #66BC3B",
"]  c #69BC3C",
"[  c #65C037",
"{  c #6AC236",
"}  c #6DCB36",
"|  c #65C13A",
" . c #6BC33A",
".. c #66CA3F",
"X. c #6DCB3B",
"o. c #70CB36",
"O. c #71CD3C",
"+. c #72D336",
"@. c #72D23C",
"#. c #378244",
"$. c #3B8345",
"%. c #3C8C43",
"&. c #3C844C",
"*. c #3D8A4A",
"=. c #3D9342",
"-. c #3E9B44",
";. c #3E924A",
":. c #3E9E49",
">. c #378452",
",. c #3D8454",
"<. c #3E8A53",
"1. c #3E8559",
"2. c #3F895A",
"3. c #3D9452",
"4. c #3FA244",
"5. c #3FA148",
"6. c #428445",
"7. c #4A8646",
"8. c #438C44",
"9. c #4B8B42",
"0. c #40864C",
"q. c #428D4B",
"w. c #4A8A4B",
"e. c #508F41",
"r. c #429444",
"t. c #419D45",
"y. c #4D9C42",
"u. c #43944D",
"i. c #4B964B",
"p. c #439D4A",
"a. c #579945",
"s. c #559E45",
"d. c #579D4B",
"f. c #418456",
"g. c #428954",
"h. c #428459",
"j. c #4B865C",
"k. c #43895A",
"l. c #488B5C",
"z. c #57865C",
"x. c #449453",
"c. c #4B9452",
"v. c #459B52",
"b. c #4A9C52",
"n. c #4B975A",
"m. c #5A965C",
"M. c #42A542",
"N. c #42A245",
"B. c #42A346",
"V. c #44A345",
"C. c #43A447",
"Z. c #41A646",
"A. c #4BA443",
"S. c #44AA45",
"D. c #4CAC43",
"F. c #42A349",
"G. c #45A249",
"H. c #42A448",
"J. c #44A44A",
"K. c #49A24B",
"L. c #45A94A",
"P. c #4AA94D",
"I. c #54A645",
"U. c #5CA447",
"Y. c #52AC44",
"T. c #5BAA44",
"R. c #57A648",
"E. c #5AA44A",
"W. c #57AE4A",
"Q. c #5AAA4C",
"!. c #4CB042",
"~. c #52B142",
"^. c #5AB443",
"/. c #5DBB43",
"(. c #59BA45",
"). c #46A250",
"_. c #49A452",
"`. c #45AA51",
"'. c #4AA952",
"]. c #4EA658",
"[. c #5BA856",
"{. c #62AB44",
"}. c #62AC4A",
"|. c #65B445",
" X c #69B545",
".X c #64BB43",
"XX c #6BBC44",
"oX c #66B34B",
"OX c #64BC4B",
"+X c #6DBE4B",
"@X c #64B753",
"#X c #6ABA53",
"$X c #568262",
"%X c #598266",
"&X c #5A8A66",
"*X c #5C8D6B",
"=X c #5B9865",
"-X c #6A836F",
";X c #6A8371",
":X c #768A7B",
">X c #5DA761",
",X c #5DA961",
"<X c #66C244",
"1X c #6CC344",
"2X c #6DCA43",
"3X c #67C64A",
"4X c #6CC44D",
"5X c #6AC949",
"6X c #79C344",
"7X c #71CD42",
"8X c #71C44B",
"9X c #73CB48",
"0X c #6FD241",
"qX c #6FD24B",
"wX c #73D143",
"eX c #72D24A",
"rX c #6EC253",
"tX c #76CC56",
"yX c #77CA59",
"uX c #75D155",
/* pixels */
";X5 < 5 w 6 r F F F F %.*.%.y y y i u y i u p u 8..X' oX7.7 3 < u p i >.n n k 9 7 8 y v.v.G.N.N.N.F.C.C.C.C.C.L.S.<.1.f.f.1.1.f.",
";X5 q 5 5 5 r F F F F F G F r w w y y i u i y p 6.|.( ] 7.: 7 7 l k k k k k k 5 5 7 u p.5.N.H.H.H.H.G.C.M.M.Z.L.P.*.1.0.f.f.h.k.",
";X9 5 9 5 9 r %.F F F F F =.w y w e w u u u i u 6.' ( ' 7.3 3 5 k l k k k >.1.9 9 7 e p.H.F.H.H.M.Y H.C.H.C.C.).K.*.f.g.k.h.h.k.",
"Z 3 5 5 < < r F F F F F =.8.p p p p i u u i u p 6.( ( { a.z c 7.x p k k k k k h d 0 p p.G.F.H.N.C.C.C.C.H.v.p.u.i.<.>.k l ,.k f.",
"Z %   % % . + %.%.F F %.%.=.G G G %.i u u i i u 6.XX( | (  .' |.&.n p p p k &.k &.k *.G.G.C.C.H.C.C.K.C.C.v.5 d 0 s f f f 0 f j ",
"C %   % = % + F G F G =.G G =.G =.$.u u p y p i %.' [ ( ' '  .|.$.p $.k >.k &.k ,.p >.N.G.C.C.C.C.C.C.L.H.v.9 s 9 9 0 f s 0 f g ",
"C .   % = % + %.F %.G G G =.G G r.%.p y u u u u 6..X( { { { { .X6.j k p k k &.k k k &.G.F.C.C.C.C.C.C.M.F.v.5 5 0 f 0 f g d f v ",
"V .   % & - + $.*.#.%.G G =.=.=.=.%.# t r u u u 6.XX{ ( { ( ) ] F 8.8.&.,.&.p ,.&.,.>.N.G.C.C.H.C.C.p.b.n.l.y 0 0 0 s f d d j f ",
"V .   9 w 0 4 X   X $.G G G =.=.=.=.r.=.u.5 3 3 $ XX( { { { )  . .+XXX[.k >.k &.>.x <.N.G.C.C.C.C.H.r q y 9 s 0 0 f 0 f h h.h.j.",
"A - % w q y 4   = & t G G G =.=.G H -.=.r.w 3 7 e ] ( | { ] { {  . . .E ,.k ,.k k k *.G.G.C.C.C.C.H.y 7 d f g 0 s 0 f f f h.<.k.",
"V =   9 y 9 7 - - & $.G G L G =.=.=.-.=.;.5 7 7 e ' { ' { { { {  . . .T.n ,.,.p k ,.*.p.G.H.C.C.C.L.u 9 9 7 s s f s f f f 1.1.f.",
"Z %   9 w 9 5   % - x g.q.u.r.=.=.-.=.=.-.w : 7 e ] { ' { ' {  .{  . .T.D # D f.x n 0.b.p._._.b._._.i 9 9 9 5 9 9 y 9 9 y %.*.%.",
";X0 y 5 w 9 5 - . - o o o X L G =.-.=.=.-.6 ; 3 x ` ) ' { | { {  . .} 1X8X4X#X7.5 a 5 ,.>.&.>.>.>.&.,.h.f.h.f.h.h.h.h.h.c.tXuXtX",
"-X9 w 9 w 9 7 - - - - - & 5 =.=.G -.=.r.;.y ; 3 e ' (  .{  .] {  .{ {  .{ } 2X7.5 s 9 f.>.>.,.,.,.,.,.f.f.,.f.f.h.f.f.f.i.wX@.wX",
"-X9 6 9 w 9 4 & - - - - & 3 r.=.G =.=.;.-.w 8 3 x ] | ' { {  . . . . . . .{ 1X7.4 7 5 p >.&.&.&.,.&.f.,.,.f.f.1.f.1.1.<.x.wX@.9X",
"-Xw 6 w w 9 5 , o &     , 7 r.=.t.=.=.;.x.w - . x #XXX+X]  .|  .1X<X3X1X} } 2X6.5 < 5 1.,.,.f.f.f.,.,.h.1.f.f.f.g.&.*.&.-.wXwXwX",
"-X5 5 y 9 5 y y 9 0 e 0 u 0 i i i #.p i &.i j j u @ e w /  . .' U T U ! } 1X .I.n.i.x.,.,.,.k ,.,.,.f.f.f.f.f.1.&.#X9X3X2XwX@.wX",
"-Xw w 9 y w 9 y y y y w u u w r u p u p p i i k j 7 3 3 / ]  ..XY N.N.~.| 2XX.Y.N.A.p.&.p ,.f.f.,.f.f.,.,.1.f.g.&.rXO.@.wX@.@.wX",
";X9 5 w 9 w w y y y y y y i e y p u u p k k i k l a 7 3 {. . .<XY -.:.~.2X1XX.D.4.M.p.,.f.f.,.,.f.,.f.,.f.h.h.h.<.OX@.+.@.+.@.wX",
";X0 u 6 w w y y y y y y p r r # # w i j u j i i u 3 4 1 {.1X<XOXN.N.4.W.6X6X8XY.4.C.p.>.n ,.,.,.,.f.,.,.1.f.%.0.%.4X@.@.@.@.@.wX",
"C % o 6 w w y 5 y w y y e p oX X XU.r i i u i k j 7 7 a q.t.P P t.t.N.*.5 4 < u.L.M.p.>.k 1.,.f.f.,.,.1.<.i.yXwXeX+.+.wX@.+.@.eX",
"Z - - 9 y y w y y w y u p t _ ( ( s.p j p k i k u , 3 7 %.F.-.-.F.t.t.%.8 4 3 x.M.C.p.&.,.1.,.,.,.f.1.1.&.y.9X7XwXwX@.@.@.@.@.wX",
"A   * 9 y y y y y y y u u $._ _ ^ s.p p p k l i k 7 7 : ;.-.4.N.t.N.N.*.a 8 7 x.C.C.b.*.1.k ,.,.f.,.,.h.f.y.7X@.@.@.@.@.@.@.@.wX",
"A   & 4 y 9 d h h u u u e t _ ' ( I # # # i l i j 1 5 7 ;.t.-.F.F.t.N.*.s 7 5 n.).b.b.&.1.h.n h.,.f.%.$.%.y.eXeXeXwX@.@.@.eXeXeX",
"A - -   , , , & , , y u r $._ _ ^ ` {. XoX9.k p j 1 7 7 ;.-.4.t.N.t.N.*.7 7 s w w w w 9 d w k ,.f.,.#X4XrX3XD.D.W 2X0XwX0XW !.~.",
"Z % & - - - - - ; & 9 u w t _ ' ^ ^ ( ) ] r.i k j 7 7 8 ;.t.t.N.t.N.N.*.4 7 d 5 0 7 s s s 2 j 1.,.>.rXwX@.X.R L.M.5X0XwX2XL.L.P.",
"Z % - - -   - - - & 0 u w $._ ( _ ( ( ) .X9.i k j 1 7 7 q.t.t.F.F.4.:.0.7 9 a 9 a d a d 9 9 j h.f.*.3XO.X...S.L.R 2X@.@.qX!.`.`.",
"Z % =   &   % : ; & f j u z _ _ ) ( ( ' XXr.i i r a 7 5 q.b.p.p.4.5.F.%.2 2 5 7 9 8 0 9 9 d i ,.>.*.5XwX@.5XR L.S.2X+.0X2XP.'.'.",
"Z & - p $.$.e - & , 7 , 3 @ _ ( ( ' ] ' ' A.q.u.q.8 8 7 w w r r p.N.p.t.x.x.u.y s 9 9 9 0 0 g.n.v.p.Y.~.~.!.'.`.L.5X@.wX4Xt p k ",
"Z o , %.G G $.& & & & - & e _ ( ^ ^ ( ) ) T t.-.r.9 7 7 9 7 8 9 b.t.N.N.M.M.N.i s 7 s 9 5 9 *._.L.S.C.L.L.L.L.L.L.5X@.wX8Xu d j ",
"Z   o %.G G t - ; * * - 3 @  X_ _ ( ) ' ] T -.-.;.5 7 a a s a 5 v.N.N.N.H.M.K.p a 0 0 9 0 s *._.L.C.M.S.S.S.S.D.D.5X@.@.1Xu f j ",
"Z % 3 %.=.%.$., , , 1 - - 6 ` ` ` ( ( ' | T t.-.;.7 7 7 8 7 7 w p.4.N.N.H.H.K.p 0 s 7 0 9 s *.L.L.L.L.L.L.L.S.M.L.5XwXeXrX0 f f ",
"A - - *.%.F F $.$.p 6 ; 7 , z 6.J I.] ( ( T t.t.;.a 3 2 5 7 7 w v.t.F.F.F.4.H.j 8 s 9 9 8 0 *.L.L.L.C.L.S.L.P.L.'.~.(.Q ~.j d h ",
"A -   %.=.G G G H G w ; : * 7 ; : K ' { | T -.H ;.5 7 a a a a d v.4.F.F.N.4._.p d f 9 s s 0 q.H.L.H.C.L.L.S.L.L.L.L.L.`.H.y g v ",
"A - 3 %.=.F G G G G w ; ; 1 * 3 ; 9.` ) ' A.=.t.;.2 4 7 a 7 8 y p.Y N.t.F.H._.e s 9 7 9 9 d *.H.L.S.L.L.L.L.L.L.L.L.L.!.p.y g f ",
"A % - %.=.G =.%.r.8.w 3 - * 7 , 3 e.) ) XXT -.-.;.5 7 7 s 7 4 9 b.p.F.F.F.H.).i 9 s 9 9 y 9 *.L.L.L.C.S.L.L.L.!.L.P.'.P.b.h d v ",
"A % 3 F G =.%.#.&.$.y 5 9 0 3 7 7 u K K 9.r.t.t.u.j u h 9 a a 8 p t p $.&.&.$.9 8 0 9 j k l x.P.C.L.S.L.L.L.L.S.`.;.*.&.0.h 9 f ",
"Z &   %.F %.%.# u w h i p u 3 : 7 > ; 7 2 q.p.-.-.k x n h a s 7 9 5 0 8 s 7 0 g 0 0 y h.h.h.u.H.H.L.L.L.L.H.L.L._.&.9 d u g f b ",
"Z & 3 F G =.#.r y i h i w w : 7 3 7 8 8 5 %.t.t.t.p p >.y 7 8 s 9 a 8 5 9 4 5 7 8 0 9 ,.1.1.x.H.L.L.L.L.L.L.L.S.`.p d v f d f b ",
"Z % - 8.G =.%.w i w h i i u 3 7 - ; 7 : 3 q.r.t.x.&.e n d 5 s a 5 7 s 7 5 4 7 0 0 9 9 h.f.1.x.K.H.L.H.L.L.L.L.L._.&.u d f d 9 b ",
"Z & o 8.G =.%.$.*.$.i p w p d 0 9 0 7 : 3 r $.$.p w u h 9 7 s a j j j j j j j j j j l h.f.1.f.q.*.*.q.q.q.q.q.q.g.u d d f d f j ",
"Z - - %.F G =.=.;.r.$.y e k i u u u 3 : 7 3 3 7 7 7 9 7 a a 7 d n k l k k n f.h.h.,.f.f.f.h.j 9 h 9 s f f f f f 0 f f u 9 h d v ",
"Z & 3 %.=.=.=.G =.G $.i y j i i p 9 4 ; ; 7 7 a a 7 a 7 8 7 0 5 n >.,.,.k ,.,.,.,.&.,.f.,.f.k f f g 0 0 0 0 0 v d s h 9 f d d v ",
"Z & - 8.%.=.=.=.G =.&.u u p i p u u 7 7 8 7 7 7 7 7 8 7 7 7 7 9 x &.&.&.&.&.0.,.0.f.&.<.g.&.j f f 0 f f f f f f f h d f f d d b ",
"A - - r r t #.r.=.r.$.u h i u u u y 7 7 7 7 7 7 7 9 7 4 w.a.d.d.E.E.R.R.R.R.R.T.Q.Q.Q.Q.[.W.w.f 0 0 f f f d f d y 9 f 0 f d d b ",
"A - - - & & + =.L G $.h j p p p p 9 7 7 ; 7 7 7 a 7 a 7 }.2X .X. . .6X1X2X2X7X7XX.O.2XX.7X2XE.0 0 s 9 f f f f d d h 0 h j f d b ",
"Z - - % - - # =.L =.#.u u p p p k 9 7 : 7 1 7 a 7 7 8 4 {. .X. .X.X. .X.X.X.X. .O.7X7XO.@.0XE.f v f d f f g f f d f d d d d j v ",
"A - - - - - w r.G ;.#.i u u u u k y 7 7 7 7 7 7 a a 7 4 {.5X| X. .O.X.X.X.} X.O.X.O.7X7Xo.7XE.0 f f f f v f f f f f g j g d f v ",
"S < 3 & - - 5 $.$.&.r i u i j p u y 7 : 7 7 a 7 d K 9.9.T./.~ ' | .X.X ...O.O.X.X.} 7XOX|.@Xd.j u l j j j j j j j j d g d d g l ",
";Xy 9 , - - ; ,   , y u i u u p k y 7 7 7 7 7 7 p XX1X1XE Y V.N.N.C.M.^.2XX.X.X.@.X.XX$.,.*.<.f.g.h.1.h.f.h.k.f.h.i d d j d d v ",
";Xw w & ; ; - 3 ; 7 y p i i u k k 9 7 7 7 7 7 7 x  .{ X.D.N.4.F.5.F.C.^.2XX.} X.} +.1X<.1.,.g.1.*.1.1.,.<.1.2.1.h.l d d f d d b ",
";Xq y 3 & - - - ; , 0 u y i u p p 0 7 8 : 3 7 3 t XX .{ Y.N.:.F.N.N.C.~.2XO.} 7XX.X.1Xg.1.f.f.f.h.1.f.f.f.h.<.<.f.j d d f d f j ",
";Xw y 9 3 5 4 - ; 7 7 5 5 9 p p k 9 7 : 4 k $.&.q.! ^.~.C.C.G.N.~.^./.| O.X.2XT.E.U.d.b k k j l k j k j n &.v.).c.k f f g g f j ",
";Xw w y y u 0 - ; ; - 3 3 7 j p p y 3 7 , g.p.t.p.P P 4.t.t.t.A.2XX...2Xo.X.8XK d 5 6 f 0 9 0 9 f 9 h f u p '.S.].&.f f f j f b ",
";Xy w 9 y u 7 , ; ; : 3 7 ; u p k 9 7 8 3 r.t.t.t.t.t.N.C.N.t.R  .o.{ 2Xo.1X5X7.4 0 0 g f f f f f 0 9 f s p P.S._.&.f f f j f b ",
";Xy y h y u 4 , * ; ; - 7 7 u k p 9 7 ; 5 q.t.t.t.:.N.t.p.V.N.T 2X .X.2Xo.7X9X7.0 0 9 9 9 f s f f f h s f p '.S.'.p d y f f f v ",
"-Xy y y y h 9 - - 7 7 ; ; ; d f 0 5 7 8 3 =.-.t.t.:.N.F.t.N.t.R (././._ }.}.}.6.9 s 9 9 9 f f u k j 0.0.*.;.`.`.'.&.j j j l j l ",
";X9 w y w y 9 , 7 & ; , 7 7 3 7 7 7 7 ; 4 q.t.t.t.t.t.t.F.t.G.t.V.C.M.0.9 5 5 s 9 d d 0 s 9 l f.1.1.b.'.`.`.!.`.P.x.k.k.k.k.k.l.",
";Xy w y w y 5 ; * 7 ; & ; , 7 ; ; a 7 : 7 q.t.-.4.t.N.:.t.F.F.F.N.N.G.q.7 g 9 s 9 s s f f 9 k g.,.1.H.L.L.L.L.4.P.x.1.k.2.2.3.l.",
";Xw w y u u 0 & % - : 7 ; 7 ; 7 7 ; 7 7 < *.t.:.4.4.4.4.-.N.4.N.F.N.G.q.d d 9 a 9 0 0 s s h l f.<.1.L.L.L.L.`.`.L.x.1.f.2.k.f.l.",
";Xy w y h u 9 5 O O < 7 7 7 4 5 7 5 , 5 w &.u.g.u.u.u.u.u.u.x.u.u.u.u.0.a 9 5 d s 9 h 0 y h &.u.;.*.`.H.L.L.`.L.L.x.1.g.k.k.k.l.",
";Xy w y u w $.r.;.u.#.i i p p j u k k l m 5 , 7 3 7 7 7 7 9 7 5 5 5 4 9 g s 9 a s 9 9 h.h.,.x.K.H.L.`.L.L.L.L.L.P.x.h.g.<.2.2.k.",
";Xy 6 y y y #.r.=.G #.u u p i h i k p k l 4 3 7 7 7 7 7 8 7 7 a 7 9 0 a d s s 9 9 d 9 f.1.,.v.H.C.L.L.L.L.L.L.`.L.3.2.1.k.k.2.k.",
":XB B B B M z.m.m.m.z.$XB $X$X$X%X$X%X%X%XM N M N N N N N N N N N N N N N N N N N N B &X&X&X=X,X,X>X,X,X,X,X,X,X,X=X*X*X*X*X*X*X"
};
