/* XPM */
static char *_47d93898dc247749d7a3bbc3000d0aao2wyUjEgQCxjBLw7[] = {
/* columns rows colors chars-per-pixel */
"64 64 129 2 ",
"   c #151E1E",
".  c #181C1D",
"X  c #28311D",
"o  c #151F20",
"O  c #172224",
"+  c #192426",
"@  c #1C2629",
"#  c #1D2A2D",
"$  c #1E2E30",
"%  c #202627",
"&  c #212728",
"*  c #212B2D",
"=  c #302D20",
"-  c #313A21",
";  c #353428",
":  c #212F32",
">  c #282F30",
",  c #213135",
"<  c #293335",
"1  c #263539",
"2  c #29363A",
"3  c #27393D",
"4  c #2A3A3D",
"5  c #303738",
"6  c #343D3D",
"7  c #49442F",
"8  c #48582F",
"9  c #5D583D",
"0  c #566539",
"q  c #586B3A",
"w  c #6C643D",
"e  c #2C3E42",
"r  c #303E40",
"t  c #2D4146",
"y  c #324144",
"u  c #3C4446",
"i  c #3E4749",
"p  c #37494B",
"a  c #3A4C4D",
"s  c #3C4F51",
"d  c #3E5153",
"f  c #3A535A",
"g  c #444747",
"h  c #444C4D",
"j  c #415456",
"k  c #435658",
"l  c #45595B",
"z  c #4C5B5C",
"x  c #555C5D",
"c  c #595B5C",
"v  c #6F5B5C",
"b  c #725E5F",
"n  c #6B6242",
"m  c #637642",
"M  c #667944",
"N  c #4A5F61",
"B  c #4D6365",
"V  c #556162",
"C  c #5C6565",
"Z  c #506769",
"A  c #536A6C",
"S  c #5E6B6C",
"D  c #5A7475",
"F  c #636566",
"G  c #656768",
"H  c #66696A",
"J  c #696B6B",
"K  c #716262",
"L  c #6D6F70",
"P  c #6E7171",
"I  c #657E7E",
"U  c #727474",
"Y  c #7B7B7B",
"T  c #8E4F4F",
"R  c #934E4E",
"E  c #805757",
"W  c #855858",
"Q  c #806061",
"!  c #988E5E",
"~  c #A0935E",
"^  c #A69A66",
"/  c #668182",
"(  c #698586",
")  c #6B8788",
"_  c #6E8989",
"`  c #728E8E",
"'  c #748F90",
"]  c #769495",
"[  c #799697",
"{  c #779798",
"}  c #7A9798",
"|  c #7B9A9B",
" . c #7FA0A1",
".. c #818282",
"X. c #8D8E8F",
"o. c #949595",
"O. c #959696",
"+. c #969796",
"@. c #969797",
"#. c #979897",
"$. c #979798",
"%. c #979898",
"&. c gray60",
"*. c #9D9D9D",
"=. c #9F9F9F",
"-. c #80A1A1",
";. c #82A3A3",
":. c #82A4A4",
">. c #84A5A6",
",. c #85A7A8",
"<. c #86A9A9",
"1. c #88AAAB",
"2. c #8AADAE",
"3. c #8BAEAF",
"4. c #8EB2B3",
"5. c #8FB4B5",
"6. c #91B5B6",
"7. c #92B7B8",
"8. c #93B8B9",
"9. c #93BABA",
"0. c #95BABB",
"q. c #96BDBE",
"w. c #97BEBF",
"e. c #98BEBF",
"r. c gray63",
"t. c #A2A2A2",
"y. c #9CC3C4",
"u. c #A2CBCC",
"i. c #A5CFD0",
/* pixels */
"t.t.t.t.t.t.t.t.t.t.t.t.t.t.t.t.t.t.t.t.t.t.t.t.t.t.t.t.t.t.t.t.t.t.t.t.t.t.t.t.t.=.t.t.=.t.t.t.t.t.t.t.t.t.t.t.t.t.t.t.t.t.t.t.",
"t.t.t.t.t.t.t.t.t.*.< & & & % + @ # # # # # # # # # # # # # # # # # # # # # + # # # # # # # # # # # $ $ $ $ u t.t.t.t.t.t.t.t.t.",
"t.t.t.t.t.t.t.t.t...& & & & & & # , $ $ $ $ , , $ , $ , , , , , : , , , $ , , : , , , , , # , $ $ , , , , , $ X.t.t.t.t.t.t.t.t.",
"t.t.t.t.t.t.t.t.t.c & & & * , : , , , 1 p d d d k l l B B Z A A Z A Z B N l l k d d s d e , , , 1 , , , , , , P t.t.t.t.t.t.t.t.",
"t.t.t.t.t.t.t.t.$.& & & & & , , , , 1 3 ]  . . . .>.>.<.3.5.8.q.w.8.4.3.<.:.;.;. . . . .D 1 , , , , , , , , , a t.t.t.t.t.t.t.t.",
"t.t.t.t.t.t.t.t.Y & & & & * : , , , , # + O @ @ # # * * * * < * * * * * : * @ @ + + + + + # , $ , , , , , , , 1 X.t.t.t.t.t.t.t.",
"t.t.t.t.t.t.t.t.g % & : , , , , , , #   + O O o O O O O O O O O O O O O O O + O O O O O +   # 1 , , , , , , , , P t.t.t.t.t.t.t.",
"t.t.t.t.t.t.t.&.o @ : , 1 , , , , $   $ t f f f f f f f f f f f f f f f f f f f f f f t 3 + O $ , , , , , , , , i t.t.t.t.t.t.t.",
"t.t.t.t.t.t.t.$.@ * $ , , , , , $ O # 3 1 t t t e e e e e e e e t t t e t t t t t t 4 2 3 3 O o $ , , , , , $ # + t.t.t.t.t.t.t.",
"t.t.t.t.t.t.t.&.+ # , , , , , ,   O < 3 1 3 3 t e 3 e e e e e e 4 4 2 < 2 3 1 < , 2 2 1 3 e 2 o + , , , , $ $ # O t.t.t.t.t.t.t.",
"t.t.t.t.t.t.t.$.+ # $ , , , , O   < * 3 # $ $ $ $ # $ $ # $ $ $ $ $ $ $ $ $ $ # $ $ $ $ 3 t < # O + # , , , $ # O t.t.t.t.t.t.t.",
"t.t.t.t.t.t.t.$.+ $ , , , , O o < * < < < 4 e 3 e 4 4 3 e e e 4 2 < < 2 2 4 4 3 4 2 2 4 4 2 * # # o # , 3 , $ # O t.t.t.t.t.t.t.",
"t.t.t.t.t.t.t.$.+ # : , , @ o U %.%.%.%.%.%.#.#.&.@.#.#.&.@.@.$.%.#.#.@.@.@.#.#.#.#.#.#.#.@.#.@.o.C o $ # $ $ # O t.t.t.t.t.t.t.",
"t.t.t.t.t.t.t.$.O $ , : e $ x t.t.t.t.t.t.t.t.t.t.t.t.t.t.t.r.t.t.t.t.t.t.=.t.t.t.t.t.t.t.=.t.t.=.=.h , t , t # O t.t.t.t.t.t.t.",
"t.t.t.t.t.t.t.$.+ $ , 1 ,.: J t.t.t.t.t.t.t.t.t.t.t.t.t.t.t.t.t.t.t.t.t.t.t.t.t.t.t.t.t.t.t.t.t.r.r.F ( D $ $ # O t.t.t.t.t.t.t.",
"t.t.t.t.t.t.t.$.+ # : : 7.$ J t.t.t.t.t.t.t.t.t.t.t.t.t.t.t.t.t.t.t.t.t.t.t.t.t.t.t.t.t.t.t.t.t.r.t.F ] / , $ # + t.t.t.t.t.t.t.",
"t.t.t.t.t.t.t.&.+ # $ , q., J t.t.t.t.t.t.t.t.t.t.t.t.t.t.t.t.t.t.t.t.t.t.t.t.t.t.t.t.t.t.t.t.t.r.t.F ] / , $ #   t.t.t.t.t.t.t.",
"t.t.t.t.t.t.t.$.+ # , , 0.1 J t.t.t.t.t.t.t.t.t.t.t.t.t.t.t.t.t.t.t.t.t.t.t.t.t.t.t.t.t.t.t.t.t.t.t.F ] / $ $ # + t.t.t.t.t.t.t.",
"t.t.t.t.t.t.t.&.O $ : 1 6.< J t.t.t.t.t.t.t.t.t.t.t.t.t.t.t.t.t.t.t.t.t.t.t.t.t.t.t.t.t.t.t.t.t.t.t.F ] ( H J J 1 r.t.t.t.t.t.t.",
"t.t.t.t.t.t.t.$.O $ : 1 6.3 J t.t.t.t.t.t.t.t.t.t.t.t.t.t.t.t.t.t.t.t.t.t.t.t.t.t.t.t.t.t.t.t.t.t.r.F ] ` ; 7 X h r.t.t.t.t.t.t.",
"t.t.t.t.t.t.t.&.O $ $ 1 6.4 J t.t.t.t.t.t.t.t.t.t.t.t.t.t.t.t.t.t.t.t.t.t.t.t.t.t.t.t.t.t.t.t.t.t.t.F ] _ n ! w 4 t.t.t.t.t.t.t.",
"t.t.t.t.t.t.t.&.+ # , 3 6.4 J t.t.t.t.t.t.t.t.t.t.t.t.t.t.t.t.t.t.t.t.t.t.t.t.t.t.t.t.t.t.t.t.t.t.t.F ] _ ! m q y t.t.t.t.t.t.t.",
"t.t.t.t.t.t.t.&.+ $ : 2 6.6 H t.t.t.t.t.t.t.t.t.t.t.t.t.t.t.t.t.t.t.t.t.t.t.t.t.t.t.t.t.t.t.t.t.t.t.G ] _ ^ M q 6 t.t.t.t.t.t.t.",
"t.t.t.t.t.t.t.&.+ # , 3 6.y H t.t.t.t.t.t.t.t.t.t.t.t.t.t.t.t.t.t.t.t.t.t.t.t.t.t.t.t.t.t.t.t.t.t.t.G ] _ ~ 0 8 6 t.t.t.t.t.t.t.",
"t.t.t.t.t.t.t.@.+ # $ e 6.y J t.t.t.t.t.t.t.t.t.t.t.t.t.t.t.t.t.t.t.t.t.t.t.t.t.t.t.t.t.t.t.t.t.t.t.G [ ` 9 - X g t.t.t.t.t.t.t.",
"t.t.t.t.t.t.t.&.+ # : 3 7.u J t.t.t.t.t.t.t.t.t.t.t.t.t.t.t.t.t.t.t.t.t.t.t.t.t.t.t.t.t.t.t.t.t.t.t.G { ( C C V < t.t.t.t.t.t.t.",
"t.t.t.t.t.t.t.&.+ $ : e 7.p J t.t.t.t.t.t.t.t.t.t.t.t.t.t.t.t.t.t.t.t.t.t.t.t.t.t.t.t.t.t.t.t.t.t.t.G { ( y y 6 # t.t.t.t.t.t.t.",
"t.t.t.t.t.t.t.$.+ # : 4 6.a J r.t.t.t.t.t.t.t.t.t.t.t.t.t.t.t.t.t.t.t.t.t.t.t.t.t.t.t.t.t.t.t.t.t.t.G { ` u 6 u x t.t.t.t.t.t.t.",
"t.t.t.t.t.t.t.$.O $ , e 0.s J r.t.t.t.t.t.t.t.t.t.t.t.t.t.t.t.t.t.t.t.t.t.t.t.t.t.t.t.t.t.t.t.t.t.t.G | ' 6 > 6 z t.t.t.t.t.t.t.",
"t.t.t.t.t.t.t.&.O # , e q.h J t.t.t.t.t.t.t.t.t.t.t.t.t.t.t.t.t.t.t.t.t.t.t.t.t.t.t.t.t.t.t.t.t.t.t.H | ' b S K z t.t.t.t.t.t.t.",
"t.t.t.t.t.t.t.$.+ # $ e e.j J r.t.t.t.t.t.t.t.t.t.t.t.t.t.t.t.t.t.t.t.t.t.t.t.t.t.t.t.t.t.t.t.t.t.t.H | ] R C T x t.t.t.t.t.t.t.",
"t.t.t.t.t.t.t.&.+ $ , e e.k H t.t.t.t.t.t.t.t.t.t.t.t.t.t.t.t.t.t.t.t.t.t.t.t.t.t.t.t.t.t.t.t.t.t.t.H  .{ b H b x t.t.t.t.t.t.t.",
"t.t.t.t.t.t.t.%.o * , t w.N J r.t.t.t.t.t.t.t.t.t.t.t.t.t.t.t.t.t.t.t.t.t.t.t.t.t.t.t.t.t.t.t.t.t.t.H -.} R C R C t.t.t.t.t.t.t.",
"t.t.t.t.t.t.t.&.o * , 4 y.N G r.t.t.t.t.t.t.t.t.t.t.t.t.t.t.t.t.t.t.t.t.t.t.t.t.t.t.t.t.t.t.t.t.t.t.H ;.} E G b x t.t.t.t.t.t.t.",
"t.t.t.t.t.t.t.%.# # , t u.N J r.t.t.t.t.t.t.t.t.t.t.t.t.t.t.t.t.t.t.t.t.t.t.t.t.t.t.t.t.t.t.t.t.t.t.H >.| E G W z t.t.t.t.t.t.t.",
"t.t.t.t.t.t.t.#.@ # # t u.N J r.t.t.t.t.t.t.t.t.t.t.t.t.t.t.t.t.t.t.t.t.t.t.t.t.t.t.t.t.t.t.t.t.t.t.J >.| 6 5 2 > =.t.t.t.t.t.t.",
"t.t.t.t.t.t.t.&.o $ , t i.N G r.t.t.t.t.t.t.t.t.t.t.t.t.t.t.t.t.t.t.t.t.t.t.t.t.t.t.t.t.t.t.t.t.t.t.J 1.| 1 # # + t.t.t.t.t.t.t.",
"t.t.t.t.t.t.t.#.@ # e e i.N J r.t.t.t.t.t.t.t.t.t.t.t.t.t.t.t.t.t.t.t.t.t.t.t.t.t.t.t.t.t.t.t.t.t.t.J <.| 1 , # o t.t.t.t.t.t.t.",
"t.t.t.t.t.t.t.&.o # # e i.N J t.t.t.t.t.t.t.t.t.t.t.t.t.t.t.t.t.t.t.t.t.t.t.t.t.t.t.t.t.t.t.t.t.t.t.J 1.| , , # + t.t.t.t.t.t.t.",
"t.t.t.t.t.t.t.&.@ # < e i.N G t.t.t.t.t.t.t.t.t.t.t.t.t.t.t.t.t.t.t.t.t.t.t.t.t.t.t.t.t.t.t.t.t.t.t.L ,.{ 1 , # + t.t.t.t.t.t.t.",
"t.t.t.t.t.t.t.%.@ # $ 4 i.N G t.t.t.t.t.t.t.t.t.t.t.t.t.t.t.t.t.t.t.t.t.t.t.t.t.t.t.t.t.t.t.t.t.t.=.L ,.{ # $ # o t.t.t.t.t.t.t.",
"t.t.t.t.t.t.t.&.@ # $ t u.N G r.t.t.t.t.t.t.t.t.t.t.t.t.t.t.t.t.t.t.t.t.t.t.t.t.t.t.t.t.t.t.t.t.t.=.L  .{ t $ $ + t.t.t.t.t.t.t.",
"t.t.t.t.t.t.t.#.@ # , 6 y.N G r.t.t.t.t.t.t.t.t.t.t.t.t.t.t.t.t.t.t.t.t.t.t.t.t.t.t.t.t.t.t.t.t.t.t.L -.{ , $ $ O t.t.t.t.t.t.t.",
"t.t.t.t.t.t.t.&.O # , t y.l G r.t.t.t.t.t.t.t.t.t.t.t.t.t.t.t.t.t.t.t.t.t.t.t.t.t.t.t.t.t.t.t.t.t.t.H  .` t $ # O t.t.t.t.t.t.t.",
"t.t.t.t.t.t.t.#.o $ , 4 e.k G t.t.t.t.t.t.t.t.t.t.t.t.t.t.t.t.t.t.t.t.t.t.t.t.t.t.t.t.t.t.t.t.t.t.t.L -.' $ , # O t.t.t.t.t.t.t.",
"t.t.t.t.t.t.t.&.+ # , t w.j G t.t.t.t.t.t.t.t.t.t.t.t.t.t.t.t.t.t.t.t.t.t.t.t.t.t.t.t.t.t.t.t.t.t.t.L | ' , , $ O t.t.t.t.t.t.t.",
"t.t.t.t.t.t.t.#.o , , 4 w.d G t.t.t.t.t.t.t.t.t.t.t.t.t.t.t.t.t.t.t.t.t.t.t.t.t.t.t.t.t.t.t.t.t.t.t.U { ' , $ # O t.t.t.t.t.t.t.",
"t.t.t.t.t.t.t.&.o # , t 0.s G t.t.t.t.t.t.t.t.t.t.t.t.t.t.t.t.t.t.t.t.t.t.t.t.t.t.t.t.t.t.t.t.t.t.t.L | _ , , # O t.t.t.t.t.t.t.",
"t.t.t.t.t.t.t.&.@ # $ e 7.s G t.t.t.t.t.t.t.t.t.t.t.t.t.t.t.t.t.t.t.t.t.t.t.t.t.t.t.t.t.t.t.t.t.t.t.L | ( , , # O t.t.t.t.t.t.t.",
"t.t.t.t.t.t.t.$.  # # e 7.r G t.t.t.t.t.t.t.t.t.t.t.t.t.t.t.t.t.t.t.t.t.t.t.t.t.t.t.t.t.t.t.t.t.t.t.P } ( , , $ + t.t.t.t.t.t.t.",
"t.t.t.t.t.t.t.@.@ # , e 0.p G t.t.t.t.t.t.t.t.t.t.t.t.t.t.t.t.t.t.t.t.t.t.t.t.t.t.t.t.t.t.t.t.t.t.t.P { ( , $ # o t.t.t.t.t.t.t.",
"t.t.t.t.t.r.t.&.+ # , e 6.e F t.t.t.t.t.t.t.t.t.t.t.t.t.t.t.t.t.t.t.t.t.t.t.t.t.t.t.t.t.t.t.t.t.t.r.U ] ( , $ # # r.t.t.t.t.t.t.",
"t.t.t.t.t.t.t.#.o # : e 6.6 G t.t.t.t.t.t.t.t.t.t.t.t.t.t.t.t.t.t.t.t.t.t.t.t.t.t.t.t.t.t.t.t.t.t.t.P ] ( , , # o t.t.t.t.t.t.t.",
"t.t.t.t.t.t.t.&.o # : 1 6.e G t.t.t.t.t.t.t.t.t.t.t.t.t.t.t.t.t.t.t.t.t.t.t.t.t.t.t.t.t.t.t.t.t.t.t.U ] / , $ # + t.t.t.t.t.t.t.",
"t.t.t.t.t.t.t.&.o , , 1 5.r G t.t.t.t.t.t.t.t.t.t.t.t.t.t.t.t.t.t.t.t.t.t.t.t.t.t.t.t.t.t.t.t.t.t.t.U ] / , , # o t.t.t.t.t.t.t.",
"t.t.t.t.t.t.t.#.o : , 1 5.2 G t.t.t.t.t.t.t.t.t.t.t.t.t.t.t.t.t.t.t.t.t.t.t.t.t.t.t.t.t.t.t.t.t.t.t.U ] / , , # + t.t.t.t.t.t.t.",
"t.t.t.t.t.t.t.&.o & : 1 6.2 G t.t.t.t.t.t.t.t.t.t.t.t.t.t.t.t.t.t.t.t.t.t.t.t.t.t.t.t.t.t.t.t.t.t.t.U ] D t , # + t.t.t.t.t.t.t.",
"t.t.t.t.t.t.t.&.. @ : 1 6.1 F t.t.t.t.t.t.t.t.t.t.t.t.t.t.t.t.t.t.t.t.t.t.t.t.t.t.t.t.t.t.t.t.t.t.=.U ] I , $ # + t.t.t.t.t.t.t.",
"t.t.t.t.t.t.t.&.. % * 1 6.< F t.t.t.t.t.t.t.t.t.t.t.t.t.t.t.t.t.t.t.t.t.t.t.t.t.t.t.t.t.t.t.t.t.t.t.U } I * * # + t.t.t.t.t.t.t.",
"t.t.t.t.t.t.t.&..   * * 6.* F t.t.t.t.t.t.t.t.t.t.t.t.t.t.t.t.t.t.t.t.t.t.t.t.t.t.t.t.t.t.t.t.t.t.t.U { I % , % o t.t.t.t.t.t.t.",
"t.t.t.t.t.t.t.&.o % & % 0.: F t.t.t.t.t.t.t.t.t.t.t.t.t.t.t.t.t.t.t.t.t.t.t.t.t.t.t.t.t.t.t.t.t.t.t.U } I % * % o t.t.t.t.t.t.t.",
"t.t.t.t.t.t.t.&.. o % % 0.: F t.t.t.t.t.t.t.t.t.t.t.t.t.t.t.t.t.t.t.t.t.t.t.t.t.t.t.t.t.t.t.t.t.t.t.U } / % & O o t.t.t.t.r.t.t.",
"t.t.t.t.t.t.t.&.. % % % <.# F r.t.t.t.t.t.t.t.t.t.t.t.t.t.t.t.t.t.t.t.t.t.t.t.t.t.t.t.t.t.t.t.t.t.t.U } I % % o o r.t.t.t.t.t.t.",
"t.t.t.t.t.t.t.t._ Q ......X.r.r.t.t.t.t.t.t.t.t.t.t.t.t.t.t.t.t.t.t.t.t.t.t.t.t.t.t.t.t.t.t.t.t.t.t.&.G c c c c c r.t.t.t.t.t.t."
};
