/* XPM */
static char *ca2d07b9a8334ce8b5b60da87d2af8499swJvopnLL4UDtwS[] = {
/* columns rows colors chars-per-pixel */
"64 64 236 2 ",
"   c #080808",
".  c #120E0A",
"X  c #12110D",
"o  c #030C16",
"O  c #0A131A",
"+  c #151717",
"@  c #1C1A14",
"#  c #1B1C1C",
"$  c #221E18",
"%  c #24211B",
"&  c #2A241E",
"*  c #0A1927",
"=  c #151E27",
"-  c #081E35",
";  c #18232A",
":  c #0C2C34",
">  c #0A2439",
",  c #142639",
"<  c #252423",
"1  c #2B2927",
"2  c #332C25",
"3  c #332E29",
"4  c #353127",
"5  c #35322D",
"6  c #3B342C",
"7  c #262E36",
"8  c #373635",
"9  c #3B3632",
"0  c #3C3A34",
"q  c #413A2E",
"w  c #423C35",
"e  c #453E38",
"r  c #4A4437",
"t  c #45413C",
"y  c #4B433C",
"u  c #534A3C",
"i  c #5B503F",
"p  c #0C2543",
"a  c #0D2A49",
"s  c #132A48",
"d  c #0D314D",
"f  c #13374B",
"g  c #0E2E51",
"h  c #0E3759",
"j  c #133355",
"k  c #1A3557",
"l  c #13355B",
"z  c #133A5D",
"x  c #1B3B5C",
"c  c #353C4C",
"v  c #163C63",
"b  c #1A3B65",
"n  c #193C69",
"m  c #1B3F71",
"M  c #223F63",
"N  c #114457",
"B  c #20455D",
"V  c #38435B",
"C  c #0D4567",
"Z  c #144269",
"A  c #1B446B",
"S  c #1C4A6D",
"D  c #19586A",
"F  c #0E4E70",
"G  c #1B4473",
"H  c #1B4B74",
"J  c #184976",
"K  c #1C4D7C",
"L  c #19557B",
"P  c #254867",
"I  c #354B66",
"U  c #234B78",
"Y  c #25567A",
"T  c #156676",
"R  c #27617B",
"E  c #4E4741",
"W  c #4F4A43",
"Q  c #444548",
"!  c #524C44",
"~  c #544E46",
"^  c #5C5345",
"/  c #595447",
"(  c #5C554A",
")  c #4D4E58",
"_  c #535457",
"`  c #5C5D5E",
"'  c #625A4A",
"]  c #695E4C",
"[  c #635F5A",
"{  c #6B604D",
"}  c #6B6454",
"|  c #746956",
" . c #766C59",
".. c #485366",
"X. c #5D5E63",
"o. c #585B66",
"O. c #5E626A",
"+. c #636466",
"@. c #696767",
"#. c #64636A",
"$. c #6A6A6C",
"%. c #72706E",
"&. c #6D7275",
"*. c #7B7473",
"=. c #777879",
"-. c #847D79",
";. c #8B877B",
":. c #1C4A82",
">. c #1E4B89",
",. c #1C5787",
"<. c #1F4F92",
"1. c #1E5698",
"2. c #224B83",
"3. c #225484",
"4. c #225B84",
"5. c #2B5688",
"6. c #245C8D",
"7. c #245796",
"8. c #235D93",
"9. c #1B648B",
"0. c #1A778C",
"q. c #1A6797",
"w. c #1D739B",
"e. c #1C7498",
"r. c #256689",
"t. c #29768C",
"y. c #246494",
"u. c #276897",
"i. c #236B9B",
"p. c #336F91",
"a. c #257499",
"s. c #377A99",
"d. c #2159A7",
"f. c #235EB1",
"g. c #1B6BA7",
"h. c #1B77AB",
"j. c #1E6CB3",
"k. c #1B78B5",
"l. c #1A7CBB",
"z. c #266CA5",
"x. c #2868A7",
"c. c #2A6CA5",
"v. c #316BA7",
"b. c #2777A8",
"n. c #2972AD",
"m. c #3479A8",
"M. c #2167B3",
"N. c #2A75B3",
"B. c #2979B6",
"V. c #2A7CBB",
"C. c #337AB5",
"Z. c #576781",
"A. c #707B88",
"S. c #2B7DC3",
"D. c #178397",
"F. c #34899A",
"G. c #1C87A8",
"H. c #1C91AE",
"J. c #1D8EB0",
"K. c #1682BD",
"L. c #1981BC",
"P. c #1D97B7",
"I. c #2687A9",
"U. c #2F91AA",
"Y. c #2688B9",
"T. c #3987B8",
"R. c #2696B9",
"E. c #3595BC",
"W. c #3BAEAF",
"Q. c #7C848B",
"!. c #4EA3A1",
"~. c #44C5B8",
"^. c #178CC0",
"/. c #1998C3",
"(. c #2A83C3",
"). c #278CC5",
"_. c #298CC5",
"`. c #368EC5",
"'. c #2897C7",
"]. c #249BC4",
"[. c #3696C5",
"{. c #1CA7C9",
"}. c #1EB2CE",
"|. c #15BED5",
" X c #1ABAD3",
".X c #27A5C9",
"XX c #21ACCD",
"oX c #36A6C8",
"OX c #2AB6C8",
"+X c #32B4CB",
"@X c #2EA8D1",
"#X c #36A9D1",
"$X c #2CB4D7",
"%X c #37BADA",
"&X c #4299C8",
"*X c #44A9D7",
"=X c #45B8D0",
"-X c #18C0D4",
";X c #36CECA",
":X c #35C1DE",
">X c #31C3E1",
",X c #38C4E0",
"<X c #47C1CD",
"1X c #44DAC6",
"2X c #49E8C4",
"3X c #858686",
"4X c #8C8E8B",
"5X c #908F8D",
"6X c #99978C",
"7X c #979797",
"8X c #9D9994",
"9X c #A0998F",
"0X c #A29D95",
"qX c #99A19F",
"wX c #AAA797",
"eX c #ADAA95",
"rX c #B5B499",
"tX c #9C9FA1",
"yX c #9EA1A3",
"uX c #A1A2A2",
"iX c #A2A2A2",
"pX c gray64",
"aX c #AAAAA5",
"sX c #A7A9AA",
"dX c #B7B6A4",
"fX c #CAC59F",
"gX c #C9C4A2",
"hX c #D6D1AB",
"jX c #DBD5B2",
"kX c #DED9B3",
"lX c #E4DFB2",
"zX c #EAE4B4",
"xX c #EFE9B6",
"cX c #F2EBB6",
"vX c #F1EBB9",
"bX c #F9F0B5",
/* pixels */
"iXiXiXiXiXiXiXiXiXiXiXiXiXiXiXiXiXiXiXiXiXiXiXiXiXiXiXiXiXiXiXiXiXiXiXiXiXiXiXiXiXiXiXiXiXiXiXiXiXiXiXiXiXiXiXiXiXiXiXiXiXiXiXiX",
"iXiXiXiXiXiXiXiXiXiXiXiXiXiXiXiXiXiXiXiXiXiXiXiXiXiXiXiXiXiXiXiXiXiXiXiXiXiXiXiXiXiXiXiXiXiXiXiXiXiXiXiXiXiXiXiXiXiXiXiXiXiXiXiX",
"iXiXiXiXiXiXiXiXiXiXiXiXiXiXiXiXiXiXiXiXiXiXiXiXiXiXiXiXiXiXiXiXiXiXiXiXiXiXiXiXiXiXiXiXiXiXiXiXiXiXiXiXiXiXiXiXiXiXiXiXiXiXiXiX",
"iXiXiXiXiXiXiXiXiXiXiXiXiXiXiXiXiXiXiXiXiXiXiXiXiXiXiXiXiXiXiXiXiXiXiXiXiXiXiXiXiXiXiXiXiXiXiXiXiXiXiXiXiXiXiXiXiXiXiXiXiXiXiXiX",
"iXiXiXiXiXiXiXiXiXiXiXiXiXiXiXiXiXiXiXiXiXiXiXiXiXiXiXiXiXiXiXiXiXiXiXiXiXiXiXiXiXiXiXiXiXiXiXiXiXiXiXiXiXiXiXiXiXiXiXiXiXiXiXiX",
"iXiXiXiXiXiXiXiXiXiXiXiXiXiXiXiXiXiXiXiXiXiXiXiXiXiXiXiXiXiXiXiXiXiXiXiXiXiXiXiXiXiXiXiXiXiXiXiXiXiXiXiXiXiXiXiXiXiXiXiXiXiXiXiX",
"iXiXiXiXiXiXiXiXiXiXiXiXiXiXiXiXiXiXiXiXiXiXiXiXiXiXiXiXiXiXiXiXiXiXiXiXiXiXiXiXiXiXiXiXiXiXiXiXiXiXiXiXiXiXiXiXiXiXiXiXiXiXiXiX",
"iXiXiXiXiXiXiXiXiXiXiXiXiXiXiXiXiXiXiXiXiXiXiXiXiXiXiXiXiXiXiXiXiXiXiXiXiXiXiXiXiXiXiXiXiXiXiXiXiXiXiXiXiXiXiXiXiXiXiXiXiXiXiXiX",
"iXiXiXiXiXiXiXiXiXiXiXiXiXpXiXiXiXiXiXiXiXpXiXiXiXiXiXpXpXpXpXiXiXiXiXiXiXiXiXiXiXiXiXiXpXpXpXiXpXpXiXiXiXiXpXpXiXiXiXiXiXiXiXiX",
"iXiXiXiXiXiXiXiXiXiXiXtXsXiXtXtXtXtXtXtXsXsXsXsXsXsXiXtXtXtXtXtXiXsXsXsXsXaXsXyXyXyX7XyX7XyXsXsXsXpXpXiXpXiXpXpXpXiXiXiXiXiXiXiX",
"iXiXiXiXiXiXiXiXiXiX5   @ @ .   @ @ $ $ $ . $ $ $ $ $ . @ $ $ % $ . $ $ % @ @ .   @ @ @ @   X @ @ # @ . % & & <   . 3XiXiXiXiXiX",
"iXiXiXiXiXiXiXiXiX< 8 }  .| ^ 6 |  . . .| e u  . . .| q '  . . .] 2 ]  . .} i 4 r  . .| ] 2 '  .} 0 1 2 }  . .} 6 u . sXiXiXiXiX",
"iXiXiXiXiXiXiXiXiXO y ~ / / ^ 3 ~ ~ ~ ~ ] e e ~ ~ ~ ] 9 e ^ ~ ^ ] 2 w t t < R B < t 0 9 0 @ 3 0 3 N t.* 0 e y y 4 ' 2 3XiXiXiXiX",
"iXiXiXiXiXiXiXiXiX+ 6 W W ~ ^ 2 q y ! ! ^ u 2 t ~ ! ' u & w W E q = P R L l &XT.G r.u.a.a.a.a.u.A U.,XS 3.3.Y A = y 5 5XiXiXiXiX",
"iXiXiXiXiXiXiXiXiX+ 1 y E E ^ ^ 2 e ! ! ! ' y q W W u ' u 2 y e * U C.%X%Xr.E.T.B.:X>X>X:X:X%X$XI.E.%Xi.$X%X$X$XI.= * O Q yXiXiX",
"iXiXiXiXiXiXiXiXiXO + 1 5 y u ' e e ! ! ! ~ ^ 9 E E u e ' 2 e 8 , U 5.v.u.U s.5.r.[.@X#X@X#X@X@Xy.T.*Xu.@X$X%X$X'.h ,.q.Z X iXiX",
"iXiXiXiXiXiXiXiXt D D.T : 5 u / w w W W ~ ! ^ 6 r e 0 5 5 $ 1 = p v v v v v S n M 3.5.7.u.v.v.c.5.T.&X2.N.C.C.n.7.m l.l.j.* 7XyX",
"iXiXiXiXiXiXiX7XT {.{.{.T 5 W t & 0 y y y ! w & ; = j H ,.y.a.b.I.b.b.b.I.B.n.x.8.U n P 8.h.N.n.:.s.m.n z.b.n.b.,.G l.^.k.* pXpX",
"iXiXiXiXpXpXiX5XD.}.K./.D.; 8 % 6 t r t E t + > 3.n.(.'.'..XR.R.h.y.y.p.a.u.y.8.z.n.c.K g j z v p P B s h l l l v 1.j.l.j.* pXpX",
"iXiXiXiXpXpXpXpX0.}.K.K.P.N O # 1 3 5 3 7 + z n.'..XXXR.w.u.b.[.oX%X:X,X:X%X=X#XT.u.8.n.8.p H y.A j j b n G G :.<.7.f.j.1.* iXiX",
"iXiXiXiXiXiXiXiXD }.K.K.^./.g.,.L F F - * K V..X X.Xe.m.#X,X%XoXI.I.e.e.a.e.q.I.+X%X[.u.c.x.d K c.6.G A 2.H G 2.>.<.<.1.>.- yXiX",
"iXiXiXiXiXiXiXiX: XXK.K.K.K.K.l.K.l.q.> 3.Y.XX}.I.u.[.,XoXa.e.J.R..X'.'.'.'.R.R.G.w.[.*Xv.u.c.z g - c c z c.g.g.g.h.h.g.h _ qXiX",
"iXiXiXiXiXiXiXiX7 P.^.K.K.K.l.d.,.K p J ).OX1Xr.a.=XE.r.G.XX].'.(.S.V.S.u.H 4.N._..Xe.I.*Xm.8.N.Y.z &.&.c a G :.C d 7 _ pXiXiXiX",
"iXiXiXiXiXiXiXiX` G./.l.K.l.M.d.G h G Y.OX~.t.m.<XF.F.;XXX).S.V.S.S.V.N.A o.A 4.n.(.].J.6.&XC.u.z.Z #.5XwXf q.y.H   iXiXpXiXiXiX",
"iXiXiXiXiXiXiXiXiXN K.M.f.f.d.>.v h B.XXOXt.T.<XF.F.1X}.(.S.N.x.7.3.K H ..-.M v A y.B.).R.q.c.T.u.G A.lXbX-.P Y 3.= yXiXiXiXiXiX",
"iXiXiXiXiXiXiXiXiXQ 9.j.d.7.>.b p 7.'.{.e.v.=XU.r.W.OXR.B.6.L e.h.I.Y.L.O.4XI w.F Z 6.V.(.Y.u.:.4.U $.bXbX0XM 5.V.k sXtXiXiXiXiX",
"pXyX&.Q e 8 8 8 ` 3Xd k.2.m k - j r.y.,.P s.s.m S S F S A R +XXXY.S.V.N.3XeXI y.I.v L b.8.Z.o.2.n.I.N gXgX*.k m.].D tXtXiXiXiXiX",
"yX;. .0X4X;.*.5   ; o h s s s s k k k k k P x s a s p p S ~.;X'.'..X'.B.6XgXI u.V.9.H Y 7X7XA.O.U Y.,.$.3X` k Y.].R 3XwXiXiXiXiX",
"pXt lXaXdXaX6Xy } } @.%.%.-.-.*.*.%.*.*.*.*.*.%.$.@.X.) D 2X1X|. X|.|.Y.9XfXP b.S.b.S 4XhXA.o.o.I a.h.V #.Q j Y./.r.&.iXiXiXiXiX",
"qX/ xXzXxXxXrX} 8XwXwXaXeX9X0XwXwXeXwXeXwXrXwXwXwXwX0X4Xp.2X2X;X|.|.|.R.eXfXI n.S.G.A yXgXsX%.` I y.Y.C k > m T.].t.$.iXiXiXiXiX",
"wX} bXbXbXbXgX;.zXvXvXvXcXxXxXxXxXxXxXxXcXvXxXxXxXzXzXjX!.2X2X;X|.|.|..XeXgXI b.S.Y.C Q.lXQ...$.I u.Y.b.A s 3.'.{.a.@.iXiXiXiXiX",
"yX} xXxXxXzXrX-.hXjXjXjXkXkXkXkXkXkXkXkXkXkXjXjXjXjXjXaX!.~.2X X|.|.|.].rXgXP c.S.h.C ,.Q.yX&.I Y B._.9.k s 2.'./.e.@.iXiXiXiXiX",
"wXu xXaXiXiX9X_ 4X8X8X6X8X8X7X8X8X8X0X0X0X0X0X8X8X8X6X3Xt.2X+X X|.|. X'.rXgXI n.(.y.A r.x.8.8.i.N.S.Y.v V s M _.].r.$.iXiXiXiXiX",
"pX2 hXrX9X6X-.8 2 Q 0 V Q ) ) ) o.o.X.O.#.#.#.@.#.#.o.V R 1X[.'.XX X}.V.rXfXP z.(.q.A r.S.S.S.S.S.).w...%.) k T.].D =.iXiXiXiXiX",
"yX3X! *.[ [ ! . =.iXO :.n l p - k A S x v Y P g a p p a A W.[.V.(.'.).x.rXfXA r.b.F S i.S.S.S.S.(.].L 3X8XX.k Y./.N 7XiXiXiXiXiX",
"iXiXiX7X5X5X7XiXiX=.z j.:.G n a s u.b.b.A s.F.Y L a.I.b.4.Y I.Y.Y.Y.Y.q.3X6XS u.w.l 4.B.S.(.'._.B.e...zXzX5Xx v.Y.> sXyXiXiXiXiX",
"iXiXiXiXiXiXiXiXiX* g.g.7.<.:.G a ,.(.XXU.6.&XW.4.W.;X].S.x.,.K ,.q.h.,.&.-.A 9.z A z.(.'.R.u.6.s.4.=.cXbX6XP 5.5.o iXtXiXiXiXiX",
"iXiXiXiXiXiXiXiX=.L ^.j.M.f.d.:.m p x.].1XW.u.=X~.r.~.OX).S.S.N.c.x.y.U O.#.v S 4.n.)..XG.6.T.T.3.l =.gXlX_ q.q.k + iXwXiXiXiXiX",
"iXiXiXiXiXiXiXiX8 J.^.l.l.l.f.d.G n g n.OX1XI.6.=X~.0.U.}.'._.S.S.S.S.B.b k L n.V._..Xa.m.&Xu.c.Y.v #.A.$.p l h p o   = 3XyXiXiX",
"iXiXiXiXiXiXiXiX: /.^.l.K.K.k.M.1.9.h j b..XXXJ.,.oX<XI.e.I.{..X'._.(.(.N.n.Y._.].J.9.R.*X8.x.i.9.j &.X., Z q.k.h.q.9.C o ` iXiX",
"iXiXiXiXiXiXiXiXN {.l.K.K.K.K.L.L.k.i.> l n.'.{.{.e.m.*X>XoXI.u.G.P.R.R.R.R.J.G.w.U.#X&X6.n.,.a A z a k ,.,.1.,.,.<.1.g.J   yXyX",
"iXiXiXiXiXiXiXpXT {.K.K.P.H.F h d > : * * a n.(..XXXR.q.m.oX,X=X+XR.R.I.R.U.R.oX%X+Xm.y.n.:.j 8.3.G S K G G G :.<.1.1.<.:.o iXiX",
"iXiXiXiXiXpXiX4X0./.K.K.H.: # % 5 0 w w 0 3 - 3.B.(.).).Y.b.a.b.I.R.oX#X#X&XE.m.i.y.x.z.Z - A A j p p k b b v G <.1.M.k.1.o iXiX",
"iXiXiXiXiXyXyX7XD.{.K.P.0.; t 1 2 w y r y y < O s 3.x.N.Y._.].R.Y.b.i.a.a.a.n.n.N.n.,.v F L ,.,.d Y r.g J H K K h :.l.^.k.o iXiX",
"iXiXiXiXiXiXiXiXf H.{.{.C 5 t y 3 0 ! y E E e 1 8 1 ; , d v K Y 6.r.y.y.u.y.u.3.G b A 6.n.n.n.n.U s.T.U v.v.v.n.6.h l.K.k.o iXiX",
"iXiXiXiXiXiXiXiXqX> N : + e E ~ w e W ! W E y 6 y y r e e & 8 7 , x n U U z Y P U p.m.T.V.T.C.C.2.T.*X3.'.[.[.`.v.j j.K.g.O pXyX",
"iXiXiXiXiXiXiXiXiX. < 0 t E W ' q e ! ! ! ~ ! 6 E E E u ^ 2 y 0 ; 5.v.[.[.5.F.p.E.>X>X>X>X:X%X%Xm.T.*Xa.>X>X>X>XoX> l C - @.pXiX",
"iXiXiXiXiXiXiXiXiX. 2 E W ! ' r % y ! ! ~ ' 9 6 W W ^ ' w 2 E y = x v.[..X4.T.T.z..X@X@X@X@X@X@Xi.R.,X4.T.'.`.U.L = @ A.yXiXiXiX",
"iXiXiXiXiXiXiXiXiX  e E W ( ^ < t ! W ! ' r 3 y ! ~ ] 0 2 y W ~ u # = , , > T.v.f N z x z x x x s D.%Xf s s , ; = y 5 3XiXiXiXiX",
"iXiXiXiXiXiXiXiXiX. ~ ( / ' i 4 / ( ( ( ] r r ( ( ( ] 6 ~ ( ( ( ] 2 y / ^ w 7 ; 6 ~ W W ~ 2 e ~ t ; k % W / / ~ 6 ^ < 7XiXiXiXiX",
"iXiXiXiXiXiXiXiXiXtX@ u ' ' r & ( ' ' ' ' 2 w ' ' ' ^ & y / ' ' / $ y ' ( ' ! & 3 ' ( ' ^ % r ' / 5 2 $ / ' { ( & 1 _ iXiXiXiXiX",
"iXiXiXiXiXiXiXiXiXiXiX=.+.X.` ` ` ` ` ` +.+.+.+.+.+.` ` ` X.` ` X.+.+.+.+.+.+.X.` ` ` ` ` +.+.+.@.@.$.$.+.+.+.@.@.7XwXtXiXiXiXiX",
"iXiXiXiXiXiXiXiXiXiXiXiXpXiXiXiXiXiXiXiXiXiXiXiXwXyXiXiXiXiXiXiXiXiXiXiXiXiXiXiXiXiXiXiXiXiXiXiXiXiXwXyXyXpXiXiXiXiXpXiXiXiXiXiX",
"iXiXiXiXiXiXiXiXiXiXiXiXiXiXiXiXiXiXiXiXiXiXiXiXiXyXiXiXiXiXiXiXiXiXiXiXiXiXiXiXiXiXiXiXiXiXiXiXiXiXyXiXpXpXiXyXiXiXiXiXiXiXiXiX",
"iXiXiXiXiXiXiXiXiXiXiXiXiXiXiXiXiXiXiXiXiXiXiXiXiXiXiXiXiXiXiXiXiXiXiXiXiXiXiXiXiXiXiXiXiXiXiXiXiXiXiXiXpXpXpXyXiXiXiXiXiXiXiXiX",
"iXiXiXiXiXiXiXiXiXiXiXiXiXiXiXiXiXiXiXiXiXiXiXiXiXiXiXiXiXiXiXiXiXiXiXiXiXiXiXiXiXiXiXiXiXiXiXiXiXiXiXiXyXpXwXyXiXiXiXiXiXiXiXiX",
"iXiXiXiXiXiXiXiXiXiXiXiXiXiXiXiXiXiXiXiXiXiXiXiXiXiXiXiXiXiXiXiXiXiXiXiXiXiXiXiXiXiXiXiXiXiXiXiXiXiXiXiXiXiXiXiXiXiXiXiXiXiXiXiX",
"iXiXiXiXiXiXiXiXiXiXiXiXiXiXiXiXiXiXiXiXiXiXiXiXiXiXiXiXiXiXiXiXiXiXiXiXiXiXiXiXiXiXiXiXiXiXiXiXiXiXiXiXiXiXiXiXiXiXiXiXiXiXiXiX",
"iXiXiXiXiXiXiXiXiXiXiXiXiXiXiXiXiXiXiXiXiXiXiXiXiXiXiXiXiXiXiXiXiXiXiXiXiXiXiXiXiXiXiXiXiXiXiXiXiXiXiXiXiXiXiXiXiXiXiXiXiXiXiXiX",
"iXiXiXiXiXiXiXiXiXiXiXiXiXiXiXiXiXiXiXiXiXiXiXiXiXiXiXiXiXiXiXiXiXiXiXiXiXiXiXiXiXiXiXiXiXiXiXiXiXiXiXiXiXiXiXiXiXiXiXiXiXiXiXiX",
"iXiXiXiXiXiXiXiXiXiXiXiXiXiXiXiXiXiXiXiXiXiXiXiXiXiXiXiXiXiXiXiXiXiXiXiXiXiXiXiXiXiXiXiXiXiXiXiXiXiXiXiXiXiXiXiXiXiXiXiXiXiXiXiX",
"iXiXiXiXiXiXiXiXiXiXiXiXiXiXiXiXiXiXiXiXiXiXiXiXiXiXiXiXiXiXiXiXiXiXiXiXiXiXiXiXiXiXiXiXiXiXiXiXiXiXiXiXiXiXiXiXiXiXiXiXiXiXiXiX",
"iXiXiXiXiXiXiXiXiXiXiXiXiXiXiXiXiXiXiXiXiXiXiXiXiXiXiXiXiXiXiXiXiXiXiXiXiXiXiXiXiXiXiXiXiXiXiXiXiXiXiXiXiXiXiXiXiXiXiXiXiXiXiXiX",
"iXiXiXiXiXiXiXiXiXiXiXiXiXiXiXiXiXiXiXiXiXiXiXiXiXiXiXiXiXiXiXiXiXiXiXiXiXiXiXiXiXiXiXiXiXiXiXiXiXiXiXiXiXiXiXiXiXiXiXiXiXiXiXiX"
};
